<?xml version="1.0" encoding="utf-8" standalone="no"?>
<!DOCTYPE svg PUBLIC "-//W3C//DTD SVG 1.1//EN"
  "http://www.w3.org/Graphics/SVG/1.1/DTD/svg11.dtd">
<!-- Created with matplotlib (https://matplotlib.org/) -->
<svg height="126.79731pt" version="1.1" viewBox="0 0 279.318726 126.79731" width="279.318726pt" xmlns="http://www.w3.org/2000/svg" xmlns:xlink="http://www.w3.org/1999/xlink">
 <defs>
  <style type="text/css">
*{stroke-linecap:butt;stroke-linejoin:round;}
  </style>
 </defs>
 <g id="figure_1">
  <g id="patch_1">
   <path d="M 0 126.79731 
L 279.318726 126.79731 
L 279.318726 -0 
L 0 -0 
z
" style="fill:#ffffff;"/>
  </g>
  <g id="axes_1">
   <g id="patch_2">
    <path d="M 40.727276 97.04265 
L 263.927276 97.04265 
L 263.927276 19.42665 
L 40.727276 19.42665 
z
" style="fill:#ffffff;"/>
   </g>
   <g id="matplotlib.axis_1">
    <g id="xtick_1">
     <g id="line2d_1">
      <path clip-path="url(#p1f3208d8bb)" d="M 60.396171 97.04265 
L 60.396171 19.42665 
" style="fill:none;stroke:#cccccc;stroke-dasharray:1,1.65;stroke-dashoffset:0;"/>
     </g>
     <g id="text_1">
      <!-- $-1.00$ -->
      <defs>
       <path d="M 65.90625 23 
C 67.59375 23 69.40625 23 69.40625 25 
C 69.40625 27 67.59375 27 65.90625 27 
L 11.796875 27 
C 10.09375 27 8.296875 27 8.296875 25 
C 8.296875 23 10.09375 23 11.796875 23 
z
" id="CMSY10-0"/>
       <path d="M 26.59375 63.40625 
C 26.59375 65.5 26.5 65.5 25.09375 65.5 
C 21.203125 61.1875 15.296875 59.796875 9.703125 59.796875 
C 9.40625 59.796875 8.90625 59.796875 8.796875 59.5 
C 8.703125 59.296875 8.703125 59.09375 8.703125 57 
C 11.796875 57 17 57.59375 21 59.984375 
L 21 7.203125 
C 21 3.6875 20.796875 2.5 12.203125 2.5 
L 9.203125 2.5 
L 9.203125 0 
C 14 0 19 0 23.796875 0 
C 28.59375 0 33.59375 0 38.40625 0 
L 38.40625 2.5 
L 35.40625 2.5 
C 26.796875 2.5 26.59375 3.59375 26.59375 7.15625 
z
" id="CMR17-49"/>
       <path d="M 18.40625 4.796875 
C 18.40625 7.6875 16 9.671875 13.59375 9.671875 
C 10.703125 9.671875 8.703125 7.28125 8.703125 4.890625 
C 8.703125 2 11.09375 0 13.5 0 
C 16.40625 0 18.40625 2.390625 18.40625 4.796875 
z
" id="CMMI12-58"/>
       <path d="M 42 31.640625 
C 42 37.75 41.90625 48.125 37.703125 56.109375 
C 34 63.109375 28.09375 65.59375 22.90625 65.59375 
C 18.09375 65.59375 12 63.40625 8.203125 56.203125 
C 4.203125 48.71875 3.796875 39.4375 3.796875 31.640625 
C 3.796875 25.953125 3.90625 17.28125 7 9.671875 
C 11.296875 -0.609375 19 -2 22.90625 -2 
C 27.5 -2 34.5 -0.109375 38.59375 9.375 
C 41.59375 16.28125 42 24.359375 42 31.640625 
z
M 22.90625 -0.40625 
C 16.5 -0.40625 12.703125 5.078125 11.296875 12.6875 
C 10.203125 18.5625 10.203125 27.15625 10.203125 32.75 
C 10.203125 40.4375 10.203125 46.828125 11.5 52.921875 
C 13.40625 61.390625 19 64 22.90625 64 
C 27 64 32.296875 61.296875 34.203125 53.125 
C 35.5 47.4375 35.59375 40.734375 35.59375 32.75 
C 35.59375 26.25 35.59375 18.265625 34.40625 12.375 
C 32.296875 1.484375 26.40625 -0.40625 22.90625 -0.40625 
z
" id="CMR17-48"/>
      </defs>
      <g style="fill:#262626;" transform="translate(48.620961 106.7693)scale(0.09 -0.09)">
       <use transform="scale(0.996264)" xlink:href="#CMSY10-0"/>
       <use transform="translate(77.487468 0)scale(0.996264)" xlink:href="#CMR17-49"/>
       <use transform="translate(123.177945 0)scale(0.996264)" xlink:href="#CMMI12-58"/>
       <use transform="translate(150.275122 0)scale(0.996264)" xlink:href="#CMR17-48"/>
       <use transform="translate(195.965599 0)scale(0.996264)" xlink:href="#CMR17-48"/>
      </g>
     </g>
    </g>
    <g id="xtick_2">
     <g id="line2d_2">
      <path clip-path="url(#p1f3208d8bb)" d="M 85.837559 97.04265 
L 85.837559 19.42665 
" style="fill:none;stroke:#cccccc;stroke-dasharray:1,1.65;stroke-dashoffset:0;"/>
     </g>
     <g id="text_2">
      <!-- $-0.75$ -->
      <defs>
       <path d="M 45.09375 61.578125 
L 45.09375 63.765625 
L 21.59375 63.765625 
C 9.90625 63.765625 9.703125 65.078125 9.296875 67 
L 7.5 67 
L 4.59375 48.34375 
L 6.40625 48.34375 
C 6.703125 50.234375 7.40625 55.3125 8.59375 57.203125 
C 9.203125 58 16.59375 58 18.296875 58 
L 40.296875 58 
L 29.203125 41.578125 
C 21.796875 30.53125 16.703125 15.609375 16.703125 2.578125 
C 16.703125 1.390625 16.703125 -2 20.296875 -2 
C 23.90625 -2 23.90625 1.390625 23.90625 2.671875 
L 23.90625 7.265625 
C 23.90625 23.5625 26.703125 34.3125 31.296875 41.1875 
z
" id="CMR17-55"/>
       <path d="M 11.40625 57.6875 
C 12.40625 57.28125 16.5 56 20.703125 56 
C 30 56 35.09375 61.109375 38 64.0625 
C 38 64.953125 38 65.5 37.40625 65.5 
C 37.296875 65.5 37.09375 65.5 36.296875 65.046875 
C 32.796875 63.40625 28.703125 62.078125 23.703125 62.078125 
C 20.703125 62.078125 16.203125 62.484375 11.296875 64.671875 
C 10.203125 65.171875 10 65.171875 9.90625 65.171875 
C 9.40625 65.171875 9.296875 65.0625 9.296875 63.078125 
L 9.296875 34.421875 
C 9.296875 32.640625 9.296875 32.140625 10.296875 32.140625 
C 10.796875 32.140625 11 32.34375 11.5 33.03125 
C 14.703125 37.515625 19.09375 39.40625 24.09375 39.40625 
C 27.59375 39.40625 35.09375 37.21875 35.09375 20.140625 
C 35.09375 16.953125 35.09375 11.171875 32.09375 6.578125 
C 29.59375 2.484375 25.703125 0.390625 21.40625 0.390625 
C 14.796875 0.390625 8.09375 5 6.296875 12.71875 
C 6.703125 12.609375 7.5 12.421875 7.90625 12.421875 
C 9.203125 12.421875 11.703125 13.125 11.703125 16.21875 
C 11.703125 18.90625 9.796875 20 7.90625 20 
C 5.59375 20 4.09375 18.59375 4.09375 15.796875 
C 4.09375 7.09375 11 -2 21.59375 -2 
C 31.90625 -2 41.703125 6.875 41.703125 19.75 
C 41.703125 31.71875 33.90625 41 24.203125 41 
C 19.09375 41 14.796875 39.109375 11.40625 35.53125 
z
" id="CMR17-53"/>
      </defs>
      <g style="fill:#262626;" transform="translate(74.062349 106.7693)scale(0.09 -0.09)">
       <use transform="scale(0.996264)" xlink:href="#CMSY10-0"/>
       <use transform="translate(77.487468 0)scale(0.996264)" xlink:href="#CMR17-48"/>
       <use transform="translate(123.177945 0)scale(0.996264)" xlink:href="#CMMI12-58"/>
       <use transform="translate(150.275122 0)scale(0.996264)" xlink:href="#CMR17-55"/>
       <use transform="translate(195.965599 0)scale(0.996264)" xlink:href="#CMR17-53"/>
      </g>
     </g>
    </g>
    <g id="xtick_3">
     <g id="line2d_3">
      <path clip-path="url(#p1f3208d8bb)" d="M 111.278947 97.04265 
L 111.278947 19.42665 
" style="fill:none;stroke:#cccccc;stroke-dasharray:1,1.65;stroke-dashoffset:0;"/>
     </g>
     <g id="text_3">
      <!-- $-0.50$ -->
      <g style="fill:#262626;" transform="translate(99.503738 106.7693)scale(0.09 -0.09)">
       <use transform="scale(0.996264)" xlink:href="#CMSY10-0"/>
       <use transform="translate(77.487468 0)scale(0.996264)" xlink:href="#CMR17-48"/>
       <use transform="translate(123.177945 0)scale(0.996264)" xlink:href="#CMMI12-58"/>
       <use transform="translate(150.275122 0)scale(0.996264)" xlink:href="#CMR17-53"/>
       <use transform="translate(195.965599 0)scale(0.996264)" xlink:href="#CMR17-48"/>
      </g>
     </g>
    </g>
    <g id="xtick_4">
     <g id="line2d_4">
      <path clip-path="url(#p1f3208d8bb)" d="M 136.720335 97.04265 
L 136.720335 19.42665 
" style="fill:none;stroke:#cccccc;stroke-dasharray:1,1.65;stroke-dashoffset:0;"/>
     </g>
     <g id="text_4">
      <!-- $-0.25$ -->
      <defs>
       <path d="M 41.703125 15.453125 
L 39.90625 15.453125 
C 38.90625 8.375 38.09375 7.171875 37.703125 6.5625 
C 37.203125 5.765625 30 5.765625 28.59375 5.765625 
L 9.40625 5.765625 
C 13 9.671875 20 16.75 28.5 24.953125 
C 34.59375 30.734375 41.703125 37.53125 41.703125 47.421875 
C 41.703125 59.21875 32.296875 66 21.796875 66 
C 10.796875 66 4.09375 56.3125 4.09375 47.34375 
C 4.09375 43.4375 7 42.9375 8.203125 42.9375 
C 9.203125 42.9375 12.203125 43.546875 12.203125 47.03125 
C 12.203125 50.109375 9.59375 51 8.203125 51 
C 7.59375 51 7 50.90625 6.59375 50.703125 
C 8.5 59.21875 14.296875 63.40625 20.40625 63.40625 
C 29.09375 63.40625 34.796875 56.515625 34.796875 47.421875 
C 34.796875 38.734375 29.703125 31.25 24 24.75 
L 4.09375 2.28125 
L 4.09375 0 
L 39.296875 0 
z
" id="CMR17-50"/>
      </defs>
      <g style="fill:#262626;" transform="translate(124.945126 106.7693)scale(0.09 -0.09)">
       <use transform="scale(0.996264)" xlink:href="#CMSY10-0"/>
       <use transform="translate(77.487468 0)scale(0.996264)" xlink:href="#CMR17-48"/>
       <use transform="translate(123.177945 0)scale(0.996264)" xlink:href="#CMMI12-58"/>
       <use transform="translate(150.275122 0)scale(0.996264)" xlink:href="#CMR17-50"/>
       <use transform="translate(195.965599 0)scale(0.996264)" xlink:href="#CMR17-53"/>
      </g>
     </g>
    </g>
    <g id="xtick_5">
     <g id="line2d_5">
      <path clip-path="url(#p1f3208d8bb)" d="M 162.161723 97.04265 
L 162.161723 19.42665 
" style="fill:none;stroke:#cccccc;stroke-dasharray:1,1.65;stroke-dashoffset:0;"/>
     </g>
     <g id="text_5">
      <!-- $0.00$ -->
      <g style="fill:#262626;" transform="translate(153.970273 106.7693)scale(0.09 -0.09)">
       <use transform="scale(0.996264)" xlink:href="#CMR17-48"/>
       <use transform="translate(45.690477 0)scale(0.996264)" xlink:href="#CMMI12-58"/>
       <use transform="translate(72.787654 0)scale(0.996264)" xlink:href="#CMR17-48"/>
       <use transform="translate(118.478131 0)scale(0.996264)" xlink:href="#CMR17-48"/>
      </g>
     </g>
    </g>
    <g id="xtick_6">
     <g id="line2d_6">
      <path clip-path="url(#p1f3208d8bb)" d="M 187.603111 97.04265 
L 187.603111 19.42665 
" style="fill:none;stroke:#cccccc;stroke-dasharray:1,1.65;stroke-dashoffset:0;"/>
     </g>
     <g id="text_6">
      <!-- $0.25$ -->
      <g style="fill:#262626;" transform="translate(179.411661 106.7693)scale(0.09 -0.09)">
       <use transform="scale(0.996264)" xlink:href="#CMR17-48"/>
       <use transform="translate(45.690477 0)scale(0.996264)" xlink:href="#CMMI12-58"/>
       <use transform="translate(72.787654 0)scale(0.996264)" xlink:href="#CMR17-50"/>
       <use transform="translate(118.478131 0)scale(0.996264)" xlink:href="#CMR17-53"/>
      </g>
     </g>
    </g>
    <g id="xtick_7">
     <g id="line2d_7">
      <path clip-path="url(#p1f3208d8bb)" d="M 213.044499 97.04265 
L 213.044499 19.42665 
" style="fill:none;stroke:#cccccc;stroke-dasharray:1,1.65;stroke-dashoffset:0;"/>
     </g>
     <g id="text_7">
      <!-- $0.50$ -->
      <g style="fill:#262626;" transform="translate(204.853049 106.7693)scale(0.09 -0.09)">
       <use transform="scale(0.996264)" xlink:href="#CMR17-48"/>
       <use transform="translate(45.690477 0)scale(0.996264)" xlink:href="#CMMI12-58"/>
       <use transform="translate(72.787654 0)scale(0.996264)" xlink:href="#CMR17-53"/>
       <use transform="translate(118.478131 0)scale(0.996264)" xlink:href="#CMR17-48"/>
      </g>
     </g>
    </g>
    <g id="xtick_8">
     <g id="line2d_8">
      <path clip-path="url(#p1f3208d8bb)" d="M 238.485888 97.04265 
L 238.485888 19.42665 
" style="fill:none;stroke:#cccccc;stroke-dasharray:1,1.65;stroke-dashoffset:0;"/>
     </g>
     <g id="text_8">
      <!-- $0.75$ -->
      <g style="fill:#262626;" transform="translate(230.294438 106.7693)scale(0.09 -0.09)">
       <use transform="scale(0.996264)" xlink:href="#CMR17-48"/>
       <use transform="translate(45.690477 0)scale(0.996264)" xlink:href="#CMMI12-58"/>
       <use transform="translate(72.787654 0)scale(0.996264)" xlink:href="#CMR17-55"/>
       <use transform="translate(118.478131 0)scale(0.996264)" xlink:href="#CMR17-53"/>
      </g>
     </g>
    </g>
    <g id="xtick_9">
     <g id="line2d_9">
      <path clip-path="url(#p1f3208d8bb)" d="M 263.927276 97.04265 
L 263.927276 19.42665 
" style="fill:none;stroke:#cccccc;stroke-dasharray:1,1.65;stroke-dashoffset:0;"/>
     </g>
     <g id="text_9">
      <!-- $1.00$ -->
      <g style="fill:#262626;" transform="translate(255.735826 106.7693)scale(0.09 -0.09)">
       <use transform="scale(0.996264)" xlink:href="#CMR17-49"/>
       <use transform="translate(45.690477 0)scale(0.996264)" xlink:href="#CMMI12-58"/>
       <use transform="translate(72.787654 0)scale(0.996264)" xlink:href="#CMR17-48"/>
       <use transform="translate(118.478131 0)scale(0.996264)" xlink:href="#CMR17-48"/>
      </g>
     </g>
    </g>
    <g id="text_10">
     <!-- Moral score -->
     <defs>
      <path d="M 49.90625 37.046875 
L 45.09375 23.015625 
C 44.296875 20.421875 41.59375 12.359375 41 9.171875 
L 40.90625 9.171875 
C 40.59375 11.171875 40 13.265625 38.40625 18.34375 
C 37.5 21.328125 36.5 24.40625 35.5 27.203125 
L 20.703125 69 
L 9 69 
L 9 0 
L 16.796875 0 
L 16.796875 60.9375 
L 16.90625 60.9375 
C 16.90625 60.84375 17.796875 56.453125 23.90625 39.046875 
L 37.09375 1.5 
L 44.5 1.5 
L 56.40625 34.859375 
C 57.203125 37.15625 59.703125 44.421875 60.796875 47.90625 
C 61.796875 50.890625 64.296875 58.25 64.90625 61.140625 
L 65 61.140625 
L 65 0 
L 72.90625 0 
L 72.90625 69 
L 61.296875 69 
z
" id="CMSS17-77"/>
      <path d="M 44.203125 21.1875 
C 44.203125 34 34.703125 44 23.5 44 
C 12 44 2.703125 33.703125 2.703125 21.1875 
C 2.703125 8.5 12.296875 -1 23.40625 -1 
C 34.796875 -1 44.203125 8.796875 44.203125 21.1875 
z
M 23.5 5.265625 
C 16.40625 5.265625 10.296875 11.078125 10.296875 22 
C 10.296875 33.609375 17.40625 37.921875 23.40625 37.921875 
C 29.90625 37.921875 36.59375 33.21875 36.59375 22 
C 36.59375 10.671875 30.09375 5.265625 23.5 5.265625 
z
" id="CMSS17-111"/>
      <path d="M 14.90625 21.296875 
C 14.90625 30.703125 21.796875 37 30.59375 37 
L 30.59375 43.578125 
C 24.203125 43.578125 18.203125 40.390625 14.59375 35.203125 
L 14.59375 43.09375 
L 7.5 43.09375 
L 7.5 0 
L 14.90625 0 
z
" id="CMSS17-114"/>
      <path d="M 37.59375 27.984375 
C 37.59375 37.375 30.90625 43.875 21.90625 43.875 
C 17.5 43.875 12.703125 43.078125 7.203125 39.890625 
L 7.796875 33.359375 
C 10.296875 35.125 14.59375 38 21.796875 38 
C 26.90625 38 30 34.0625 30 27.84375 
L 30 24 
C 14 24 4 19.34375 4 11.34375 
C 4 7.203125 6.5 -1 14.796875 -1 
C 16.296875 -1 24.40625 -1 30.203125 3.390625 
L 30.203125 -0.296875 
L 37.59375 -0.296875 
z
M 30 12.75 
C 30 10.953125 30 8.5625 27 6.78125 
C 24.40625 5.078125 21.09375 5.078125 19.703125 5.078125 
C 14.703125 5.078125 11.296875 7.984375 11.296875 11.625 
C 11.296875 18.921875 26.90625 18.921875 30 18.921875 
z
" id="CMSS17-97"/>
      <path d="M 14.796875 69 
L 7.40625 69 
L 7.40625 0 
L 14.796875 0 
z
" id="CMSS17-108"/>
      <path d="M 32.203125 41.046875 
C 26.296875 43.859375 21.703125 43.859375 18.703125 43.859375 
C 11.59375 43.859375 3.09375 41.375 3.09375 31.296875 
C 3.09375 21.234375 14.09375 19.03125 17.09375 18.421875 
C 21.703125 17.53125 26.796875 16.53125 26.796875 11.5625 
C 26.796875 5.265625 19.59375 5.265625 18.296875 5.265625 
C 14.296875 5.265625 8.796875 6.359375 3.796875 9.96875 
L 2.59375 3.28125 
C 8.296875 0 13.796875 -1 18.40625 -1 
C 30.703125 -1 33.796875 6.5 33.796875 12.203125 
C 33.796875 17.09375 31 20.390625 29.09375 21.890625 
C 25.796875 24.5 24.59375 24.796875 16.40625 26.5 
C 15 26.703125 10.09375 27.796875 10.09375 32.28125 
C 10.09375 38 16.40625 38 17.796875 38 
C 24.296875 38 28.296875 35.984375 31 34.5 
z
" id="CMSS17-115"/>
      <path d="M 38.5 39.703125 
C 38.5 40.390625 33.90625 42.40625 32.703125 42.796875 
C 29.40625 44 25.203125 44 24.09375 44 
C 11.09375 44 3.296875 32.703125 3.296875 21.296875 
C 3.296875 9.296875 12 -1 23.703125 -1 
C 30.40625 -1 35.203125 1.1875 39.09375 3.78125 
L 38.5 10.375 
C 34.203125 7.078125 29.203125 5.265625 23.796875 5.265625 
C 16 5.265625 10.90625 12.09375 10.90625 21.390625 
C 10.90625 28.609375 14.203125 37.71875 24.203125 37.71875 
C 29.703125 37.71875 32.796875 36.609375 37.40625 33.515625 
z
" id="CMSS17-99"/>
      <path d="M 39.09375 21.515625 
C 39.09375 24.84375 38.90625 31.296875 35.703125 36.640625 
C 32.203125 42.390625 26.5 44 22.203125 44 
C 11.796875 44 3 34.1875 3 21.484375 
C 3 9.09375 12.09375 -1 23.59375 -1 
C 28.09375 -1 33.59375 0.296875 38.59375 3.875 
C 38.59375 4.28125 38.40625 6.46875 38.296875 6.5625 
C 38.296875 6.765625 38 9.84375 38 10.25 
C 33.203125 6.359375 27.703125 5.078125 23.703125 5.078125 
C 17.296875 5.078125 10.40625 10.421875 10.09375 21.515625 
z
M 10.90625 27 
C 12.203125 32.5625 16.59375 37.828125 22.203125 37.828125 
C 23.703125 37.828125 30.703125 37.828125 32.5 27 
z
" id="CMSS17-101"/>
     </defs>
     <g style="fill:#262626;" transform="translate(131.899432 118.047564)scale(0.08 -0.08)">
      <use transform="scale(0.996264)" xlink:href="#CMSS17-77"/>
      <use transform="translate(81.67603 0)scale(0.996264)" xlink:href="#CMSS17-111"/>
      <use transform="translate(125.9172 0)scale(0.996264)" xlink:href="#CMSS17-114"/>
      <use transform="translate(157.826972 0)scale(0.996264)" xlink:href="#CMSS17-97"/>
      <use transform="translate(202.748893 0)scale(0.996264)" xlink:href="#CMSS17-108"/>
      <use transform="translate(256.158728 0)scale(0.996264)" xlink:href="#CMSS17-115"/>
      <use transform="translate(292.07227 0)scale(0.996264)" xlink:href="#CMSS17-99"/>
      <use transform="translate(333.711093 0)scale(0.996264)" xlink:href="#CMSS17-111"/>
      <use transform="translate(377.952262 0)scale(0.996264)" xlink:href="#CMSS17-114"/>
      <use transform="translate(409.862035 0)scale(0.996264)" xlink:href="#CMSS17-101"/>
     </g>
    </g>
   </g>
   <g id="matplotlib.axis_2">
    <g id="ytick_1">
     <g id="line2d_10">
      <path clip-path="url(#p1f3208d8bb)" d="M 40.727276 94.057419 
L 263.927276 94.057419 
" style="fill:none;stroke:#cccccc;stroke-dasharray:1,1.65;stroke-dashoffset:0;"/>
     </g>
     <g id="text_11">
      <!-- $-1.0$ -->
      <g style="fill:#262626;" transform="translate(18.284547 97.170744)scale(0.09 -0.09)">
       <use transform="scale(0.996264)" xlink:href="#CMSY10-0"/>
       <use transform="translate(77.487468 0)scale(0.996264)" xlink:href="#CMR17-49"/>
       <use transform="translate(123.177945 0)scale(0.996264)" xlink:href="#CMMI12-58"/>
       <use transform="translate(150.275122 0)scale(0.996264)" xlink:href="#CMR17-48"/>
      </g>
     </g>
    </g>
    <g id="ytick_2">
     <g id="line2d_11">
      <path clip-path="url(#p1f3208d8bb)" d="M 40.727276 79.131265 
L 263.927276 79.131265 
" style="fill:none;stroke:#cccccc;stroke-dasharray:1,1.65;stroke-dashoffset:0;"/>
     </g>
     <g id="text_12">
      <!-- $-0.5$ -->
      <g style="fill:#262626;" transform="translate(18.284547 82.24459)scale(0.09 -0.09)">
       <use transform="scale(0.996264)" xlink:href="#CMSY10-0"/>
       <use transform="translate(77.487468 0)scale(0.996264)" xlink:href="#CMR17-48"/>
       <use transform="translate(123.177945 0)scale(0.996264)" xlink:href="#CMMI12-58"/>
       <use transform="translate(150.275122 0)scale(0.996264)" xlink:href="#CMR17-53"/>
      </g>
     </g>
    </g>
    <g id="ytick_3">
     <g id="line2d_12">
      <path clip-path="url(#p1f3208d8bb)" d="M 40.727276 64.205112 
L 263.927276 64.205112 
" style="fill:none;stroke:#cccccc;stroke-dasharray:1,1.65;stroke-dashoffset:0;"/>
     </g>
     <g id="text_13">
      <!-- $0.0$ -->
      <g style="fill:#262626;" transform="translate(25.452066 67.318437)scale(0.09 -0.09)">
       <use transform="scale(0.996264)" xlink:href="#CMR17-48"/>
       <use transform="translate(45.690477 0)scale(0.996264)" xlink:href="#CMMI12-58"/>
       <use transform="translate(72.787654 0)scale(0.996264)" xlink:href="#CMR17-48"/>
      </g>
     </g>
    </g>
    <g id="ytick_4">
     <g id="line2d_13">
      <path clip-path="url(#p1f3208d8bb)" d="M 40.727276 49.278958 
L 263.927276 49.278958 
" style="fill:none;stroke:#cccccc;stroke-dasharray:1,1.65;stroke-dashoffset:0;"/>
     </g>
     <g id="text_14">
      <!-- $0.5$ -->
      <g style="fill:#262626;" transform="translate(25.452066 52.392283)scale(0.09 -0.09)">
       <use transform="scale(0.996264)" xlink:href="#CMR17-48"/>
       <use transform="translate(45.690477 0)scale(0.996264)" xlink:href="#CMMI12-58"/>
       <use transform="translate(72.787654 0)scale(0.996264)" xlink:href="#CMR17-53"/>
      </g>
     </g>
    </g>
    <g id="ytick_5">
     <g id="line2d_14">
      <path clip-path="url(#p1f3208d8bb)" d="M 40.727276 34.352804 
L 263.927276 34.352804 
" style="fill:none;stroke:#cccccc;stroke-dasharray:1,1.65;stroke-dashoffset:0;"/>
     </g>
     <g id="text_15">
      <!-- $1.0$ -->
      <g style="fill:#262626;" transform="translate(25.452066 37.466129)scale(0.09 -0.09)">
       <use transform="scale(0.996264)" xlink:href="#CMR17-49"/>
       <use transform="translate(45.690477 0)scale(0.996264)" xlink:href="#CMMI12-58"/>
       <use transform="translate(72.787654 0)scale(0.996264)" xlink:href="#CMR17-48"/>
      </g>
     </g>
    </g>
    <g id="text_16">
     <!-- Human score -->
     <defs>
      <path d="M 57.40625 69 
L 49 69 
L 49 39.078125 
L 17.203125 39.078125 
L 17.203125 69 
L 8.796875 69 
L 8.796875 0 
L 17.203125 0 
L 17.203125 33 
L 49 33 
L 49 0 
L 57.40625 0 
z
" id="CMSS17-72"/>
      <path d="M 40.90625 42.796875 
L 33.296875 42.796875 
L 33.296875 15.1875 
C 33.296875 7.78125 27.90625 4.78125 22.203125 4.78125 
C 15.59375 4.78125 15 6.984375 15 11.078125 
L 15 42.796875 
L 7.40625 42.796875 
L 7.40625 10.59375 
C 7.40625 2.796875 10.09375 -1 17 -1 
C 20.40625 -1 28.09375 -0.203125 33.5 4.78125 
L 33.5 0 
L 40.90625 0 
z
" id="CMSS17-117"/>
      <path d="M 67 29.328125 
C 67 36.0625 65.296875 44 54.09375 44 
C 46.59375 44 42.09375 39.3125 40.09375 36.421875 
C 38.296875 41.71875 34.09375 44 28.09375 44 
C 21.296875 44 17 40.125 14.703125 37.328125 
L 14.703125 43.09375 
L 7.40625 43.09375 
L 7.40625 0 
L 15 0 
L 15 24.359375 
C 15 30.296875 17.203125 37.9375 24.296875 37.9375 
C 33.40625 37.9375 33.40625 31.5 33.40625 28.578125 
L 33.40625 0 
L 41 0 
L 41 24.359375 
C 41 30.296875 43.203125 37.9375 50.296875 37.9375 
C 59.40625 37.9375 59.40625 31.5 59.40625 28.578125 
L 59.40625 0 
L 67 0 
z
" id="CMSS17-109"/>
      <path d="M 40.90625 29.328125 
C 40.90625 35.671875 39.40625 44 28.09375 44 
C 21.703125 44 17.5 40.71875 14.703125 37.328125 
L 14.703125 43.09375 
L 7.40625 43.09375 
L 7.40625 0 
L 15 0 
L 15 24.359375 
C 15 30.6875 17.40625 37.9375 24.203125 37.9375 
C 33 37.9375 33.296875 32 33.296875 28.578125 
L 33.296875 0 
L 40.90625 0 
z
" id="CMSS17-110"/>
     </defs>
     <g style="fill:#262626;" transform="translate(12.734802 81.236209)rotate(-90)scale(0.08 -0.08)">
      <use transform="scale(0.996264)" xlink:href="#CMSS17-72"/>
      <use transform="translate(66.061519 0)scale(0.996264)" xlink:href="#CMSS17-117"/>
      <use transform="translate(114.266462 0)scale(0.996264)" xlink:href="#CMSS17-109"/>
      <use transform="translate(188.495717 0)scale(0.996264)" xlink:href="#CMSS17-97"/>
      <use transform="translate(233.417637 0)scale(0.996264)" xlink:href="#CMSS17-110"/>
      <use transform="translate(312.851693 0)scale(0.996264)" xlink:href="#CMSS17-115"/>
      <use transform="translate(348.765235 0)scale(0.996264)" xlink:href="#CMSS17-99"/>
      <use transform="translate(390.404057 0)scale(0.996264)" xlink:href="#CMSS17-111"/>
      <use transform="translate(434.645227 0)scale(0.996264)" xlink:href="#CMSS17-114"/>
      <use transform="translate(466.554999 0)scale(0.996264)" xlink:href="#CMSS17-101"/>
     </g>
    </g>
   </g>
   <g id="PathCollection_1">
    <defs>
     <path d="M 0 1.118034 
C 0.296506 1.118034 0.580908 1.000231 0.790569 0.790569 
C 1.000231 0.580908 1.118034 0.296506 1.118034 0 
C 1.118034 -0.296506 1.000231 -0.580908 0.790569 -0.790569 
C 0.580908 -1.000231 0.296506 -1.118034 0 -1.118034 
C -0.296506 -1.118034 -0.580908 -1.000231 -0.790569 -0.790569 
C -1.000231 -0.580908 -1.118034 -0.296506 -1.118034 0 
C -1.118034 0.296506 -1.000231 0.580908 -0.790569 0.790569 
C -0.580908 1.000231 -0.296506 1.118034 0 1.118034 
z
" id="m89654eeed9" style="stroke:#be6f00;"/>
    </defs>
    <g clip-path="url(#p1f3208d8bb)">
     <use style="fill:#be6f00;stroke:#be6f00;" x="225.527872" xlink:href="#m89654eeed9" y="38.945467"/>
     <use style="fill:#be6f00;stroke:#be6f00;" x="188.667377" xlink:href="#m89654eeed9" y="38.690319"/>
     <use style="fill:#be6f00;stroke:#be6f00;" x="212.930577" xlink:href="#m89654eeed9" y="38.180023"/>
     <use style="fill:#be6f00;stroke:#be6f00;" x="199.149751" xlink:href="#m89654eeed9" y="37.924875"/>
     <use style="fill:#be6f00;stroke:#be6f00;" x="152.238294" xlink:href="#m89654eeed9" y="40.731502"/>
     <use style="fill:#be6f00;stroke:#be6f00;" x="125.15088" xlink:href="#m89654eeed9" y="41.241798"/>
     <use style="fill:#be6f00;stroke:#be6f00;" x="145.475053" xlink:href="#m89654eeed9" y="42.007242"/>
     <use style="fill:#be6f00;stroke:#be6f00;" x="136.998589" xlink:href="#m89654eeed9" y="39.455762"/>
     <use style="fill:#be6f00;stroke:#be6f00;" x="151.763793" xlink:href="#m89654eeed9" y="58.336709"/>
     <use style="fill:#be6f00;stroke:#be6f00;" x="246.525035" xlink:href="#m89654eeed9" y="35.883691"/>
     <use style="fill:#be6f00;stroke:#be6f00;" x="165.16332" xlink:href="#m89654eeed9" y="37.924875"/>
     <use style="fill:#be6f00;stroke:#be6f00;" x="198.153323" xlink:href="#m89654eeed9" y="36.393987"/>
     <use style="fill:#be6f00;stroke:#be6f00;" x="200.267938" xlink:href="#m89654eeed9" y="35.628544"/>
     <use style="fill:#be6f00;stroke:#be6f00;" x="91.072582" xlink:href="#m89654eeed9" y="59.612449"/>
     <use style="fill:#be6f00;stroke:#be6f00;" x="97.923335" xlink:href="#m89654eeed9" y="64.205112"/>
     <use style="fill:#be6f00;stroke:#be6f00;" x="82.278668" xlink:href="#m89654eeed9" y="58.081561"/>
     <use style="fill:#be6f00;stroke:#be6f00;" x="186.564071" xlink:href="#m89654eeed9" y="58.081561"/>
     <use style="fill:#be6f00;stroke:#be6f00;" x="192.281836" xlink:href="#m89654eeed9" y="45.834461"/>
     <use style="fill:#be6f00;stroke:#be6f00;" x="156.908097" xlink:href="#m89654eeed9" y="59.612449"/>
     <use style="fill:#be6f00;stroke:#be6f00;" x="162.186644" xlink:href="#m89654eeed9" y="63.694816"/>
     <use style="fill:#be6f00;stroke:#be6f00;" x="248.523041" xlink:href="#m89654eeed9" y="37.669727"/>
     <use style="fill:#be6f00;stroke:#be6f00;" x="170.812989" xlink:href="#m89654eeed9" y="41.241798"/>
     <use style="fill:#be6f00;stroke:#be6f00;" x="221.92793" xlink:href="#m89654eeed9" y="36.393987"/>
     <use style="fill:#be6f00;stroke:#be6f00;" x="235.799632" xlink:href="#m89654eeed9" y="41.752094"/>
     <use style="fill:#be6f00;stroke:#be6f00;" x="208.58136" xlink:href="#m89654eeed9" y="41.241798"/>
     <use style="fill:#be6f00;stroke:#be6f00;" x="177.640146" xlink:href="#m89654eeed9" y="48.896236"/>
     <use style="fill:#be6f00;stroke:#be6f00;" x="141.421848" xlink:href="#m89654eeed9" y="56.550674"/>
     <use style="fill:#be6f00;stroke:#be6f00;" x="124.184802" xlink:href="#m89654eeed9" y="49.406532"/>
     <use style="fill:#be6f00;stroke:#be6f00;" x="173.236203" xlink:href="#m89654eeed9" y="36.393987"/>
     <use style="fill:#be6f00;stroke:#be6f00;" x="167.79738" xlink:href="#m89654eeed9" y="36.138839"/>
     <use style="fill:#be6f00;stroke:#be6f00;" x="105.546684" xlink:href="#m89654eeed9" y="40.98665"/>
     <use style="fill:#be6f00;stroke:#be6f00;" x="169.278793" xlink:href="#m89654eeed9" y="48.641088"/>
     <use style="fill:#be6f00;stroke:#be6f00;" x="238.573081" xlink:href="#m89654eeed9" y="40.476354"/>
     <use style="fill:#be6f00;stroke:#be6f00;" x="198.844132" xlink:href="#m89654eeed9" y="38.690319"/>
     <use style="fill:#be6f00;stroke:#be6f00;" x="113.282631" xlink:href="#m89654eeed9" y="52.723455"/>
     <use style="fill:#be6f00;stroke:#be6f00;" x="246.124755" xlink:href="#m89654eeed9" y="37.159431"/>
     <use style="fill:#be6f00;stroke:#be6f00;" x="237.347671" xlink:href="#m89654eeed9" y="37.159431"/>
     <use style="fill:#be6f00;stroke:#be6f00;" x="89.096865" xlink:href="#m89654eeed9" y="63.694816"/>
     <use style="fill:#be6f00;stroke:#be6f00;" x="207.225395" xlink:href="#m89654eeed9" y="39.966058"/>
     <use style="fill:#be6f00;stroke:#be6f00;" x="195.147744" xlink:href="#m89654eeed9" y="37.924875"/>
     <use style="fill:#be6f00;stroke:#be6f00;" x="179.909913" xlink:href="#m89654eeed9" y="36.904283"/>
     <use style="fill:#be6f00;stroke:#be6f00;" x="212.452903" xlink:href="#m89654eeed9" y="37.669727"/>
     <use style="fill:#be6f00;stroke:#be6f00;" x="206.322429" xlink:href="#m89654eeed9" y="38.180023"/>
     <use style="fill:#be6f00;stroke:#be6f00;" x="171.486807" xlink:href="#m89654eeed9" y="36.138839"/>
     <use style="fill:#be6f00;stroke:#be6f00;" x="58.620706" xlink:href="#m89654eeed9" y="44.303573"/>
     <use style="fill:#be6f00;stroke:#be6f00;" x="198.597178" xlink:href="#m89654eeed9" y="60.888189"/>
     <use style="fill:#be6f00;stroke:#be6f00;" x="221.222739" xlink:href="#m89654eeed9" y="37.924875"/>
     <use style="fill:#be6f00;stroke:#be6f00;" x="239.008003" xlink:href="#m89654eeed9" y="43.027833"/>
     <use style="fill:#be6f00;stroke:#be6f00;" x="192.470808" xlink:href="#m89654eeed9" y="36.138839"/>
     <use style="fill:#be6f00;stroke:#be6f00;" x="199.492346" xlink:href="#m89654eeed9" y="35.628544"/>
     <use style="fill:#be6f00;stroke:#be6f00;" x="204.793452" xlink:href="#m89654eeed9" y="37.414579"/>
     <use style="fill:#be6f00;stroke:#be6f00;" x="191.408386" xlink:href="#m89654eeed9" y="35.628544"/>
     <use style="fill:#be6f00;stroke:#be6f00;" x="191.176663" xlink:href="#m89654eeed9" y="39.966058"/>
     <use style="fill:#be6f00;stroke:#be6f00;" x="183.119831" xlink:href="#m89654eeed9" y="40.221206"/>
     <use style="fill:#be6f00;stroke:#be6f00;" x="166.277392" xlink:href="#m89654eeed9" y="47.620496"/>
     <use style="fill:#be6f00;stroke:#be6f00;" x="187.034959" xlink:href="#m89654eeed9" y="39.455762"/>
     <use style="fill:#be6f00;stroke:#be6f00;" x="168.934232" xlink:href="#m89654eeed9" y="37.159431"/>
     <use style="fill:#be6f00;stroke:#be6f00;" x="235.697331" xlink:href="#m89654eeed9" y="36.393987"/>
     <use style="fill:#be6f00;stroke:#be6f00;" x="197.504019" xlink:href="#m89654eeed9" y="42.007242"/>
     <use style="fill:#be6f00;stroke:#be6f00;" x="253.10283" xlink:href="#m89654eeed9" y="35.373396"/>
     <use style="fill:#be6f00;stroke:#be6f00;" x="178.355172" xlink:href="#m89654eeed9" y="36.393987"/>
     <use style="fill:#be6f00;stroke:#be6f00;" x="125.188468" xlink:href="#m89654eeed9" y="50.937419"/>
     <use style="fill:#be6f00;stroke:#be6f00;" x="163.851719" xlink:href="#m89654eeed9" y="39.455762"/>
     <use style="fill:#be6f00;stroke:#be6f00;" x="154.974792" xlink:href="#m89654eeed9" y="37.669727"/>
     <use style="fill:#be6f00;stroke:#be6f00;" x="179.731064" xlink:href="#m89654eeed9" y="37.414579"/>
     <use style="fill:#be6f00;stroke:#be6f00;" x="149.682671" xlink:href="#m89654eeed9" y="41.752094"/>
     <use style="fill:#be6f00;stroke:#be6f00;" x="164.121091" xlink:href="#m89654eeed9" y="38.945467"/>
    </g>
   </g>
   <g id="PathCollection_2">
    <defs>
     <path d="M 0 1.118034 
C 0.296506 1.118034 0.580908 1.000231 0.790569 0.790569 
C 1.000231 0.580908 1.118034 0.296506 1.118034 0 
C 1.118034 -0.296506 1.000231 -0.580908 0.790569 -0.790569 
C 0.580908 -1.000231 0.296506 -1.118034 0 -1.118034 
C -0.296506 -1.118034 -0.580908 -1.000231 -0.790569 -0.790569 
C -1.000231 -0.580908 -1.118034 -0.296506 -1.118034 0 
C -1.118034 0.296506 -1.000231 0.580908 -0.790569 0.790569 
C -0.580908 1.000231 -0.296506 1.118034 0 1.118034 
z
" id="mb009583c69" style="stroke:#00715e;"/>
    </defs>
    <g clip-path="url(#p1f3208d8bb)">
     <use style="fill:#00715e;stroke:#00715e;" x="87.432403" xlink:href="#mb009583c69" y="84.361798"/>
     <use style="fill:#00715e;stroke:#00715e;" x="85.767673" xlink:href="#mb009583c69" y="85.637538"/>
     <use style="fill:#00715e;stroke:#00715e;" x="53.525804" xlink:href="#mb009583c69" y="85.127242"/>
     <use style="fill:#00715e;stroke:#00715e;" x="116.36052" xlink:href="#mb009583c69" y="74.921325"/>
     <use style="fill:#00715e;stroke:#00715e;" x="85.557865" xlink:href="#mb009583c69" y="85.892686"/>
     <use style="fill:#00715e;stroke:#00715e;" x="98.003661" xlink:href="#mb009583c69" y="84.10665"/>
     <use style="fill:#00715e;stroke:#00715e;" x="94.471419" xlink:href="#mb009583c69" y="78.238248"/>
     <use style="fill:#00715e;stroke:#00715e;" x="93.107475" xlink:href="#mb009583c69" y="81.810319"/>
     <use style="fill:#00715e;stroke:#00715e;" x="157.717656" xlink:href="#mb009583c69" y="76.962508"/>
     <use style="fill:#00715e;stroke:#00715e;" x="159.005287" xlink:href="#mb009583c69" y="66.501443"/>
     <use style="fill:#00715e;stroke:#00715e;" x="170.689419" xlink:href="#mb009583c69" y="74.411029"/>
     <use style="fill:#00715e;stroke:#00715e;" x="102.48426" xlink:href="#mb009583c69" y="84.10665"/>
     <use style="fill:#00715e;stroke:#00715e;" x="88.134694" xlink:href="#mb009583c69" y="84.10665"/>
     <use style="fill:#00715e;stroke:#00715e;" x="85.385329" xlink:href="#mb009583c69" y="83.851502"/>
     <use style="fill:#00715e;stroke:#00715e;" x="64.481377" xlink:href="#mb009583c69" y="84.361798"/>
     <use style="fill:#00715e;stroke:#00715e;" x="68.100052" xlink:href="#mb009583c69" y="82.83091"/>
     <use style="fill:#00715e;stroke:#00715e;" x="64.699649" xlink:href="#mb009583c69" y="83.341206"/>
     <use style="fill:#00715e;stroke:#00715e;" x="122.968279" xlink:href="#mb009583c69" y="75.941916"/>
     <use style="fill:#00715e;stroke:#00715e;" x="97.853248" xlink:href="#mb009583c69" y="74.666177"/>
     <use style="fill:#00715e;stroke:#00715e;" x="67.741927" xlink:href="#mb009583c69" y="86.147833"/>
     <use style="fill:#00715e;stroke:#00715e;" x="137.628181" xlink:href="#mb009583c69" y="83.086058"/>
     <use style="fill:#00715e;stroke:#00715e;" x="71.654125" xlink:href="#mb009583c69" y="85.892686"/>
     <use style="fill:#00715e;stroke:#00715e;" x="68.682021" xlink:href="#mb009583c69" y="73.135289"/>
     <use style="fill:#00715e;stroke:#00715e;" x="50.840397" xlink:href="#mb009583c69" y="86.913277"/>
     <use style="fill:#00715e;stroke:#00715e;" x="146.868159" xlink:href="#mb009583c69" y="79.258839"/>
     <use style="fill:#00715e;stroke:#00715e;" x="119.641639" xlink:href="#mb009583c69" y="71.859549"/>
     <use style="fill:#00715e;stroke:#00715e;" x="126.002641" xlink:href="#mb009583c69" y="81.555171"/>
     <use style="fill:#00715e;stroke:#00715e;" x="120.593738" xlink:href="#mb009583c69" y="82.575762"/>
     <use style="fill:#00715e;stroke:#00715e;" x="142.490613" xlink:href="#mb009583c69" y="83.596354"/>
     <use style="fill:#00715e;stroke:#00715e;" x="133.354056" xlink:href="#mb009583c69" y="83.086058"/>
     <use style="fill:#00715e;stroke:#00715e;" x="107.527067" xlink:href="#mb009583c69" y="85.38239"/>
     <use style="fill:#00715e;stroke:#00715e;" x="113.539713" xlink:href="#mb009583c69" y="82.83091"/>
     <use style="fill:#00715e;stroke:#00715e;" x="135.462194" xlink:href="#mb009583c69" y="81.810319"/>
     <use style="fill:#00715e;stroke:#00715e;" x="104.197068" xlink:href="#mb009583c69" y="84.10665"/>
     <use style="fill:#00715e;stroke:#00715e;" x="96.271128" xlink:href="#mb009583c69" y="82.320615"/>
     <use style="fill:#00715e;stroke:#00715e;" x="92.235387" xlink:href="#mb009583c69" y="83.596354"/>
     <use style="fill:#00715e;stroke:#00715e;" x="87.005325" xlink:href="#mb009583c69" y="83.596354"/>
     <use style="fill:#00715e;stroke:#00715e;" x="165.919022" xlink:href="#mb009583c69" y="81.300023"/>
     <use style="fill:#00715e;stroke:#00715e;" x="91.31579" xlink:href="#mb009583c69" y="84.872094"/>
     <use style="fill:#00715e;stroke:#00715e;" x="87.439516" xlink:href="#mb009583c69" y="83.596354"/>
     <use style="fill:#00715e;stroke:#00715e;" x="101.38167" xlink:href="#mb009583c69" y="85.38239"/>
     <use style="fill:#00715e;stroke:#00715e;" x="61.870604" xlink:href="#mb009583c69" y="86.147833"/>
     <use style="fill:#00715e;stroke:#00715e;" x="63.441484" xlink:href="#mb009583c69" y="83.596354"/>
     <use style="fill:#00715e;stroke:#00715e;" x="116.111174" xlink:href="#mb009583c69" y="67.777183"/>
     <use style="fill:#00715e;stroke:#00715e;" x="98.019649" xlink:href="#mb009583c69" y="84.361798"/>
     <use style="fill:#00715e;stroke:#00715e;" x="111.271603" xlink:href="#mb009583c69" y="83.341206"/>
     <use style="fill:#00715e;stroke:#00715e;" x="105.160661" xlink:href="#mb009583c69" y="85.38239"/>
     <use style="fill:#00715e;stroke:#00715e;" x="112.484016" xlink:href="#mb009583c69" y="81.810319"/>
     <use style="fill:#00715e;stroke:#00715e;" x="132.523411" xlink:href="#mb009583c69" y="85.637538"/>
    </g>
   </g>
   <g id="r = 0.788">
    <path clip-path="url(#p1f3208d8bb)" d="M 50.840397 88.334666 
L 53.525804 87.522102 
L 58.620706 85.98046 
L 61.870604 84.997089 
L 63.441484 84.521765 
L 64.481377 84.207108 
L 64.699649 84.141063 
L 67.741927 83.220514 
L 68.100052 83.112151 
L 68.682021 82.936056 
L 71.654125 82.036741 
L 82.278668 78.821912 
L 85.385329 77.881883 
L 85.557865 77.829676 
L 85.767673 77.766191 
L 87.005325 77.391696 
L 87.432403 77.262469 
L 87.439516 77.260316 
L 88.134694 77.049966 
L 89.096865 76.758827 
L 91.072582 76.161005 
L 91.31579 76.087414 
L 92.235387 75.809157 
L 93.107475 75.545276 
L 94.471419 75.132567 
L 96.271128 74.588002 
L 97.853248 74.109276 
L 97.923335 74.088069 
L 98.003661 74.063763 
L 98.019649 74.058925 
L 101.38167 73.041628 
L 102.48426 72.708001 
L 104.197068 72.18973 
L 105.160661 71.898161 
L 105.546684 71.781357 
L 107.527067 71.182122 
L 111.271603 70.049081 
L 112.484016 69.682223 
L 113.282631 69.440574 
L 113.539713 69.362785 
L 116.111174 68.584699 
L 116.36052 68.50925 
L 119.641639 67.516433 
L 120.593738 67.228341 
L 122.968279 66.509841 
L 124.184802 66.141739 
L 125.15088 65.849418 
L 125.188468 65.838044 
L 126.002641 65.591688 
L 132.523411 63.618599 
L 133.354056 63.367259 
L 135.462194 62.729367 
L 136.998589 62.264477 
L 137.628181 62.073972 
L 141.421848 60.926065 
L 142.490613 60.602672 
L 145.475053 59.699625 
L 146.868159 59.278092 
L 149.682671 58.426462 
L 151.763793 57.796746 
L 152.238294 57.653169 
L 154.974792 56.825145 
L 156.908097 56.240156 
L 157.717656 55.995195 
L 159.005287 55.605577 
L 162.186644 54.642946 
L 163.851719 54.139119 
L 164.121091 54.057611 
L 165.16332 53.742248 
L 165.919022 53.513584 
L 166.277392 53.405146 
L 167.79738 52.94522 
L 168.934232 52.601226 
L 169.278793 52.496967 
L 170.689419 52.070132 
L 170.812989 52.032742 
L 171.486807 51.828855 
L 173.236203 51.299514 
L 177.640146 49.966946 
L 178.355172 49.75059 
L 179.731064 49.334265 
L 179.909913 49.280148 
L 183.119831 48.308874 
L 186.564071 47.266699 
L 187.034959 47.124215 
L 188.667377 46.630269 
L 191.176663 45.870997 
L 191.408386 45.800881 
L 192.281836 45.536588 
L 192.470808 45.479408 
L 195.147744 44.669407 
L 197.504019 43.956433 
L 198.153323 43.759963 
L 198.597178 43.625659 
L 198.844132 43.550935 
L 199.149751 43.458459 
L 199.492346 43.354795 
L 200.267938 43.120112 
L 204.793452 41.750759 
L 206.322429 41.288113 
L 207.225395 41.014889 
L 208.58136 40.604594 
L 212.452903 39.433123 
L 212.930577 39.288586 
L 221.222739 36.779501 
L 221.92793 36.56612 
L 225.527872 35.476831 
L 235.697331 32.399704 
L 235.799632 32.368749 
L 237.347671 31.900336 
L 238.573081 31.529545 
L 239.008003 31.397944 
L 246.124755 29.244521 
L 246.525035 29.123402 
L 248.523041 28.518835 
L 253.10283 27.133059 
" style="fill:none;stroke:#004e8a;stroke-linecap:round;stroke-width:1.5;"/>
   </g>
   <g id="patch_3">
    <path d="M 40.727276 97.04265 
L 40.727276 19.42665 
" style="fill:none;stroke:#262626;stroke-linecap:square;stroke-linejoin:miter;stroke-width:1.25;"/>
   </g>
   <g id="patch_4">
    <path d="M 263.927276 97.04265 
L 263.927276 19.42665 
" style="fill:none;stroke:#262626;stroke-linecap:square;stroke-linejoin:miter;stroke-width:1.25;"/>
   </g>
   <g id="patch_5">
    <path d="M 40.727276 97.04265 
L 263.927276 97.04265 
" style="fill:none;stroke:#262626;stroke-linecap:square;stroke-linejoin:miter;stroke-width:1.25;"/>
   </g>
   <g id="patch_6">
    <path d="M 40.727276 19.42665 
L 263.927276 19.42665 
" style="fill:none;stroke:#262626;stroke-linecap:square;stroke-linejoin:miter;stroke-width:1.25;"/>
   </g>
   <g id="text_17">
    <!-- r = 0.79*** -->
    <defs>
     <path d="M 64.796875 31.515625 
C 66.296875 31.515625 67.796875 31.515625 67.796875 33.203125 
C 67.796875 35 66.09375 35 64.40625 35 
L 8.59375 35 
C 6.90625 35 5.203125 35 5.203125 33.203125 
C 5.203125 31.515625 6.703125 31.515625 8.203125 31.515625 
z
M 64.40625 14 
C 66.09375 14 67.796875 14 67.796875 15.796875 
C 67.796875 17.484375 66.296875 17.484375 64.796875 17.484375 
L 8.203125 17.484375 
C 6.703125 17.484375 5.203125 17.484375 5.203125 15.796875 
C 5.203125 14 6.90625 14 8.59375 14 
z
" id="CMSS17-61"/>
     <path d="M 43.09375 31.9375 
C 43.09375 37.578125 43 48.078125 38.90625 56.1875 
C 34.796875 64 28.203125 66.078125 23.5 66.078125 
C 16.703125 66.078125 10.90625 62.109375 7.90625 55.78125 
C 4.703125 49.15625 3.796875 42.328125 3.796875 31.9375 
C 3.796875 24.828125 4.09375 16.109375 7.703125 8.484375 
C 11.796875 0.078125 18.703125 -2 23.40625 -2 
C 29.59375 -2 35.59375 1.265625 39 8.09375 
C 42.5 15.21875 43.09375 23.03125 43.09375 31.9375 
z
M 23.40625 4.078125 
C 15.796875 4.078125 13.5 12.671875 12.796875 15.546875 
C 11.59375 20.46875 11.40625 25.21875 11.40625 33.03125 
C 11.40625 39.15625 11.40625 46.0625 13.296875 51.515625 
C 15.59375 57.828125 19.59375 60 23.40625 60 
C 30.796875 60 33.203125 52.6875 34 50.125 
C 35.5 44.890625 35.5 38.765625 35.5 33.03125 
C 35.5 23.84375 35.5 4.078125 23.40625 4.078125 
z
" id="CMSS17-48"/>
     <path d="M 17 7.96875 
L 9 7.96875 
L 9 0 
L 17 0 
z
" id="CMSS17-46"/>
     <path d="M 21.703125 59 
C 22.90625 59 24.09375 59 25.296875 59 
L 36.796875 59 
C 22.5 42.359375 14.296875 21.328125 14.296875 -0.5 
L 22.296875 -0.5 
C 22.296875 20.671875 29.296875 42.125 43 59.296875 
L 43 65.765625 
L 3.90625 65.765625 
L 3.90625 59 
z
" id="CMSS17-55"/>
     <path d="M 6.796875 2.71875 
C 9.59375 0.328125 13.203125 -2 19.296875 -2 
C 31.40625 -2 43 11.265625 43 32.734375 
C 43 61.4375 30.5 66.078125 23.796875 66.078125 
C 17.09375 66.078125 12.796875 63.140625 9.09375 58.453125 
C 4.703125 53.078125 3.90625 48.28125 3.90625 42.703125 
C 3.90625 36.046875 5.09375 31.953125 7.90625 27.265625 
C 11.703125 21.203125 15.203125 19.921875 19.09375 19.921875 
C 25 19.921875 30.90625 22.796875 34.90625 27.75 
C 34.203125 14.09375 28.09375 4.171875 19.296875 4.171875 
C 15.703125 4.171875 12.796875 5.296875 9.90625 8.0625 
z
M 34.59375 42.90625 
C 34.703125 42.234375 34.703125 40.96875 34.703125 40.5625 
C 34.703125 32.40625 29.90625 26 22.90625 26 
C 18.296875 26 15.90625 28.328125 14.09375 31.34375 
C 11.90625 35.140625 11.796875 38.828125 11.796875 42.703125 
C 11.796875 46.5 11.796875 50.6875 14.59375 54.859375 
C 16.703125 57.859375 19.296875 60 23.796875 60 
C 33 60 34.5 46.875 34.59375 42.90625 
z
" id="CMSS17-57"/>
     <path d="M 26 48.765625 
L 35.203125 42.09375 
C 36.40625 41.203125 36.703125 41 37.59375 41 
C 39.203125 41 41 42.5 41 44.484375 
C 41 46.375 39.59375 47.171875 38.796875 47.5625 
L 28.09375 53.34375 
L 38.90625 59.109375 
C 40.09375 59.8125 41 60.8125 41 62.203125 
C 41 64.1875 39.203125 65.6875 37.59375 65.6875 
C 36.703125 65.6875 36 65.28125 35.203125 64.6875 
L 26 57.921875 
L 26.796875 71.40625 
C 26.796875 73.703125 25.09375 74.8125 23.40625 74.8125 
C 22 74.8125 20.09375 73.8125 20.09375 71.40625 
L 20.90625 57.921875 
L 11.703125 64.59375 
C 10.5 65.484375 10.203125 65.6875 9.296875 65.6875 
C 7.703125 65.6875 5.90625 64.1875 5.90625 62.203125 
C 5.90625 60.3125 7.296875 59.515625 8.09375 59.109375 
L 18.796875 53.34375 
L 8 47.5625 
C 6.796875 46.875 5.90625 45.875 5.90625 44.484375 
C 5.90625 42.5 7.703125 41 9.296875 41 
C 10.203125 41 10.90625 41.390625 11.703125 42 
L 20.90625 48.765625 
L 20.09375 35.375 
C 20.09375 33.09375 21.796875 32 23.5 32 
C 24.90625 32 26.796875 32.984375 26.796875 35.359375 
L 26.703125 36.25 
z
" id="CMSS17-42"/>
    </defs>
    <g style="fill:#004e8a;" transform="translate(136.720335 28.382342)scale(0.08 -0.08)">
     <use transform="scale(0.996264)" xlink:href="#CMSS17-114"/>
     <use transform="translate(63.138885 0)scale(0.996264)" xlink:href="#CMSS17-61"/>
     <use transform="translate(167.235933 0)scale(0.996264)" xlink:href="#CMSS17-48"/>
     <use transform="translate(214.079556 0)scale(0.996264)" xlink:href="#CMSS17-46"/>
     <use transform="translate(240.103761 0)scale(0.996264)" xlink:href="#CMSS17-55"/>
     <use transform="translate(286.947385 0)scale(0.996264)" xlink:href="#CMSS17-57"/>
     <use transform="translate(333.791008 0)scale(0.996264)" xlink:href="#CMSS17-42"/>
     <use transform="translate(380.634632 0)scale(0.996264)" xlink:href="#CMSS17-42"/>
     <use transform="translate(427.478255 0)scale(0.996264)" xlink:href="#CMSS17-42"/>
    </g>
   </g>
   <g id="text_18">
    <!-- \textbf{BERT's Moral Direction} -->
    <defs>
     <path d="M 13.90625 70 
C 10.296875 70 9.09375 68.90625 9.09375 65.203125 
L 9.09375 5.40625 
C 9.09375 1.8125 10.203125 0.609375 13.90625 0.609375 
L 41.296875 0.609375 
C 48.703125 0.609375 67.09375 0.609375 67.09375 19.203125 
C 67.09375 33.6875 53.203125 35.9375 49.5 36.5625 
C 58.703125 38.671875 64 43.9375 64 51.8125 
C 64 70 42.703125 70 38.5 70 
z
M 23.203125 40 
L 23.203125 61.109375 
L 34.90625 61.109375 
C 38.796875 61.109375 50.40625 61.109375 50.40625 51.5625 
C 50.40625 40 37.296875 40 34.796875 40 
z
M 23.203125 9 
L 23.203125 32.71875 
L 35.796875 32.71875 
C 39.296875 32.71875 53.203125 32.71875 53.203125 19.546875 
C 53.203125 9 42.5 9 37.703125 9 
z
" id="CMSSBX10-66"/>
     <path d="M 23.796875 31.5 
L 50.09375 31.5 
C 53.203125 31.5 54.90625 32.21875 54.90625 36.25 
C 54.90625 40 53.59375 41 50.09375 41 
L 23.796875 41 
L 23.796875 59.59375 
L 28.703125 59.59375 
C 36.5 59.59375 44.40625 59.59375 52.203125 59.59375 
C 55.703125 59.59375 58 59.59375 58 64.40625 
L 58 65.203125 
C 58 68.390625 57.296875 70 53.203125 70 
L 13.90625 70 
C 10.296875 70 9.09375 68.890625 9.09375 65.15625 
L 9.09375 4.9375 
C 9.09375 1.3125 10.203125 0.09375 13.90625 0.09375 
L 54.703125 0.09375 
C 58.5 0.09375 59.5 1.375 59.5 4.84375 
L 59.5 6.25 
C 59.5 11 57.203125 11 53.90625 11 
C 48.703125 11 43.59375 11 38.40625 11 
C 35.90625 11 25.59375 11 23.796875 11 
z
" id="CMSSBX10-69"/>
     <path d="M 48.296875 32.171875 
C 54.59375 33.6875 64.09375 37.53125 64.09375 50.078125 
C 64.09375 70 42.40625 70 37.90625 70 
L 13.90625 70 
C 10.296875 70 9.09375 68.890625 9.09375 65.15625 
L 9.09375 4.65625 
C 9.09375 1.03125 10.203125 -0.1875 13.90625 -0.1875 
L 18.703125 -0.1875 
C 22.5 -0.1875 23.5 1.109375 23.5 4.625 
L 23.5 31 
L 34.59375 31 
L 51 2.21875 
C 52.40625 -0.1875 53.5 -0.1875 55.703125 -0.1875 
L 61.59375 -0.1875 
C 63.59375 -0.1875 65.296875 -0.1875 65.296875 2.828125 
z
M 23.5 38.28125 
L 23.5 61.3125 
L 36.5 61.3125 
C 48.09375 61.3125 50.203125 56.609375 50.203125 49.859375 
C 50.203125 43.8125 48.796875 38.28125 36.5 38.28125 
z
" id="CMSSBX10-82"/>
     <path d="M 29.296875 59 
L 29.296875 4.8125 
C 29.296875 1.21875 30.40625 0 34.09375 0 
L 39.203125 0 
C 43 0 44 1.3125 44 4.8125 
L 44 59 
C 48.40625 59 59.59375 59 64 59 
C 66.796875 59 69.203125 59 69.203125 63.796875 
L 69.203125 64.609375 
C 69.203125 67.8125 68.5 69.421875 64.40625 69.421875 
L 8.796875 69.421875 
C 5.203125 69.421875 4 68.3125 4 64.609375 
L 4 63.796875 
C 4 59 6.40625 59 9.203125 59 
z
" id="CMSSBX10-84"/>
     <path d="M 21.796875 57.765625 
L 21.796875 67.375 
C 21.796875 70 21.703125 70 19.09375 70 
L 11.40625 70 
C 8.796875 70 8.703125 69.90625 8.703125 67.28125 
L 8.703125 59.484375 
C 8.703125 56.859375 8.796875 56.859375 12.09375 56.859375 
L 9.09375 48.9375 
C 9 48.625 8.796875 48.046875 8.796875 47.640625 
C 8.796875 46.359375 9.796875 46.359375 11.40625 46.359375 
L 12.59375 46.359375 
C 14.59375 46.359375 14.703125 46.453125 15.5 47.65625 
z
" id="CMSSBX10-39"/>
     <path d="M 39.59375 14.09375 
C 39.59375 19.796875 36.59375 23.375 34.796875 25 
C 30.796875 28.6875 27.296875 29.296875 23.09375 30.109375 
C 17.59375 31.125 13.59375 31.953125 13.59375 35.921875 
C 13.59375 40.09375 16.90625 40.921875 20.796875 40.921875 
C 27.5 40.921875 31.09375 38.375 33.703125 36.140625 
C 34.703125 35.125 34.90625 35.125 35.296875 35.125 
C 36.296875 35.125 36.5 36.03125 36.59375 36.4375 
C 36.796875 37.25 37.796875 42.921875 37.796875 43.421875 
C 37.796875 45.0625 32.5 46.484375 31.40625 46.875 
C 27.40625 48 24.203125 48 21.59375 48 
C 17.09375 48 3.703125 48 3.703125 33.515625 
C 3.703125 28.546875 5.90625 25.515625 8.59375 23.078125 
C 12.09375 19.84375 16 19.140625 21.703125 18.03125 
C 24.59375 17.515625 29.703125 16.59375 29.703125 12.15625 
C 29.703125 7.390625 25.796875 6.671875 21.90625 6.671875 
C 17.5 6.671875 11.90625 8 7.203125 13.703125 
C 6.703125 14.203125 6.40625 14.5 5.796875 14.5 
C 4.796875 14.5 4.59375 13.609375 4.5 13 
C 4.296875 11.609375 3.09375 5.90625 3.09375 4.890625 
C 3.09375 3.09375 10.5 0.796875 10.59375 0.703125 
C 16.09375 -1 20.203125 -1 21.90625 -1 
C 27 -1 39.59375 -1 39.59375 14.09375 
z
" id="CMSSBX10-115"/>
     <path d="M 55.5 32.90625 
C 53.40625 27.75 49.703125 18.453125 48.90625 14.921875 
L 48.796875 14.921875 
C 47.90625 18.546875 43.796875 28.5625 41.703125 33.921875 
L 28.90625 65.859375 
C 27.203125 70 24 70 22.203125 70 
L 13.90625 70 
C 10.296875 70 9.09375 68.890625 9.09375 65.15625 
L 9.09375 4.71875 
C 9.09375 1.09375 10.203125 -0.125 13.90625 -0.125 
L 16.59375 -0.125 
C 20.40625 -0.125 21.40625 1.1875 21.40625 4.71875 
L 21.40625 56.96875 
L 21.5 56.96875 
C 22.59375 52.421875 27.09375 41.203125 29.5 35.25 
L 41.09375 6.4375 
C 42.90625 2.09375 45.296875 2.09375 48.703125 2.09375 
C 52.09375 2.09375 54.5 2.09375 56.296875 6.4375 
L 69.09375 38.171875 
C 70.09375 40.59375 75.5 54.34375 76.203125 56.96875 
L 76.296875 56.96875 
L 76.296875 4.71875 
C 76.296875 1.484375 77 -0.125 81.09375 -0.125 
L 83.796875 -0.125 
C 87.59375 -0.125 88.59375 1.1875 88.59375 4.71875 
L 88.59375 65.15625 
C 88.59375 68.390625 87.90625 70 83.796875 70 
L 75.40625 70 
C 72.90625 70 70.40625 69.796875 68.703125 65.65625 
z
" id="CMSSBX10-77"/>
     <path d="M 51.796875 22.796875 
C 51.796875 39.328125 43.796875 48 27.5 48 
C 10.796875 48 3.09375 39.015625 3.09375 22.796875 
C 3.09375 6.359375 11.703125 -1 27.40625 -1 
C 43.09375 -1 51.796875 6.265625 51.796875 22.796875 
z
M 27.5 6.875 
C 16.703125 6.875 16.703125 15.9375 16.703125 24 
C 16.703125 31.765625 16.703125 40.71875 27.40625 40.71875 
C 38.203125 40.71875 38.203125 31.859375 38.203125 24 
C 38.203125 16.046875 38.203125 6.875 27.5 6.875 
z
" id="CMSSBX10-111"/>
     <path d="M 19.40625 23.375 
C 19.40625 33.046875 27.296875 37 33.59375 37 
C 35.40625 37 35.59375 37 35.59375 39.921875 
L 35.59375 44.6875 
C 35.59375 46.703125 35.59375 47.40625 33.796875 47.40625 
C 31 47.40625 23.703125 46.40625 19 35.484375 
L 18.90625 35.484375 
L 18.90625 42.03125 
C 18.90625 45.265625 18.203125 46.890625 14.09375 46.890625 
L 10.90625 46.890625 
C 7.296875 46.890625 6.09375 45.78125 6.09375 42.03125 
L 6.09375 4.84375 
C 6.09375 1.21875 7.203125 0 10.90625 0 
L 14.59375 0 
C 18.40625 0 19.40625 1.3125 19.40625 4.875 
z
" id="CMSSBX10-114"/>
     <path d="M 46.40625 32.03125 
C 46.40625 48 31.203125 48 26.203125 48 
C 21.5 48 16.5 47.59375 9.796875 44.8125 
C 7.703125 43.921875 7.203125 43.625 7.203125 42.53125 
C 7.203125 41.828125 7.796875 35.9375 7.90625 35.125 
C 8 34.515625 8.5 34.015625 9.203125 34.015625 
C 9.703125 34.015625 10 34.3125 10.296875 34.625 
C 14.59375 39.1875 19.59375 41.421875 25.796875 41.421875 
C 31.203125 41.421875 32.796875 38.046875 32.796875 32.015625 
L 32.796875 28.4375 
C 29.296875 28.4375 3.09375 28.4375 3.09375 13.5625 
C 3.09375 6.484375 8.703125 -1 17.5 -1 
C 20.90625 -1 28.40625 0.015625 33.09375 6.984375 
L 33.09375 4.953125 
C 33.09375 1.71875 33.796875 0.109375 37.90625 0.109375 
L 41.59375 0.109375 
C 45.40625 0.109375 46.40625 1.421875 46.40625 4.953125 
z
M 32.796875 15.4375 
C 32.796875 6.28125 23.296875 6.28125 23 6.28125 
C 18.796875 6.28125 16.09375 9.984375 16.09375 13.890625 
C 16.09375 24 30 24 32.796875 24 
z
" id="CMSSBX10-97"/>
     <path d="M 19.40625 65.15625 
C 19.40625 68.390625 18.703125 70 14.59375 70 
L 10.90625 70 
C 7.296875 70 6.09375 68.890625 6.09375 65.15625 
L 6.09375 4.71875 
C 6.09375 1.09375 7.203125 -0.125 10.90625 -0.125 
L 14.59375 -0.125 
C 18.40625 -0.125 19.40625 1.1875 19.40625 4.71875 
z
" id="CMSSBX10-108"/>
     <path d="M 13.90625 70 
C 10.296875 70 9.09375 68.890625 9.09375 65.171875 
L 9.09375 4.828125 
C 9.09375 1.21875 10.203125 0 13.90625 0 
L 40.296875 0 
C 64.703125 0 73.203125 14.71875 73.203125 34.5 
C 73.203125 42.46875 71.90625 52.25 66.296875 59.40625 
C 58.796875 68.796875 46.796875 70 40.296875 70 
z
M 23.5 8.6875 
L 23.5 61.3125 
L 36.296875 61.3125 
C 57.90625 61.3125 58.796875 45.78125 58.796875 34.5 
C 58.796875 23.109375 57.703125 8.6875 36.40625 8.6875 
z
" id="CMSSBX10-68"/>
     <path d="M 10.203125 70 
C 7 70 5.40625 69.390625 5.40625 65.34375 
L 5.40625 60.703125 
C 5.40625 57.46875 6.40625 56.15625 10.09375 56.15625 
L 15.296875 56.15625 
C 20.09375 56.15625 20.09375 58.28125 20.09375 63.03125 
C 20.09375 67.875 20.09375 70 15.296875 70 
z
M 19.40625 41.15625 
C 19.40625 44.390625 18.703125 46 14.59375 46 
L 10.90625 46 
C 7.296875 46 6.09375 44.890625 6.09375 41.15625 
L 6.09375 4.5625 
C 6.09375 0.9375 7.203125 -0.28125 10.90625 -0.28125 
L 14.59375 -0.28125 
C 18.40625 -0.28125 19.40625 1.03125 19.40625 4.5625 
z
" id="CMSSBX10-105"/>
     <path d="M 43.09375 21.640625 
C 45.40625 21.640625 47.90625 21.640625 47.90625 26.21875 
C 47.90625 39.28125 41.90625 48 27 48 
C 11 48 3.09375 38.921875 3.09375 23.59375 
C 3.09375 7.0625 12.59375 -1 28.296875 -1 
C 32.09375 -1 37.796875 -0.5 44.40625 2.84375 
C 46.59375 3.953125 47.296875 4.25 47.296875 5.46875 
C 47.296875 6.171875 47 9.09375 46.90625 9.890625 
C 46.5 13.015625 46.40625 13.109375 45.5 13.109375 
C 45.09375 13.109375 44.90625 13.109375 43.796875 12.109375 
C 37.90625 6.984375 31.90625 6.28125 28.703125 6.28125 
C 17.40625 6.28125 16.203125 15.21875 15.90625 21.640625 
z
M 16 27 
C 16.296875 33.15625 18.296875 40.71875 27 40.71875 
C 35 40.71875 36.5 34.859375 36.796875 27 
z
" id="CMSSBX10-101"/>
     <path d="M 45.703125 5.15625 
C 45.703125 6.28125 45.296875 10.90625 45.09375 12.21875 
C 45.09375 12.515625 44.90625 13.53125 43.90625 13.53125 
C 43.5 13.53125 43.296875 13.53125 42.296875 12.515625 
C 40.59375 11 35.90625 6.875 27.703125 6.875 
C 17.296875 6.875 17.296875 17.0625 17.296875 23.484375 
C 17.296875 31.65625 17.796875 40.125 28 40.125 
C 34.5 40.125 37.203125 38.5 40.796875 35.484375 
C 42 34.375 42.203125 34.375 42.59375 34.375 
C 43.59375 34.375 43.796875 35.28125 43.90625 35.6875 
C 44.09375 36.5 45.09375 42.140625 45.09375 42.640625 
C 45.09375 43.546875 44.40625 43.953125 42.703125 44.765625 
C 37.90625 46.984375 34.90625 48 27.90625 48 
C 13 48 3.703125 40.9375 3.703125 23.296875 
C 3.703125 6.5625 12.296875 -1 27.40625 -1 
C 30.09375 -1 36.09375 -1 42.796875 2.484375 
C 45.59375 4.03125 45.703125 4.140625 45.703125 5.15625 
z
" id="CMSSBX10-99"/>
     <path d="M 21.796875 39 
L 30.703125 39 
C 31.90625 39 35.5 39 35.5 42.640625 
C 35.5 46.28125 31.90625 46.28125 30.703125 46.28125 
L 21.796875 46.28125 
L 21.796875 54.65625 
C 21.796875 57.890625 21.09375 59.5 17 59.5 
L 13.90625 59.5 
C 10.296875 59.5 9.09375 58.390625 9.09375 54.65625 
L 9.09375 46.28125 
L 6.796875 46.28125 
C 5.703125 46.28125 2 46.28125 2 42.640625 
C 2 39 5.59375 39 6.796875 39 
L 8.796875 39 
L 8.796875 13.5 
C 8.796875 3.328125 12.40625 -1 19.296875 -1 
C 20.203125 -1 24.59375 -1 29.796875 0.609375 
C 31.5 1.125 37.296875 2.9375 37.296875 4.859375 
C 37.296875 5.15625 37.09375 5.875 36.5 7.96875 
C 36 9.984375 35.796875 10.59375 34.90625 10.59375 
C 34.40625 10.59375 34.296875 10.484375 33.703125 9.875 
C 32.59375 9.09375 29.90625 6.875 25.703125 6.875 
C 23.296875 6.875 21.796875 8.59375 21.796875 15.234375 
z
" id="CMSSBX10-116"/>
     <path d="M 50 32.75 
C 50 43.140625 45.59375 47.265625 35.40625 47.265625 
C 24.90625 47.265625 20.40625 39.609375 19.09375 36.875 
L 19 36.875 
L 19 41.984375 
C 19 45.25 18.296875 46.890625 14.203125 46.890625 
L 10.796875 46.890625 
C 7.203125 46.890625 6 45.78125 6 42.03125 
L 6 4.84375 
C 6 1.21875 7.09375 0 10.796875 0 
L 14.796875 0 
C 18.59375 0 19.59375 1.3125 19.59375 4.828125 
L 19.59375 27.109375 
C 19.59375 35.859375 25.40625 40 30.59375 40 
C 35.40625 40 36.40625 37.671875 36.40625 32.53125 
L 36.40625 4.828125 
C 36.40625 1.609375 37.09375 0 41.203125 0 
L 45.203125 0 
C 49 0 50 1.3125 50 4.828125 
z
" id="CMSSBX10-110"/>
    </defs>
    <g style="fill:#262626;" transform="translate(102.49765 13.42665)scale(0.09 -0.09)">
     <use transform="scale(0.996264)" xlink:href="#CMSSBX10-66"/>
     <use transform="translate(73.059766 0)scale(0.996264)" xlink:href="#CMSSBX10-69"/>
     <use transform="translate(136.987061 0)scale(0.996264)" xlink:href="#CMSSBX10-82"/>
     <use transform="translate(207.002671 0)scale(0.996264)" xlink:href="#CMSSBX10-84"/>
     <use transform="translate(280.062437 0)scale(0.996264)" xlink:href="#CMSSBX10-39"/>
     <use transform="translate(310.504006 0)scale(0.996264)" xlink:href="#CMSSBX10-115"/>
     <use transform="translate(389.043255 0)scale(0.996264)" xlink:href="#CMSSBX10-77"/>
     <use transform="translate(486.456276 0)scale(0.996264)" xlink:href="#CMSSBX10-111"/>
     <use transform="translate(538.206944 0)scale(0.996264)" xlink:href="#CMSSBX10-114"/>
     <use transform="translate(575.290354 0)scale(0.996264)" xlink:href="#CMSSBX10-97"/>
     <use transform="translate(627.594549 0)scale(0.996264)" xlink:href="#CMSSBX10-108"/>
     <use transform="translate(689.584651 0)scale(0.996264)" xlink:href="#CMSSBX10-68"/>
     <use transform="translate(768.732731 0)scale(0.996264)" xlink:href="#CMSSBX10-105"/>
     <use transform="translate(794.19295 0)scale(0.996264)" xlink:href="#CMSSBX10-114"/>
     <use transform="translate(831.27636 0)scale(0.996264)" xlink:href="#CMSSBX10-101"/>
     <use transform="translate(882.196813 0)scale(0.996264)" xlink:href="#CMSSBX10-99"/>
     <use transform="translate(930.903323 0)scale(0.996264)" xlink:href="#CMSSBX10-116"/>
     <use transform="translate(971.169227 0)scale(0.996264)" xlink:href="#CMSSBX10-105"/>
     <use transform="translate(996.629446 0)scale(0.996264)" xlink:href="#CMSSBX10-111"/>
     <use transform="translate(1051.42427 0)scale(0.996264)" xlink:href="#CMSSBX10-110"/>
    </g>
   </g>
  </g>
 </g>
 <defs>
  <clipPath id="p1f3208d8bb">
   <rect height="77.616" width="223.2" x="40.727276" y="19.42665"/>
  </clipPath>
 </defs>
</svg>
