<?xml version="1.0" encoding="utf-8" standalone="no"?>
<!DOCTYPE svg PUBLIC "-//W3C//DTD SVG 1.1//EN"
  "http://www.w3.org/Graphics/SVG/1.1/DTD/svg11.dtd">
<!-- Created with matplotlib (https://matplotlib.org/) -->
<svg height="127.295442pt" version="1.1" viewBox="0 0 271.127276 127.295442" width="271.127276pt" xmlns="http://www.w3.org/2000/svg" xmlns:xlink="http://www.w3.org/1999/xlink">
 <defs>
  <style type="text/css">
*{stroke-linecap:butt;stroke-linejoin:round;}
  </style>
 </defs>
 <g id="figure_1">
  <g id="patch_1">
   <path d="M 0 127.295442 
L 271.127276 127.295442 
L 271.127276 -0 
L 0 -0 
z
" style="fill:#ffffff;"/>
  </g>
  <g id="axes_1">
   <g id="patch_2">
    <path d="M 40.727276 97.540782 
L 263.927276 97.540782 
L 263.927276 19.924782 
L 40.727276 19.924782 
z
" style="fill:#ffffff;"/>
   </g>
   <g id="matplotlib.axis_1">
    <g id="xtick_1">
     <g id="line2d_1">
      <path clip-path="url(#p8f626d335d)" d="M 86.09365 97.540782 
L 86.09365 19.924782 
" style="fill:none;stroke:#cccccc;stroke-dasharray:1,1.65;stroke-dashoffset:0;"/>
     </g>
     <g id="text_1">
      <!-- $0.05$ -->
      <defs>
       <path d="M 42 31.640625 
C 42 37.75 41.90625 48.125 37.703125 56.109375 
C 34 63.109375 28.09375 65.59375 22.90625 65.59375 
C 18.09375 65.59375 12 63.40625 8.203125 56.203125 
C 4.203125 48.71875 3.796875 39.4375 3.796875 31.640625 
C 3.796875 25.953125 3.90625 17.28125 7 9.671875 
C 11.296875 -0.609375 19 -2 22.90625 -2 
C 27.5 -2 34.5 -0.109375 38.59375 9.375 
C 41.59375 16.28125 42 24.359375 42 31.640625 
z
M 22.90625 -0.40625 
C 16.5 -0.40625 12.703125 5.078125 11.296875 12.6875 
C 10.203125 18.5625 10.203125 27.15625 10.203125 32.75 
C 10.203125 40.4375 10.203125 46.828125 11.5 52.921875 
C 13.40625 61.390625 19 64 22.90625 64 
C 27 64 32.296875 61.296875 34.203125 53.125 
C 35.5 47.4375 35.59375 40.734375 35.59375 32.75 
C 35.59375 26.25 35.59375 18.265625 34.40625 12.375 
C 32.296875 1.484375 26.40625 -0.40625 22.90625 -0.40625 
z
" id="CMR17-48"/>
       <path d="M 18.40625 4.796875 
C 18.40625 7.6875 16 9.671875 13.59375 9.671875 
C 10.703125 9.671875 8.703125 7.28125 8.703125 4.890625 
C 8.703125 2 11.09375 0 13.5 0 
C 16.40625 0 18.40625 2.390625 18.40625 4.796875 
z
" id="CMMI12-58"/>
       <path d="M 11.40625 57.6875 
C 12.40625 57.28125 16.5 56 20.703125 56 
C 30 56 35.09375 61.109375 38 64.0625 
C 38 64.953125 38 65.5 37.40625 65.5 
C 37.296875 65.5 37.09375 65.5 36.296875 65.046875 
C 32.796875 63.40625 28.703125 62.078125 23.703125 62.078125 
C 20.703125 62.078125 16.203125 62.484375 11.296875 64.671875 
C 10.203125 65.171875 10 65.171875 9.90625 65.171875 
C 9.40625 65.171875 9.296875 65.0625 9.296875 63.078125 
L 9.296875 34.421875 
C 9.296875 32.640625 9.296875 32.140625 10.296875 32.140625 
C 10.796875 32.140625 11 32.34375 11.5 33.03125 
C 14.703125 37.515625 19.09375 39.40625 24.09375 39.40625 
C 27.59375 39.40625 35.09375 37.21875 35.09375 20.140625 
C 35.09375 16.953125 35.09375 11.171875 32.09375 6.578125 
C 29.59375 2.484375 25.703125 0.390625 21.40625 0.390625 
C 14.796875 0.390625 8.09375 5 6.296875 12.71875 
C 6.703125 12.609375 7.5 12.421875 7.90625 12.421875 
C 9.203125 12.421875 11.703125 13.125 11.703125 16.21875 
C 11.703125 18.90625 9.796875 20 7.90625 20 
C 5.59375 20 4.09375 18.59375 4.09375 15.796875 
C 4.09375 7.09375 11 -2 21.59375 -2 
C 31.90625 -2 41.703125 6.875 41.703125 19.75 
C 41.703125 31.71875 33.90625 41 24.203125 41 
C 19.09375 41 14.796875 39.109375 11.40625 35.53125 
z
" id="CMR17-53"/>
      </defs>
      <g style="fill:#262626;" transform="translate(77.9022 107.267432)scale(0.09 -0.09)">
       <use transform="scale(0.996264)" xlink:href="#CMR17-48"/>
       <use transform="translate(45.690477 0)scale(0.996264)" xlink:href="#CMMI12-58"/>
       <use transform="translate(72.787654 0)scale(0.996264)" xlink:href="#CMR17-48"/>
       <use transform="translate(118.478131 0)scale(0.996264)" xlink:href="#CMR17-53"/>
      </g>
     </g>
    </g>
    <g id="xtick_2">
     <g id="line2d_2">
      <path clip-path="url(#p8f626d335d)" d="M 131.835104 97.540782 
L 131.835104 19.924782 
" style="fill:none;stroke:#cccccc;stroke-dasharray:1,1.65;stroke-dashoffset:0;"/>
     </g>
     <g id="text_2">
      <!-- $0.10$ -->
      <defs>
       <path d="M 26.59375 63.40625 
C 26.59375 65.5 26.5 65.5 25.09375 65.5 
C 21.203125 61.1875 15.296875 59.796875 9.703125 59.796875 
C 9.40625 59.796875 8.90625 59.796875 8.796875 59.5 
C 8.703125 59.296875 8.703125 59.09375 8.703125 57 
C 11.796875 57 17 57.59375 21 59.984375 
L 21 7.203125 
C 21 3.6875 20.796875 2.5 12.203125 2.5 
L 9.203125 2.5 
L 9.203125 0 
C 14 0 19 0 23.796875 0 
C 28.59375 0 33.59375 0 38.40625 0 
L 38.40625 2.5 
L 35.40625 2.5 
C 26.796875 2.5 26.59375 3.59375 26.59375 7.15625 
z
" id="CMR17-49"/>
      </defs>
      <g style="fill:#262626;" transform="translate(123.643654 107.267432)scale(0.09 -0.09)">
       <use transform="scale(0.996264)" xlink:href="#CMR17-48"/>
       <use transform="translate(45.690477 0)scale(0.996264)" xlink:href="#CMMI12-58"/>
       <use transform="translate(72.787654 0)scale(0.996264)" xlink:href="#CMR17-49"/>
       <use transform="translate(118.478131 0)scale(0.996264)" xlink:href="#CMR17-48"/>
      </g>
     </g>
    </g>
    <g id="xtick_3">
     <g id="line2d_3">
      <path clip-path="url(#p8f626d335d)" d="M 177.576558 97.540782 
L 177.576558 19.924782 
" style="fill:none;stroke:#cccccc;stroke-dasharray:1,1.65;stroke-dashoffset:0;"/>
     </g>
     <g id="text_3">
      <!-- $0.15$ -->
      <g style="fill:#262626;" transform="translate(169.385108 107.267432)scale(0.09 -0.09)">
       <use transform="scale(0.996264)" xlink:href="#CMR17-48"/>
       <use transform="translate(45.690477 0)scale(0.996264)" xlink:href="#CMMI12-58"/>
       <use transform="translate(72.787654 0)scale(0.996264)" xlink:href="#CMR17-49"/>
       <use transform="translate(118.478131 0)scale(0.996264)" xlink:href="#CMR17-53"/>
      </g>
     </g>
    </g>
    <g id="xtick_4">
     <g id="line2d_4">
      <path clip-path="url(#p8f626d335d)" d="M 223.318013 97.540782 
L 223.318013 19.924782 
" style="fill:none;stroke:#cccccc;stroke-dasharray:1,1.65;stroke-dashoffset:0;"/>
     </g>
     <g id="text_4">
      <!-- $0.20$ -->
      <defs>
       <path d="M 41.703125 15.453125 
L 39.90625 15.453125 
C 38.90625 8.375 38.09375 7.171875 37.703125 6.5625 
C 37.203125 5.765625 30 5.765625 28.59375 5.765625 
L 9.40625 5.765625 
C 13 9.671875 20 16.75 28.5 24.953125 
C 34.59375 30.734375 41.703125 37.53125 41.703125 47.421875 
C 41.703125 59.21875 32.296875 66 21.796875 66 
C 10.796875 66 4.09375 56.3125 4.09375 47.34375 
C 4.09375 43.4375 7 42.9375 8.203125 42.9375 
C 9.203125 42.9375 12.203125 43.546875 12.203125 47.03125 
C 12.203125 50.109375 9.59375 51 8.203125 51 
C 7.59375 51 7 50.90625 6.59375 50.703125 
C 8.5 59.21875 14.296875 63.40625 20.40625 63.40625 
C 29.09375 63.40625 34.796875 56.515625 34.796875 47.421875 
C 34.796875 38.734375 29.703125 31.25 24 24.75 
L 4.09375 2.28125 
L 4.09375 0 
L 39.296875 0 
z
" id="CMR17-50"/>
      </defs>
      <g style="fill:#262626;" transform="translate(215.126563 107.267432)scale(0.09 -0.09)">
       <use transform="scale(0.996264)" xlink:href="#CMR17-48"/>
       <use transform="translate(45.690477 0)scale(0.996264)" xlink:href="#CMMI12-58"/>
       <use transform="translate(72.787654 0)scale(0.996264)" xlink:href="#CMR17-50"/>
       <use transform="translate(118.478131 0)scale(0.996264)" xlink:href="#CMR17-48"/>
      </g>
     </g>
    </g>
    <g id="text_5">
     <!-- MCM score -->
     <defs>
      <path d="M 49.90625 37.046875 
L 45.09375 23.015625 
C 44.296875 20.421875 41.59375 12.359375 41 9.171875 
L 40.90625 9.171875 
C 40.59375 11.171875 40 13.265625 38.40625 18.34375 
C 37.5 21.328125 36.5 24.40625 35.5 27.203125 
L 20.703125 69 
L 9 69 
L 9 0 
L 16.796875 0 
L 16.796875 60.9375 
L 16.90625 60.9375 
C 16.90625 60.84375 17.796875 56.453125 23.90625 39.046875 
L 37.09375 1.5 
L 44.5 1.5 
L 56.40625 34.859375 
C 57.203125 37.15625 59.703125 44.421875 60.796875 47.90625 
C 61.796875 50.890625 64.296875 58.25 64.90625 61.140625 
L 65 61.140625 
L 65 0 
L 72.90625 0 
L 72.90625 69 
L 61.296875 69 
z
" id="CMSS17-77"/>
      <path d="M 54.703125 11.15625 
C 48 6.671875 44.90625 5.375 36.796875 5.375 
C 22.796875 5.375 14.59375 20.359375 14.59375 34.046875 
C 14.59375 48.625 23 63 37.203125 63 
C 43.59375 63 47.796875 61.21875 52.90625 58.046875 
L 54.296875 65.890625 
C 49.5 68.28125 43.40625 69.375 37.296875 69.375 
C 18.09375 69.375 6.203125 51.8125 6.203125 34.046875 
C 6.203125 14.484375 20.296875 -1 36.296875 -1 
C 44.90625 -1 47.90625 -0.296875 55.296875 4.375 
z
" id="CMSS17-67"/>
      <path d="M 32.203125 41.046875 
C 26.296875 43.859375 21.703125 43.859375 18.703125 43.859375 
C 11.59375 43.859375 3.09375 41.375 3.09375 31.296875 
C 3.09375 21.234375 14.09375 19.03125 17.09375 18.421875 
C 21.703125 17.53125 26.796875 16.53125 26.796875 11.5625 
C 26.796875 5.265625 19.59375 5.265625 18.296875 5.265625 
C 14.296875 5.265625 8.796875 6.359375 3.796875 9.96875 
L 2.59375 3.28125 
C 8.296875 0 13.796875 -1 18.40625 -1 
C 30.703125 -1 33.796875 6.5 33.796875 12.203125 
C 33.796875 17.09375 31 20.390625 29.09375 21.890625 
C 25.796875 24.5 24.59375 24.796875 16.40625 26.5 
C 15 26.703125 10.09375 27.796875 10.09375 32.28125 
C 10.09375 38 16.40625 38 17.796875 38 
C 24.296875 38 28.296875 35.984375 31 34.5 
z
" id="CMSS17-115"/>
      <path d="M 38.5 39.703125 
C 38.5 40.390625 33.90625 42.40625 32.703125 42.796875 
C 29.40625 44 25.203125 44 24.09375 44 
C 11.09375 44 3.296875 32.703125 3.296875 21.296875 
C 3.296875 9.296875 12 -1 23.703125 -1 
C 30.40625 -1 35.203125 1.1875 39.09375 3.78125 
L 38.5 10.375 
C 34.203125 7.078125 29.203125 5.265625 23.796875 5.265625 
C 16 5.265625 10.90625 12.09375 10.90625 21.390625 
C 10.90625 28.609375 14.203125 37.71875 24.203125 37.71875 
C 29.703125 37.71875 32.796875 36.609375 37.40625 33.515625 
z
" id="CMSS17-99"/>
      <path d="M 44.203125 21.1875 
C 44.203125 34 34.703125 44 23.5 44 
C 12 44 2.703125 33.703125 2.703125 21.1875 
C 2.703125 8.5 12.296875 -1 23.40625 -1 
C 34.796875 -1 44.203125 8.796875 44.203125 21.1875 
z
M 23.5 5.265625 
C 16.40625 5.265625 10.296875 11.078125 10.296875 22 
C 10.296875 33.609375 17.40625 37.921875 23.40625 37.921875 
C 29.90625 37.921875 36.59375 33.21875 36.59375 22 
C 36.59375 10.671875 30.09375 5.265625 23.5 5.265625 
z
" id="CMSS17-111"/>
      <path d="M 14.90625 21.296875 
C 14.90625 30.703125 21.796875 37 30.59375 37 
L 30.59375 43.578125 
C 24.203125 43.578125 18.203125 40.390625 14.59375 35.203125 
L 14.59375 43.09375 
L 7.5 43.09375 
L 7.5 0 
L 14.90625 0 
z
" id="CMSS17-114"/>
      <path d="M 39.09375 21.515625 
C 39.09375 24.84375 38.90625 31.296875 35.703125 36.640625 
C 32.203125 42.390625 26.5 44 22.203125 44 
C 11.796875 44 3 34.1875 3 21.484375 
C 3 9.09375 12.09375 -1 23.59375 -1 
C 28.09375 -1 33.59375 0.296875 38.59375 3.875 
C 38.59375 4.28125 38.40625 6.46875 38.296875 6.5625 
C 38.296875 6.765625 38 9.84375 38 10.25 
C 33.203125 6.359375 27.703125 5.078125 23.703125 5.078125 
C 17.296875 5.078125 10.40625 10.421875 10.09375 21.515625 
z
M 10.90625 27 
C 12.203125 32.5625 16.59375 37.828125 22.203125 37.828125 
C 23.703125 37.828125 30.703125 37.828125 32.5 27 
z
" id="CMSS17-101"/>
     </defs>
     <g style="fill:#262626;" transform="translate(131.989373 118.545696)scale(0.08 -0.08)">
      <use transform="scale(0.996264)" xlink:href="#CMSS17-77"/>
      <use transform="translate(81.67603 0)scale(0.996264)" xlink:href="#CMSS17-67"/>
      <use transform="translate(141.531802 0)scale(0.996264)" xlink:href="#CMSS17-77"/>
      <use transform="translate(254.436944 0)scale(0.996264)" xlink:href="#CMSS17-115"/>
      <use transform="translate(290.350486 0)scale(0.996264)" xlink:href="#CMSS17-99"/>
      <use transform="translate(331.989308 0)scale(0.996264)" xlink:href="#CMSS17-111"/>
      <use transform="translate(376.230478 0)scale(0.996264)" xlink:href="#CMSS17-114"/>
      <use transform="translate(408.14025 0)scale(0.996264)" xlink:href="#CMSS17-101"/>
     </g>
    </g>
   </g>
   <g id="matplotlib.axis_2">
    <g id="ytick_1">
     <g id="line2d_5">
      <path clip-path="url(#p8f626d335d)" d="M 40.727276 94.555551 
L 263.927276 94.555551 
" style="fill:none;stroke:#cccccc;stroke-dasharray:1,1.65;stroke-dashoffset:0;"/>
     </g>
     <g id="text_6">
      <!-- $-1.0$ -->
      <defs>
       <path d="M 65.90625 23 
C 67.59375 23 69.40625 23 69.40625 25 
C 69.40625 27 67.59375 27 65.90625 27 
L 11.796875 27 
C 10.09375 27 8.296875 27 8.296875 25 
C 8.296875 23 10.09375 23 11.796875 23 
z
" id="CMSY10-0"/>
      </defs>
      <g style="fill:#262626;" transform="translate(18.284547 97.668876)scale(0.09 -0.09)">
       <use transform="scale(0.996264)" xlink:href="#CMSY10-0"/>
       <use transform="translate(77.487468 0)scale(0.996264)" xlink:href="#CMR17-49"/>
       <use transform="translate(123.177945 0)scale(0.996264)" xlink:href="#CMMI12-58"/>
       <use transform="translate(150.275122 0)scale(0.996264)" xlink:href="#CMR17-48"/>
      </g>
     </g>
    </g>
    <g id="ytick_2">
     <g id="line2d_6">
      <path clip-path="url(#p8f626d335d)" d="M 40.727276 79.629397 
L 263.927276 79.629397 
" style="fill:none;stroke:#cccccc;stroke-dasharray:1,1.65;stroke-dashoffset:0;"/>
     </g>
     <g id="text_7">
      <!-- $-0.5$ -->
      <g style="fill:#262626;" transform="translate(18.284547 82.742722)scale(0.09 -0.09)">
       <use transform="scale(0.996264)" xlink:href="#CMSY10-0"/>
       <use transform="translate(77.487468 0)scale(0.996264)" xlink:href="#CMR17-48"/>
       <use transform="translate(123.177945 0)scale(0.996264)" xlink:href="#CMMI12-58"/>
       <use transform="translate(150.275122 0)scale(0.996264)" xlink:href="#CMR17-53"/>
      </g>
     </g>
    </g>
    <g id="ytick_3">
     <g id="line2d_7">
      <path clip-path="url(#p8f626d335d)" d="M 40.727276 64.703244 
L 263.927276 64.703244 
" style="fill:none;stroke:#cccccc;stroke-dasharray:1,1.65;stroke-dashoffset:0;"/>
     </g>
     <g id="text_8">
      <!-- $0.0$ -->
      <g style="fill:#262626;" transform="translate(25.452066 67.816569)scale(0.09 -0.09)">
       <use transform="scale(0.996264)" xlink:href="#CMR17-48"/>
       <use transform="translate(45.690477 0)scale(0.996264)" xlink:href="#CMMI12-58"/>
       <use transform="translate(72.787654 0)scale(0.996264)" xlink:href="#CMR17-48"/>
      </g>
     </g>
    </g>
    <g id="ytick_4">
     <g id="line2d_8">
      <path clip-path="url(#p8f626d335d)" d="M 40.727276 49.77709 
L 263.927276 49.77709 
" style="fill:none;stroke:#cccccc;stroke-dasharray:1,1.65;stroke-dashoffset:0;"/>
     </g>
     <g id="text_9">
      <!-- $0.5$ -->
      <g style="fill:#262626;" transform="translate(25.452066 52.890415)scale(0.09 -0.09)">
       <use transform="scale(0.996264)" xlink:href="#CMR17-48"/>
       <use transform="translate(45.690477 0)scale(0.996264)" xlink:href="#CMMI12-58"/>
       <use transform="translate(72.787654 0)scale(0.996264)" xlink:href="#CMR17-53"/>
      </g>
     </g>
    </g>
    <g id="ytick_5">
     <g id="line2d_9">
      <path clip-path="url(#p8f626d335d)" d="M 40.727276 34.850936 
L 263.927276 34.850936 
" style="fill:none;stroke:#cccccc;stroke-dasharray:1,1.65;stroke-dashoffset:0;"/>
     </g>
     <g id="text_10">
      <!-- $1.0$ -->
      <g style="fill:#262626;" transform="translate(25.452066 37.964261)scale(0.09 -0.09)">
       <use transform="scale(0.996264)" xlink:href="#CMR17-49"/>
       <use transform="translate(45.690477 0)scale(0.996264)" xlink:href="#CMMI12-58"/>
       <use transform="translate(72.787654 0)scale(0.996264)" xlink:href="#CMR17-48"/>
      </g>
     </g>
    </g>
    <g id="text_11">
     <!-- User Study value -->
     <defs>
      <path d="M 55.5 68.5 
L 47.90625 68.5 
L 47.90625 22.640625 
C 47.90625 9.4375 39.796875 3.578125 32.40625 3.578125 
C 24.796875 3.578125 17.203125 9.734375 17.203125 22.546875 
L 17.203125 68.5 
L 8.796875 68.5 
L 8.796875 22.71875 
C 8.796875 8.421875 19.90625 -2 32.296875 -2 
C 44.703125 -2 55.5 8.421875 55.5 22.71875 
z
" id="CMSS17-85"/>
      <path d="M 43.703125 65.140625 
C 39.296875 67.71875 34.5 70 26.40625 70 
C 13.5 70 5.203125 60.609375 5.203125 51.03125 
C 5.203125 47.265625 6.296875 43.015625 10.203125 38.671875 
C 14.09375 34.3125 18.5 33.140625 24.09375 31.765625 
C 26.40625 31.15625 30.296875 30.0625 31 29.78125 
C 36.59375 27.609375 39.296875 22.5625 39.296875 17.8125 
C 39.296875 11.59375 34.40625 4.96875 25.703125 4.96875 
C 22.703125 4.96875 13.90625 4.96875 5.59375 12.796875 
L 4.203125 4.96875 
C 12.40625 -1 21.296875 -2 25.796875 -2 
C 38.09375 -2 46.90625 7.625 46.90625 18.53125 
C 46.90625 22.5 45.703125 27.546875 41.5 32.203125 
C 37.40625 36.671875 33.796875 37.65625 25.59375 39.828125 
C 20.90625 41.03125 17.90625 41.828125 15.40625 44.890625 
C 13.703125 47.078125 12.796875 49.15625 12.796875 51.828125 
C 12.796875 57.390625 17.59375 63.4375 26.40625 63.4375 
C 30.796875 63.4375 36.5 62.53125 42.296875 57.1875 
z
" id="CMSS17-83"/>
      <path d="M 16.703125 37 
L 29.703125 37 
L 29.703125 42.765625 
L 16.703125 42.765625 
L 16.703125 55 
L 9.59375 55 
L 9.59375 42.765625 
L 1.703125 42.765625 
L 1.703125 37 
L 9.40625 37 
L 9.40625 11.703125 
C 9.40625 6 10.703125 -1 17.296875 -1 
C 22.296875 -1 26.90625 0.390625 31.296875 2.6875 
L 29.703125 8.5625 
C 27.296875 6.46875 24.40625 5.265625 21.296875 5.265625 
C 16.90625 5.265625 16.703125 10.875 16.703125 13.375 
z
" id="CMSS17-116"/>
      <path d="M 40.90625 42.796875 
L 33.296875 42.796875 
L 33.296875 15.1875 
C 33.296875 7.78125 27.90625 4.78125 22.203125 4.78125 
C 15.59375 4.78125 15 6.984375 15 11.078125 
L 15 42.796875 
L 7.40625 42.796875 
L 7.40625 10.59375 
C 7.40625 2.796875 10.09375 -1 17 -1 
C 20.40625 -1 28.09375 -0.203125 33.5 4.78125 
L 33.5 0 
L 40.90625 0 
z
" id="CMSS17-117"/>
      <path d="M 40.796875 69 
L 33.40625 69 
L 33.40625 38.09375 
C 30.296875 40.671875 25.203125 43.0625 19.59375 43.0625 
C 10.5 43.0625 3.296875 33.296875 3.296875 21.046875 
C 3.296875 8.78125 10.40625 -1 19.296875 -1 
C 26.203125 -1 30.796875 2.6875 33.203125 4.78125 
L 33.203125 -0.203125 
L 40.796875 -0.203125 
z
M 33.203125 13.0625 
C 33.203125 11.671875 33.203125 10.203125 30.09375 7.53125 
C 28.09375 5.859375 25.703125 5.078125 23.40625 5.078125 
C 18 5.078125 10.90625 9 10.90625 20.9375 
C 10.90625 33.34375 18.90625 37 24.40625 37 
C 28.09375 37 31.09375 35.21875 33.203125 32.265625 
z
" id="CMSS17-100"/>
      <path d="M 41.796875 43 
L 34 43 
C 25.5 20.21875 22.59375 10.96875 22.40625 5.984375 
L 22.296875 5.984375 
C 22 10.875 17.59375 22.8125 14.09375 31.359375 
L 9.40625 43 
L 1.296875 43 
L 19 0.203125 
C 17.90625 -2.78125 16.296875 -7.265625 15.796875 -8.265625 
C 13.59375 -13.828125 12.09375 -13.828125 10.5 -13.828125 
C 10.09375 -13.828125 6.90625 -13.828125 3.296875 -12.640625 
L 3.90625 -19.203125 
C 6.40625 -19.703125 8.90625 -20 10.703125 -20 
C 13.203125 -20 18.203125 -20 22.796875 -7.765625 
z
" id="CMSS17-121"/>
      <path d="M 41.796875 43 
L 34 43 
L 27.296875 24.3125 
C 25.203125 18.203125 22.203125 9.796875 21.703125 5.5 
L 21.59375 5.5 
C 21.40625 7.3125 20.59375 9.90625 20.09375 11.703125 
C 19.5 13.90625 18.703125 16.5 18.09375 18.3125 
L 9.296875 43 
L 1.296875 43 
L 17.09375 0 
L 26 0 
z
" id="CMSS17-118"/>
      <path d="M 37.59375 27.984375 
C 37.59375 37.375 30.90625 43.875 21.90625 43.875 
C 17.5 43.875 12.703125 43.078125 7.203125 39.890625 
L 7.796875 33.359375 
C 10.296875 35.125 14.59375 38 21.796875 38 
C 26.90625 38 30 34.0625 30 27.84375 
L 30 24 
C 14 24 4 19.34375 4 11.34375 
C 4 7.203125 6.5 -1 14.796875 -1 
C 16.296875 -1 24.40625 -1 30.203125 3.390625 
L 30.203125 -0.296875 
L 37.59375 -0.296875 
z
M 30 12.75 
C 30 10.953125 30 8.5625 27 6.78125 
C 24.40625 5.078125 21.09375 5.078125 19.703125 5.078125 
C 14.703125 5.078125 11.296875 7.984375 11.296875 11.625 
C 11.296875 18.921875 26.90625 18.921875 30 18.921875 
z
" id="CMSS17-97"/>
      <path d="M 14.796875 69 
L 7.40625 69 
L 7.40625 0 
L 14.796875 0 
z
" id="CMSS17-108"/>
     </defs>
     <g style="fill:#262626;" transform="translate(12.734802 88.680613)rotate(-90)scale(0.08 -0.08)">
      <use transform="scale(0.996264)" xlink:href="#CMSS17-85"/>
      <use transform="translate(64.13974 0)scale(0.996264)" xlink:href="#CMSS17-115"/>
      <use transform="translate(100.053282 0)scale(0.996264)" xlink:href="#CMSS17-101"/>
      <use transform="translate(141.692104 0)scale(0.996264)" xlink:href="#CMSS17-114"/>
      <use transform="translate(204.83099 0)scale(0.996264)" xlink:href="#CMSS17-83"/>
      <use transform="translate(256.879506 0)scale(0.996264)" xlink:href="#CMSS17-116"/>
      <use transform="translate(290.711072 0)scale(0.996264)" xlink:href="#CMSS17-117"/>
      <use transform="translate(338.916016 0)scale(0.996264)" xlink:href="#CMSS17-100"/>
      <use transform="translate(387.120959 0)scale(0.996264)" xlink:href="#CMSS17-121"/>
      <use transform="translate(461.350213 0)scale(0.996264)" xlink:href="#CMSS17-118"/>
      <use transform="translate(504.350355 0)scale(0.996264)" xlink:href="#CMSS17-97"/>
      <use transform="translate(549.272275 0)scale(0.996264)" xlink:href="#CMSS17-108"/>
      <use transform="translate(571.452999 0)scale(0.996264)" xlink:href="#CMSS17-117"/>
      <use transform="translate(619.657942 0)scale(0.996264)" xlink:href="#CMSS17-101"/>
     </g>
    </g>
   </g>
   <g id="PathCollection_1">
    <defs>
     <path d="M 0 1.118034 
C 0.296506 1.118034 0.580908 1.000231 0.790569 0.790569 
C 1.000231 0.580908 1.118034 0.296506 1.118034 0 
C 1.118034 -0.296506 1.000231 -0.580908 0.790569 -0.790569 
C 0.580908 -1.000231 0.296506 -1.118034 0 -1.118034 
C -0.296506 -1.118034 -0.580908 -1.000231 -0.790569 -0.790569 
C -1.000231 -0.580908 -1.118034 -0.296506 -1.118034 0 
C -1.118034 0.296506 -1.000231 0.580908 -0.790569 0.790569 
C -0.580908 1.000231 -0.296506 1.118034 0 1.118034 
z
" id="m8880222360" style="stroke:#be6f00;"/>
    </defs>
    <g clip-path="url(#p8f626d335d)">
     <use style="fill:#be6f00;stroke:#be6f00;" x="154.98028" xlink:href="#m8880222360" y="38.968496"/>
     <use style="fill:#be6f00;stroke:#be6f00;" x="185.535571" xlink:href="#m8880222360" y="34.850936"/>
     <use style="fill:#be6f00;stroke:#be6f00;" x="91.399659" xlink:href="#m8880222360" y="34.850936"/>
     <use style="fill:#be6f00;stroke:#be6f00;" x="170.532374" xlink:href="#m8880222360" y="38.968496"/>
     <use style="fill:#be6f00;stroke:#be6f00;" x="194.409414" xlink:href="#m8880222360" y="38.968496"/>
     <use style="fill:#be6f00;stroke:#be6f00;" x="195.324243" xlink:href="#m8880222360" y="36.909716"/>
     <use style="fill:#be6f00;stroke:#be6f00;" x="207.034055" xlink:href="#m8880222360" y="36.909716"/>
     <use style="fill:#be6f00;stroke:#be6f00;" x="190.292683" xlink:href="#m8880222360" y="36.909716"/>
     <use style="fill:#be6f00;stroke:#be6f00;" x="109.513274" xlink:href="#m8880222360" y="59.175038"/>
     <use style="fill:#be6f00;stroke:#be6f00;" x="184.803708" xlink:href="#m8880222360" y="36.909716"/>
     <use style="fill:#be6f00;stroke:#be6f00;" x="100.182018" xlink:href="#m8880222360" y="36.983244"/>
     <use style="fill:#be6f00;stroke:#be6f00;" x="175.10652" xlink:href="#m8880222360" y="36.909716"/>
     <use style="fill:#be6f00;stroke:#be6f00;" x="165.0434" xlink:href="#m8880222360" y="34.850936"/>
     <use style="fill:#be6f00;stroke:#be6f00;" x="145.740506" xlink:href="#m8880222360" y="51.321175"/>
     <use style="fill:#be6f00;stroke:#be6f00;" x="104.939129" xlink:href="#m8880222360" y="59.556294"/>
     <use style="fill:#be6f00;stroke:#be6f00;" x="101.18833" xlink:href="#m8880222360" y="43.086055"/>
     <use style="fill:#be6f00;stroke:#be6f00;" x="108.506963" xlink:href="#m8880222360" y="38.968496"/>
     <use style="fill:#be6f00;stroke:#be6f00;" x="88.28924" xlink:href="#m8880222360" y="59.556294"/>
     <use style="fill:#be6f00;stroke:#be6f00;" x="59.655089" xlink:href="#m8880222360" y="63.597603"/>
     <use style="fill:#be6f00;stroke:#be6f00;" x="194.409414" xlink:href="#m8880222360" y="36.909716"/>
     <use style="fill:#be6f00;stroke:#be6f00;" x="196.330555" xlink:href="#m8880222360" y="36.909716"/>
     <use style="fill:#be6f00;stroke:#be6f00;" x="196.056106" xlink:href="#m8880222360" y="36.983244"/>
     <use style="fill:#be6f00;stroke:#be6f00;" x="162.664844" xlink:href="#m8880222360" y="36.909716"/>
     <use style="fill:#be6f00;stroke:#be6f00;" x="148.942408" xlink:href="#m8880222360" y="41.027275"/>
     <use style="fill:#be6f00;stroke:#be6f00;" x="141.989707" xlink:href="#m8880222360" y="47.203615"/>
     <use style="fill:#be6f00;stroke:#be6f00;" x="124.79092" xlink:href="#m8880222360" y="36.909716"/>
     <use style="fill:#be6f00;stroke:#be6f00;" x="160.01184" xlink:href="#m8880222360" y="38.968496"/>
     <use style="fill:#be6f00;stroke:#be6f00;" x="164.494502" xlink:href="#m8880222360" y="47.203615"/>
     <use style="fill:#be6f00;stroke:#be6f00;" x="178.308422" xlink:href="#m8880222360" y="41.247859"/>
     <use style="fill:#be6f00;stroke:#be6f00;" x="164.494502" xlink:href="#m8880222360" y="41.027275"/>
     <use style="fill:#be6f00;stroke:#be6f00;" x="180.77846" xlink:href="#m8880222360" y="50.32991"/>
     <use style="fill:#be6f00;stroke:#be6f00;" x="206.942572" xlink:href="#m8880222360" y="38.968496"/>
     <use style="fill:#be6f00;stroke:#be6f00;" x="169.526062" xlink:href="#m8880222360" y="36.909716"/>
     <use style="fill:#be6f00;stroke:#be6f00;" x="99.358672" xlink:href="#m8880222360" y="43.086055"/>
     <use style="fill:#be6f00;stroke:#be6f00;" x="182.242187" xlink:href="#m8880222360" y="34.850936"/>
     <use style="fill:#be6f00;stroke:#be6f00;" x="64.503684" xlink:href="#m8880222360" y="34.850936"/>
     <use style="fill:#be6f00;stroke:#be6f00;" x="59.289158" xlink:href="#m8880222360" y="43.086055"/>
     <use style="fill:#be6f00;stroke:#be6f00;" x="106.036924" xlink:href="#m8880222360" y="34.850936"/>
     <use style="fill:#be6f00;stroke:#be6f00;" x="93.686731" xlink:href="#m8880222360" y="38.968496"/>
     <use style="fill:#be6f00;stroke:#be6f00;" x="115.734112" xlink:href="#m8880222360" y="43.086055"/>
     <use style="fill:#be6f00;stroke:#be6f00;" x="140.160049" xlink:href="#m8880222360" y="55.438734"/>
     <use style="fill:#be6f00;stroke:#be6f00;" x="189.194888" xlink:href="#m8880222360" y="38.968496"/>
     <use style="fill:#be6f00;stroke:#be6f00;" x="202.917324" xlink:href="#m8880222360" y="61.615074"/>
     <use style="fill:#be6f00;stroke:#be6f00;" x="211.333752" xlink:href="#m8880222360" y="41.247859"/>
     <use style="fill:#be6f00;stroke:#be6f00;" x="184.620742" xlink:href="#m8880222360" y="38.968496"/>
     <use style="fill:#be6f00;stroke:#be6f00;" x="157.267353" xlink:href="#m8880222360" y="41.247859"/>
     <use style="fill:#be6f00;stroke:#be6f00;" x="189.194888" xlink:href="#m8880222360" y="34.850936"/>
     <use style="fill:#be6f00;stroke:#be6f00;" x="90.393347" xlink:href="#m8880222360" y="47.203615"/>
     <use style="fill:#be6f00;stroke:#be6f00;" x="77.128325" xlink:href="#m8880222360" y="45.144835"/>
     <use style="fill:#be6f00;stroke:#be6f00;" x="102.286125" xlink:href="#m8880222360" y="36.909716"/>
     <use style="fill:#be6f00;stroke:#be6f00;" x="120.033809" xlink:href="#m8880222360" y="45.144835"/>
     <use style="fill:#be6f00;stroke:#be6f00;" x="227.800675" xlink:href="#m8880222360" y="43.086055"/>
     <use style="fill:#be6f00;stroke:#be6f00;" x="219.292765" xlink:href="#m8880222360" y="38.968496"/>
     <use style="fill:#be6f00;stroke:#be6f00;" x="242.712389" xlink:href="#m8880222360" y="38.968496"/>
     <use style="fill:#be6f00;stroke:#be6f00;" x="137.872976" xlink:href="#m8880222360" y="36.909716"/>
     <use style="fill:#be6f00;stroke:#be6f00;" x="149.94872" xlink:href="#m8880222360" y="43.086055"/>
     <use style="fill:#be6f00;stroke:#be6f00;" x="163.945605" xlink:href="#m8880222360" y="38.968496"/>
     <use style="fill:#be6f00;stroke:#be6f00;" x="145.923472" xlink:href="#m8880222360" y="36.909716"/>
     <use style="fill:#be6f00;stroke:#be6f00;" x="85.270304" xlink:href="#m8880222360" y="38.968496"/>
     <use style="fill:#be6f00;stroke:#be6f00;" x="120.765672" xlink:href="#m8880222360" y="38.968496"/>
     <use style="fill:#be6f00;stroke:#be6f00;" x="95.150458" xlink:href="#m8880222360" y="38.968496"/>
    </g>
   </g>
   <g id="PathCollection_2">
    <defs>
     <path d="M 0 1.118034 
C 0.296506 1.118034 0.580908 1.000231 0.790569 0.790569 
C 1.000231 0.580908 1.118034 0.296506 1.118034 0 
C 1.118034 -0.296506 1.000231 -0.580908 0.790569 -0.790569 
C 0.580908 -1.000231 0.296506 -1.118034 0 -1.118034 
C -0.296506 -1.118034 -0.580908 -1.000231 -0.790569 -0.790569 
C -1.000231 -0.580908 -1.118034 -0.296506 -1.118034 0 
C -1.118034 0.296506 -1.000231 0.580908 -0.790569 0.790569 
C -0.580908 1.000231 -0.296506 1.118034 0 1.118034 
z
" id="mcfaeda30dc" style="stroke:#00715e;"/>
    </defs>
    <g clip-path="url(#p8f626d335d)">
     <use style="fill:#00715e;stroke:#00715e;" x="165.409332" xlink:href="#mcfaeda30dc" y="92.496771"/>
     <use style="fill:#00715e;stroke:#00715e;" x="188.371542" xlink:href="#mcfaeda30dc" y="92.496771"/>
     <use style="fill:#00715e;stroke:#00715e;" x="172.544998" xlink:href="#mcfaeda30dc" y="92.496771"/>
     <use style="fill:#00715e;stroke:#00715e;" x="156.901421" xlink:href="#mcfaeda30dc" y="65.732634"/>
     <use style="fill:#00715e;stroke:#00715e;" x="179.131768" xlink:href="#mcfaeda30dc" y="84.261652"/>
     <use style="fill:#00715e;stroke:#00715e;" x="174.740588" xlink:href="#mcfaeda30dc" y="88.379212"/>
     <use style="fill:#00715e;stroke:#00715e;" x="156.901421" xlink:href="#mcfaeda30dc" y="73.967753"/>
     <use style="fill:#00715e;stroke:#00715e;" x="136.958147" xlink:href="#mcfaeda30dc" y="65.732634"/>
     <use style="fill:#00715e;stroke:#00715e;" x="97.894945" xlink:href="#mcfaeda30dc" y="77.49709"/>
     <use style="fill:#00715e;stroke:#00715e;" x="153.699519" xlink:href="#mcfaeda30dc" y="78.085313"/>
     <use style="fill:#00715e;stroke:#00715e;" x="169.891994" xlink:href="#mcfaeda30dc" y="78.085313"/>
     <use style="fill:#00715e;stroke:#00715e;" x="113.538522" xlink:href="#mcfaeda30dc" y="88.379212"/>
     <use style="fill:#00715e;stroke:#00715e;" x="161.658532" xlink:href="#mcfaeda30dc" y="67.791413"/>
     <use style="fill:#00715e;stroke:#00715e;" x="130.462861" xlink:href="#mcfaeda30dc" y="73.967753"/>
     <use style="fill:#00715e;stroke:#00715e;" x="143.361951" xlink:href="#mcfaeda30dc" y="92.496771"/>
     <use style="fill:#00715e;stroke:#00715e;" x="190.475648" xlink:href="#mcfaeda30dc" y="94.555551"/>
     <use style="fill:#00715e;stroke:#00715e;" x="163.305225" xlink:href="#mcfaeda30dc" y="65.732634"/>
     <use style="fill:#00715e;stroke:#00715e;" x="96.79715" xlink:href="#mcfaeda30dc" y="90.437992"/>
     <use style="fill:#00715e;stroke:#00715e;" x="114.819283" xlink:href="#mcfaeda30dc" y="92.496771"/>
     <use style="fill:#00715e;stroke:#00715e;" x="136.775181" xlink:href="#mcfaeda30dc" y="94.555551"/>
     <use style="fill:#00715e;stroke:#00715e;" x="102.926505" xlink:href="#mcfaeda30dc" y="94.555551"/>
     <use style="fill:#00715e;stroke:#00715e;" x="95.51639" xlink:href="#mcfaeda30dc" y="92.496771"/>
     <use style="fill:#00715e;stroke:#00715e;" x="110.336621" xlink:href="#mcfaeda30dc" y="86.320432"/>
     <use style="fill:#00715e;stroke:#00715e;" x="104.756163" xlink:href="#mcfaeda30dc" y="69.850193"/>
     <use style="fill:#00715e;stroke:#00715e;" x="131.743621" xlink:href="#mcfaeda30dc" y="92.496771"/>
     <use style="fill:#00715e;stroke:#00715e;" x="79.689846" xlink:href="#mcfaeda30dc" y="86.320432"/>
     <use style="fill:#00715e;stroke:#00715e;" x="110.885518" xlink:href="#mcfaeda30dc" y="92.496771"/>
     <use style="fill:#00715e;stroke:#00715e;" x="110.336621" xlink:href="#mcfaeda30dc" y="92.496771"/>
     <use style="fill:#00715e;stroke:#00715e;" x="147.75313" xlink:href="#mcfaeda30dc" y="94.555551"/>
     <use style="fill:#00715e;stroke:#00715e;" x="154.888797" xlink:href="#mcfaeda30dc" y="78.085313"/>
     <use style="fill:#00715e;stroke:#00715e;" x="163.305225" xlink:href="#mcfaeda30dc" y="67.791413"/>
     <use style="fill:#00715e;stroke:#00715e;" x="68.345966" xlink:href="#mcfaeda30dc" y="90.437992"/>
     <use style="fill:#00715e;stroke:#00715e;" x="131.469173" xlink:href="#mcfaeda30dc" y="94.555551"/>
     <use style="fill:#00715e;stroke:#00715e;" x="128.633202" xlink:href="#mcfaeda30dc" y="86.320432"/>
     <use style="fill:#00715e;stroke:#00715e;" x="71.273419" xlink:href="#mcfaeda30dc" y="92.496771"/>
     <use style="fill:#00715e;stroke:#00715e;" x="253.781821" xlink:href="#mcfaeda30dc" y="83.894013"/>
     <use style="fill:#00715e;stroke:#00715e;" x="101.096847" xlink:href="#mcfaeda30dc" y="90.437992"/>
     <use style="fill:#00715e;stroke:#00715e;" x="117.289322" xlink:href="#mcfaeda30dc" y="92.496771"/>
     <use style="fill:#00715e;stroke:#00715e;" x="59.929538" xlink:href="#mcfaeda30dc" y="94.555551"/>
     <use style="fill:#00715e;stroke:#00715e;" x="88.106274" xlink:href="#mcfaeda30dc" y="92.496771"/>
     <use style="fill:#00715e;stroke:#00715e;" x="134.030694" xlink:href="#mcfaeda30dc" y="86.320432"/>
     <use style="fill:#00715e;stroke:#00715e;" x="155.254729" xlink:href="#mcfaeda30dc" y="94.555551"/>
     <use style="fill:#00715e;stroke:#00715e;" x="191.390478" xlink:href="#mcfaeda30dc" y="92.496771"/>
     <use style="fill:#00715e;stroke:#00715e;" x="155.254729" xlink:href="#mcfaeda30dc" y="94.555551"/>
     <use style="fill:#00715e;stroke:#00715e;" x="183.61443" xlink:href="#mcfaeda30dc" y="94.555551"/>
     <use style="fill:#00715e;stroke:#00715e;" x="144.91716" xlink:href="#mcfaeda30dc" y="94.555551"/>
     <use style="fill:#00715e;stroke:#00715e;" x="84.172509" xlink:href="#mcfaeda30dc" y="78.085313"/>
     <use style="fill:#00715e;stroke:#00715e;" x="86.825513" xlink:href="#mcfaeda30dc" y="86.320432"/>
     <use style="fill:#00715e;stroke:#00715e;" x="60.478436" xlink:href="#mcfaeda30dc" y="92.496771"/>
     <use style="fill:#00715e;stroke:#00715e;" x="50.87273" xlink:href="#mcfaeda30dc" y="90.290936"/>
     <use style="fill:#00715e;stroke:#00715e;" x="120.308258" xlink:href="#mcfaeda30dc" y="86.026321"/>
     <use style="fill:#00715e;stroke:#00715e;" x="83.440646" xlink:href="#mcfaeda30dc" y="94.555551"/>
    </g>
   </g>
   <g id="r = 0.271">
    <path clip-path="url(#p8f626d335d)" d="M 50.87273 75.25907 
L 59.289158 74.041881 
L 59.655089 73.98896 
L 59.929538 73.949269 
L 60.478436 73.869887 
L 64.503684 73.287753 
L 68.345966 72.73208 
L 71.273419 72.30871 
L 77.128325 71.46197 
L 79.689846 71.091521 
L 83.440646 70.549078 
L 84.172509 70.443235 
L 85.270304 70.284472 
L 86.825513 70.059556 
L 88.106274 69.874332 
L 88.28924 69.847871 
L 90.393347 69.543574 
L 91.399659 69.39804 
L 93.686731 69.067283 
L 95.150458 68.855598 
L 95.51639 68.802676 
L 96.79715 68.617452 
L 97.894945 68.458688 
L 99.358672 68.247003 
L 100.182018 68.12793 
L 101.096847 67.995627 
L 101.18833 67.982397 
L 102.286125 67.823633 
L 102.926505 67.731021 
L 104.756163 67.466414 
L 104.939129 67.439954 
L 106.036924 67.28119 
L 108.506963 66.923972 
L 109.513274 66.778438 
L 110.336621 66.659365 
L 110.885518 66.579983 
L 113.538522 66.196304 
L 114.819283 66.01108 
L 115.734112 65.878777 
L 117.289322 65.653861 
L 120.033809 65.256952 
L 120.308258 65.217261 
L 120.765672 65.151109 
L 124.79092 64.568975 
L 128.633202 64.013302 
L 130.462861 63.748696 
L 131.469173 63.603162 
L 131.743621 63.563471 
L 134.030694 63.232714 
L 136.775181 62.835804 
L 136.958147 62.809343 
L 137.872976 62.67704 
L 140.160049 62.346282 
L 141.989707 62.081676 
L 143.361951 61.883221 
L 144.91716 61.658306 
L 145.740506 61.539233 
L 145.923472 61.512773 
L 147.75313 61.248166 
L 148.942408 61.076172 
L 149.94872 60.930639 
L 153.699519 60.388196 
L 154.888797 60.216202 
L 154.98028 60.202971 
L 155.254729 60.16328 
L 156.901421 59.925135 
L 157.267353 59.872214 
L 160.01184 59.475304 
L 161.658532 59.237158 
L 162.664844 59.091625 
L 163.305225 58.999013 
L 163.945605 58.906401 
L 164.494502 58.827019 
L 165.0434 58.747637 
L 165.409332 58.694715 
L 169.526062 58.099351 
L 169.891994 58.04643 
L 170.532374 57.953818 
L 172.544998 57.662751 
L 174.740588 57.345223 
L 175.10652 57.292302 
L 178.308422 56.829241 
L 179.131768 56.710168 
L 180.77846 56.472023 
L 182.242187 56.260337 
L 183.61443 56.061883 
L 184.620742 55.916349 
L 184.803708 55.889889 
L 185.535571 55.784046 
L 188.371542 55.373906 
L 189.194888 55.254834 
L 190.292683 55.09607 
L 190.475648 55.069609 
L 191.390478 54.937306 
L 194.409414 54.500706 
L 195.324243 54.368402 
L 196.056106 54.26256 
L 196.330555 54.222869 
L 202.917324 53.270286 
L 206.942572 52.688152 
L 207.034055 52.674922 
L 211.333752 52.053097 
L 219.292765 50.90206 
L 227.800675 49.67164 
L 242.712389 47.515099 
L 253.781821 45.914231 
" style="fill:none;stroke:#004e8a;stroke-linecap:round;stroke-width:1.5;"/>
   </g>
   <g id="patch_3">
    <path d="M 40.727276 97.540782 
L 40.727276 19.924782 
" style="fill:none;stroke:#262626;stroke-linecap:square;stroke-linejoin:miter;stroke-width:1.25;"/>
   </g>
   <g id="patch_4">
    <path d="M 263.927276 97.540782 
L 263.927276 19.924782 
" style="fill:none;stroke:#262626;stroke-linecap:square;stroke-linejoin:miter;stroke-width:1.25;"/>
   </g>
   <g id="patch_5">
    <path d="M 40.727276 97.540782 
L 263.927276 97.540782 
" style="fill:none;stroke:#262626;stroke-linecap:square;stroke-linejoin:miter;stroke-width:1.25;"/>
   </g>
   <g id="patch_6">
    <path d="M 40.727276 19.924782 
L 263.927276 19.924782 
" style="fill:none;stroke:#262626;stroke-linecap:square;stroke-linejoin:miter;stroke-width:1.25;"/>
   </g>
   <g id="text_12">
    <!-- r = 0.27** -->
    <defs>
     <path d="M 64.796875 31.515625 
C 66.296875 31.515625 67.796875 31.515625 67.796875 33.203125 
C 67.796875 35 66.09375 35 64.40625 35 
L 8.59375 35 
C 6.90625 35 5.203125 35 5.203125 33.203125 
C 5.203125 31.515625 6.703125 31.515625 8.203125 31.515625 
z
M 64.40625 14 
C 66.09375 14 67.796875 14 67.796875 15.796875 
C 67.796875 17.484375 66.296875 17.484375 64.796875 17.484375 
L 8.203125 17.484375 
C 6.703125 17.484375 5.203125 17.484375 5.203125 15.796875 
C 5.203125 14 6.90625 14 8.59375 14 
z
" id="CMSS17-61"/>
     <path d="M 43.09375 31.9375 
C 43.09375 37.578125 43 48.078125 38.90625 56.1875 
C 34.796875 64 28.203125 66.078125 23.5 66.078125 
C 16.703125 66.078125 10.90625 62.109375 7.90625 55.78125 
C 4.703125 49.15625 3.796875 42.328125 3.796875 31.9375 
C 3.796875 24.828125 4.09375 16.109375 7.703125 8.484375 
C 11.796875 0.078125 18.703125 -2 23.40625 -2 
C 29.59375 -2 35.59375 1.265625 39 8.09375 
C 42.5 15.21875 43.09375 23.03125 43.09375 31.9375 
z
M 23.40625 4.078125 
C 15.796875 4.078125 13.5 12.671875 12.796875 15.546875 
C 11.59375 20.46875 11.40625 25.21875 11.40625 33.03125 
C 11.40625 39.15625 11.40625 46.0625 13.296875 51.515625 
C 15.59375 57.828125 19.59375 60 23.40625 60 
C 30.796875 60 33.203125 52.6875 34 50.125 
C 35.5 44.890625 35.5 38.765625 35.5 33.03125 
C 35.5 23.84375 35.5 4.078125 23.40625 4.078125 
z
" id="CMSS17-48"/>
     <path d="M 17 7.96875 
L 9 7.96875 
L 9 0 
L 17 0 
z
" id="CMSS17-46"/>
     <path d="M 25.796875 21.203125 
C 28.59375 24.078125 32.796875 27.5625 35.703125 31.046875 
C 38.5 34.4375 42.203125 39.234375 42.203125 46.203125 
C 42.203125 57.140625 34.796875 67 22.203125 67 
C 12.296875 67 6.59375 60.828125 3.90625 51.15625 
L 7.796875 45.765625 
C 10 54.84375 13.09375 60.625 20.90625 60.625 
C 29.5 60.625 34.296875 53.640625 34.296875 45.96875 
C 34.296875 36.796875 27.296875 29.703125 22 24.421875 
C 16.09375 18.546875 10.296875 12.5625 4.703125 6.375 
L 4.703125 0 
L 42.203125 0 
L 42.203125 6.765625 
L 25.203125 6.765625 
C 24 6.765625 22.796875 6.765625 21.59375 6.765625 
L 11.59375 6.765625 
L 11.59375 6.859375 
z
" id="CMSS17-50"/>
     <path d="M 21.703125 59 
C 22.90625 59 24.09375 59 25.296875 59 
L 36.796875 59 
C 22.5 42.359375 14.296875 21.328125 14.296875 -0.5 
L 22.296875 -0.5 
C 22.296875 20.671875 29.296875 42.125 43 59.296875 
L 43 65.765625 
L 3.90625 65.765625 
L 3.90625 59 
z
" id="CMSS17-55"/>
     <path d="M 26 48.765625 
L 35.203125 42.09375 
C 36.40625 41.203125 36.703125 41 37.59375 41 
C 39.203125 41 41 42.5 41 44.484375 
C 41 46.375 39.59375 47.171875 38.796875 47.5625 
L 28.09375 53.34375 
L 38.90625 59.109375 
C 40.09375 59.8125 41 60.8125 41 62.203125 
C 41 64.1875 39.203125 65.6875 37.59375 65.6875 
C 36.703125 65.6875 36 65.28125 35.203125 64.6875 
L 26 57.921875 
L 26.796875 71.40625 
C 26.796875 73.703125 25.09375 74.8125 23.40625 74.8125 
C 22 74.8125 20.09375 73.8125 20.09375 71.40625 
L 20.90625 57.921875 
L 11.703125 64.59375 
C 10.5 65.484375 10.203125 65.6875 9.296875 65.6875 
C 7.703125 65.6875 5.90625 64.1875 5.90625 62.203125 
C 5.90625 60.3125 7.296875 59.515625 8.09375 59.109375 
L 18.796875 53.34375 
L 8 47.5625 
C 6.796875 46.875 5.90625 45.875 5.90625 44.484375 
C 5.90625 42.5 7.703125 41 9.296875 41 
C 10.203125 41 10.90625 41.390625 11.703125 42 
L 20.90625 48.765625 
L 20.09375 35.375 
C 20.09375 33.09375 21.796875 32 23.5 32 
C 24.90625 32 26.796875 32.984375 26.796875 35.359375 
L 26.703125 36.25 
z
" id="CMSS17-42"/>
    </defs>
    <g style="fill:#004e8a;" transform="translate(140.983395 28.880474)scale(0.08 -0.08)">
     <use transform="scale(0.996264)" xlink:href="#CMSS17-114"/>
     <use transform="translate(63.138885 0)scale(0.996264)" xlink:href="#CMSS17-61"/>
     <use transform="translate(167.235933 0)scale(0.996264)" xlink:href="#CMSS17-48"/>
     <use transform="translate(214.079556 0)scale(0.996264)" xlink:href="#CMSS17-46"/>
     <use transform="translate(240.103761 0)scale(0.996264)" xlink:href="#CMSS17-50"/>
     <use transform="translate(286.947385 0)scale(0.996264)" xlink:href="#CMSS17-55"/>
     <use transform="translate(333.791008 0)scale(0.996264)" xlink:href="#CMSS17-42"/>
     <use transform="translate(380.634632 0)scale(0.996264)" xlink:href="#CMSS17-42"/>
    </g>
   </g>
   <g id="text_13">
    <!-- \textbf{GloVe (Cosine Similarity)} -->
    <defs>
     <path d="M 66 31.28125 
C 66 31.6875 65.703125 32.59375 64.796875 32.59375 
L 44.296875 32.59375 
C 43.5 32.59375 42.796875 32.390625 42.796875 31.1875 
L 42.796875 24.015625 
C 42.796875 23.40625 43.296875 23 43.90625 23 
L 52.296875 23 
L 52.296875 10.21875 
C 51.40625 9.609375 44.703125 9.015625 43.203125 9.015625 
C 26.40625 9.015625 20.90625 19.59375 20.90625 35.109375 
C 20.90625 50.109375 26.296875 61 42.59375 61 
C 51.09375 61 55.203125 58.875 61.09375 53.3125 
C 61.40625 53.015625 61.703125 52.90625 62 52.90625 
C 62.5 52.90625 63 53.3125 63.203125 54.21875 
L 65 64.53125 
C 65.09375 65.03125 65.203125 65.640625 64.296875 66.15625 
C 61.296875 67.765625 53.90625 71.09375 43.203125 71.09375 
C 16.703125 71.09375 6.203125 57.484375 6.203125 35.109375 
C 6.203125 10.1875 19.296875 -1 42.59375 -1 
C 53.203125 -1 63.203125 2.359375 66 4.671875 
z
" id="CMSSBX10-71"/>
     <path d="M 19.40625 65.15625 
C 19.40625 68.390625 18.703125 70 14.59375 70 
L 10.90625 70 
C 7.296875 70 6.09375 68.890625 6.09375 65.15625 
L 6.09375 4.71875 
C 6.09375 1.09375 7.203125 -0.125 10.90625 -0.125 
L 14.59375 -0.125 
C 18.40625 -0.125 19.40625 1.1875 19.40625 4.71875 
z
" id="CMSSBX10-108"/>
     <path d="M 51.796875 22.796875 
C 51.796875 39.328125 43.796875 48 27.5 48 
C 10.796875 48 3.09375 39.015625 3.09375 22.796875 
C 3.09375 6.359375 11.703125 -1 27.40625 -1 
C 43.09375 -1 51.796875 6.265625 51.796875 22.796875 
z
M 27.5 6.875 
C 16.703125 6.875 16.703125 15.9375 16.703125 24 
C 16.703125 31.765625 16.703125 40.71875 27.40625 40.71875 
C 38.203125 40.71875 38.203125 31.859375 38.203125 24 
C 38.203125 16.046875 38.203125 6.875 27.5 6.875 
z
" id="CMSSBX10-111"/>
     <path d="M 70 65.46875 
C 70.40625 66.671875 70.5 66.765625 70.5 67.28125 
C 70.5 70 68 70 66.59375 70 
L 62.703125 70 
C 60.59375 70 57.703125 70 56.09375 65.578125 
L 42.59375 28.140625 
L 37.40625 12.609375 
C 37.296875 12.921875 36.203125 16.453125 34.703125 20.578125 
L 18.5 65.671875 
C 16.90625 70 14.09375 70 12 70 
L 6.59375 70 
C 5.203125 70 2.703125 70 2.703125 67.28125 
C 2.703125 66.765625 2.796875 66.671875 3.203125 65.453125 
L 25.59375 4.234375 
C 27.09375 0 30 0 32 0 
L 41.203125 0 
C 43.296875 0 46.09375 0 47.703125 4.4375 
z
" id="CMSSBX10-86"/>
     <path d="M 43.09375 21.640625 
C 45.40625 21.640625 47.90625 21.640625 47.90625 26.21875 
C 47.90625 39.28125 41.90625 48 27 48 
C 11 48 3.09375 38.921875 3.09375 23.59375 
C 3.09375 7.0625 12.59375 -1 28.296875 -1 
C 32.09375 -1 37.796875 -0.5 44.40625 2.84375 
C 46.59375 3.953125 47.296875 4.25 47.296875 5.46875 
C 47.296875 6.171875 47 9.09375 46.90625 9.890625 
C 46.5 13.015625 46.40625 13.109375 45.5 13.109375 
C 45.09375 13.109375 44.90625 13.109375 43.796875 12.109375 
C 37.90625 6.984375 31.90625 6.28125 28.703125 6.28125 
C 17.40625 6.28125 16.203125 15.21875 15.90625 21.640625 
z
M 16 27 
C 16.296875 33.15625 18.296875 40.71875 27 40.71875 
C 35 40.71875 36.5 34.859375 36.796875 27 
z
" id="CMSSBX10-101"/>
     <path d="M 32.09375 76 
C 30.296875 76 30.09375 76 28.296875 74.375 
C 16.296875 64.171875 8.59375 46.90625 8.59375 25.5 
C 8.59375 13.265625 11.09375 -7.828125 27.796875 -23.078125 
C 29.90625 -25 30.09375 -25 32.09375 -25 
L 33.90625 -25 
C 35.5 -25 36.59375 -25 36.59375 -23.6875 
C 36.59375 -23.375 36.59375 -23.171875 35.40625 -21.859375 
C 29.09375 -14.078125 22.203125 -1.671875 22.203125 25.5 
C 22.203125 55.1875 30.5 66.890625 36 73.5625 
C 36.40625 74.078125 36.59375 74.28125 36.59375 74.671875 
C 36.59375 76 35.5 76 33.90625 76 
z
" id="CMSSBX10-40"/>
     <path d="M 64 14.453125 
C 64 15.265625 63.296875 15.65625 62.90625 15.65625 
C 60.5 15.65625 57.59375 9.109375 43.5 9.109375 
C 25.90625 9.109375 20.90625 20 20.90625 35.109375 
C 20.90625 50.109375 26.296875 61 42.703125 61 
C 51.59375 61 56.296875 57.46875 59 55.25 
C 59.59375 54.75 59.90625 54.34375 60.59375 54.34375 
C 61 54.34375 61.5 54.84375 61.59375 55.25 
L 63.59375 66.453125 
C 63.703125 66.859375 63.59375 67.265625 62.796875 67.5625 
C 56.90625 69.78125 50.796875 71.203125 43 71.203125 
C 18.59375 71.203125 6.09375 59.203125 6.09375 35.203125 
C 6.09375 10.5 18.796875 -1 43.09375 -1 
C 51.59375 -1 56.90625 0.21875 64.203125 4.765625 
C 65 5.265625 64.796875 5.984375 64.796875 5.984375 
z
" id="CMSSBX10-67"/>
     <path d="M 39.59375 14.09375 
C 39.59375 19.796875 36.59375 23.375 34.796875 25 
C 30.796875 28.6875 27.296875 29.296875 23.09375 30.109375 
C 17.59375 31.125 13.59375 31.953125 13.59375 35.921875 
C 13.59375 40.09375 16.90625 40.921875 20.796875 40.921875 
C 27.5 40.921875 31.09375 38.375 33.703125 36.140625 
C 34.703125 35.125 34.90625 35.125 35.296875 35.125 
C 36.296875 35.125 36.5 36.03125 36.59375 36.4375 
C 36.796875 37.25 37.796875 42.921875 37.796875 43.421875 
C 37.796875 45.0625 32.5 46.484375 31.40625 46.875 
C 27.40625 48 24.203125 48 21.59375 48 
C 17.09375 48 3.703125 48 3.703125 33.515625 
C 3.703125 28.546875 5.90625 25.515625 8.59375 23.078125 
C 12.09375 19.84375 16 19.140625 21.703125 18.03125 
C 24.59375 17.515625 29.703125 16.59375 29.703125 12.15625 
C 29.703125 7.390625 25.796875 6.671875 21.90625 6.671875 
C 17.5 6.671875 11.90625 8 7.203125 13.703125 
C 6.703125 14.203125 6.40625 14.5 5.796875 14.5 
C 4.796875 14.5 4.59375 13.609375 4.5 13 
C 4.296875 11.609375 3.09375 5.90625 3.09375 4.890625 
C 3.09375 3.09375 10.5 0.796875 10.59375 0.703125 
C 16.09375 -1 20.203125 -1 21.90625 -1 
C 27 -1 39.59375 -1 39.59375 14.09375 
z
" id="CMSSBX10-115"/>
     <path d="M 10.203125 70 
C 7 70 5.40625 69.390625 5.40625 65.34375 
L 5.40625 60.703125 
C 5.40625 57.46875 6.40625 56.15625 10.09375 56.15625 
L 15.296875 56.15625 
C 20.09375 56.15625 20.09375 58.28125 20.09375 63.03125 
C 20.09375 67.875 20.09375 70 15.296875 70 
z
M 19.40625 41.15625 
C 19.40625 44.390625 18.703125 46 14.59375 46 
L 10.90625 46 
C 7.296875 46 6.09375 44.890625 6.09375 41.15625 
L 6.09375 4.5625 
C 6.09375 0.9375 7.203125 -0.28125 10.90625 -0.28125 
L 14.59375 -0.28125 
C 18.40625 -0.28125 19.40625 1.03125 19.40625 4.5625 
z
" id="CMSSBX10-105"/>
     <path d="M 50 32.75 
C 50 43.140625 45.59375 47.265625 35.40625 47.265625 
C 24.90625 47.265625 20.40625 39.609375 19.09375 36.875 
L 19 36.875 
L 19 41.984375 
C 19 45.25 18.296875 46.890625 14.203125 46.890625 
L 10.796875 46.890625 
C 7.203125 46.890625 6 45.78125 6 42.03125 
L 6 4.84375 
C 6 1.21875 7.09375 0 10.796875 0 
L 14.796875 0 
C 18.59375 0 19.59375 1.3125 19.59375 4.828125 
L 19.59375 27.109375 
C 19.59375 35.859375 25.40625 40 30.59375 40 
C 35.40625 40 36.40625 37.671875 36.40625 32.53125 
L 36.40625 4.828125 
C 36.40625 1.609375 37.09375 0 41.203125 0 
L 45.203125 0 
C 49 0 50 1.3125 50 4.828125 
z
" id="CMSSBX10-110"/>
     <path d="M 27 44.796875 
C 24.796875 45.296875 18.59375 47.640625 18.59375 53.40625 
C 18.59375 62 27.09375 62 30.5 62 
C 36.09375 62 41.09375 60.6875 46 55.84375 
C 47.59375 54.328125 47.703125 54.234375 48.09375 54.234375 
C 48.703125 54.234375 49.203125 54.53125 49.5 56.046875 
L 51 64.875 
C 51.203125 65.671875 51.203125 65.875 51.203125 66.1875 
C 51.203125 67 51.09375 67.109375 48.59375 68.4375 
C 41.5 72 35.59375 72.515625 30.5 72.515625 
C 21.59375 72.515625 6.09375 70.390625 6.09375 51.40625 
C 6.09375 44.203125 9.796875 39.546875 11.703125 37.515625 
C 16.796875 32.234375 21.5 31.21875 29.296875 29.40625 
C 34.90625 28.09375 37.09375 27.578125 39.296875 25.546875 
C 40.296875 24.546875 42.40625 22.40625 42.40625 18.546875 
C 42.40625 9.015625 33.796875 9.015625 30.5 9.015625 
C 22.09375 9.015625 14.796875 12.421875 9.796875 16.921875 
C 8.59375 18.109375 8.40625 18.109375 8 18.109375 
C 7.40625 18.109375 6.90625 17.8125 6.59375 16.28125 
L 5.09375 7.4375 
C 4.90625 6.625 4.90625 6.421875 4.90625 6.125 
C 4.90625 3.984375 15.296875 0.328125 15.796875 0.125 
C 22.5 -2 27.90625 -2 30.5 -2 
C 45.5 -2 54.90625 4.765625 54.90625 20.4375 
C 54.90625 31.765625 46.59375 40.25 36.59375 42.578125 
z
" id="CMSSBX10-83"/>
     <path d="M 80.59375 32.75 
C 80.59375 43.140625 76.203125 47.265625 66 47.265625 
C 58.90625 47.265625 53.40625 43.9375 49.796875 37.28125 
C 48.203125 47.0625 39.703125 47.0625 35.5 47.0625 
C 33.59375 47.0625 29.40625 47.0625 24.90625 43.796875 
C 21.796875 41.53125 19.796875 38.359375 19.09375 36.875 
L 19 36.875 
L 19 41.984375 
C 19 45.25 18.296875 46.890625 14.203125 46.890625 
L 10.796875 46.890625 
C 7.203125 46.890625 6 45.78125 6 42.03125 
L 6 4.84375 
C 6 1.21875 7.09375 0 10.796875 0 
L 14.796875 0 
C 18.59375 0 19.59375 1.3125 19.59375 4.828125 
L 19.59375 27.109375 
C 19.59375 36.171875 25.703125 40 30.59375 40 
C 35.40625 40 36.5 37.875 36.5 32.53125 
L 36.5 4.828125 
C 36.5 1.21875 37.59375 0 41.296875 0 
L 45.296875 0 
C 49.09375 0 50.09375 1.3125 50.09375 4.828125 
L 50.09375 27.109375 
C 50.09375 36.171875 56.203125 40 61.09375 40 
C 65.90625 40 67 37.875 67 32.53125 
L 67 4.828125 
C 67 1.21875 68.09375 0 71.796875 0 
L 75.796875 0 
C 79.59375 0 80.59375 1.3125 80.59375 4.828125 
z
" id="CMSSBX10-109"/>
     <path d="M 46.40625 32.03125 
C 46.40625 48 31.203125 48 26.203125 48 
C 21.5 48 16.5 47.59375 9.796875 44.8125 
C 7.703125 43.921875 7.203125 43.625 7.203125 42.53125 
C 7.203125 41.828125 7.796875 35.9375 7.90625 35.125 
C 8 34.515625 8.5 34.015625 9.203125 34.015625 
C 9.703125 34.015625 10 34.3125 10.296875 34.625 
C 14.59375 39.1875 19.59375 41.421875 25.796875 41.421875 
C 31.203125 41.421875 32.796875 38.046875 32.796875 32.015625 
L 32.796875 28.4375 
C 29.296875 28.4375 3.09375 28.4375 3.09375 13.5625 
C 3.09375 6.484375 8.703125 -1 17.5 -1 
C 20.90625 -1 28.40625 0.015625 33.09375 6.984375 
L 33.09375 4.953125 
C 33.09375 1.71875 33.796875 0.109375 37.90625 0.109375 
L 41.59375 0.109375 
C 45.40625 0.109375 46.40625 1.421875 46.40625 4.953125 
z
M 32.796875 15.4375 
C 32.796875 6.28125 23.296875 6.28125 23 6.28125 
C 18.796875 6.28125 16.09375 9.984375 16.09375 13.890625 
C 16.09375 24 30 24 32.796875 24 
z
" id="CMSSBX10-97"/>
     <path d="M 19.40625 23.375 
C 19.40625 33.046875 27.296875 37 33.59375 37 
C 35.40625 37 35.59375 37 35.59375 39.921875 
L 35.59375 44.6875 
C 35.59375 46.703125 35.59375 47.40625 33.796875 47.40625 
C 31 47.40625 23.703125 46.40625 19 35.484375 
L 18.90625 35.484375 
L 18.90625 42.03125 
C 18.90625 45.265625 18.203125 46.890625 14.09375 46.890625 
L 10.90625 46.890625 
C 7.296875 46.890625 6.09375 45.78125 6.09375 42.03125 
L 6.09375 4.84375 
C 6.09375 1.21875 7.203125 0 10.90625 0 
L 14.59375 0 
C 18.40625 0 19.40625 1.3125 19.40625 4.875 
z
" id="CMSSBX10-114"/>
     <path d="M 21.796875 39 
L 30.703125 39 
C 31.90625 39 35.5 39 35.5 42.640625 
C 35.5 46.28125 31.90625 46.28125 30.703125 46.28125 
L 21.796875 46.28125 
L 21.796875 54.65625 
C 21.796875 57.890625 21.09375 59.5 17 59.5 
L 13.90625 59.5 
C 10.296875 59.5 9.09375 58.390625 9.09375 54.65625 
L 9.09375 46.28125 
L 6.796875 46.28125 
C 5.703125 46.28125 2 46.28125 2 42.640625 
C 2 39 5.59375 39 6.796875 39 
L 8.796875 39 
L 8.796875 13.5 
C 8.796875 3.328125 12.40625 -1 19.296875 -1 
C 20.203125 -1 24.59375 -1 29.796875 0.609375 
C 31.5 1.125 37.296875 2.9375 37.296875 4.859375 
C 37.296875 5.15625 37.09375 5.875 36.5 7.96875 
C 36 9.984375 35.796875 10.59375 34.90625 10.59375 
C 34.40625 10.59375 34.296875 10.484375 33.703125 9.875 
C 32.59375 9.09375 29.90625 6.875 25.703125 6.875 
C 23.296875 6.875 21.796875 8.59375 21.796875 15.234375 
z
" id="CMSSBX10-116"/>
     <path d="M 46.796875 41.25 
C 47.296875 42.5625 47.296875 42.765625 47.296875 43.265625 
C 47.296875 46 44.59375 46 43.296875 46 
L 41.09375 46 
C 39.5 46 37.296875 46 35.796875 43.671875 
C 35.5 43.171875 27.40625 20.8125 26.90625 14.015625 
L 26.796875 14.015625 
C 26.296875 18.96875 22.203125 28.390625 17.90625 38.109375 
C 15.09375 44.484375 14.40625 46 9.40625 46 
L 6.796875 46 
C 5.40625 46 2.90625 46 2.90625 43.375 
C 2.90625 42.96875 3.203125 42.265625 3.40625 41.75 
L 22.296875 -0.359375 
C 21.5 -2.5 21.203125 -3.609375 20.90625 -4.625 
C 19.703125 -7.953125 18 -12.515625 12.59375 -12.515625 
C 9.296875 -12.515625 7 -11.109375 5.90625 -10.390625 
C 5.40625 -10.09375 5.203125 -9.984375 4.90625 -9.984375 
C 4.40625 -9.984375 3.59375 -10.296875 3.59375 -11.5 
C 3.59375 -12.328125 4.203125 -19.359375 4.5 -19.765625 
C 5.40625 -21 10.796875 -21 12.40625 -21 
C 24.796875 -21 29.703125 -9.078125 30.5 -6.640625 
z
" id="CMSSBX10-121"/>
     <path d="M 8.796875 76 
C 7.203125 76 6.09375 76 6.09375 74.6875 
C 6.09375 74.390625 6.09375 74.1875 7.296875 72.875 
C 13.5 65.09375 20.5 52.6875 20.5 25.5 
C 20.5 -4.09375 12.203125 -15.796875 6.703125 -22.578125 
C 6.09375 -23.28125 6.09375 -23.484375 6.09375 -23.6875 
C 6.09375 -25 7.203125 -25 8.796875 -25 
L 10.59375 -25 
C 12.40625 -25 12.59375 -25 14.40625 -23.375 
C 26.40625 -13.171875 34.09375 4.09375 34.09375 25.5 
C 34.09375 37.703125 31.59375 58.828125 14.90625 74.078125 
C 12.796875 76 12.59375 76 10.59375 76 
z
" id="CMSSBX10-41"/>
    </defs>
    <g style="fill:#262626;" transform="translate(100.393062 13.924782)scale(0.09 -0.09)">
     <use transform="scale(0.996264)" xlink:href="#CMSSBX10-71"/>
     <use transform="translate(73.059766 0)scale(0.996264)" xlink:href="#CMSSBX10-108"/>
     <use transform="translate(98.519985 0)scale(0.996264)" xlink:href="#CMSSBX10-111"/>
     <use transform="translate(153.314809 0)scale(0.996264)" xlink:href="#CMSSBX10-86"/>
     <use transform="translate(223.330419 0)scale(0.996264)" xlink:href="#CMSSBX10-101"/>
     <use transform="translate(310.780754 0)scale(0.996264)" xlink:href="#CMSSBX10-40"/>
     <use transform="translate(353.398951 0)scale(0.996264)" xlink:href="#CMSSBX10-67"/>
     <use transform="translate(423.414561 0)scale(0.996264)" xlink:href="#CMSSBX10-111"/>
     <use transform="translate(478.209385 0)scale(0.996264)" xlink:href="#CMSSBX10-115"/>
     <use transform="translate(520.218751 0)scale(0.996264)" xlink:href="#CMSSBX10-105"/>
     <use transform="translate(545.678969 0)scale(0.996264)" xlink:href="#CMSSBX10-110"/>
     <use transform="translate(601.580757 0)scale(0.996264)" xlink:href="#CMSSBX10-101"/>
     <use transform="translate(689.031093 0)scale(0.996264)" xlink:href="#CMSSBX10-83"/>
     <use transform="translate(749.914232 0)scale(0.996264)" xlink:href="#CMSSBX10-105"/>
     <use transform="translate(775.37445 0)scale(0.996264)" xlink:href="#CMSSBX10-109"/>
     <use transform="translate(861.717807 0)scale(0.996264)" xlink:href="#CMSSBX10-105"/>
     <use transform="translate(887.178026 0)scale(0.996264)" xlink:href="#CMSSBX10-108"/>
     <use transform="translate(912.638245 0)scale(0.996264)" xlink:href="#CMSSBX10-97"/>
     <use transform="translate(961.898283 0)scale(0.996264)" xlink:href="#CMSSBX10-114"/>
     <use transform="translate(998.981693 0)scale(0.996264)" xlink:href="#CMSSBX10-105"/>
     <use transform="translate(1024.441912 0)scale(0.996264)" xlink:href="#CMSSBX10-116"/>
     <use transform="translate(1061.663659 0)scale(0.996264)" xlink:href="#CMSSBX10-121"/>
     <use transform="translate(1111.477133 0)scale(0.996264)" xlink:href="#CMSSBX10-41"/>
    </g>
   </g>
  </g>
 </g>
 <defs>
  <clipPath id="p8f626d335d">
   <rect height="77.616" width="223.2" x="40.727276" y="19.924782"/>
  </clipPath>
 </defs>
</svg>
