<?xml version="1.0" encoding="utf-8" standalone="no"?>
<!DOCTYPE svg PUBLIC "-//W3C//DTD SVG 1.1//EN"
  "http://www.w3.org/Graphics/SVG/1.1/DTD/svg11.dtd">
<!-- Created with matplotlib (https://matplotlib.org/) -->
<svg height="127.295442pt" version="1.1" viewBox="0 0 279.318726 127.295442" width="279.318726pt" xmlns="http://www.w3.org/2000/svg" xmlns:xlink="http://www.w3.org/1999/xlink">
 <defs>
  <style type="text/css">
*{stroke-linecap:butt;stroke-linejoin:round;}
  </style>
 </defs>
 <g id="figure_1">
  <g id="patch_1">
   <path d="M 0 127.295442 
L 279.318726 127.295442 
L 279.318726 -0 
L 0 -0 
z
" style="fill:#ffffff;"/>
  </g>
  <g id="axes_1">
   <g id="patch_2">
    <path d="M 40.727276 97.540782 
L 263.927276 97.540782 
L 263.927276 19.924782 
L 40.727276 19.924782 
z
" style="fill:#ffffff;"/>
   </g>
   <g id="matplotlib.axis_1">
    <g id="xtick_1">
     <g id="line2d_1">
      <path clip-path="url(#p8af17b29f0)" d="M 50.587471 97.540782 
L 50.587471 19.924782 
" style="fill:none;stroke:#cccccc;stroke-dasharray:1,1.65;stroke-dashoffset:0;"/>
     </g>
     <g id="text_1">
      <!-- $-1.00$ -->
      <defs>
       <path d="M 65.90625 23 
C 67.59375 23 69.40625 23 69.40625 25 
C 69.40625 27 67.59375 27 65.90625 27 
L 11.796875 27 
C 10.09375 27 8.296875 27 8.296875 25 
C 8.296875 23 10.09375 23 11.796875 23 
z
" id="CMSY10-0"/>
       <path d="M 26.59375 63.40625 
C 26.59375 65.5 26.5 65.5 25.09375 65.5 
C 21.203125 61.1875 15.296875 59.796875 9.703125 59.796875 
C 9.40625 59.796875 8.90625 59.796875 8.796875 59.5 
C 8.703125 59.296875 8.703125 59.09375 8.703125 57 
C 11.796875 57 17 57.59375 21 59.984375 
L 21 7.203125 
C 21 3.6875 20.796875 2.5 12.203125 2.5 
L 9.203125 2.5 
L 9.203125 0 
C 14 0 19 0 23.796875 0 
C 28.59375 0 33.59375 0 38.40625 0 
L 38.40625 2.5 
L 35.40625 2.5 
C 26.796875 2.5 26.59375 3.59375 26.59375 7.15625 
z
" id="CMR17-49"/>
       <path d="M 18.40625 4.796875 
C 18.40625 7.6875 16 9.671875 13.59375 9.671875 
C 10.703125 9.671875 8.703125 7.28125 8.703125 4.890625 
C 8.703125 2 11.09375 0 13.5 0 
C 16.40625 0 18.40625 2.390625 18.40625 4.796875 
z
" id="CMMI12-58"/>
       <path d="M 42 31.640625 
C 42 37.75 41.90625 48.125 37.703125 56.109375 
C 34 63.109375 28.09375 65.59375 22.90625 65.59375 
C 18.09375 65.59375 12 63.40625 8.203125 56.203125 
C 4.203125 48.71875 3.796875 39.4375 3.796875 31.640625 
C 3.796875 25.953125 3.90625 17.28125 7 9.671875 
C 11.296875 -0.609375 19 -2 22.90625 -2 
C 27.5 -2 34.5 -0.109375 38.59375 9.375 
C 41.59375 16.28125 42 24.359375 42 31.640625 
z
M 22.90625 -0.40625 
C 16.5 -0.40625 12.703125 5.078125 11.296875 12.6875 
C 10.203125 18.5625 10.203125 27.15625 10.203125 32.75 
C 10.203125 40.4375 10.203125 46.828125 11.5 52.921875 
C 13.40625 61.390625 19 64 22.90625 64 
C 27 64 32.296875 61.296875 34.203125 53.125 
C 35.5 47.4375 35.59375 40.734375 35.59375 32.75 
C 35.59375 26.25 35.59375 18.265625 34.40625 12.375 
C 32.296875 1.484375 26.40625 -0.40625 22.90625 -0.40625 
z
" id="CMR17-48"/>
      </defs>
      <g style="fill:#262626;" transform="translate(38.812262 107.267432)scale(0.09 -0.09)">
       <use transform="scale(0.996264)" xlink:href="#CMSY10-0"/>
       <use transform="translate(77.487468 0)scale(0.996264)" xlink:href="#CMR17-49"/>
       <use transform="translate(123.177945 0)scale(0.996264)" xlink:href="#CMMI12-58"/>
       <use transform="translate(150.275122 0)scale(0.996264)" xlink:href="#CMR17-48"/>
       <use transform="translate(195.965599 0)scale(0.996264)" xlink:href="#CMR17-48"/>
      </g>
     </g>
    </g>
    <g id="xtick_2">
     <g id="line2d_2">
      <path clip-path="url(#p8af17b29f0)" d="M 77.254947 97.540782 
L 77.254947 19.924782 
" style="fill:none;stroke:#cccccc;stroke-dasharray:1,1.65;stroke-dashoffset:0;"/>
     </g>
     <g id="text_2">
      <!-- $-0.75$ -->
      <defs>
       <path d="M 45.09375 61.578125 
L 45.09375 63.765625 
L 21.59375 63.765625 
C 9.90625 63.765625 9.703125 65.078125 9.296875 67 
L 7.5 67 
L 4.59375 48.34375 
L 6.40625 48.34375 
C 6.703125 50.234375 7.40625 55.3125 8.59375 57.203125 
C 9.203125 58 16.59375 58 18.296875 58 
L 40.296875 58 
L 29.203125 41.578125 
C 21.796875 30.53125 16.703125 15.609375 16.703125 2.578125 
C 16.703125 1.390625 16.703125 -2 20.296875 -2 
C 23.90625 -2 23.90625 1.390625 23.90625 2.671875 
L 23.90625 7.265625 
C 23.90625 23.5625 26.703125 34.3125 31.296875 41.1875 
z
" id="CMR17-55"/>
       <path d="M 11.40625 57.6875 
C 12.40625 57.28125 16.5 56 20.703125 56 
C 30 56 35.09375 61.109375 38 64.0625 
C 38 64.953125 38 65.5 37.40625 65.5 
C 37.296875 65.5 37.09375 65.5 36.296875 65.046875 
C 32.796875 63.40625 28.703125 62.078125 23.703125 62.078125 
C 20.703125 62.078125 16.203125 62.484375 11.296875 64.671875 
C 10.203125 65.171875 10 65.171875 9.90625 65.171875 
C 9.40625 65.171875 9.296875 65.0625 9.296875 63.078125 
L 9.296875 34.421875 
C 9.296875 32.640625 9.296875 32.140625 10.296875 32.140625 
C 10.796875 32.140625 11 32.34375 11.5 33.03125 
C 14.703125 37.515625 19.09375 39.40625 24.09375 39.40625 
C 27.59375 39.40625 35.09375 37.21875 35.09375 20.140625 
C 35.09375 16.953125 35.09375 11.171875 32.09375 6.578125 
C 29.59375 2.484375 25.703125 0.390625 21.40625 0.390625 
C 14.796875 0.390625 8.09375 5 6.296875 12.71875 
C 6.703125 12.609375 7.5 12.421875 7.90625 12.421875 
C 9.203125 12.421875 11.703125 13.125 11.703125 16.21875 
C 11.703125 18.90625 9.796875 20 7.90625 20 
C 5.59375 20 4.09375 18.59375 4.09375 15.796875 
C 4.09375 7.09375 11 -2 21.59375 -2 
C 31.90625 -2 41.703125 6.875 41.703125 19.75 
C 41.703125 31.71875 33.90625 41 24.203125 41 
C 19.09375 41 14.796875 39.109375 11.40625 35.53125 
z
" id="CMR17-53"/>
      </defs>
      <g style="fill:#262626;" transform="translate(65.479737 107.267432)scale(0.09 -0.09)">
       <use transform="scale(0.996264)" xlink:href="#CMSY10-0"/>
       <use transform="translate(77.487468 0)scale(0.996264)" xlink:href="#CMR17-48"/>
       <use transform="translate(123.177945 0)scale(0.996264)" xlink:href="#CMMI12-58"/>
       <use transform="translate(150.275122 0)scale(0.996264)" xlink:href="#CMR17-55"/>
       <use transform="translate(195.965599 0)scale(0.996264)" xlink:href="#CMR17-53"/>
      </g>
     </g>
    </g>
    <g id="xtick_3">
     <g id="line2d_3">
      <path clip-path="url(#p8af17b29f0)" d="M 103.922422 97.540782 
L 103.922422 19.924782 
" style="fill:none;stroke:#cccccc;stroke-dasharray:1,1.65;stroke-dashoffset:0;"/>
     </g>
     <g id="text_3">
      <!-- $-0.50$ -->
      <g style="fill:#262626;" transform="translate(92.147213 107.267432)scale(0.09 -0.09)">
       <use transform="scale(0.996264)" xlink:href="#CMSY10-0"/>
       <use transform="translate(77.487468 0)scale(0.996264)" xlink:href="#CMR17-48"/>
       <use transform="translate(123.177945 0)scale(0.996264)" xlink:href="#CMMI12-58"/>
       <use transform="translate(150.275122 0)scale(0.996264)" xlink:href="#CMR17-53"/>
       <use transform="translate(195.965599 0)scale(0.996264)" xlink:href="#CMR17-48"/>
      </g>
     </g>
    </g>
    <g id="xtick_4">
     <g id="line2d_4">
      <path clip-path="url(#p8af17b29f0)" d="M 130.589898 97.540782 
L 130.589898 19.924782 
" style="fill:none;stroke:#cccccc;stroke-dasharray:1,1.65;stroke-dashoffset:0;"/>
     </g>
     <g id="text_4">
      <!-- $-0.25$ -->
      <defs>
       <path d="M 41.703125 15.453125 
L 39.90625 15.453125 
C 38.90625 8.375 38.09375 7.171875 37.703125 6.5625 
C 37.203125 5.765625 30 5.765625 28.59375 5.765625 
L 9.40625 5.765625 
C 13 9.671875 20 16.75 28.5 24.953125 
C 34.59375 30.734375 41.703125 37.53125 41.703125 47.421875 
C 41.703125 59.21875 32.296875 66 21.796875 66 
C 10.796875 66 4.09375 56.3125 4.09375 47.34375 
C 4.09375 43.4375 7 42.9375 8.203125 42.9375 
C 9.203125 42.9375 12.203125 43.546875 12.203125 47.03125 
C 12.203125 50.109375 9.59375 51 8.203125 51 
C 7.59375 51 7 50.90625 6.59375 50.703125 
C 8.5 59.21875 14.296875 63.40625 20.40625 63.40625 
C 29.09375 63.40625 34.796875 56.515625 34.796875 47.421875 
C 34.796875 38.734375 29.703125 31.25 24 24.75 
L 4.09375 2.28125 
L 4.09375 0 
L 39.296875 0 
z
" id="CMR17-50"/>
      </defs>
      <g style="fill:#262626;" transform="translate(118.814688 107.267432)scale(0.09 -0.09)">
       <use transform="scale(0.996264)" xlink:href="#CMSY10-0"/>
       <use transform="translate(77.487468 0)scale(0.996264)" xlink:href="#CMR17-48"/>
       <use transform="translate(123.177945 0)scale(0.996264)" xlink:href="#CMMI12-58"/>
       <use transform="translate(150.275122 0)scale(0.996264)" xlink:href="#CMR17-50"/>
       <use transform="translate(195.965599 0)scale(0.996264)" xlink:href="#CMR17-53"/>
      </g>
     </g>
    </g>
    <g id="xtick_5">
     <g id="line2d_5">
      <path clip-path="url(#p8af17b29f0)" d="M 157.257373 97.540782 
L 157.257373 19.924782 
" style="fill:none;stroke:#cccccc;stroke-dasharray:1,1.65;stroke-dashoffset:0;"/>
     </g>
     <g id="text_5">
      <!-- $0.00$ -->
      <g style="fill:#262626;" transform="translate(149.065923 107.267432)scale(0.09 -0.09)">
       <use transform="scale(0.996264)" xlink:href="#CMR17-48"/>
       <use transform="translate(45.690477 0)scale(0.996264)" xlink:href="#CMMI12-58"/>
       <use transform="translate(72.787654 0)scale(0.996264)" xlink:href="#CMR17-48"/>
       <use transform="translate(118.478131 0)scale(0.996264)" xlink:href="#CMR17-48"/>
      </g>
     </g>
    </g>
    <g id="xtick_6">
     <g id="line2d_6">
      <path clip-path="url(#p8af17b29f0)" d="M 183.924849 97.540782 
L 183.924849 19.924782 
" style="fill:none;stroke:#cccccc;stroke-dasharray:1,1.65;stroke-dashoffset:0;"/>
     </g>
     <g id="text_6">
      <!-- $0.25$ -->
      <g style="fill:#262626;" transform="translate(175.733399 107.267432)scale(0.09 -0.09)">
       <use transform="scale(0.996264)" xlink:href="#CMR17-48"/>
       <use transform="translate(45.690477 0)scale(0.996264)" xlink:href="#CMMI12-58"/>
       <use transform="translate(72.787654 0)scale(0.996264)" xlink:href="#CMR17-50"/>
       <use transform="translate(118.478131 0)scale(0.996264)" xlink:href="#CMR17-53"/>
      </g>
     </g>
    </g>
    <g id="xtick_7">
     <g id="line2d_7">
      <path clip-path="url(#p8af17b29f0)" d="M 210.592324 97.540782 
L 210.592324 19.924782 
" style="fill:none;stroke:#cccccc;stroke-dasharray:1,1.65;stroke-dashoffset:0;"/>
     </g>
     <g id="text_7">
      <!-- $0.50$ -->
      <g style="fill:#262626;" transform="translate(202.400874 107.267432)scale(0.09 -0.09)">
       <use transform="scale(0.996264)" xlink:href="#CMR17-48"/>
       <use transform="translate(45.690477 0)scale(0.996264)" xlink:href="#CMMI12-58"/>
       <use transform="translate(72.787654 0)scale(0.996264)" xlink:href="#CMR17-53"/>
       <use transform="translate(118.478131 0)scale(0.996264)" xlink:href="#CMR17-48"/>
      </g>
     </g>
    </g>
    <g id="xtick_8">
     <g id="line2d_8">
      <path clip-path="url(#p8af17b29f0)" d="M 237.2598 97.540782 
L 237.2598 19.924782 
" style="fill:none;stroke:#cccccc;stroke-dasharray:1,1.65;stroke-dashoffset:0;"/>
     </g>
     <g id="text_8">
      <!-- $0.75$ -->
      <g style="fill:#262626;" transform="translate(229.06835 107.267432)scale(0.09 -0.09)">
       <use transform="scale(0.996264)" xlink:href="#CMR17-48"/>
       <use transform="translate(45.690477 0)scale(0.996264)" xlink:href="#CMMI12-58"/>
       <use transform="translate(72.787654 0)scale(0.996264)" xlink:href="#CMR17-55"/>
       <use transform="translate(118.478131 0)scale(0.996264)" xlink:href="#CMR17-53"/>
      </g>
     </g>
    </g>
    <g id="xtick_9">
     <g id="line2d_9">
      <path clip-path="url(#p8af17b29f0)" d="M 263.927276 97.540782 
L 263.927276 19.924782 
" style="fill:none;stroke:#cccccc;stroke-dasharray:1,1.65;stroke-dashoffset:0;"/>
     </g>
     <g id="text_9">
      <!-- $1.00$ -->
      <g style="fill:#262626;" transform="translate(255.735826 107.267432)scale(0.09 -0.09)">
       <use transform="scale(0.996264)" xlink:href="#CMR17-49"/>
       <use transform="translate(45.690477 0)scale(0.996264)" xlink:href="#CMMI12-58"/>
       <use transform="translate(72.787654 0)scale(0.996264)" xlink:href="#CMR17-48"/>
       <use transform="translate(118.478131 0)scale(0.996264)" xlink:href="#CMR17-48"/>
      </g>
     </g>
    </g>
    <g id="text_10">
     <!-- Moral score -->
     <defs>
      <path d="M 49.90625 37.046875 
L 45.09375 23.015625 
C 44.296875 20.421875 41.59375 12.359375 41 9.171875 
L 40.90625 9.171875 
C 40.59375 11.171875 40 13.265625 38.40625 18.34375 
C 37.5 21.328125 36.5 24.40625 35.5 27.203125 
L 20.703125 69 
L 9 69 
L 9 0 
L 16.796875 0 
L 16.796875 60.9375 
L 16.90625 60.9375 
C 16.90625 60.84375 17.796875 56.453125 23.90625 39.046875 
L 37.09375 1.5 
L 44.5 1.5 
L 56.40625 34.859375 
C 57.203125 37.15625 59.703125 44.421875 60.796875 47.90625 
C 61.796875 50.890625 64.296875 58.25 64.90625 61.140625 
L 65 61.140625 
L 65 0 
L 72.90625 0 
L 72.90625 69 
L 61.296875 69 
z
" id="CMSS17-77"/>
      <path d="M 44.203125 21.1875 
C 44.203125 34 34.703125 44 23.5 44 
C 12 44 2.703125 33.703125 2.703125 21.1875 
C 2.703125 8.5 12.296875 -1 23.40625 -1 
C 34.796875 -1 44.203125 8.796875 44.203125 21.1875 
z
M 23.5 5.265625 
C 16.40625 5.265625 10.296875 11.078125 10.296875 22 
C 10.296875 33.609375 17.40625 37.921875 23.40625 37.921875 
C 29.90625 37.921875 36.59375 33.21875 36.59375 22 
C 36.59375 10.671875 30.09375 5.265625 23.5 5.265625 
z
" id="CMSS17-111"/>
      <path d="M 14.90625 21.296875 
C 14.90625 30.703125 21.796875 37 30.59375 37 
L 30.59375 43.578125 
C 24.203125 43.578125 18.203125 40.390625 14.59375 35.203125 
L 14.59375 43.09375 
L 7.5 43.09375 
L 7.5 0 
L 14.90625 0 
z
" id="CMSS17-114"/>
      <path d="M 37.59375 27.984375 
C 37.59375 37.375 30.90625 43.875 21.90625 43.875 
C 17.5 43.875 12.703125 43.078125 7.203125 39.890625 
L 7.796875 33.359375 
C 10.296875 35.125 14.59375 38 21.796875 38 
C 26.90625 38 30 34.0625 30 27.84375 
L 30 24 
C 14 24 4 19.34375 4 11.34375 
C 4 7.203125 6.5 -1 14.796875 -1 
C 16.296875 -1 24.40625 -1 30.203125 3.390625 
L 30.203125 -0.296875 
L 37.59375 -0.296875 
z
M 30 12.75 
C 30 10.953125 30 8.5625 27 6.78125 
C 24.40625 5.078125 21.09375 5.078125 19.703125 5.078125 
C 14.703125 5.078125 11.296875 7.984375 11.296875 11.625 
C 11.296875 18.921875 26.90625 18.921875 30 18.921875 
z
" id="CMSS17-97"/>
      <path d="M 14.796875 69 
L 7.40625 69 
L 7.40625 0 
L 14.796875 0 
z
" id="CMSS17-108"/>
      <path d="M 32.203125 41.046875 
C 26.296875 43.859375 21.703125 43.859375 18.703125 43.859375 
C 11.59375 43.859375 3.09375 41.375 3.09375 31.296875 
C 3.09375 21.234375 14.09375 19.03125 17.09375 18.421875 
C 21.703125 17.53125 26.796875 16.53125 26.796875 11.5625 
C 26.796875 5.265625 19.59375 5.265625 18.296875 5.265625 
C 14.296875 5.265625 8.796875 6.359375 3.796875 9.96875 
L 2.59375 3.28125 
C 8.296875 0 13.796875 -1 18.40625 -1 
C 30.703125 -1 33.796875 6.5 33.796875 12.203125 
C 33.796875 17.09375 31 20.390625 29.09375 21.890625 
C 25.796875 24.5 24.59375 24.796875 16.40625 26.5 
C 15 26.703125 10.09375 27.796875 10.09375 32.28125 
C 10.09375 38 16.40625 38 17.796875 38 
C 24.296875 38 28.296875 35.984375 31 34.5 
z
" id="CMSS17-115"/>
      <path d="M 38.5 39.703125 
C 38.5 40.390625 33.90625 42.40625 32.703125 42.796875 
C 29.40625 44 25.203125 44 24.09375 44 
C 11.09375 44 3.296875 32.703125 3.296875 21.296875 
C 3.296875 9.296875 12 -1 23.703125 -1 
C 30.40625 -1 35.203125 1.1875 39.09375 3.78125 
L 38.5 10.375 
C 34.203125 7.078125 29.203125 5.265625 23.796875 5.265625 
C 16 5.265625 10.90625 12.09375 10.90625 21.390625 
C 10.90625 28.609375 14.203125 37.71875 24.203125 37.71875 
C 29.703125 37.71875 32.796875 36.609375 37.40625 33.515625 
z
" id="CMSS17-99"/>
      <path d="M 39.09375 21.515625 
C 39.09375 24.84375 38.90625 31.296875 35.703125 36.640625 
C 32.203125 42.390625 26.5 44 22.203125 44 
C 11.796875 44 3 34.1875 3 21.484375 
C 3 9.09375 12.09375 -1 23.59375 -1 
C 28.09375 -1 33.59375 0.296875 38.59375 3.875 
C 38.59375 4.28125 38.40625 6.46875 38.296875 6.5625 
C 38.296875 6.765625 38 9.84375 38 10.25 
C 33.203125 6.359375 27.703125 5.078125 23.703125 5.078125 
C 17.296875 5.078125 10.40625 10.421875 10.09375 21.515625 
z
M 10.90625 27 
C 12.203125 32.5625 16.59375 37.828125 22.203125 37.828125 
C 23.703125 37.828125 30.703125 37.828125 32.5 27 
z
" id="CMSS17-101"/>
     </defs>
     <g style="fill:#262626;" transform="translate(131.899432 118.545696)scale(0.08 -0.08)">
      <use transform="scale(0.996264)" xlink:href="#CMSS17-77"/>
      <use transform="translate(81.67603 0)scale(0.996264)" xlink:href="#CMSS17-111"/>
      <use transform="translate(125.9172 0)scale(0.996264)" xlink:href="#CMSS17-114"/>
      <use transform="translate(157.826972 0)scale(0.996264)" xlink:href="#CMSS17-97"/>
      <use transform="translate(202.748893 0)scale(0.996264)" xlink:href="#CMSS17-108"/>
      <use transform="translate(256.158728 0)scale(0.996264)" xlink:href="#CMSS17-115"/>
      <use transform="translate(292.07227 0)scale(0.996264)" xlink:href="#CMSS17-99"/>
      <use transform="translate(333.711093 0)scale(0.996264)" xlink:href="#CMSS17-111"/>
      <use transform="translate(377.952262 0)scale(0.996264)" xlink:href="#CMSS17-114"/>
      <use transform="translate(409.862035 0)scale(0.996264)" xlink:href="#CMSS17-101"/>
     </g>
    </g>
   </g>
   <g id="matplotlib.axis_2">
    <g id="ytick_1">
     <g id="line2d_10">
      <path clip-path="url(#p8af17b29f0)" d="M 40.727276 94.555551 
L 263.927276 94.555551 
" style="fill:none;stroke:#cccccc;stroke-dasharray:1,1.65;stroke-dashoffset:0;"/>
     </g>
     <g id="text_11">
      <!-- $-1.0$ -->
      <g style="fill:#262626;" transform="translate(18.284547 97.668876)scale(0.09 -0.09)">
       <use transform="scale(0.996264)" xlink:href="#CMSY10-0"/>
       <use transform="translate(77.487468 0)scale(0.996264)" xlink:href="#CMR17-49"/>
       <use transform="translate(123.177945 0)scale(0.996264)" xlink:href="#CMMI12-58"/>
       <use transform="translate(150.275122 0)scale(0.996264)" xlink:href="#CMR17-48"/>
      </g>
     </g>
    </g>
    <g id="ytick_2">
     <g id="line2d_11">
      <path clip-path="url(#p8af17b29f0)" d="M 40.727276 79.629397 
L 263.927276 79.629397 
" style="fill:none;stroke:#cccccc;stroke-dasharray:1,1.65;stroke-dashoffset:0;"/>
     </g>
     <g id="text_12">
      <!-- $-0.5$ -->
      <g style="fill:#262626;" transform="translate(18.284547 82.742722)scale(0.09 -0.09)">
       <use transform="scale(0.996264)" xlink:href="#CMSY10-0"/>
       <use transform="translate(77.487468 0)scale(0.996264)" xlink:href="#CMR17-48"/>
       <use transform="translate(123.177945 0)scale(0.996264)" xlink:href="#CMMI12-58"/>
       <use transform="translate(150.275122 0)scale(0.996264)" xlink:href="#CMR17-53"/>
      </g>
     </g>
    </g>
    <g id="ytick_3">
     <g id="line2d_12">
      <path clip-path="url(#p8af17b29f0)" d="M 40.727276 64.703244 
L 263.927276 64.703244 
" style="fill:none;stroke:#cccccc;stroke-dasharray:1,1.65;stroke-dashoffset:0;"/>
     </g>
     <g id="text_13">
      <!-- $0.0$ -->
      <g style="fill:#262626;" transform="translate(25.452066 67.816569)scale(0.09 -0.09)">
       <use transform="scale(0.996264)" xlink:href="#CMR17-48"/>
       <use transform="translate(45.690477 0)scale(0.996264)" xlink:href="#CMMI12-58"/>
       <use transform="translate(72.787654 0)scale(0.996264)" xlink:href="#CMR17-48"/>
      </g>
     </g>
    </g>
    <g id="ytick_4">
     <g id="line2d_13">
      <path clip-path="url(#p8af17b29f0)" d="M 40.727276 49.77709 
L 263.927276 49.77709 
" style="fill:none;stroke:#cccccc;stroke-dasharray:1,1.65;stroke-dashoffset:0;"/>
     </g>
     <g id="text_14">
      <!-- $0.5$ -->
      <g style="fill:#262626;" transform="translate(25.452066 52.890415)scale(0.09 -0.09)">
       <use transform="scale(0.996264)" xlink:href="#CMR17-48"/>
       <use transform="translate(45.690477 0)scale(0.996264)" xlink:href="#CMMI12-58"/>
       <use transform="translate(72.787654 0)scale(0.996264)" xlink:href="#CMR17-53"/>
      </g>
     </g>
    </g>
    <g id="ytick_5">
     <g id="line2d_14">
      <path clip-path="url(#p8af17b29f0)" d="M 40.727276 34.850936 
L 263.927276 34.850936 
" style="fill:none;stroke:#cccccc;stroke-dasharray:1,1.65;stroke-dashoffset:0;"/>
     </g>
     <g id="text_15">
      <!-- $1.0$ -->
      <g style="fill:#262626;" transform="translate(25.452066 37.964261)scale(0.09 -0.09)">
       <use transform="scale(0.996264)" xlink:href="#CMR17-49"/>
       <use transform="translate(45.690477 0)scale(0.996264)" xlink:href="#CMMI12-58"/>
       <use transform="translate(72.787654 0)scale(0.996264)" xlink:href="#CMR17-48"/>
      </g>
     </g>
    </g>
    <g id="text_16">
     <!-- Human score -->
     <defs>
      <path d="M 57.40625 69 
L 49 69 
L 49 39.078125 
L 17.203125 39.078125 
L 17.203125 69 
L 8.796875 69 
L 8.796875 0 
L 17.203125 0 
L 17.203125 33 
L 49 33 
L 49 0 
L 57.40625 0 
z
" id="CMSS17-72"/>
      <path d="M 40.90625 42.796875 
L 33.296875 42.796875 
L 33.296875 15.1875 
C 33.296875 7.78125 27.90625 4.78125 22.203125 4.78125 
C 15.59375 4.78125 15 6.984375 15 11.078125 
L 15 42.796875 
L 7.40625 42.796875 
L 7.40625 10.59375 
C 7.40625 2.796875 10.09375 -1 17 -1 
C 20.40625 -1 28.09375 -0.203125 33.5 4.78125 
L 33.5 0 
L 40.90625 0 
z
" id="CMSS17-117"/>
      <path d="M 67 29.328125 
C 67 36.0625 65.296875 44 54.09375 44 
C 46.59375 44 42.09375 39.3125 40.09375 36.421875 
C 38.296875 41.71875 34.09375 44 28.09375 44 
C 21.296875 44 17 40.125 14.703125 37.328125 
L 14.703125 43.09375 
L 7.40625 43.09375 
L 7.40625 0 
L 15 0 
L 15 24.359375 
C 15 30.296875 17.203125 37.9375 24.296875 37.9375 
C 33.40625 37.9375 33.40625 31.5 33.40625 28.578125 
L 33.40625 0 
L 41 0 
L 41 24.359375 
C 41 30.296875 43.203125 37.9375 50.296875 37.9375 
C 59.40625 37.9375 59.40625 31.5 59.40625 28.578125 
L 59.40625 0 
L 67 0 
z
" id="CMSS17-109"/>
      <path d="M 40.90625 29.328125 
C 40.90625 35.671875 39.40625 44 28.09375 44 
C 21.703125 44 17.5 40.71875 14.703125 37.328125 
L 14.703125 43.09375 
L 7.40625 43.09375 
L 7.40625 0 
L 15 0 
L 15 24.359375 
C 15 30.6875 17.40625 37.9375 24.203125 37.9375 
C 33 37.9375 33.296875 32 33.296875 28.578125 
L 33.296875 0 
L 40.90625 0 
z
" id="CMSS17-110"/>
     </defs>
     <g style="fill:#262626;" transform="translate(12.734802 81.734341)rotate(-90)scale(0.08 -0.08)">
      <use transform="scale(0.996264)" xlink:href="#CMSS17-72"/>
      <use transform="translate(66.061519 0)scale(0.996264)" xlink:href="#CMSS17-117"/>
      <use transform="translate(114.266462 0)scale(0.996264)" xlink:href="#CMSS17-109"/>
      <use transform="translate(188.495717 0)scale(0.996264)" xlink:href="#CMSS17-97"/>
      <use transform="translate(233.417637 0)scale(0.996264)" xlink:href="#CMSS17-110"/>
      <use transform="translate(312.851693 0)scale(0.996264)" xlink:href="#CMSS17-115"/>
      <use transform="translate(348.765235 0)scale(0.996264)" xlink:href="#CMSS17-99"/>
      <use transform="translate(390.404057 0)scale(0.996264)" xlink:href="#CMSS17-111"/>
      <use transform="translate(434.645227 0)scale(0.996264)" xlink:href="#CMSS17-114"/>
      <use transform="translate(466.554999 0)scale(0.996264)" xlink:href="#CMSS17-101"/>
     </g>
    </g>
   </g>
   <g id="PathCollection_1">
    <defs>
     <path d="M 0 1.118034 
C 0.296506 1.118034 0.580908 1.000231 0.790569 0.790569 
C 1.000231 0.580908 1.118034 0.296506 1.118034 0 
C 1.118034 -0.296506 1.000231 -0.580908 0.790569 -0.790569 
C 0.580908 -1.000231 0.296506 -1.118034 0 -1.118034 
C -0.296506 -1.118034 -0.580908 -1.000231 -0.790569 -0.790569 
C -1.000231 -0.580908 -1.118034 -0.296506 -1.118034 0 
C -1.118034 0.296506 -1.000231 0.580908 -0.790569 0.790569 
C -0.580908 1.000231 -0.296506 1.118034 0 1.118034 
z
" id="m63f99c69eb" style="stroke:#be6f00;"/>
    </defs>
    <g clip-path="url(#p8af17b29f0)">
     <use style="fill:#be6f00;stroke:#be6f00;" x="215.894282" xlink:href="#m63f99c69eb" y="39.443599"/>
     <use style="fill:#be6f00;stroke:#be6f00;" x="192.725933" xlink:href="#m63f99c69eb" y="39.188451"/>
     <use style="fill:#be6f00;stroke:#be6f00;" x="213.112992" xlink:href="#m63f99c69eb" y="38.678155"/>
     <use style="fill:#be6f00;stroke:#be6f00;" x="199.223096" xlink:href="#m63f99c69eb" y="38.423007"/>
     <use style="fill:#be6f00;stroke:#be6f00;" x="153.138987" xlink:href="#m63f99c69eb" y="41.229634"/>
     <use style="fill:#be6f00;stroke:#be6f00;" x="126.357999" xlink:href="#m63f99c69eb" y="41.73993"/>
     <use style="fill:#be6f00;stroke:#be6f00;" x="142.085808" xlink:href="#m63f99c69eb" y="42.505374"/>
     <use style="fill:#be6f00;stroke:#be6f00;" x="135.849651" xlink:href="#m63f99c69eb" y="39.953894"/>
     <use style="fill:#be6f00;stroke:#be6f00;" x="132.180464" xlink:href="#m63f99c69eb" y="58.834841"/>
     <use style="fill:#be6f00;stroke:#be6f00;" x="224.566467" xlink:href="#m63f99c69eb" y="36.381823"/>
     <use style="fill:#be6f00;stroke:#be6f00;" x="163.854627" xlink:href="#m63f99c69eb" y="38.423007"/>
     <use style="fill:#be6f00;stroke:#be6f00;" x="189.246716" xlink:href="#m63f99c69eb" y="36.892119"/>
     <use style="fill:#be6f00;stroke:#be6f00;" x="201.617297" xlink:href="#m63f99c69eb" y="36.126676"/>
     <use style="fill:#be6f00;stroke:#be6f00;" x="90.206409" xlink:href="#m63f99c69eb" y="60.110581"/>
     <use style="fill:#be6f00;stroke:#be6f00;" x="92.566272" xlink:href="#m63f99c69eb" y="64.703244"/>
     <use style="fill:#be6f00;stroke:#be6f00;" x="75.847073" xlink:href="#m63f99c69eb" y="58.579693"/>
     <use style="fill:#be6f00;stroke:#be6f00;" x="154.748896" xlink:href="#m63f99c69eb" y="58.579693"/>
     <use style="fill:#be6f00;stroke:#be6f00;" x="167.333803" xlink:href="#m63f99c69eb" y="46.332593"/>
     <use style="fill:#be6f00;stroke:#be6f00;" x="128.179348" xlink:href="#m63f99c69eb" y="60.110581"/>
     <use style="fill:#be6f00;stroke:#be6f00;" x="140.212334" xlink:href="#m63f99c69eb" y="64.192948"/>
     <use style="fill:#be6f00;stroke:#be6f00;" x="232.306315" xlink:href="#m63f99c69eb" y="38.167859"/>
     <use style="fill:#be6f00;stroke:#be6f00;" x="164.067462" xlink:href="#m63f99c69eb" y="41.73993"/>
     <use style="fill:#be6f00;stroke:#be6f00;" x="210.734421" xlink:href="#m63f99c69eb" y="36.892119"/>
     <use style="fill:#be6f00;stroke:#be6f00;" x="220.688151" xlink:href="#m63f99c69eb" y="42.250226"/>
     <use style="fill:#be6f00;stroke:#be6f00;" x="204.628522" xlink:href="#m63f99c69eb" y="41.73993"/>
     <use style="fill:#be6f00;stroke:#be6f00;" x="188.417981" xlink:href="#m63f99c69eb" y="49.394368"/>
     <use style="fill:#be6f00;stroke:#be6f00;" x="147.267536" xlink:href="#m63f99c69eb" y="57.048806"/>
     <use style="fill:#be6f00;stroke:#be6f00;" x="126.940942" xlink:href="#m63f99c69eb" y="49.904664"/>
     <use style="fill:#be6f00;stroke:#be6f00;" x="176.625286" xlink:href="#m63f99c69eb" y="36.892119"/>
     <use style="fill:#be6f00;stroke:#be6f00;" x="178.761436" xlink:href="#m63f99c69eb" y="36.636971"/>
     <use style="fill:#be6f00;stroke:#be6f00;" x="108.59324" xlink:href="#m63f99c69eb" y="41.484782"/>
     <use style="fill:#be6f00;stroke:#be6f00;" x="159.554322" xlink:href="#m63f99c69eb" y="49.13922"/>
     <use style="fill:#be6f00;stroke:#be6f00;" x="229.37534" xlink:href="#m63f99c69eb" y="40.974486"/>
     <use style="fill:#be6f00;stroke:#be6f00;" x="186.779457" xlink:href="#m63f99c69eb" y="39.188451"/>
     <use style="fill:#be6f00;stroke:#be6f00;" x="102.329019" xlink:href="#m63f99c69eb" y="53.221587"/>
     <use style="fill:#be6f00;stroke:#be6f00;" x="229.533367" xlink:href="#m63f99c69eb" y="37.657563"/>
     <use style="fill:#be6f00;stroke:#be6f00;" x="220.033786" xlink:href="#m63f99c69eb" y="37.657563"/>
     <use style="fill:#be6f00;stroke:#be6f00;" x="93.506664" xlink:href="#m63f99c69eb" y="64.192948"/>
     <use style="fill:#be6f00;stroke:#be6f00;" x="207.733255" xlink:href="#m63f99c69eb" y="40.46419"/>
     <use style="fill:#be6f00;stroke:#be6f00;" x="202.298805" xlink:href="#m63f99c69eb" y="38.423007"/>
     <use style="fill:#be6f00;stroke:#be6f00;" x="188.381839" xlink:href="#m63f99c69eb" y="37.402415"/>
     <use style="fill:#be6f00;stroke:#be6f00;" x="210.022993" xlink:href="#m63f99c69eb" y="38.167859"/>
     <use style="fill:#be6f00;stroke:#be6f00;" x="191.667659" xlink:href="#m63f99c69eb" y="38.678155"/>
     <use style="fill:#be6f00;stroke:#be6f00;" x="178.566536" xlink:href="#m63f99c69eb" y="36.636971"/>
     <use style="fill:#be6f00;stroke:#be6f00;" x="61.642623" xlink:href="#m63f99c69eb" y="44.801705"/>
     <use style="fill:#be6f00;stroke:#be6f00;" x="184.901885" xlink:href="#m63f99c69eb" y="61.386321"/>
     <use style="fill:#be6f00;stroke:#be6f00;" x="218.094035" xlink:href="#m63f99c69eb" y="38.423007"/>
     <use style="fill:#be6f00;stroke:#be6f00;" x="215.812329" xlink:href="#m63f99c69eb" y="43.525965"/>
     <use style="fill:#be6f00;stroke:#be6f00;" x="192.763992" xlink:href="#m63f99c69eb" y="36.636971"/>
     <use style="fill:#be6f00;stroke:#be6f00;" x="201.043291" xlink:href="#m63f99c69eb" y="36.126676"/>
     <use style="fill:#be6f00;stroke:#be6f00;" x="210.877171" xlink:href="#m63f99c69eb" y="37.912711"/>
     <use style="fill:#be6f00;stroke:#be6f00;" x="192.973625" xlink:href="#m63f99c69eb" y="36.126676"/>
     <use style="fill:#be6f00;stroke:#be6f00;" x="189.204885" xlink:href="#m63f99c69eb" y="40.46419"/>
     <use style="fill:#be6f00;stroke:#be6f00;" x="184.574884" xlink:href="#m63f99c69eb" y="40.719338"/>
     <use style="fill:#be6f00;stroke:#be6f00;" x="154.162969" xlink:href="#m63f99c69eb" y="48.118628"/>
     <use style="fill:#be6f00;stroke:#be6f00;" x="180.327322" xlink:href="#m63f99c69eb" y="39.953894"/>
     <use style="fill:#be6f00;stroke:#be6f00;" x="160.859087" xlink:href="#m63f99c69eb" y="37.657563"/>
     <use style="fill:#be6f00;stroke:#be6f00;" x="245.955117" xlink:href="#m63f99c69eb" y="36.892119"/>
     <use style="fill:#be6f00;stroke:#be6f00;" x="190.584286" xlink:href="#m63f99c69eb" y="42.505374"/>
     <use style="fill:#be6f00;stroke:#be6f00;" x="247.791256" xlink:href="#m63f99c69eb" y="35.871528"/>
     <use style="fill:#be6f00;stroke:#be6f00;" x="184.772594" xlink:href="#m63f99c69eb" y="36.892119"/>
     <use style="fill:#be6f00;stroke:#be6f00;" x="126.432943" xlink:href="#m63f99c69eb" y="51.435551"/>
     <use style="fill:#be6f00;stroke:#be6f00;" x="166.095746" xlink:href="#m63f99c69eb" y="39.953894"/>
     <use style="fill:#be6f00;stroke:#be6f00;" x="156.724913" xlink:href="#m63f99c69eb" y="38.167859"/>
     <use style="fill:#be6f00;stroke:#be6f00;" x="194.134598" xlink:href="#m63f99c69eb" y="37.912711"/>
     <use style="fill:#be6f00;stroke:#be6f00;" x="158.727429" xlink:href="#m63f99c69eb" y="42.250226"/>
     <use style="fill:#be6f00;stroke:#be6f00;" x="165.979703" xlink:href="#m63f99c69eb" y="39.443599"/>
    </g>
   </g>
   <g id="PathCollection_2">
    <defs>
     <path d="M 0 1.118034 
C 0.296506 1.118034 0.580908 1.000231 0.790569 0.790569 
C 1.000231 0.580908 1.118034 0.296506 1.118034 0 
C 1.118034 -0.296506 1.000231 -0.580908 0.790569 -0.790569 
C 0.580908 -1.000231 0.296506 -1.118034 0 -1.118034 
C -0.296506 -1.118034 -0.580908 -1.000231 -0.790569 -0.790569 
C -1.000231 -0.580908 -1.118034 -0.296506 -1.118034 0 
C -1.118034 0.296506 -1.000231 0.580908 -0.790569 0.790569 
C -0.580908 1.000231 -0.296506 1.118034 0 1.118034 
z
" id="m6f3e55af4a" style="stroke:#00715e;"/>
    </defs>
    <g clip-path="url(#p8af17b29f0)">
     <use style="fill:#00715e;stroke:#00715e;" x="88.663804" xlink:href="#m6f3e55af4a" y="84.85993"/>
     <use style="fill:#00715e;stroke:#00715e;" x="97.531148" xlink:href="#m6f3e55af4a" y="86.13567"/>
     <use style="fill:#00715e;stroke:#00715e;" x="59.775143" xlink:href="#m6f3e55af4a" y="85.625374"/>
     <use style="fill:#00715e;stroke:#00715e;" x="110.573819" xlink:href="#m6f3e55af4a" y="75.419457"/>
     <use style="fill:#00715e;stroke:#00715e;" x="91.60007" xlink:href="#m6f3e55af4a" y="86.390818"/>
     <use style="fill:#00715e;stroke:#00715e;" x="99.736523" xlink:href="#m6f3e55af4a" y="84.604782"/>
     <use style="fill:#00715e;stroke:#00715e;" x="92.904154" xlink:href="#m6f3e55af4a" y="78.73638"/>
     <use style="fill:#00715e;stroke:#00715e;" x="89.661753" xlink:href="#m6f3e55af4a" y="82.308451"/>
     <use style="fill:#00715e;stroke:#00715e;" x="149.525995" xlink:href="#m6f3e55af4a" y="77.46064"/>
     <use style="fill:#00715e;stroke:#00715e;" x="148.053655" xlink:href="#m6f3e55af4a" y="66.999575"/>
     <use style="fill:#00715e;stroke:#00715e;" x="153.216205" xlink:href="#m6f3e55af4a" y="74.909161"/>
     <use style="fill:#00715e;stroke:#00715e;" x="92.836873" xlink:href="#m6f3e55af4a" y="84.604782"/>
     <use style="fill:#00715e;stroke:#00715e;" x="85.947113" xlink:href="#m6f3e55af4a" y="84.604782"/>
     <use style="fill:#00715e;stroke:#00715e;" x="89.100406" xlink:href="#m6f3e55af4a" y="84.349634"/>
     <use style="fill:#00715e;stroke:#00715e;" x="63.086639" xlink:href="#m6f3e55af4a" y="84.85993"/>
     <use style="fill:#00715e;stroke:#00715e;" x="70.19315" xlink:href="#m6f3e55af4a" y="83.329042"/>
     <use style="fill:#00715e;stroke:#00715e;" x="72.948614" xlink:href="#m6f3e55af4a" y="83.839338"/>
     <use style="fill:#00715e;stroke:#00715e;" x="126.483347" xlink:href="#m6f3e55af4a" y="76.440048"/>
     <use style="fill:#00715e;stroke:#00715e;" x="85.379658" xlink:href="#m6f3e55af4a" y="75.164309"/>
     <use style="fill:#00715e;stroke:#00715e;" x="59.408606" xlink:href="#m6f3e55af4a" y="86.645965"/>
     <use style="fill:#00715e;stroke:#00715e;" x="105.36943" xlink:href="#m6f3e55af4a" y="83.58419"/>
     <use style="fill:#00715e;stroke:#00715e;" x="69.026096" xlink:href="#m6f3e55af4a" y="86.390818"/>
     <use style="fill:#00715e;stroke:#00715e;" x="62.429448" xlink:href="#m6f3e55af4a" y="73.633421"/>
     <use style="fill:#00715e;stroke:#00715e;" x="50.587465" xlink:href="#m6f3e55af4a" y="87.411409"/>
     <use style="fill:#00715e;stroke:#00715e;" x="134.762998" xlink:href="#m6f3e55af4a" y="79.756971"/>
     <use style="fill:#00715e;stroke:#00715e;" x="115.361682" xlink:href="#m6f3e55af4a" y="72.357681"/>
     <use style="fill:#00715e;stroke:#00715e;" x="124.653289" xlink:href="#m6f3e55af4a" y="82.053303"/>
     <use style="fill:#00715e;stroke:#00715e;" x="118.192973" xlink:href="#m6f3e55af4a" y="83.073894"/>
     <use style="fill:#00715e;stroke:#00715e;" x="114.810432" xlink:href="#m6f3e55af4a" y="84.094486"/>
     <use style="fill:#00715e;stroke:#00715e;" x="123.36956" xlink:href="#m6f3e55af4a" y="83.58419"/>
     <use style="fill:#00715e;stroke:#00715e;" x="105.022225" xlink:href="#m6f3e55af4a" y="85.880522"/>
     <use style="fill:#00715e;stroke:#00715e;" x="98.69766" xlink:href="#m6f3e55af4a" y="83.329042"/>
     <use style="fill:#00715e;stroke:#00715e;" x="125.933205" xlink:href="#m6f3e55af4a" y="82.308451"/>
     <use style="fill:#00715e;stroke:#00715e;" x="95.863535" xlink:href="#m6f3e55af4a" y="84.604782"/>
     <use style="fill:#00715e;stroke:#00715e;" x="87.13706" xlink:href="#m6f3e55af4a" y="82.818747"/>
     <use style="fill:#00715e;stroke:#00715e;" x="83.878237" xlink:href="#m6f3e55af4a" y="84.094486"/>
     <use style="fill:#00715e;stroke:#00715e;" x="92.19273" xlink:href="#m6f3e55af4a" y="84.094486"/>
     <use style="fill:#00715e;stroke:#00715e;" x="131.668839" xlink:href="#m6f3e55af4a" y="81.798155"/>
     <use style="fill:#00715e;stroke:#00715e;" x="87.717356" xlink:href="#m6f3e55af4a" y="85.370226"/>
     <use style="fill:#00715e;stroke:#00715e;" x="81.909498" xlink:href="#m6f3e55af4a" y="84.094486"/>
     <use style="fill:#00715e;stroke:#00715e;" x="93.362198" xlink:href="#m6f3e55af4a" y="85.880522"/>
     <use style="fill:#00715e;stroke:#00715e;" x="66.668518" xlink:href="#m6f3e55af4a" y="86.645965"/>
     <use style="fill:#00715e;stroke:#00715e;" x="56.763398" xlink:href="#m6f3e55af4a" y="84.094486"/>
     <use style="fill:#00715e;stroke:#00715e;" x="126.560469" xlink:href="#m6f3e55af4a" y="68.275315"/>
     <use style="fill:#00715e;stroke:#00715e;" x="94.331722" xlink:href="#m6f3e55af4a" y="84.85993"/>
     <use style="fill:#00715e;stroke:#00715e;" x="100.192075" xlink:href="#m6f3e55af4a" y="83.839338"/>
     <use style="fill:#00715e;stroke:#00715e;" x="94.210384" xlink:href="#m6f3e55af4a" y="85.880522"/>
     <use style="fill:#00715e;stroke:#00715e;" x="113.214572" xlink:href="#m6f3e55af4a" y="82.308451"/>
     <use style="fill:#00715e;stroke:#00715e;" x="109.677321" xlink:href="#m6f3e55af4a" y="86.13567"/>
    </g>
   </g>
   <g id="r = 0.835">
    <path clip-path="url(#p8af17b29f0)" d="M 50.587465 89.865715 
L 56.763398 87.834695 
L 59.408606 86.964791 
L 59.775143 86.844251 
L 61.642623 86.230111 
L 62.429448 85.971355 
L 63.086639 85.755231 
L 66.668518 84.577293 
L 69.026096 83.801979 
L 70.19315 83.418181 
L 72.948614 82.512018 
L 75.847073 81.55883 
L 81.909498 79.565138 
L 83.878237 78.917698 
L 85.379658 78.42394 
L 85.947113 78.237326 
L 87.13706 77.846 
L 87.717356 77.655163 
L 88.663804 77.343914 
L 89.100406 77.200333 
L 89.661753 77.015728 
L 90.206409 76.836612 
L 91.60007 76.378293 
L 92.19273 76.18339 
L 92.566272 76.060547 
L 92.836873 75.971557 
L 92.904154 75.949431 
L 93.362198 75.798798 
L 93.506664 75.751289 
L 94.210384 75.519863 
L 94.331722 75.47996 
L 95.863535 74.976208 
L 97.531148 74.427796 
L 98.69766 74.044176 
L 99.736523 73.702535 
L 100.192075 73.552722 
L 102.329019 72.849966 
L 105.022225 71.964277 
L 105.36943 71.850095 
L 108.59324 70.789912 
L 109.677321 70.4334 
L 110.573819 70.138578 
L 113.214572 69.270139 
L 114.810432 68.745323 
L 115.361682 68.564039 
L 118.192973 67.632939 
L 123.36956 65.930565 
L 124.653289 65.508397 
L 125.933205 65.087484 
L 126.357999 64.947786 
L 126.432943 64.92314 
L 126.483347 64.906564 
L 126.560469 64.881201 
L 126.940942 64.756079 
L 128.179348 64.348816 
L 131.668839 63.201261 
L 132.180464 63.033008 
L 134.762998 62.183714 
L 135.849651 61.826357 
L 140.212334 60.391643 
L 142.085808 59.775532 
L 147.267536 58.071467 
L 148.053655 57.812943 
L 149.525995 57.328749 
L 153.138987 56.140579 
L 153.216205 56.115185 
L 154.162969 55.803832 
L 154.748896 55.611144 
L 156.724913 54.96131 
L 158.727429 54.302762 
L 159.554322 54.030829 
L 160.859087 53.601744 
L 163.854627 52.616629 
L 164.067462 52.546636 
L 165.979703 51.917776 
L 166.095746 51.879614 
L 167.333803 51.472466 
L 176.625286 48.416865 
L 178.566536 47.778465 
L 178.761436 47.71437 
L 180.327322 47.199412 
L 184.574884 45.802557 
L 184.772594 45.737538 
L 184.901885 45.695019 
L 186.779457 45.07756 
L 188.381839 44.5506 
L 188.417981 44.538715 
L 189.204885 44.279933 
L 189.246716 44.266177 
L 190.584286 43.826303 
L 191.667659 43.470024 
L 192.725933 43.122 
L 192.763992 43.109484 
L 192.973625 43.040543 
L 194.134598 42.658746 
L 199.223096 40.98534 
L 201.043291 40.38675 
L 201.617297 40.197982 
L 202.298805 39.973861 
L 204.628522 39.207709 
L 207.733255 38.186686 
L 210.022993 37.433681 
L 210.734421 37.199721 
L 210.877171 37.152776 
L 213.112992 36.417503 
L 215.812329 35.529798 
L 215.894282 35.502847 
L 218.094035 34.779435 
L 220.033786 34.141528 
L 220.688151 33.926333 
L 224.566467 32.650909 
L 229.37534 31.069461 
L 229.533367 31.017492 
L 232.306315 30.105579 
L 245.955117 25.617028 
L 247.791256 25.013195 
" style="fill:none;stroke:#004e8a;stroke-linecap:round;stroke-width:1.5;"/>
   </g>
   <g id="patch_3">
    <path d="M 40.727276 97.540782 
L 40.727276 19.924782 
" style="fill:none;stroke:#262626;stroke-linecap:square;stroke-linejoin:miter;stroke-width:1.25;"/>
   </g>
   <g id="patch_4">
    <path d="M 263.927276 97.540782 
L 263.927276 19.924782 
" style="fill:none;stroke:#262626;stroke-linecap:square;stroke-linejoin:miter;stroke-width:1.25;"/>
   </g>
   <g id="patch_5">
    <path d="M 40.727276 97.540782 
L 263.927276 97.540782 
" style="fill:none;stroke:#262626;stroke-linecap:square;stroke-linejoin:miter;stroke-width:1.25;"/>
   </g>
   <g id="patch_6">
    <path d="M 40.727276 19.924782 
L 263.927276 19.924782 
" style="fill:none;stroke:#262626;stroke-linecap:square;stroke-linejoin:miter;stroke-width:1.25;"/>
   </g>
   <g id="text_17">
    <!-- r = 0.84*** -->
    <defs>
     <path d="M 64.796875 31.515625 
C 66.296875 31.515625 67.796875 31.515625 67.796875 33.203125 
C 67.796875 35 66.09375 35 64.40625 35 
L 8.59375 35 
C 6.90625 35 5.203125 35 5.203125 33.203125 
C 5.203125 31.515625 6.703125 31.515625 8.203125 31.515625 
z
M 64.40625 14 
C 66.09375 14 67.796875 14 67.796875 15.796875 
C 67.796875 17.484375 66.296875 17.484375 64.796875 17.484375 
L 8.203125 17.484375 
C 6.703125 17.484375 5.203125 17.484375 5.203125 15.796875 
C 5.203125 14 6.90625 14 8.59375 14 
z
" id="CMSS17-61"/>
     <path d="M 43.09375 31.9375 
C 43.09375 37.578125 43 48.078125 38.90625 56.1875 
C 34.796875 64 28.203125 66.078125 23.5 66.078125 
C 16.703125 66.078125 10.90625 62.109375 7.90625 55.78125 
C 4.703125 49.15625 3.796875 42.328125 3.796875 31.9375 
C 3.796875 24.828125 4.09375 16.109375 7.703125 8.484375 
C 11.796875 0.078125 18.703125 -2 23.40625 -2 
C 29.59375 -2 35.59375 1.265625 39 8.09375 
C 42.5 15.21875 43.09375 23.03125 43.09375 31.9375 
z
M 23.40625 4.078125 
C 15.796875 4.078125 13.5 12.671875 12.796875 15.546875 
C 11.59375 20.46875 11.40625 25.21875 11.40625 33.03125 
C 11.40625 39.15625 11.40625 46.0625 13.296875 51.515625 
C 15.59375 57.828125 19.59375 60 23.40625 60 
C 30.796875 60 33.203125 52.6875 34 50.125 
C 35.5 44.890625 35.5 38.765625 35.5 33.03125 
C 35.5 23.84375 35.5 4.078125 23.40625 4.078125 
z
" id="CMSS17-48"/>
     <path d="M 17 7.96875 
L 9 7.96875 
L 9 0 
L 17 0 
z
" id="CMSS17-46"/>
     <path d="M 30.203125 34.71875 
C 37.796875 37.1875 41.703125 43.125 41.703125 48.96875 
C 41.703125 58.15625 33.703125 66.078125 23.5 66.078125 
C 12.90625 66.078125 5.203125 57.9375 5.203125 49.125 
C 5.203125 43.4375 9 37.546875 16.703125 35.015625 
C 6.90625 31.203125 3.90625 23.625 3.90625 17.953125 
C 3.90625 6.96875 12.796875 -2 23.40625 -2 
C 34.40625 -2 43 7.109375 43 17.78125 
C 43 24.328125 39.09375 31.25 30.203125 34.71875 
z
M 23.5 38 
C 16.796875 38 12.296875 42.375 12.296875 49 
C 12.296875 55.71875 16.796875 60 23.5 60 
C 29.703125 60 34.59375 56.109375 34.59375 49 
C 34.59375 41.984375 29.796875 38 23.5 38 
z
M 23.5 4.171875 
C 17.796875 4.171875 11.703125 8.078125 11.703125 18.0625 
C 11.703125 28.328125 18.5 31.921875 23.40625 31.921875 
C 28.796875 31.921875 35.203125 28.125 35.203125 18.0625 
C 35.203125 7.671875 28.59375 4.171875 23.5 4.171875 
z
" id="CMSS17-56"/>
     <path d="M 35.203125 17 
L 44.296875 17 
L 44.296875 23.078125 
L 35.203125 23.078125 
L 35.203125 65.5 
L 26.40625 65.5 
L 2.59375 23.078125 
L 2.59375 17 
L 27.296875 17 
L 27.296875 0 
L 35.203125 0 
z
M 10.296875 23.078125 
C 16.09375 33.234375 27.59375 53.734375 27.59375 60.703125 
L 27.59375 23.078125 
z
" id="CMSS17-52"/>
     <path d="M 26 48.765625 
L 35.203125 42.09375 
C 36.40625 41.203125 36.703125 41 37.59375 41 
C 39.203125 41 41 42.5 41 44.484375 
C 41 46.375 39.59375 47.171875 38.796875 47.5625 
L 28.09375 53.34375 
L 38.90625 59.109375 
C 40.09375 59.8125 41 60.8125 41 62.203125 
C 41 64.1875 39.203125 65.6875 37.59375 65.6875 
C 36.703125 65.6875 36 65.28125 35.203125 64.6875 
L 26 57.921875 
L 26.796875 71.40625 
C 26.796875 73.703125 25.09375 74.8125 23.40625 74.8125 
C 22 74.8125 20.09375 73.8125 20.09375 71.40625 
L 20.90625 57.921875 
L 11.703125 64.59375 
C 10.5 65.484375 10.203125 65.6875 9.296875 65.6875 
C 7.703125 65.6875 5.90625 64.1875 5.90625 62.203125 
C 5.90625 60.3125 7.296875 59.515625 8.09375 59.109375 
L 18.796875 53.34375 
L 8 47.5625 
C 6.796875 46.875 5.90625 45.875 5.90625 44.484375 
C 5.90625 42.5 7.703125 41 9.296875 41 
C 10.203125 41 10.90625 41.390625 11.703125 42 
L 20.90625 48.765625 
L 20.09375 35.375 
C 20.09375 33.09375 21.796875 32 23.5 32 
C 24.90625 32 26.796875 32.984375 26.796875 35.359375 
L 26.703125 36.25 
z
" id="CMSS17-42"/>
    </defs>
    <g style="fill:#004e8a;" transform="translate(130.589898 28.880474)scale(0.08 -0.08)">
     <use transform="scale(0.996264)" xlink:href="#CMSS17-114"/>
     <use transform="translate(63.138885 0)scale(0.996264)" xlink:href="#CMSS17-61"/>
     <use transform="translate(167.235933 0)scale(0.996264)" xlink:href="#CMSS17-48"/>
     <use transform="translate(214.079556 0)scale(0.996264)" xlink:href="#CMSS17-46"/>
     <use transform="translate(240.103761 0)scale(0.996264)" xlink:href="#CMSS17-56"/>
     <use transform="translate(286.947385 0)scale(0.996264)" xlink:href="#CMSS17-52"/>
     <use transform="translate(333.791008 0)scale(0.996264)" xlink:href="#CMSS17-42"/>
     <use transform="translate(380.634632 0)scale(0.996264)" xlink:href="#CMSS17-42"/>
     <use transform="translate(427.478255 0)scale(0.996264)" xlink:href="#CMSS17-42"/>
    </g>
   </g>
   <g id="text_18">
    <!-- \textbf{BERT's Moral Direction (Question Template)} -->
    <defs>
     <path d="M 13.90625 70 
C 10.296875 70 9.09375 68.90625 9.09375 65.203125 
L 9.09375 5.40625 
C 9.09375 1.8125 10.203125 0.609375 13.90625 0.609375 
L 41.296875 0.609375 
C 48.703125 0.609375 67.09375 0.609375 67.09375 19.203125 
C 67.09375 33.6875 53.203125 35.9375 49.5 36.5625 
C 58.703125 38.671875 64 43.9375 64 51.8125 
C 64 70 42.703125 70 38.5 70 
z
M 23.203125 40 
L 23.203125 61.109375 
L 34.90625 61.109375 
C 38.796875 61.109375 50.40625 61.109375 50.40625 51.5625 
C 50.40625 40 37.296875 40 34.796875 40 
z
M 23.203125 9 
L 23.203125 32.71875 
L 35.796875 32.71875 
C 39.296875 32.71875 53.203125 32.71875 53.203125 19.546875 
C 53.203125 9 42.5 9 37.703125 9 
z
" id="CMSSBX10-66"/>
     <path d="M 23.796875 31.5 
L 50.09375 31.5 
C 53.203125 31.5 54.90625 32.21875 54.90625 36.25 
C 54.90625 40 53.59375 41 50.09375 41 
L 23.796875 41 
L 23.796875 59.59375 
L 28.703125 59.59375 
C 36.5 59.59375 44.40625 59.59375 52.203125 59.59375 
C 55.703125 59.59375 58 59.59375 58 64.40625 
L 58 65.203125 
C 58 68.390625 57.296875 70 53.203125 70 
L 13.90625 70 
C 10.296875 70 9.09375 68.890625 9.09375 65.15625 
L 9.09375 4.9375 
C 9.09375 1.3125 10.203125 0.09375 13.90625 0.09375 
L 54.703125 0.09375 
C 58.5 0.09375 59.5 1.375 59.5 4.84375 
L 59.5 6.25 
C 59.5 11 57.203125 11 53.90625 11 
C 48.703125 11 43.59375 11 38.40625 11 
C 35.90625 11 25.59375 11 23.796875 11 
z
" id="CMSSBX10-69"/>
     <path d="M 48.296875 32.171875 
C 54.59375 33.6875 64.09375 37.53125 64.09375 50.078125 
C 64.09375 70 42.40625 70 37.90625 70 
L 13.90625 70 
C 10.296875 70 9.09375 68.890625 9.09375 65.15625 
L 9.09375 4.65625 
C 9.09375 1.03125 10.203125 -0.1875 13.90625 -0.1875 
L 18.703125 -0.1875 
C 22.5 -0.1875 23.5 1.109375 23.5 4.625 
L 23.5 31 
L 34.59375 31 
L 51 2.21875 
C 52.40625 -0.1875 53.5 -0.1875 55.703125 -0.1875 
L 61.59375 -0.1875 
C 63.59375 -0.1875 65.296875 -0.1875 65.296875 2.828125 
z
M 23.5 38.28125 
L 23.5 61.3125 
L 36.5 61.3125 
C 48.09375 61.3125 50.203125 56.609375 50.203125 49.859375 
C 50.203125 43.8125 48.796875 38.28125 36.5 38.28125 
z
" id="CMSSBX10-82"/>
     <path d="M 29.296875 59 
L 29.296875 4.8125 
C 29.296875 1.21875 30.40625 0 34.09375 0 
L 39.203125 0 
C 43 0 44 1.3125 44 4.8125 
L 44 59 
C 48.40625 59 59.59375 59 64 59 
C 66.796875 59 69.203125 59 69.203125 63.796875 
L 69.203125 64.609375 
C 69.203125 67.8125 68.5 69.421875 64.40625 69.421875 
L 8.796875 69.421875 
C 5.203125 69.421875 4 68.3125 4 64.609375 
L 4 63.796875 
C 4 59 6.40625 59 9.203125 59 
z
" id="CMSSBX10-84"/>
     <path d="M 21.796875 57.765625 
L 21.796875 67.375 
C 21.796875 70 21.703125 70 19.09375 70 
L 11.40625 70 
C 8.796875 70 8.703125 69.90625 8.703125 67.28125 
L 8.703125 59.484375 
C 8.703125 56.859375 8.796875 56.859375 12.09375 56.859375 
L 9.09375 48.9375 
C 9 48.625 8.796875 48.046875 8.796875 47.640625 
C 8.796875 46.359375 9.796875 46.359375 11.40625 46.359375 
L 12.59375 46.359375 
C 14.59375 46.359375 14.703125 46.453125 15.5 47.65625 
z
" id="CMSSBX10-39"/>
     <path d="M 39.59375 14.09375 
C 39.59375 19.796875 36.59375 23.375 34.796875 25 
C 30.796875 28.6875 27.296875 29.296875 23.09375 30.109375 
C 17.59375 31.125 13.59375 31.953125 13.59375 35.921875 
C 13.59375 40.09375 16.90625 40.921875 20.796875 40.921875 
C 27.5 40.921875 31.09375 38.375 33.703125 36.140625 
C 34.703125 35.125 34.90625 35.125 35.296875 35.125 
C 36.296875 35.125 36.5 36.03125 36.59375 36.4375 
C 36.796875 37.25 37.796875 42.921875 37.796875 43.421875 
C 37.796875 45.0625 32.5 46.484375 31.40625 46.875 
C 27.40625 48 24.203125 48 21.59375 48 
C 17.09375 48 3.703125 48 3.703125 33.515625 
C 3.703125 28.546875 5.90625 25.515625 8.59375 23.078125 
C 12.09375 19.84375 16 19.140625 21.703125 18.03125 
C 24.59375 17.515625 29.703125 16.59375 29.703125 12.15625 
C 29.703125 7.390625 25.796875 6.671875 21.90625 6.671875 
C 17.5 6.671875 11.90625 8 7.203125 13.703125 
C 6.703125 14.203125 6.40625 14.5 5.796875 14.5 
C 4.796875 14.5 4.59375 13.609375 4.5 13 
C 4.296875 11.609375 3.09375 5.90625 3.09375 4.890625 
C 3.09375 3.09375 10.5 0.796875 10.59375 0.703125 
C 16.09375 -1 20.203125 -1 21.90625 -1 
C 27 -1 39.59375 -1 39.59375 14.09375 
z
" id="CMSSBX10-115"/>
     <path d="M 55.5 32.90625 
C 53.40625 27.75 49.703125 18.453125 48.90625 14.921875 
L 48.796875 14.921875 
C 47.90625 18.546875 43.796875 28.5625 41.703125 33.921875 
L 28.90625 65.859375 
C 27.203125 70 24 70 22.203125 70 
L 13.90625 70 
C 10.296875 70 9.09375 68.890625 9.09375 65.15625 
L 9.09375 4.71875 
C 9.09375 1.09375 10.203125 -0.125 13.90625 -0.125 
L 16.59375 -0.125 
C 20.40625 -0.125 21.40625 1.1875 21.40625 4.71875 
L 21.40625 56.96875 
L 21.5 56.96875 
C 22.59375 52.421875 27.09375 41.203125 29.5 35.25 
L 41.09375 6.4375 
C 42.90625 2.09375 45.296875 2.09375 48.703125 2.09375 
C 52.09375 2.09375 54.5 2.09375 56.296875 6.4375 
L 69.09375 38.171875 
C 70.09375 40.59375 75.5 54.34375 76.203125 56.96875 
L 76.296875 56.96875 
L 76.296875 4.71875 
C 76.296875 1.484375 77 -0.125 81.09375 -0.125 
L 83.796875 -0.125 
C 87.59375 -0.125 88.59375 1.1875 88.59375 4.71875 
L 88.59375 65.15625 
C 88.59375 68.390625 87.90625 70 83.796875 70 
L 75.40625 70 
C 72.90625 70 70.40625 69.796875 68.703125 65.65625 
z
" id="CMSSBX10-77"/>
     <path d="M 51.796875 22.796875 
C 51.796875 39.328125 43.796875 48 27.5 48 
C 10.796875 48 3.09375 39.015625 3.09375 22.796875 
C 3.09375 6.359375 11.703125 -1 27.40625 -1 
C 43.09375 -1 51.796875 6.265625 51.796875 22.796875 
z
M 27.5 6.875 
C 16.703125 6.875 16.703125 15.9375 16.703125 24 
C 16.703125 31.765625 16.703125 40.71875 27.40625 40.71875 
C 38.203125 40.71875 38.203125 31.859375 38.203125 24 
C 38.203125 16.046875 38.203125 6.875 27.5 6.875 
z
" id="CMSSBX10-111"/>
     <path d="M 19.40625 23.375 
C 19.40625 33.046875 27.296875 37 33.59375 37 
C 35.40625 37 35.59375 37 35.59375 39.921875 
L 35.59375 44.6875 
C 35.59375 46.703125 35.59375 47.40625 33.796875 47.40625 
C 31 47.40625 23.703125 46.40625 19 35.484375 
L 18.90625 35.484375 
L 18.90625 42.03125 
C 18.90625 45.265625 18.203125 46.890625 14.09375 46.890625 
L 10.90625 46.890625 
C 7.296875 46.890625 6.09375 45.78125 6.09375 42.03125 
L 6.09375 4.84375 
C 6.09375 1.21875 7.203125 0 10.90625 0 
L 14.59375 0 
C 18.40625 0 19.40625 1.3125 19.40625 4.875 
z
" id="CMSSBX10-114"/>
     <path d="M 46.40625 32.03125 
C 46.40625 48 31.203125 48 26.203125 48 
C 21.5 48 16.5 47.59375 9.796875 44.8125 
C 7.703125 43.921875 7.203125 43.625 7.203125 42.53125 
C 7.203125 41.828125 7.796875 35.9375 7.90625 35.125 
C 8 34.515625 8.5 34.015625 9.203125 34.015625 
C 9.703125 34.015625 10 34.3125 10.296875 34.625 
C 14.59375 39.1875 19.59375 41.421875 25.796875 41.421875 
C 31.203125 41.421875 32.796875 38.046875 32.796875 32.015625 
L 32.796875 28.4375 
C 29.296875 28.4375 3.09375 28.4375 3.09375 13.5625 
C 3.09375 6.484375 8.703125 -1 17.5 -1 
C 20.90625 -1 28.40625 0.015625 33.09375 6.984375 
L 33.09375 4.953125 
C 33.09375 1.71875 33.796875 0.109375 37.90625 0.109375 
L 41.59375 0.109375 
C 45.40625 0.109375 46.40625 1.421875 46.40625 4.953125 
z
M 32.796875 15.4375 
C 32.796875 6.28125 23.296875 6.28125 23 6.28125 
C 18.796875 6.28125 16.09375 9.984375 16.09375 13.890625 
C 16.09375 24 30 24 32.796875 24 
z
" id="CMSSBX10-97"/>
     <path d="M 19.40625 65.15625 
C 19.40625 68.390625 18.703125 70 14.59375 70 
L 10.90625 70 
C 7.296875 70 6.09375 68.890625 6.09375 65.15625 
L 6.09375 4.71875 
C 6.09375 1.09375 7.203125 -0.125 10.90625 -0.125 
L 14.59375 -0.125 
C 18.40625 -0.125 19.40625 1.1875 19.40625 4.71875 
z
" id="CMSSBX10-108"/>
     <path d="M 13.90625 70 
C 10.296875 70 9.09375 68.890625 9.09375 65.171875 
L 9.09375 4.828125 
C 9.09375 1.21875 10.203125 0 13.90625 0 
L 40.296875 0 
C 64.703125 0 73.203125 14.71875 73.203125 34.5 
C 73.203125 42.46875 71.90625 52.25 66.296875 59.40625 
C 58.796875 68.796875 46.796875 70 40.296875 70 
z
M 23.5 8.6875 
L 23.5 61.3125 
L 36.296875 61.3125 
C 57.90625 61.3125 58.796875 45.78125 58.796875 34.5 
C 58.796875 23.109375 57.703125 8.6875 36.40625 8.6875 
z
" id="CMSSBX10-68"/>
     <path d="M 10.203125 70 
C 7 70 5.40625 69.390625 5.40625 65.34375 
L 5.40625 60.703125 
C 5.40625 57.46875 6.40625 56.15625 10.09375 56.15625 
L 15.296875 56.15625 
C 20.09375 56.15625 20.09375 58.28125 20.09375 63.03125 
C 20.09375 67.875 20.09375 70 15.296875 70 
z
M 19.40625 41.15625 
C 19.40625 44.390625 18.703125 46 14.59375 46 
L 10.90625 46 
C 7.296875 46 6.09375 44.890625 6.09375 41.15625 
L 6.09375 4.5625 
C 6.09375 0.9375 7.203125 -0.28125 10.90625 -0.28125 
L 14.59375 -0.28125 
C 18.40625 -0.28125 19.40625 1.03125 19.40625 4.5625 
z
" id="CMSSBX10-105"/>
     <path d="M 43.09375 21.640625 
C 45.40625 21.640625 47.90625 21.640625 47.90625 26.21875 
C 47.90625 39.28125 41.90625 48 27 48 
C 11 48 3.09375 38.921875 3.09375 23.59375 
C 3.09375 7.0625 12.59375 -1 28.296875 -1 
C 32.09375 -1 37.796875 -0.5 44.40625 2.84375 
C 46.59375 3.953125 47.296875 4.25 47.296875 5.46875 
C 47.296875 6.171875 47 9.09375 46.90625 9.890625 
C 46.5 13.015625 46.40625 13.109375 45.5 13.109375 
C 45.09375 13.109375 44.90625 13.109375 43.796875 12.109375 
C 37.90625 6.984375 31.90625 6.28125 28.703125 6.28125 
C 17.40625 6.28125 16.203125 15.21875 15.90625 21.640625 
z
M 16 27 
C 16.296875 33.15625 18.296875 40.71875 27 40.71875 
C 35 40.71875 36.5 34.859375 36.796875 27 
z
" id="CMSSBX10-101"/>
     <path d="M 45.703125 5.15625 
C 45.703125 6.28125 45.296875 10.90625 45.09375 12.21875 
C 45.09375 12.515625 44.90625 13.53125 43.90625 13.53125 
C 43.5 13.53125 43.296875 13.53125 42.296875 12.515625 
C 40.59375 11 35.90625 6.875 27.703125 6.875 
C 17.296875 6.875 17.296875 17.0625 17.296875 23.484375 
C 17.296875 31.65625 17.796875 40.125 28 40.125 
C 34.5 40.125 37.203125 38.5 40.796875 35.484375 
C 42 34.375 42.203125 34.375 42.59375 34.375 
C 43.59375 34.375 43.796875 35.28125 43.90625 35.6875 
C 44.09375 36.5 45.09375 42.140625 45.09375 42.640625 
C 45.09375 43.546875 44.40625 43.953125 42.703125 44.765625 
C 37.90625 46.984375 34.90625 48 27.90625 48 
C 13 48 3.703125 40.9375 3.703125 23.296875 
C 3.703125 6.5625 12.296875 -1 27.40625 -1 
C 30.09375 -1 36.09375 -1 42.796875 2.484375 
C 45.59375 4.03125 45.703125 4.140625 45.703125 5.15625 
z
" id="CMSSBX10-99"/>
     <path d="M 21.796875 39 
L 30.703125 39 
C 31.90625 39 35.5 39 35.5 42.640625 
C 35.5 46.28125 31.90625 46.28125 30.703125 46.28125 
L 21.796875 46.28125 
L 21.796875 54.65625 
C 21.796875 57.890625 21.09375 59.5 17 59.5 
L 13.90625 59.5 
C 10.296875 59.5 9.09375 58.390625 9.09375 54.65625 
L 9.09375 46.28125 
L 6.796875 46.28125 
C 5.703125 46.28125 2 46.28125 2 42.640625 
C 2 39 5.59375 39 6.796875 39 
L 8.796875 39 
L 8.796875 13.5 
C 8.796875 3.328125 12.40625 -1 19.296875 -1 
C 20.203125 -1 24.59375 -1 29.796875 0.609375 
C 31.5 1.125 37.296875 2.9375 37.296875 4.859375 
C 37.296875 5.15625 37.09375 5.875 36.5 7.96875 
C 36 9.984375 35.796875 10.59375 34.90625 10.59375 
C 34.40625 10.59375 34.296875 10.484375 33.703125 9.875 
C 32.59375 9.09375 29.90625 6.875 25.703125 6.875 
C 23.296875 6.875 21.796875 8.59375 21.796875 15.234375 
z
" id="CMSSBX10-116"/>
     <path d="M 50 32.75 
C 50 43.140625 45.59375 47.265625 35.40625 47.265625 
C 24.90625 47.265625 20.40625 39.609375 19.09375 36.875 
L 19 36.875 
L 19 41.984375 
C 19 45.25 18.296875 46.890625 14.203125 46.890625 
L 10.796875 46.890625 
C 7.203125 46.890625 6 45.78125 6 42.03125 
L 6 4.84375 
C 6 1.21875 7.09375 0 10.796875 0 
L 14.796875 0 
C 18.59375 0 19.59375 1.3125 19.59375 4.828125 
L 19.59375 27.109375 
C 19.59375 35.859375 25.40625 40 30.59375 40 
C 35.40625 40 36.40625 37.671875 36.40625 32.53125 
L 36.40625 4.828125 
C 36.40625 1.609375 37.09375 0 41.203125 0 
L 45.203125 0 
C 49 0 50 1.3125 50 4.828125 
z
" id="CMSSBX10-110"/>
     <path d="M 32.09375 76 
C 30.296875 76 30.09375 76 28.296875 74.375 
C 16.296875 64.171875 8.59375 46.90625 8.59375 25.5 
C 8.59375 13.265625 11.09375 -7.828125 27.796875 -23.078125 
C 29.90625 -25 30.09375 -25 32.09375 -25 
L 33.90625 -25 
C 35.5 -25 36.59375 -25 36.59375 -23.6875 
C 36.59375 -23.375 36.59375 -23.171875 35.40625 -21.859375 
C 29.09375 -14.078125 22.203125 -1.671875 22.203125 25.5 
C 22.203125 55.1875 30.5 66.890625 36 73.5625 
C 36.40625 74.078125 36.59375 74.28125 36.59375 74.671875 
C 36.59375 76 35.5 76 33.90625 76 
z
" id="CMSSBX10-40"/>
     <path d="M 64.203125 -10.5 
C 65.5 -10.5 67.796875 -10.5 67.796875 -8.28125 
C 67.796875 -7.484375 67.59375 -7.28125 66.296875 -5.453125 
L 59.796875 3.046875 
C 72.5 10.859375 73.203125 27.609375 73.203125 34.921875 
C 73.203125 55.328125 65.90625 72.890625 39.703125 72.890625 
C 12 72.890625 6.09375 53.5 6.09375 34.9375 
C 6.09375 15.953125 12.59375 -2 39.59375 -2 
C 41.296875 -2 43.59375 -2 46.796875 -1.5 
C 48 -3.3125 49.203125 -5.140625 50.5 -6.953125 
C 52.59375 -10.1875 52.90625 -10.5 56.203125 -10.5 
z
M 38.203125 19.90625 
C 36.796875 19.90625 34.59375 19.90625 34.59375 17.5625 
C 34.59375 16.453125 37.796875 11.875 39.59375 9.328125 
C 39.90625 8.828125 41.59375 6.390625 41.59375 6.078125 
C 41.59375 5.875 40 5.875 39.59375 5.875 
C 20.5 5.875 20.5 26 20.5 35.03125 
C 20.5 43.96875 20.5 65 39.59375 65 
C 58.796875 65 58.796875 44.078125 58.796875 35.03125 
C 58.796875 28.640625 58.796875 18.0625 53.203125 11.5625 
L 47.703125 18.796875 
C 46.703125 19.90625 46.296875 19.90625 44.296875 19.90625 
z
" id="CMSSBX10-81"/>
     <path d="M 50 41.4375 
C 50 44.671875 49.296875 46.28125 45.203125 46.28125 
L 41.203125 46.28125 
C 37.40625 46.28125 36.40625 44.96875 36.40625 41.453125 
L 36.40625 17.5625 
C 36.40625 10.90625 32.90625 5.15625 25.796875 5.15625 
C 20.203125 5.15625 19.59375 6.578125 19.59375 11.921875 
L 19.59375 41.453125 
C 19.59375 44.671875 18.90625 46.28125 14.796875 46.28125 
L 10.796875 46.28125 
C 7.203125 46.28125 6 45.171875 6 41.453125 
L 6 12.8125 
C 6 2.03125 11.796875 -1 22.203125 -1 
C 24.90625 -1 32 -1 36.703125 7.578125 
L 36.703125 4.90625 
C 36.703125 1.625 37.40625 0 41.5 0 
L 45.203125 0 
C 49 0 50 1.3125 50 4.84375 
z
" id="CMSSBX10-117"/>
     <path d="M 80.59375 32.75 
C 80.59375 43.140625 76.203125 47.265625 66 47.265625 
C 58.90625 47.265625 53.40625 43.9375 49.796875 37.28125 
C 48.203125 47.0625 39.703125 47.0625 35.5 47.0625 
C 33.59375 47.0625 29.40625 47.0625 24.90625 43.796875 
C 21.796875 41.53125 19.796875 38.359375 19.09375 36.875 
L 19 36.875 
L 19 41.984375 
C 19 45.25 18.296875 46.890625 14.203125 46.890625 
L 10.796875 46.890625 
C 7.203125 46.890625 6 45.78125 6 42.03125 
L 6 4.84375 
C 6 1.21875 7.09375 0 10.796875 0 
L 14.796875 0 
C 18.59375 0 19.59375 1.3125 19.59375 4.828125 
L 19.59375 27.109375 
C 19.59375 36.171875 25.703125 40 30.59375 40 
C 35.40625 40 36.5 37.875 36.5 32.53125 
L 36.5 4.828125 
C 36.5 1.21875 37.59375 0 41.296875 0 
L 45.296875 0 
C 49.09375 0 50.09375 1.3125 50.09375 4.828125 
L 50.09375 27.109375 
C 50.09375 36.171875 56.203125 40 61.09375 40 
C 65.90625 40 67 37.875 67 32.53125 
L 67 4.828125 
C 67 1.21875 68.09375 0 71.796875 0 
L 75.796875 0 
C 79.59375 0 80.59375 1.3125 80.59375 4.828125 
z
" id="CMSSBX10-109"/>
     <path d="M 19.703125 3.78125 
C 24.203125 -1.28125 29.703125 -1.28125 31.09375 -1.28125 
C 52.296875 -1.28125 52.296875 18.03125 52.296875 23.0625 
C 52.296875 27.984375 52.296875 47 34.203125 47 
C 28.296875 47 23 44.578125 19.40625 41.140625 
C 19.40625 44.875 18 45.890625 14.59375 45.890625 
L 10.90625 45.890625 
C 7.296875 45.890625 6.09375 44.78125 6.09375 41.046875 
L 6.09375 -15.140625 
C 6.09375 -18.78125 7.203125 -20 10.90625 -20 
L 14.90625 -20 
C 18.703125 -20 19.703125 -18.671875 19.703125 -15.09375 
z
M 19.703125 35.8125 
C 20.796875 36.8125 24.09375 39.125 28.40625 39.125 
C 38.59375 39.125 38.703125 27.28125 38.703125 22.859375 
C 38.703125 18.84375 38.703125 6 27.40625 6 
C 25.09375 6 23.296875 6.796875 22.09375 7.6875 
C 19.703125 9.40625 19.703125 9.90625 19.703125 11.71875 
z
" id="CMSSBX10-112"/>
     <path d="M 8.796875 76 
C 7.203125 76 6.09375 76 6.09375 74.6875 
C 6.09375 74.390625 6.09375 74.1875 7.296875 72.875 
C 13.5 65.09375 20.5 52.6875 20.5 25.5 
C 20.5 -4.09375 12.203125 -15.796875 6.703125 -22.578125 
C 6.09375 -23.28125 6.09375 -23.484375 6.09375 -23.6875 
C 6.09375 -25 7.203125 -25 8.796875 -25 
L 10.59375 -25 
C 12.40625 -25 12.59375 -25 14.40625 -23.375 
C 26.40625 -13.171875 34.09375 4.09375 34.09375 25.5 
C 34.09375 37.703125 31.59375 58.828125 14.90625 74.078125 
C 12.796875 76 12.59375 76 10.59375 76 
z
" id="CMSSBX10-41"/>
    </defs>
    <g style="fill:#262626;" transform="translate(58.004305 13.924782)scale(0.09 -0.09)">
     <use transform="scale(0.996264)" xlink:href="#CMSSBX10-66"/>
     <use transform="translate(73.059766 0)scale(0.996264)" xlink:href="#CMSSBX10-69"/>
     <use transform="translate(136.987061 0)scale(0.996264)" xlink:href="#CMSSBX10-82"/>
     <use transform="translate(207.002671 0)scale(0.996264)" xlink:href="#CMSSBX10-84"/>
     <use transform="translate(280.062437 0)scale(0.996264)" xlink:href="#CMSSBX10-39"/>
     <use transform="translate(310.504006 0)scale(0.996264)" xlink:href="#CMSSBX10-115"/>
     <use transform="translate(389.043255 0)scale(0.996264)" xlink:href="#CMSSBX10-77"/>
     <use transform="translate(486.456276 0)scale(0.996264)" xlink:href="#CMSSBX10-111"/>
     <use transform="translate(538.206944 0)scale(0.996264)" xlink:href="#CMSSBX10-114"/>
     <use transform="translate(575.290354 0)scale(0.996264)" xlink:href="#CMSSBX10-97"/>
     <use transform="translate(627.594549 0)scale(0.996264)" xlink:href="#CMSSBX10-108"/>
     <use transform="translate(689.584651 0)scale(0.996264)" xlink:href="#CMSSBX10-68"/>
     <use transform="translate(768.732731 0)scale(0.996264)" xlink:href="#CMSSBX10-105"/>
     <use transform="translate(794.19295 0)scale(0.996264)" xlink:href="#CMSSBX10-114"/>
     <use transform="translate(831.27636 0)scale(0.996264)" xlink:href="#CMSSBX10-101"/>
     <use transform="translate(882.196813 0)scale(0.996264)" xlink:href="#CMSSBX10-99"/>
     <use transform="translate(930.903323 0)scale(0.996264)" xlink:href="#CMSSBX10-116"/>
     <use transform="translate(971.169227 0)scale(0.996264)" xlink:href="#CMSSBX10-105"/>
     <use transform="translate(996.629446 0)scale(0.996264)" xlink:href="#CMSSBX10-111"/>
     <use transform="translate(1051.42427 0)scale(0.996264)" xlink:href="#CMSSBX10-110"/>
     <use transform="translate(1143.855941 0)scale(0.996264)" xlink:href="#CMSSBX10-40"/>
     <use transform="translate(1186.474138 0)scale(0.996264)" xlink:href="#CMSSBX10-81"/>
     <use transform="translate(1265.622218 0)scale(0.996264)" xlink:href="#CMSSBX10-117"/>
     <use transform="translate(1321.524006 0)scale(0.996264)" xlink:href="#CMSSBX10-101"/>
     <use transform="translate(1372.444459 0)scale(0.996264)" xlink:href="#CMSSBX10-115"/>
     <use transform="translate(1414.453824 0)scale(0.996264)" xlink:href="#CMSSBX10-116"/>
     <use transform="translate(1454.719728 0)scale(0.996264)" xlink:href="#CMSSBX10-105"/>
     <use transform="translate(1480.179947 0)scale(0.996264)" xlink:href="#CMSSBX10-111"/>
     <use transform="translate(1534.974771 0)scale(0.996264)" xlink:href="#CMSSBX10-110"/>
     <use transform="translate(1627.406442 0)scale(0.996264)" xlink:href="#CMSSBX10-84"/>
     <use transform="translate(1691.333737 0)scale(0.996264)" xlink:href="#CMSSBX10-101"/>
     <use transform="translate(1742.25419 0)scale(0.996264)" xlink:href="#CMSSBX10-109"/>
     <use transform="translate(1828.597547 0)scale(0.996264)" xlink:href="#CMSSBX10-112"/>
     <use transform="translate(1884.499335 0)scale(0.996264)" xlink:href="#CMSSBX10-108"/>
     <use transform="translate(1909.959554 0)scale(0.996264)" xlink:href="#CMSSBX10-97"/>
     <use transform="translate(1962.263749 0)scale(0.996264)" xlink:href="#CMSSBX10-116"/>
     <use transform="translate(2002.529653 0)scale(0.996264)" xlink:href="#CMSSBX10-101"/>
     <use transform="translate(2053.450105 0)scale(0.996264)" xlink:href="#CMSSBX10-41"/>
    </g>
   </g>
  </g>
 </g>
 <defs>
  <clipPath id="p8af17b29f0">
   <rect height="77.616" width="223.2" x="40.727276" y="19.924782"/>
  </clipPath>
 </defs>
</svg>
