<?xml version="1.0" encoding="utf-8" standalone="no"?>
<!DOCTYPE svg PUBLIC "-//W3C//DTD SVG 1.1//EN"
  "http://www.w3.org/Graphics/SVG/1.1/DTD/svg11.dtd">
<!-- Created with matplotlib (http://matplotlib.org/) -->
<svg height="230.4pt" version="1.1" viewBox="0 0 230.4 230.4" width="230.4pt" xmlns="http://www.w3.org/2000/svg" xmlns:xlink="http://www.w3.org/1999/xlink">
 <defs>
  <style type="text/css">
*{stroke-linecap:butt;stroke-linejoin:round;}
  </style>
 </defs>
 <g id="figure_1">
  <g id="patch_1">
   <path d="M 0 230.4 
L 230.4 230.4 
L 230.4 0 
L 0 0 
z
" style="fill:#ffffff;"/>
  </g>
  <g id="axes_1">
   <g id="patch_2">
    <path d="M 42.48869 192.732 
L 215.232 192.732 
L 215.232 15.168 
L 42.48869 15.168 
z
" style="fill:#ffffff;"/>
   </g>
   <g id="matplotlib.axis_1">
    <g id="xtick_1">
     <g id="text_1">
      <!-- 10 -->
      <defs>
       <path d="M 28.40625 67 
L 26.5 67 
C 21.09375 61.5625 14.796875 60.78125 8.40625 60.78125 
L 8.40625 55 
C 11.296875 55 16 55 20.703125 57.296875 
L 20.703125 5.765625 
L 8.90625 5.765625 
L 8.90625 0 
L 40.203125 0 
L 40.203125 5.765625 
L 28.40625 5.765625 
z
" id="CMSS17-49"/>
       <path d="M 43.09375 31.9375 
C 43.09375 37.578125 43 48.078125 38.90625 56.1875 
C 34.796875 64 28.203125 66.078125 23.5 66.078125 
C 16.703125 66.078125 10.90625 62.109375 7.90625 55.78125 
C 4.703125 49.15625 3.796875 42.328125 3.796875 31.9375 
C 3.796875 24.828125 4.09375 16.109375 7.703125 8.484375 
C 11.796875 0.078125 18.703125 -2 23.40625 -2 
C 29.59375 -2 35.59375 1.265625 39 8.09375 
C 42.5 15.21875 43.09375 23.03125 43.09375 31.9375 
z
M 23.40625 4.078125 
C 15.796875 4.078125 13.5 12.671875 12.796875 15.546875 
C 11.59375 20.46875 11.40625 25.21875 11.40625 33.03125 
C 11.40625 39.15625 11.40625 46.0625 13.296875 51.515625 
C 15.59375 57.828125 19.59375 60 23.40625 60 
C 30.796875 60 33.203125 52.6875 34 50.125 
C 35.5 44.890625 35.5 38.765625 35.5 33.03125 
C 35.5 23.84375 35.5 4.078125 23.40625 4.078125 
z
" id="CMSS17-48"/>
      </defs>
      <g style="fill:#262626;" transform="translate(46.106475 206.566802)scale(0.08 -0.08)">
       <use transform="scale(0.996264)" xlink:href="#CMSS17-49"/>
       <use transform="translate(46.843624 0)scale(0.996264)" xlink:href="#CMSS17-48"/>
      </g>
     </g>
    </g>
    <g id="xtick_2">
     <g id="text_2">
      <!-- 100 -->
      <g style="fill:#262626;" transform="translate(96.404441 206.566802)scale(0.08 -0.08)">
       <use transform="scale(0.996264)" xlink:href="#CMSS17-49"/>
       <use transform="translate(46.843624 0)scale(0.996264)" xlink:href="#CMSS17-48"/>
       <use transform="translate(93.687247 0)scale(0.996264)" xlink:href="#CMSS17-48"/>
      </g>
     </g>
    </g>
    <g id="xtick_3">
     <g id="text_3">
      <!-- 1K -->
      <defs>
       <path d="M 34.90625 41.65625 
L 59.796875 69 
L 50.203125 69 
L 17.203125 32.90625 
L 17.203125 69 
L 8.796875 69 
L 8.796875 0 
L 17.203125 0 
L 17.203125 22.375 
L 29.296875 35.59375 
L 51.796875 0 
L 61.09375 0 
z
" id="CMSS17-75"/>
      </defs>
      <g style="fill:#262626;" transform="translate(150.113277 206.566802)scale(0.08 -0.08)">
       <use transform="scale(0.996264)" xlink:href="#CMSS17-49"/>
       <use transform="translate(46.843624 0)scale(0.996264)" xlink:href="#CMSS17-75"/>
      </g>
     </g>
    </g>
    <g id="xtick_4">
     <g id="text_4">
      <!-- 10K -->
      <g style="fill:#262626;" transform="translate(200.411243 206.566802)scale(0.08 -0.08)">
       <use transform="scale(0.996264)" xlink:href="#CMSS17-49"/>
       <use transform="translate(46.843624 0)scale(0.996264)" xlink:href="#CMSS17-48"/>
       <use transform="translate(93.687247 0)scale(0.996264)" xlink:href="#CMSS17-75"/>
      </g>
     </g>
    </g>
    <g id="xtick_5"/>
    <g id="xtick_6"/>
    <g id="xtick_7"/>
    <g id="xtick_8"/>
    <g id="xtick_9"/>
    <g id="xtick_10"/>
    <g id="xtick_11"/>
    <g id="xtick_12"/>
    <g id="xtick_13"/>
    <g id="xtick_14"/>
    <g id="xtick_15"/>
    <g id="xtick_16"/>
    <g id="xtick_17"/>
    <g id="xtick_18"/>
    <g id="xtick_19"/>
    <g id="xtick_20"/>
    <g id="xtick_21"/>
    <g id="xtick_22"/>
    <g id="xtick_23"/>
    <g id="xtick_24"/>
    <g id="xtick_25"/>
    <g id="xtick_26"/>
    <g id="xtick_27"/>
    <g id="xtick_28"/>
    <g id="xtick_29"/>
    <g id="xtick_30"/>
    <g id="xtick_31"/>
    <g id="text_5">
     <!-- Number of Generations -->
     <defs>
      <path d="M 22.90625 65.3125 
L 21.09375 69 
L 8.796875 69 
L 8.796875 0 
L 16.59375 0 
L 16.59375 61.34375 
L 16.703125 61.4375 
C 17.40625 59.640625 17.796875 58.75 21.90625 49.90625 
L 43.296875 3.6875 
L 45.09375 0 
L 57.40625 0 
L 57.40625 69 
L 49.59375 69 
L 49.59375 7.65625 
L 49.5 7.546875 
C 48.796875 9.34375 48.40625 10.234375 44.296875 19.078125 
z
" id="CMSS17-78"/>
      <path d="M 40.90625 42.796875 
L 33.296875 42.796875 
L 33.296875 15.1875 
C 33.296875 7.78125 27.90625 4.78125 22.203125 4.78125 
C 15.59375 4.78125 15 6.984375 15 11.078125 
L 15 42.796875 
L 7.40625 42.796875 
L 7.40625 10.59375 
C 7.40625 2.796875 10.09375 -1 17 -1 
C 20.40625 -1 28.09375 -0.203125 33.5 4.78125 
L 33.5 0 
L 40.90625 0 
z
" id="CMSS17-117"/>
      <path d="M 67 29.328125 
C 67 36.0625 65.296875 44 54.09375 44 
C 46.59375 44 42.09375 39.3125 40.09375 36.421875 
C 38.296875 41.71875 34.09375 44 28.09375 44 
C 21.296875 44 17 40.125 14.703125 37.328125 
L 14.703125 43.09375 
L 7.40625 43.09375 
L 7.40625 0 
L 15 0 
L 15 24.359375 
C 15 30.296875 17.203125 37.9375 24.296875 37.9375 
C 33.40625 37.9375 33.40625 31.5 33.40625 28.578125 
L 33.40625 0 
L 41 0 
L 41 24.359375 
C 41 30.296875 43.203125 37.9375 50.296875 37.9375 
C 59.40625 37.9375 59.40625 31.5 59.40625 28.578125 
L 59.40625 0 
L 67 0 
z
" id="CMSS17-109"/>
      <path d="M 14.90625 69 
L 7.5 69 
L 7.5 -0.203125 
L 15.09375 -0.203125 
L 15.09375 4.28125 
C 18.90625 0.59375 23.5 -1 27.59375 -1 
C 37.203125 -1 45 8.578125 45 21.125 
C 45 32.59375 39 43.0625 30.09375 43.0625 
C 23.796875 43.0625 18.203125 40.484375 14.90625 37.796875 
z
M 15.09375 31.96875 
C 17.296875 34.71875 20.40625 37 24.796875 37 
C 30.703125 37 37.40625 32.765625 37.40625 21.125 
C 37.40625 8.71875 29.40625 5.078125 23.90625 5.078125 
C 21.90625 5.078125 19.796875 5.5625 17.796875 7.25 
C 15.09375 9.609375 15.09375 11.078125 15.09375 12.453125 
z
" id="CMSS17-98"/>
      <path d="M 39.09375 21.515625 
C 39.09375 24.84375 38.90625 31.296875 35.703125 36.640625 
C 32.203125 42.390625 26.5 44 22.203125 44 
C 11.796875 44 3 34.1875 3 21.484375 
C 3 9.09375 12.09375 -1 23.59375 -1 
C 28.09375 -1 33.59375 0.296875 38.59375 3.875 
C 38.59375 4.28125 38.40625 6.46875 38.296875 6.5625 
C 38.296875 6.765625 38 9.84375 38 10.25 
C 33.203125 6.359375 27.703125 5.078125 23.703125 5.078125 
C 17.296875 5.078125 10.40625 10.421875 10.09375 21.515625 
z
M 10.90625 27 
C 12.203125 32.5625 16.59375 37.828125 22.203125 37.828125 
C 23.703125 37.828125 30.703125 37.828125 32.5 27 
z
" id="CMSS17-101"/>
      <path d="M 14.90625 21.296875 
C 14.90625 30.703125 21.796875 37 30.59375 37 
L 30.59375 43.578125 
C 24.203125 43.578125 18.203125 40.390625 14.59375 35.203125 
L 14.59375 43.09375 
L 7.5 43.09375 
L 7.5 0 
L 14.90625 0 
z
" id="CMSS17-114"/>
      <path d="M 44.203125 21.1875 
C 44.203125 34 34.703125 44 23.5 44 
C 12 44 2.703125 33.703125 2.703125 21.1875 
C 2.703125 8.5 12.296875 -1 23.40625 -1 
C 34.796875 -1 44.203125 8.796875 44.203125 21.1875 
z
M 23.5 5.265625 
C 16.40625 5.265625 10.296875 11.078125 10.296875 22 
C 10.296875 33.609375 17.40625 37.921875 23.40625 37.921875 
C 29.90625 37.921875 36.59375 33.21875 36.59375 22 
C 36.59375 10.671875 30.09375 5.265625 23.5 5.265625 
z
" id="CMSS17-111"/>
      <path d="M 16.796875 37 
L 26.90625 37 
L 26.90625 42.765625 
L 16.59375 42.765625 
L 16.59375 55.609375 
C 16.59375 62.71875 22 63.9375 25.09375 63.9375 
C 26.09375 63.9375 28.90625 63.9375 32.5 62.640625 
L 32.5 69.203125 
C 30.203125 69.703125 27.40625 70 25.203125 70 
C 15.90625 70 9.40625 62.390625 9.40625 52.484375 
L 9.40625 42.765625 
L 2.5 42.765625 
L 2.5 37 
L 9.40625 37 
L 9.40625 0 
L 16.796875 0 
z
" id="CMSS17-102"/>
      <path d="M 56.40625 29 
L 36.5 29 
L 36.5 22.828125 
L 48.796875 22.828125 
L 48.796875 7.359375 
C 44.90625 6.265625 40.90625 5.46875 36.90625 5.46875 
C 22.90625 5.46875 14.59375 20.328125 14.59375 34.375 
C 14.59375 48.359375 23.296875 63 36.90625 63 
C 44.59375 63 48.90625 60.640625 54.203125 56.671875 
L 55.5 64.59375 
C 48.90625 67.984375 44.796875 69.375 37.296875 69.375 
C 17.90625 69.375 6.203125 51.9375 6.203125 34.09375 
C 6.203125 17.03125 18 -1 36.703125 -1 
C 43.703125 -1 50.203125 0.796875 56.40625 3.875 
z
" id="CMSS17-71"/>
      <path d="M 40.90625 29.328125 
C 40.90625 35.671875 39.40625 44 28.09375 44 
C 21.703125 44 17.5 40.71875 14.703125 37.328125 
L 14.703125 43.09375 
L 7.40625 43.09375 
L 7.40625 0 
L 15 0 
L 15 24.359375 
C 15 30.6875 17.40625 37.9375 24.203125 37.9375 
C 33 37.9375 33.296875 32 33.296875 28.578125 
L 33.296875 0 
L 40.90625 0 
z
" id="CMSS17-110"/>
      <path d="M 37.59375 27.984375 
C 37.59375 37.375 30.90625 43.875 21.90625 43.875 
C 17.5 43.875 12.703125 43.078125 7.203125 39.890625 
L 7.796875 33.359375 
C 10.296875 35.125 14.59375 38 21.796875 38 
C 26.90625 38 30 34.0625 30 27.84375 
L 30 24 
C 14 24 4 19.34375 4 11.34375 
C 4 7.203125 6.5 -1 14.796875 -1 
C 16.296875 -1 24.40625 -1 30.203125 3.390625 
L 30.203125 -0.296875 
L 37.59375 -0.296875 
z
M 30 12.75 
C 30 10.953125 30 8.5625 27 6.78125 
C 24.40625 5.078125 21.09375 5.078125 19.703125 5.078125 
C 14.703125 5.078125 11.296875 7.984375 11.296875 11.625 
C 11.296875 18.921875 26.90625 18.921875 30 18.921875 
z
" id="CMSS17-97"/>
      <path d="M 16.703125 37 
L 29.703125 37 
L 29.703125 42.765625 
L 16.703125 42.765625 
L 16.703125 55 
L 9.59375 55 
L 9.59375 42.765625 
L 1.703125 42.765625 
L 1.703125 37 
L 9.40625 37 
L 9.40625 11.703125 
C 9.40625 6 10.703125 -1 17.296875 -1 
C 22.296875 -1 26.90625 0.390625 31.296875 2.6875 
L 29.703125 8.5625 
C 27.296875 6.46875 24.40625 5.265625 21.296875 5.265625 
C 16.90625 5.265625 16.703125 10.875 16.703125 13.375 
z
" id="CMSS17-116"/>
      <path d="M 15.296875 65.359375 
L 6.90625 65.359375 
L 6.90625 57 
L 15.296875 57 
z
M 14.796875 42.796875 
L 7.40625 42.796875 
L 7.40625 0 
L 14.796875 0 
z
" id="CMSS17-105"/>
      <path d="M 32.203125 41.046875 
C 26.296875 43.859375 21.703125 43.859375 18.703125 43.859375 
C 11.59375 43.859375 3.09375 41.375 3.09375 31.296875 
C 3.09375 21.234375 14.09375 19.03125 17.09375 18.421875 
C 21.703125 17.53125 26.796875 16.53125 26.796875 11.5625 
C 26.796875 5.265625 19.59375 5.265625 18.296875 5.265625 
C 14.296875 5.265625 8.796875 6.359375 3.796875 9.96875 
L 2.59375 3.28125 
C 8.296875 0 13.796875 -1 18.40625 -1 
C 30.703125 -1 33.796875 6.5 33.796875 12.203125 
C 33.796875 17.09375 31 20.390625 29.09375 21.890625 
C 25.796875 24.5 24.59375 24.796875 16.40625 26.5 
C 15 26.703125 10.09375 27.796875 10.09375 32.28125 
C 10.09375 38 16.40625 38 17.796875 38 
C 24.296875 38 28.296875 35.984375 31 34.5 
z
" id="CMSS17-115"/>
     </defs>
     <g style="fill:#262626;" transform="translate(84.099373 218.343198)scale(0.09 -0.09)">
      <use transform="scale(0.996264)" xlink:href="#CMSS17-78"/>
      <use transform="translate(66.061519 0)scale(0.996264)" xlink:href="#CMSS17-117"/>
      <use transform="translate(114.266462 0)scale(0.996264)" xlink:href="#CMSS17-109"/>
      <use transform="translate(188.495717 0)scale(0.996264)" xlink:href="#CMSS17-98"/>
      <use transform="translate(239.303099 0)scale(0.996264)" xlink:href="#CMSS17-101"/>
      <use transform="translate(280.941921 0)scale(0.996264)" xlink:href="#CMSS17-114"/>
      <use transform="translate(344.080806 0)scale(0.996264)" xlink:href="#CMSS17-111"/>
      <use transform="translate(390.92443 0)scale(0.996264)" xlink:href="#CMSS17-102"/>
      <use transform="translate(450.780201 0)scale(0.996264)" xlink:href="#CMSS17-71"/>
      <use transform="translate(513.238427 0)scale(0.996264)" xlink:href="#CMSS17-101"/>
      <use transform="translate(554.877249 0)scale(0.996264)" xlink:href="#CMSS17-110"/>
      <use transform="translate(603.082192 0)scale(0.996264)" xlink:href="#CMSS17-101"/>
      <use transform="translate(644.721014 0)scale(0.996264)" xlink:href="#CMSS17-114"/>
      <use transform="translate(676.630786 0)scale(0.996264)" xlink:href="#CMSS17-97"/>
      <use transform="translate(721.552707 0)scale(0.996264)" xlink:href="#CMSS17-116"/>
      <use transform="translate(755.384274 0)scale(0.996264)" xlink:href="#CMSS17-105"/>
      <use transform="translate(777.564997 0)scale(0.996264)" xlink:href="#CMSS17-111"/>
      <use transform="translate(824.40862 0)scale(0.996264)" xlink:href="#CMSS17-110"/>
      <use transform="translate(872.613563 0)scale(0.996264)" xlink:href="#CMSS17-115"/>
     </g>
    </g>
   </g>
   <g id="matplotlib.axis_2">
    <g id="ytick_1">
     <g id="text_6">
      <!-- 0.2 -->
      <defs>
       <path d="M 17 7.96875 
L 9 7.96875 
L 9 0 
L 17 0 
z
" id="CMSS17-46"/>
       <path d="M 25.796875 21.203125 
C 28.59375 24.078125 32.796875 27.5625 35.703125 31.046875 
C 38.5 34.4375 42.203125 39.234375 42.203125 46.203125 
C 42.203125 57.140625 34.796875 67 22.203125 67 
C 12.296875 67 6.59375 60.828125 3.90625 51.15625 
L 7.796875 45.765625 
C 10 54.84375 13.09375 60.625 20.90625 60.625 
C 29.5 60.625 34.296875 53.640625 34.296875 45.96875 
C 34.296875 36.796875 27.296875 29.703125 22 24.421875 
C 16.09375 18.546875 10.296875 12.5625 4.703125 6.375 
L 4.703125 0 
L 42.203125 0 
L 42.203125 6.765625 
L 25.203125 6.765625 
C 24 6.765625 22.796875 6.765625 21.59375 6.765625 
L 11.59375 6.765625 
L 11.59375 6.859375 
z
" id="CMSS17-50"/>
      </defs>
      <g style="fill:#262626;" transform="translate(23.368 195.499401)scale(0.08 -0.08)">
       <use transform="scale(0.996264)" xlink:href="#CMSS17-48"/>
       <use transform="translate(46.843624 0)scale(0.996264)" xlink:href="#CMSS17-46"/>
       <use transform="translate(72.867828 0)scale(0.996264)" xlink:href="#CMSS17-50"/>
      </g>
     </g>
    </g>
    <g id="ytick_2">
     <g id="text_7">
      <!-- 0.3 -->
      <defs>
       <path d="M 15.703125 31.640625 
L 22.5 31.640625 
C 31.90625 31.640625 34.59375 23.546875 34.59375 17.90625 
C 34.59375 10.203125 30.203125 4.171875 23 4.171875 
C 17.40625 4.171875 9.5 6.9375 5 14.25 
C 4.296875 10.796875 4.296875 10.59375 3.90625 8.21875 
C 8.59375 1.375 16.203125 -2 23.203125 -2 
C 34.59375 -2 43 7.390625 43 17.78125 
C 43 25.59375 37.5 32.140625 30 34.609375 
C 36 37.875 40.40625 44 40.40625 51.140625 
C 40.40625 59.453125 32.703125 66.078125 23.296875 66.078125 
C 14.703125 66.078125 8 60.8125 5.203125 55.15625 
C 5.90625 54.1875 7.703125 51.3125 8.59375 49.828125 
C 10.796875 55.65625 16.5 60 23.203125 60 
C 28.796875 60 32.5 56.359375 32.5 51.109375 
C 32.5 45.671875 29 39.734375 23.09375 38.359375 
C 22.703125 38.359375 16.5 37.765625 15.703125 37.671875 
z
" id="CMSS17-51"/>
      </defs>
      <g style="fill:#262626;" transform="translate(23.368 173.303901)scale(0.08 -0.08)">
       <use transform="scale(0.996264)" xlink:href="#CMSS17-48"/>
       <use transform="translate(46.843624 0)scale(0.996264)" xlink:href="#CMSS17-46"/>
       <use transform="translate(72.867828 0)scale(0.996264)" xlink:href="#CMSS17-51"/>
      </g>
     </g>
    </g>
    <g id="ytick_3">
     <g id="text_8">
      <!-- 0.4 -->
      <defs>
       <path d="M 35.203125 17 
L 44.296875 17 
L 44.296875 23.078125 
L 35.203125 23.078125 
L 35.203125 65.5 
L 26.40625 65.5 
L 2.59375 23.078125 
L 2.59375 17 
L 27.296875 17 
L 27.296875 0 
L 35.203125 0 
z
M 10.296875 23.078125 
C 16.09375 33.234375 27.59375 53.734375 27.59375 60.703125 
L 27.59375 23.078125 
z
" id="CMSS17-52"/>
      </defs>
      <g style="fill:#262626;" transform="translate(23.368 151.108401)scale(0.08 -0.08)">
       <use transform="scale(0.996264)" xlink:href="#CMSS17-48"/>
       <use transform="translate(46.843624 0)scale(0.996264)" xlink:href="#CMSS17-46"/>
       <use transform="translate(72.867828 0)scale(0.996264)" xlink:href="#CMSS17-52"/>
      </g>
     </g>
    </g>
    <g id="ytick_4">
     <g id="text_9">
      <!-- 0.5 -->
      <defs>
       <path d="M 14.59375 58.625 
L 39.09375 58.625 
L 39.09375 65 
L 7.296875 65 
L 7.296875 27.828125 
L 14 27.828125 
C 15.796875 31.96875 19.5 35 24.296875 35 
C 28.796875 35 33.796875 31.078125 33.796875 19.78125 
C 33.796875 7.703125 26.703125 4.171875 21.5 4.171875 
C 15.09375 4.171875 9.203125 8 6.59375 13.296875 
L 3.40625 7.796875 
C 8 0.765625 15.5 -2 21.5 -2 
C 33.09375 -2 42.203125 7.765625 42.203125 19.578125 
C 42.203125 31.71875 34.09375 41.078125 24.40625 41.078125 
C 20.90625 41.078125 17.5 39.890625 14.59375 37.484375 
z
" id="CMSS17-53"/>
      </defs>
      <g style="fill:#262626;" transform="translate(23.368 128.912901)scale(0.08 -0.08)">
       <use transform="scale(0.996264)" xlink:href="#CMSS17-48"/>
       <use transform="translate(46.843624 0)scale(0.996264)" xlink:href="#CMSS17-46"/>
       <use transform="translate(72.867828 0)scale(0.996264)" xlink:href="#CMSS17-53"/>
      </g>
     </g>
    </g>
    <g id="ytick_5">
     <g id="text_10">
      <!-- 0.6 -->
      <defs>
       <path d="M 39 64.078125 
C 34.796875 65.78125 31.796875 66.078125 29 66.078125 
C 16 66.078125 3.90625 52.625 3.90625 31.34375 
C 3.90625 4.140625 15.40625 -2 23.59375 -2 
C 28.09375 -2 32.59375 -0.609375 36.90625 4.375 
C 41.296875 9.640625 43 14.03125 43 21.703125 
C 43 34.046875 36.90625 45 27.796875 45 
C 21.203125 45 15.5 41.515625 12 37.125 
C 13 50.90625 19.59375 60 29.09375 60 
C 31.703125 60 35.09375 59.625 39 57.96875 
z
M 12.09375 21.390625 
C 12.09375 22.1875 12.09375 22.6875 12.203125 24.1875 
C 12.203125 31.953125 16.703125 38.921875 24 38.921875 
C 28.703125 38.921875 31.09375 36.4375 32.90625 33.359375 
C 35 29.46875 35.09375 25.78125 35.09375 21.6875 
C 35.09375 17.8125 35.09375 13.921875 32.796875 9.953125 
C 30.90625 6.859375 28.40625 4.171875 23.59375 4.171875 
C 14.09375 4.171875 12.5 17.40625 12.09375 21.390625 
z
" id="CMSS17-54"/>
      </defs>
      <g style="fill:#262626;" transform="translate(23.368 106.717401)scale(0.08 -0.08)">
       <use transform="scale(0.996264)" xlink:href="#CMSS17-48"/>
       <use transform="translate(46.843624 0)scale(0.996264)" xlink:href="#CMSS17-46"/>
       <use transform="translate(72.867828 0)scale(0.996264)" xlink:href="#CMSS17-54"/>
      </g>
     </g>
    </g>
    <g id="ytick_6">
     <g id="text_11">
      <!-- 0.7 -->
      <defs>
       <path d="M 21.703125 59 
C 22.90625 59 24.09375 59 25.296875 59 
L 36.796875 59 
C 22.5 42.359375 14.296875 21.328125 14.296875 -0.5 
L 22.296875 -0.5 
C 22.296875 20.671875 29.296875 42.125 43 59.296875 
L 43 65.765625 
L 3.90625 65.765625 
L 3.90625 59 
z
" id="CMSS17-55"/>
      </defs>
      <g style="fill:#262626;" transform="translate(23.368 84.521901)scale(0.08 -0.08)">
       <use transform="scale(0.996264)" xlink:href="#CMSS17-48"/>
       <use transform="translate(46.843624 0)scale(0.996264)" xlink:href="#CMSS17-46"/>
       <use transform="translate(72.867828 0)scale(0.996264)" xlink:href="#CMSS17-55"/>
      </g>
     </g>
    </g>
    <g id="ytick_7">
     <g id="text_12">
      <!-- 0.8 -->
      <defs>
       <path d="M 30.203125 34.71875 
C 37.796875 37.1875 41.703125 43.125 41.703125 48.96875 
C 41.703125 58.15625 33.703125 66.078125 23.5 66.078125 
C 12.90625 66.078125 5.203125 57.9375 5.203125 49.125 
C 5.203125 43.4375 9 37.546875 16.703125 35.015625 
C 6.90625 31.203125 3.90625 23.625 3.90625 17.953125 
C 3.90625 6.96875 12.796875 -2 23.40625 -2 
C 34.40625 -2 43 7.109375 43 17.78125 
C 43 24.328125 39.09375 31.25 30.203125 34.71875 
z
M 23.5 38 
C 16.796875 38 12.296875 42.375 12.296875 49 
C 12.296875 55.71875 16.796875 60 23.5 60 
C 29.703125 60 34.59375 56.109375 34.59375 49 
C 34.59375 41.984375 29.796875 38 23.5 38 
z
M 23.5 4.171875 
C 17.796875 4.171875 11.703125 8.078125 11.703125 18.0625 
C 11.703125 28.328125 18.5 31.921875 23.40625 31.921875 
C 28.796875 31.921875 35.203125 28.125 35.203125 18.0625 
C 35.203125 7.671875 28.59375 4.171875 23.5 4.171875 
z
" id="CMSS17-56"/>
      </defs>
      <g style="fill:#262626;" transform="translate(23.368 62.326401)scale(0.08 -0.08)">
       <use transform="scale(0.996264)" xlink:href="#CMSS17-48"/>
       <use transform="translate(46.843624 0)scale(0.996264)" xlink:href="#CMSS17-46"/>
       <use transform="translate(72.867828 0)scale(0.996264)" xlink:href="#CMSS17-56"/>
      </g>
     </g>
    </g>
    <g id="ytick_8">
     <g id="text_13">
      <!-- 0.9 -->
      <defs>
       <path d="M 6.796875 2.71875 
C 9.59375 0.328125 13.203125 -2 19.296875 -2 
C 31.40625 -2 43 11.265625 43 32.734375 
C 43 61.4375 30.5 66.078125 23.796875 66.078125 
C 17.09375 66.078125 12.796875 63.140625 9.09375 58.453125 
C 4.703125 53.078125 3.90625 48.28125 3.90625 42.703125 
C 3.90625 36.046875 5.09375 31.953125 7.90625 27.265625 
C 11.703125 21.203125 15.203125 19.921875 19.09375 19.921875 
C 25 19.921875 30.90625 22.796875 34.90625 27.75 
C 34.203125 14.09375 28.09375 4.171875 19.296875 4.171875 
C 15.703125 4.171875 12.796875 5.296875 9.90625 8.0625 
z
M 34.59375 42.90625 
C 34.703125 42.234375 34.703125 40.96875 34.703125 40.5625 
C 34.703125 32.40625 29.90625 26 22.90625 26 
C 18.296875 26 15.90625 28.328125 14.09375 31.34375 
C 11.90625 35.140625 11.796875 38.828125 11.796875 42.703125 
C 11.796875 46.5 11.796875 50.6875 14.59375 54.859375 
C 16.703125 57.859375 19.296875 60 23.796875 60 
C 33 60 34.5 46.875 34.59375 42.90625 
z
" id="CMSS17-57"/>
      </defs>
      <g style="fill:#262626;" transform="translate(23.368 40.130901)scale(0.08 -0.08)">
       <use transform="scale(0.996264)" xlink:href="#CMSS17-48"/>
       <use transform="translate(46.843624 0)scale(0.996264)" xlink:href="#CMSS17-46"/>
       <use transform="translate(72.867828 0)scale(0.996264)" xlink:href="#CMSS17-57"/>
      </g>
     </g>
    </g>
    <g id="ytick_9">
     <g id="text_14">
      <!-- 1.0 -->
      <g style="fill:#262626;" transform="translate(23.368 17.935401)scale(0.08 -0.08)">
       <use transform="scale(0.996264)" xlink:href="#CMSS17-49"/>
       <use transform="translate(46.843624 0)scale(0.996264)" xlink:href="#CMSS17-46"/>
       <use transform="translate(72.867828 0)scale(0.996264)" xlink:href="#CMSS17-48"/>
      </g>
     </g>
    </g>
    <g id="text_15">
     <!-- Expected Maximum Toxicity -->
     <defs>
      <path d="M 30.59375 6.765625 
C 22.59375 6.765625 19 6.765625 17.203125 6.765625 
L 17.203125 32.921875 
L 48.203125 32.921875 
L 48.203125 39 
L 17.203125 39 
L 17.203125 62.640625 
L 30.09375 62.640625 
C 31.296875 62.640625 32.5 62.640625 33.703125 62.640625 
L 50.796875 62.640625 
L 50.796875 69 
L 8.796875 69 
L 8.796875 0 
L 52.09375 0 
L 52.09375 6.765625 
z
" id="CMSS17-69"/>
      <path d="M 24.796875 22.09375 
L 41.5 42.796875 
L 32.796875 42.796875 
L 21.296875 27.765625 
L 9.40625 42.796875 
L 0.5 42.796875 
L 17.796875 22.09375 
L 0 0 
L 8.796875 0 
L 21.296875 17.515625 
L 34.296875 0 
L 43.09375 0 
z
" id="CMSS17-120"/>
      <path d="M 15.09375 5.203125 
C 18.40625 2.015625 22.90625 -0.078125 27.703125 -0.078125 
C 37 -0.078125 45 9.421875 45 22.0625 
C 45 33.734375 39 44 30.40625 44 
C 25.40625 44 19.40625 42.21875 14.90625 38.625 
L 14.90625 43.203125 
L 7.5 43.203125 
L 7.5 -19 
L 15.09375 -19 
z
M 15.09375 32.8125 
C 15.90625 34 19.296875 37.734375 24.796875 37.734375 
C 31.796875 37.734375 37.40625 30.625 37.40625 22.0625 
C 37.40625 12.296875 30.59375 6 23.90625 6 
C 21.90625 6 19.796875 6.484375 17.796875 8.171875 
C 15.09375 10.53125 15.09375 12 15.09375 13.390625 
z
" id="CMSS17-112"/>
      <path d="M 38.5 39.703125 
C 38.5 40.390625 33.90625 42.40625 32.703125 42.796875 
C 29.40625 44 25.203125 44 24.09375 44 
C 11.09375 44 3.296875 32.703125 3.296875 21.296875 
C 3.296875 9.296875 12 -1 23.703125 -1 
C 30.40625 -1 35.203125 1.1875 39.09375 3.78125 
L 38.5 10.375 
C 34.203125 7.078125 29.203125 5.265625 23.796875 5.265625 
C 16 5.265625 10.90625 12.09375 10.90625 21.390625 
C 10.90625 28.609375 14.203125 37.71875 24.203125 37.71875 
C 29.703125 37.71875 32.796875 36.609375 37.40625 33.515625 
z
" id="CMSS17-99"/>
      <path d="M 40.796875 69 
L 33.40625 69 
L 33.40625 38.09375 
C 30.296875 40.671875 25.203125 43.0625 19.59375 43.0625 
C 10.5 43.0625 3.296875 33.296875 3.296875 21.046875 
C 3.296875 8.78125 10.40625 -1 19.296875 -1 
C 26.203125 -1 30.796875 2.6875 33.203125 4.78125 
L 33.203125 -0.203125 
L 40.796875 -0.203125 
z
M 33.203125 13.0625 
C 33.203125 11.671875 33.203125 10.203125 30.09375 7.53125 
C 28.09375 5.859375 25.703125 5.078125 23.40625 5.078125 
C 18 5.078125 10.90625 9 10.90625 20.9375 
C 10.90625 33.34375 18.90625 37 24.40625 37 
C 28.09375 37 31.09375 35.21875 33.203125 32.265625 
z
" id="CMSS17-100"/>
      <path d="M 49.90625 37.046875 
L 45.09375 23.015625 
C 44.296875 20.421875 41.59375 12.359375 41 9.171875 
L 40.90625 9.171875 
C 40.59375 11.171875 40 13.265625 38.40625 18.34375 
C 37.5 21.328125 36.5 24.40625 35.5 27.203125 
L 20.703125 69 
L 9 69 
L 9 0 
L 16.796875 0 
L 16.796875 60.9375 
L 16.90625 60.9375 
C 16.90625 60.84375 17.796875 56.453125 23.90625 39.046875 
L 37.09375 1.5 
L 44.5 1.5 
L 56.40625 34.859375 
C 57.203125 37.15625 59.703125 44.421875 60.796875 47.90625 
C 61.796875 50.890625 64.296875 58.25 64.90625 61.140625 
L 65 61.140625 
L 65 0 
L 72.90625 0 
L 72.90625 69 
L 61.296875 69 
z
" id="CMSS17-77"/>
      <path d="M 36.203125 62 
L 44.5 62 
C 45.703125 62 46.90625 62 48.09375 62 
L 60.59375 62 
L 60.59375 68.375 
L 3.40625 68.375 
L 3.40625 62 
L 15.90625 62 
C 17.09375 62 18.296875 62 19.5 62 
L 27.796875 62 
L 27.796875 -0.5 
L 36.203125 -0.5 
z
" id="CMSS17-84"/>
      <path d="M 41.796875 43 
L 34 43 
C 25.5 20.21875 22.59375 10.96875 22.40625 5.984375 
L 22.296875 5.984375 
C 22 10.875 17.59375 22.8125 14.09375 31.359375 
L 9.40625 43 
L 1.296875 43 
L 19 0.203125 
C 17.90625 -2.78125 16.296875 -7.265625 15.796875 -8.265625 
C 13.59375 -13.828125 12.09375 -13.828125 10.5 -13.828125 
C 10.09375 -13.828125 6.90625 -13.828125 3.296875 -12.640625 
L 3.90625 -19.203125 
C 6.40625 -19.703125 8.90625 -20 10.703125 -20 
C 13.203125 -20 18.203125 -20 22.796875 -7.765625 
z
" id="CMSS17-121"/>
     </defs>
     <g style="fill:#262626;" transform="translate(17.624538 158.744034)rotate(-90)scale(0.09 -0.09)">
      <use transform="scale(0.996264)" xlink:href="#CMSS17-69"/>
      <use transform="translate(55.892013 0)scale(0.996264)" xlink:href="#CMSS17-120"/>
      <use transform="translate(98.892155 0)scale(0.996264)" xlink:href="#CMSS17-112"/>
      <use transform="translate(149.699537 0)scale(0.996264)" xlink:href="#CMSS17-101"/>
      <use transform="translate(191.338359 0)scale(0.996264)" xlink:href="#CMSS17-99"/>
      <use transform="translate(232.977181 0)scale(0.996264)" xlink:href="#CMSS17-116"/>
      <use transform="translate(266.808748 0)scale(0.996264)" xlink:href="#CMSS17-101"/>
      <use transform="translate(308.44757 0)scale(0.996264)" xlink:href="#CMSS17-100"/>
      <use transform="translate(387.881626 0)scale(0.996264)" xlink:href="#CMSS17-77"/>
      <use transform="translate(469.557655 0)scale(0.996264)" xlink:href="#CMSS17-97"/>
      <use transform="translate(514.479576 0)scale(0.996264)" xlink:href="#CMSS17-120"/>
      <use transform="translate(557.479718 0)scale(0.996264)" xlink:href="#CMSS17-105"/>
      <use transform="translate(579.660441 0)scale(0.996264)" xlink:href="#CMSS17-109"/>
      <use transform="translate(653.889695 0)scale(0.996264)" xlink:href="#CMSS17-117"/>
      <use transform="translate(702.094638 0)scale(0.996264)" xlink:href="#CMSS17-109"/>
      <use transform="translate(807.553006 0)scale(0.996264)" xlink:href="#CMSS17-84"/>
      <use transform="translate(863.565204 0)scale(0.996264)" xlink:href="#CMSS17-111"/>
      <use transform="translate(907.806374 0)scale(0.996264)" xlink:href="#CMSS17-120"/>
      <use transform="translate(950.806515 0)scale(0.996264)" xlink:href="#CMSS17-105"/>
      <use transform="translate(972.987238 0)scale(0.996264)" xlink:href="#CMSS17-99"/>
      <use transform="translate(1014.62606 0)scale(0.996264)" xlink:href="#CMSS17-105"/>
      <use transform="translate(1036.806784 0)scale(0.996264)" xlink:href="#CMSS17-116"/>
      <use transform="translate(1068.035896 0)scale(0.996264)" xlink:href="#CMSS17-121"/>
     </g>
    </g>
   </g>
   <g id="PolyCollection_1">
    <defs>
     <path d="M 50.340658 -115.654713 
L 50.340658 -72.335487 
L 104.925316 -117.138478 
L 119.644859 -140.304291 
L 128.510467 -155.80199 
L 134.874817 -163.855824 
L 139.843047 -169.687209 
L 143.918824 -176.150555 
L 147.374471 -179.000276 
L 150.37401 -182.182919 
L 153.023926 -185.095183 
L 155.397278 -187.869301 
L 157.54638 -187.795116 
L 159.509973 -190.049351 
L 161.317555 -190.884713 
L 162.992102 -193.088574 
L 164.55186 -193.877246 
L 166.011564 -194.076189 
L 167.383278 -194.705564 
L 168.677011 -196.018721 
L 169.901153 -196.136037 
L 171.062812 -196.440028 
L 172.168057 -196.864399 
L 173.222114 -197.654394 
L 174.229516 -197.985392 
L 175.194219 -198.628111 
L 176.119694 -199.076489 
L 177.00901 -199.188507 
L 177.864884 -200.081707 
L 178.689741 -200.153502 
L 179.485751 -200.156532 
L 180.254864 -200.197262 
L 180.998838 -200.762722 
L 181.719264 -200.888828 
L 182.417588 -201.1328 
L 183.095125 -201.158853 
L 183.753077 -201.261657 
L 184.392545 -201.517981 
L 185.01454 -202.180211 
L 185.619989 -202.104592 
L 186.209752 -202.117599 
L 186.78462 -202.435658 
L 187.345328 -202.58685 
L 187.892555 -202.541104 
L 188.426936 -202.543609 
L 188.949059 -202.954247 
L 189.459474 -202.826423 
L 189.958696 -202.914262 
L 190.447203 -203.247524 
L 190.925447 -203.159974 
L 191.39385 -203.179396 
L 191.852808 -203.438219 
L 192.302696 -203.406995 
L 192.743864 -203.470679 
L 193.176644 -203.551927 
L 193.60135 -203.708134 
L 194.018277 -203.720358 
L 194.427705 -204.027199 
L 194.829899 -203.874747 
L 195.225109 -204.041093 
L 195.613576 -203.967268 
L 195.995524 -204.082873 
L 196.371169 -203.962213 
L 196.740715 -204.258238 
L 197.104358 -204.057472 
L 197.462283 -204.264753 
L 197.814668 -204.339071 
L 198.16168 -204.374274 
L 198.503482 -204.406984 
L 198.840227 -204.510017 
L 199.172064 -204.519237 
L 199.499132 -204.611146 
L 199.821568 -204.539793 
L 200.1395 -204.586099 
L 200.453052 -204.748183 
L 200.762345 -204.684896 
L 201.067491 -204.699951 
L 201.368601 -204.728717 
L 201.66578 -204.852506 
L 201.959129 -204.769304 
L 202.248745 -204.888945 
L 202.534724 -204.942533 
L 202.817154 -204.906738 
L 203.096123 -204.999834 
L 203.371714 -205.022743 
L 203.644009 -204.988801 
L 203.913085 -205.144938 
L 204.179017 -205.090038 
L 204.441879 -205.161522 
L 204.70174 -205.188823 
L 204.958668 -205.206365 
L 205.212728 -205.293885 
L 205.463984 -205.32634 
L 205.712497 -205.385347 
L 205.958327 -205.510275 
L 206.20153 -205.478048 
L 206.442162 -205.649069 
L 206.680276 -205.696311 
L 206.915926 -205.762685 
L 207.149162 -205.820259 
L 207.380031 -205.941423 
L 207.380031 -206.145119 
L 207.380031 -206.145119 
L 207.149162 -206.145119 
L 206.915926 -206.145119 
L 206.680276 -206.145119 
L 206.442162 -206.145119 
L 206.20153 -206.145119 
L 205.958327 -206.145119 
L 205.712497 -206.145119 
L 205.463984 -206.145119 
L 205.212728 -206.145119 
L 204.958668 -206.145119 
L 204.70174 -206.145119 
L 204.441879 -206.145119 
L 204.179017 -206.145119 
L 203.913085 -206.145119 
L 203.644009 -206.145119 
L 203.371714 -206.145119 
L 203.096123 -206.145119 
L 202.817154 -206.145119 
L 202.534724 -206.145119 
L 202.248745 -206.145119 
L 201.959129 -206.145119 
L 201.66578 -206.145119 
L 201.368601 -206.145119 
L 201.067491 -206.145119 
L 200.762345 -206.145119 
L 200.453052 -206.145119 
L 200.1395 -206.145119 
L 199.821568 -206.145119 
L 199.499132 -206.145119 
L 199.172064 -206.145119 
L 198.840227 -206.145119 
L 198.503482 -206.145119 
L 198.16168 -206.145119 
L 197.814668 -206.145119 
L 197.462283 -206.145119 
L 197.104358 -206.145119 
L 196.740715 -206.145119 
L 196.371169 -206.145119 
L 195.995524 -206.145119 
L 195.613576 -206.145119 
L 195.225109 -206.145119 
L 194.829899 -206.145119 
L 194.427705 -206.145119 
L 194.018277 -206.145119 
L 193.60135 -206.145119 
L 193.176644 -206.145119 
L 192.743864 -206.145119 
L 192.302696 -206.145119 
L 191.852808 -206.145119 
L 191.39385 -206.145119 
L 190.925447 -206.145119 
L 190.447203 -206.145119 
L 189.958696 -206.145119 
L 189.459474 -206.145119 
L 188.949059 -206.145119 
L 188.426936 -206.145119 
L 187.892555 -206.145119 
L 187.345328 -206.145119 
L 186.78462 -206.145119 
L 186.209752 -206.145119 
L 185.619989 -206.145119 
L 185.01454 -206.145119 
L 184.392545 -206.145119 
L 183.753077 -206.145119 
L 183.095125 -206.145119 
L 182.417588 -206.145119 
L 181.719264 -206.145119 
L 180.998838 -206.145119 
L 180.254864 -206.145119 
L 179.485751 -206.145119 
L 178.689741 -206.145119 
L 177.864884 -206.145119 
L 177.00901 -206.145119 
L 176.119694 -206.145119 
L 175.194219 -206.145119 
L 174.229516 -206.145119 
L 173.222114 -206.145119 
L 172.168057 -206.145119 
L 171.062812 -206.145119 
L 169.901153 -206.145119 
L 168.677011 -206.145119 
L 167.383278 -206.145119 
L 166.011564 -206.145119 
L 164.55186 -206.145119 
L 162.992102 -206.145119 
L 161.317555 -206.145119 
L 159.509973 -206.145119 
L 157.54638 -206.145119 
L 155.397278 -206.145119 
L 153.023926 -206.023253 
L 150.37401 -205.257711 
L 147.374471 -205.022624 
L 143.918824 -204.956765 
L 139.843047 -203.882675 
L 134.874817 -202.106443 
L 128.510467 -200.108532 
L 119.644859 -194.829106 
L 104.925316 -184.668453 
L 50.340658 -115.654713 
z
" id="mbe826f380d" style="stroke:#66c2a5;stroke-opacity:0.2;stroke-width:0.8;"/>
    </defs>
    <g clip-path="url(#pe089203dc2)">
     <use style="fill:#66c2a5;fill-opacity:0.2;stroke:#66c2a5;stroke-opacity:0.2;stroke-width:0.8;" x="0" xlink:href="#mbe826f380d" y="230.4"/>
    </g>
   </g>
   <g id="PolyCollection_2">
    <defs>
     <path d="M 50.340658 -89.809093 
L 50.340658 -52.782454 
L 104.925316 -85.488896 
L 119.644859 -109.69999 
L 128.510467 -127.400553 
L 134.874817 -136.401042 
L 139.843047 -147.0796 
L 143.918824 -153.650823 
L 147.374471 -159.598783 
L 150.37401 -163.422267 
L 153.023926 -168.270266 
L 155.397278 -171.508809 
L 157.54638 -174.310661 
L 159.509973 -177.392289 
L 161.317555 -180.062619 
L 162.992102 -182.241333 
L 164.55186 -186.009029 
L 166.011564 -185.635584 
L 167.383278 -187.045506 
L 168.677011 -187.431466 
L 169.901153 -188.991992 
L 171.062812 -191.568259 
L 172.168057 -192.260308 
L 173.222114 -192.664658 
L 174.229516 -194.317734 
L 175.194219 -194.697382 
L 176.119694 -194.49124 
L 177.00901 -194.715805 
L 177.864884 -195.684781 
L 178.689741 -196.555196 
L 179.485751 -196.488738 
L 180.254864 -197.077712 
L 180.998838 -197.770917 
L 181.719264 -198.063885 
L 182.417588 -198.279711 
L 183.095125 -198.567395 
L 183.753077 -198.99958 
L 184.392545 -199.008786 
L 185.01454 -199.769445 
L 185.619989 -199.66887 
L 186.209752 -199.874475 
L 186.78462 -199.729719 
L 187.345328 -200.286633 
L 187.892555 -200.508875 
L 188.426936 -200.692786 
L 188.949059 -200.501382 
L 189.459474 -200.959257 
L 189.958696 -200.608517 
L 190.447203 -201.241905 
L 190.925447 -201.280647 
L 191.39385 -201.2533 
L 191.852808 -201.8104 
L 192.302696 -201.83965 
L 192.743864 -201.718132 
L 193.176644 -201.945911 
L 193.60135 -202.160783 
L 194.018277 -202.097763 
L 194.427705 -202.114755 
L 194.829899 -202.144213 
L 195.225109 -202.353432 
L 195.613576 -202.474403 
L 195.995524 -202.596136 
L 196.371169 -202.641134 
L 196.740715 -202.796824 
L 197.104358 -202.724438 
L 197.462283 -202.760353 
L 197.814668 -202.992692 
L 198.16168 -202.983225 
L 198.503482 -202.888791 
L 198.840227 -203.132638 
L 199.172064 -203.013701 
L 199.499132 -203.185349 
L 199.821568 -203.187382 
L 200.1395 -203.243891 
L 200.453052 -203.536557 
L 200.762345 -203.404628 
L 201.067491 -203.581871 
L 201.368601 -203.554257 
L 201.66578 -203.521884 
L 201.959129 -203.518285 
L 202.248745 -203.671694 
L 202.534724 -203.736044 
L 202.817154 -203.780239 
L 203.096123 -203.644021 
L 203.371714 -203.876124 
L 203.644009 -203.754118 
L 203.913085 -203.810363 
L 204.179017 -204.100089 
L 204.441879 -204.101818 
L 204.70174 -203.988829 
L 204.958668 -203.891831 
L 205.212728 -203.877603 
L 205.463984 -203.84253 
L 205.712497 -204.108012 
L 205.958327 -203.990454 
L 206.20153 -204.110176 
L 206.442162 -204.112187 
L 206.680276 -204.112159 
L 206.915926 -204.113389 
L 207.149162 -204.117576 
L 207.380031 -204.118014 
L 207.380031 -204.118346 
L 207.380031 -204.118346 
L 207.149162 -204.118346 
L 206.915926 -204.118346 
L 206.680276 -204.118346 
L 206.442162 -204.118346 
L 206.20153 -204.118346 
L 205.958327 -204.118346 
L 205.712497 -204.118346 
L 205.463984 -204.118346 
L 205.212728 -204.118346 
L 204.958668 -204.118346 
L 204.70174 -204.118346 
L 204.441879 -204.118346 
L 204.179017 -204.118346 
L 203.913085 -204.118346 
L 203.644009 -204.118346 
L 203.371714 -204.118346 
L 203.096123 -204.118346 
L 202.817154 -204.118346 
L 202.534724 -204.118346 
L 202.248745 -204.118346 
L 201.959129 -204.118346 
L 201.66578 -204.118346 
L 201.368601 -204.118346 
L 201.067491 -204.118346 
L 200.762345 -204.118346 
L 200.453052 -204.118346 
L 200.1395 -204.118346 
L 199.821568 -204.118346 
L 199.499132 -204.118346 
L 199.172064 -204.118346 
L 198.840227 -204.118346 
L 198.503482 -204.118346 
L 198.16168 -204.118346 
L 197.814668 -204.118346 
L 197.462283 -204.118346 
L 197.104358 -204.118346 
L 196.740715 -204.118346 
L 196.371169 -204.118346 
L 195.995524 -204.118346 
L 195.613576 -204.118346 
L 195.225109 -204.118346 
L 194.829899 -204.118346 
L 194.427705 -204.118346 
L 194.018277 -204.118346 
L 193.60135 -204.118346 
L 193.176644 -204.118346 
L 192.743864 -204.118346 
L 192.302696 -204.118346 
L 191.852808 -204.118346 
L 191.39385 -204.118346 
L 190.925447 -204.118346 
L 190.447203 -204.118346 
L 189.958696 -204.118346 
L 189.459474 -204.118346 
L 188.949059 -204.118346 
L 188.426936 -204.118346 
L 187.892555 -204.118346 
L 187.345328 -204.118346 
L 186.78462 -204.118346 
L 186.209752 -204.118346 
L 185.619989 -204.118346 
L 185.01454 -204.118346 
L 184.392545 -204.118346 
L 183.753077 -204.118346 
L 183.095125 -204.118346 
L 182.417588 -204.118346 
L 181.719264 -204.118346 
L 180.998838 -204.118346 
L 180.254864 -204.118346 
L 179.485751 -204.118346 
L 178.689741 -204.118346 
L 177.864884 -204.118346 
L 177.00901 -204.118346 
L 176.119694 -204.118346 
L 175.194219 -204.118346 
L 174.229516 -204.118346 
L 173.222114 -204.118346 
L 172.168057 -204.118346 
L 171.062812 -204.118346 
L 169.901153 -204.118346 
L 168.677011 -204.118346 
L 167.383278 -204.118346 
L 166.011564 -204.118346 
L 164.55186 -204.118346 
L 162.992102 -204.118346 
L 161.317555 -204.118346 
L 159.509973 -204.118346 
L 157.54638 -204.118346 
L 155.397278 -204.118346 
L 153.023926 -204.118346 
L 150.37401 -204.118346 
L 147.374471 -204.118346 
L 143.918824 -203.920352 
L 139.843047 -200.935593 
L 134.874817 -196.850701 
L 128.510467 -193.422058 
L 119.644859 -183.728529 
L 104.925316 -167.724207 
L 50.340658 -89.809093 
z
" id="m89288317b0" style="stroke:#fc8d62;stroke-opacity:0.2;stroke-width:0.8;"/>
    </defs>
    <g clip-path="url(#pe089203dc2)">
     <use style="fill:#fc8d62;fill-opacity:0.2;stroke:#fc8d62;stroke-opacity:0.2;stroke-width:0.8;" x="0" xlink:href="#m89288317b0" y="230.4"/>
    </g>
   </g>
   <g id="PolyCollection_3">
    <defs>
     <path d="M 50.340658 -59.467884 
L 50.340658 -36.307875 
L 104.925316 -56.096725 
L 119.644859 -74.48579 
L 128.510467 -86.142841 
L 134.874817 -93.450428 
L 139.843047 -97.680501 
L 143.918824 -100.605992 
L 147.374471 -104.132019 
L 150.37401 -106.554859 
L 153.023926 -110.074861 
L 155.397278 -111.503889 
L 157.54638 -112.769386 
L 159.509973 -114.317261 
L 161.317555 -115.608492 
L 162.992102 -116.754764 
L 164.55186 -117.714036 
L 166.011564 -118.832665 
L 167.383278 -119.959596 
L 168.677011 -121.373259 
L 169.901153 -120.904473 
L 171.062812 -122.114328 
L 172.168057 -123.207708 
L 173.222114 -123.147031 
L 174.229516 -124.861359 
L 175.194219 -125.713569 
L 176.119694 -125.635206 
L 177.00901 -125.986572 
L 177.864884 -127.076387 
L 178.689741 -127.401406 
L 179.485751 -128.455761 
L 180.254864 -128.487305 
L 180.998838 -129.417886 
L 181.719264 -129.44983 
L 182.417588 -130.265288 
L 183.095125 -130.854154 
L 183.753077 -130.826233 
L 184.392545 -131.483277 
L 185.01454 -132.365618 
L 185.619989 -132.410488 
L 186.209752 -132.265348 
L 186.78462 -132.551663 
L 187.345328 -132.994247 
L 187.892555 -133.968938 
L 188.426936 -135.138829 
L 188.949059 -134.856928 
L 189.459474 -135.372166 
L 189.958696 -135.4308 
L 190.447203 -135.88165 
L 190.925447 -136.809978 
L 191.39385 -136.151541 
L 191.852808 -136.895679 
L 192.302696 -137.026572 
L 192.743864 -136.855774 
L 193.176644 -137.372875 
L 193.60135 -137.789968 
L 194.018277 -137.519452 
L 194.427705 -138.673575 
L 194.829899 -138.552816 
L 195.225109 -138.000372 
L 195.613576 -138.88926 
L 195.995524 -139.122041 
L 196.371169 -139.240288 
L 196.740715 -138.993518 
L 197.104358 -138.816655 
L 197.462283 -139.8245 
L 197.814668 -139.626179 
L 198.16168 -139.888719 
L 198.503482 -140.224643 
L 198.840227 -141.029502 
L 199.172064 -140.39628 
L 199.499132 -140.90638 
L 199.821568 -140.44341 
L 200.1395 -140.672317 
L 200.453052 -140.841258 
L 200.762345 -141.318946 
L 201.067491 -141.014385 
L 201.368601 -141.559967 
L 201.66578 -141.287505 
L 201.959129 -141.78552 
L 202.248745 -141.765617 
L 202.534724 -141.83645 
L 202.817154 -141.926928 
L 203.096123 -142.18702 
L 203.371714 -142.081705 
L 203.644009 -142.107518 
L 203.913085 -142.470663 
L 204.179017 -142.304076 
L 204.441879 -142.619172 
L 204.70174 -142.726846 
L 204.958668 -142.660522 
L 205.212728 -142.945031 
L 205.463984 -142.972132 
L 205.712497 -143.038376 
L 205.958327 -143.041244 
L 206.20153 -143.071931 
L 206.442162 -143.143076 
L 206.680276 -143.089495 
L 206.915926 -143.331421 
L 207.149162 -143.365373 
L 207.380031 -143.471758 
L 207.380031 -143.626511 
L 207.380031 -143.626511 
L 207.149162 -143.626511 
L 206.915926 -143.626511 
L 206.680276 -143.626511 
L 206.442162 -143.626511 
L 206.20153 -143.626511 
L 205.958327 -143.626511 
L 205.712497 -143.626511 
L 205.463984 -143.626511 
L 205.212728 -143.626511 
L 204.958668 -143.626511 
L 204.70174 -143.626511 
L 204.441879 -143.626511 
L 204.179017 -143.626511 
L 203.913085 -143.626511 
L 203.644009 -143.626511 
L 203.371714 -143.626511 
L 203.096123 -143.626511 
L 202.817154 -143.626511 
L 202.534724 -143.626511 
L 202.248745 -143.626511 
L 201.959129 -143.626511 
L 201.66578 -143.626511 
L 201.368601 -143.626511 
L 201.067491 -143.626511 
L 200.762345 -143.626511 
L 200.453052 -143.626511 
L 200.1395 -143.626511 
L 199.821568 -143.626511 
L 199.499132 -143.626511 
L 199.172064 -143.626511 
L 198.840227 -143.626511 
L 198.503482 -143.626511 
L 198.16168 -143.626511 
L 197.814668 -143.626511 
L 197.462283 -143.626511 
L 197.104358 -143.626511 
L 196.740715 -143.626511 
L 196.371169 -143.626511 
L 195.995524 -143.626511 
L 195.613576 -143.626511 
L 195.225109 -143.626511 
L 194.829899 -143.626511 
L 194.427705 -143.626511 
L 194.018277 -143.626511 
L 193.60135 -143.626511 
L 193.176644 -143.626511 
L 192.743864 -143.626511 
L 192.302696 -143.626511 
L 191.852808 -143.626511 
L 191.39385 -143.626511 
L 190.925447 -143.626511 
L 190.447203 -143.626511 
L 189.958696 -143.626511 
L 189.459474 -143.626511 
L 188.949059 -143.626511 
L 188.426936 -143.626511 
L 187.892555 -143.626511 
L 187.345328 -143.626511 
L 186.78462 -143.626511 
L 186.209752 -143.626511 
L 185.619989 -143.626511 
L 185.01454 -143.626511 
L 184.392545 -143.626511 
L 183.753077 -143.626511 
L 183.095125 -143.626511 
L 182.417588 -143.626511 
L 181.719264 -143.626511 
L 180.998838 -143.626511 
L 180.254864 -143.626511 
L 179.485751 -143.626511 
L 178.689741 -143.626511 
L 177.864884 -143.626511 
L 177.00901 -143.626511 
L 176.119694 -143.626511 
L 175.194219 -143.626511 
L 174.229516 -143.626511 
L 173.222114 -143.606023 
L 172.168057 -143.626511 
L 171.062812 -143.37582 
L 169.901153 -143.199174 
L 168.677011 -143.08464 
L 167.383278 -142.599402 
L 166.011564 -141.937495 
L 164.55186 -141.733572 
L 162.992102 -141.038695 
L 161.317555 -140.494527 
L 159.509973 -139.834694 
L 157.54638 -139.273354 
L 155.397278 -138.349223 
L 153.023926 -137.370054 
L 150.37401 -135.869511 
L 147.374471 -135.237057 
L 143.918824 -133.044305 
L 139.843047 -131.902997 
L 134.874817 -128.914268 
L 128.510467 -126.939222 
L 119.644859 -120.558957 
L 104.925316 -108.284861 
L 50.340658 -59.467884 
z
" id="mb45e5644d7" style="stroke:#8da0cb;stroke-opacity:0.2;stroke-width:0.8;"/>
    </defs>
    <g clip-path="url(#pe089203dc2)">
     <use style="fill:#8da0cb;fill-opacity:0.2;stroke:#8da0cb;stroke-opacity:0.2;stroke-width:0.8;" x="0" xlink:href="#mb45e5644d7" y="230.4"/>
    </g>
   </g>
   <g id="PolyCollection_4">
    <defs>
     <path d="M 50.340658 -40.431136 
L 50.340658 -25.381275 
L 104.925316 -35.411419 
L 119.644859 -46.82308 
L 128.510467 -54.61024 
L 134.874817 -59.9823 
L 139.843047 -63.850524 
L 143.918824 -65.94074 
L 147.374471 -69.905636 
L 150.37401 -71.873856 
L 153.023926 -73.442308 
L 155.397278 -75.932496 
L 157.54638 -77.577218 
L 159.509973 -78.970378 
L 161.317555 -79.513383 
L 162.992102 -81.04102 
L 164.55186 -82.144118 
L 166.011564 -82.381212 
L 167.383278 -84.888347 
L 168.677011 -85.76668 
L 169.901153 -86.76496 
L 171.062812 -88.016835 
L 172.168057 -87.401689 
L 173.222114 -88.304746 
L 174.229516 -89.571786 
L 175.194219 -89.678626 
L 176.119694 -90.404422 
L 177.00901 -92.010031 
L 177.864884 -91.500918 
L 178.689741 -92.053339 
L 179.485751 -92.294972 
L 180.254864 -92.495739 
L 180.998838 -94.111996 
L 181.719264 -94.180582 
L 182.417588 -94.635911 
L 183.095125 -94.945078 
L 183.753077 -94.954793 
L 184.392545 -95.129887 
L 185.01454 -96.469706 
L 185.619989 -96.48155 
L 186.209752 -96.289556 
L 186.78462 -96.664972 
L 187.345328 -97.303948 
L 187.892555 -97.58585 
L 188.426936 -97.734928 
L 188.949059 -98.691998 
L 189.459474 -98.689848 
L 189.958696 -98.933753 
L 190.447203 -99.565991 
L 190.925447 -99.594926 
L 191.39385 -99.669369 
L 191.852808 -99.827952 
L 192.302696 -100.437442 
L 192.743864 -100.778084 
L 193.176644 -101.651416 
L 193.60135 -101.078571 
L 194.018277 -101.13932 
L 194.427705 -101.478101 
L 194.829899 -101.839065 
L 195.225109 -102.257977 
L 195.613576 -102.035343 
L 195.995524 -102.2845 
L 196.371169 -102.978595 
L 196.740715 -102.624938 
L 197.104358 -102.769383 
L 197.462283 -103.33608 
L 197.814668 -103.757732 
L 198.16168 -103.55548 
L 198.503482 -104.045368 
L 198.840227 -104.089987 
L 199.172064 -104.704152 
L 199.499132 -104.528842 
L 199.821568 -104.577001 
L 200.1395 -104.818906 
L 200.453052 -105.330817 
L 200.762345 -105.795923 
L 201.067491 -105.654417 
L 201.368601 -105.761193 
L 201.66578 -106.078187 
L 201.959129 -105.848261 
L 202.248745 -106.204483 
L 202.534724 -106.396129 
L 202.817154 -107.01155 
L 203.096123 -106.952337 
L 203.371714 -106.909498 
L 203.644009 -107.119752 
L 203.913085 -107.119509 
L 204.179017 -107.168438 
L 204.441879 -107.267839 
L 204.70174 -107.828529 
L 204.958668 -107.573319 
L 205.212728 -107.638205 
L 205.463984 -108.351186 
L 205.712497 -108.162008 
L 205.958327 -108.066505 
L 206.20153 -108.70151 
L 206.442162 -108.487193 
L 206.680276 -108.844337 
L 206.915926 -108.792971 
L 207.149162 -108.905739 
L 207.380031 -108.823296 
L 207.380031 -109.321779 
L 207.380031 -109.321779 
L 207.149162 -109.321779 
L 206.915926 -109.321779 
L 206.680276 -109.321779 
L 206.442162 -109.321779 
L 206.20153 -109.321779 
L 205.958327 -109.321779 
L 205.712497 -109.321779 
L 205.463984 -109.321779 
L 205.212728 -109.321779 
L 204.958668 -109.321779 
L 204.70174 -109.321779 
L 204.441879 -109.321779 
L 204.179017 -109.321779 
L 203.913085 -109.321779 
L 203.644009 -109.321779 
L 203.371714 -109.321779 
L 203.096123 -109.321779 
L 202.817154 -109.321779 
L 202.534724 -109.321779 
L 202.248745 -109.321779 
L 201.959129 -109.321779 
L 201.66578 -109.321779 
L 201.368601 -109.321779 
L 201.067491 -109.321779 
L 200.762345 -109.321779 
L 200.453052 -109.321779 
L 200.1395 -109.321779 
L 199.821568 -109.321779 
L 199.499132 -109.321779 
L 199.172064 -109.321779 
L 198.840227 -109.321779 
L 198.503482 -109.321779 
L 198.16168 -109.321779 
L 197.814668 -109.321779 
L 197.462283 -109.321779 
L 197.104358 -109.321779 
L 196.740715 -109.321779 
L 196.371169 -109.321779 
L 195.995524 -109.321779 
L 195.613576 -109.321779 
L 195.225109 -109.321779 
L 194.829899 -109.321779 
L 194.427705 -109.321779 
L 194.018277 -109.321779 
L 193.60135 -109.321779 
L 193.176644 -109.321779 
L 192.743864 -109.321779 
L 192.302696 -109.321779 
L 191.852808 -109.321779 
L 191.39385 -109.321779 
L 190.925447 -109.321779 
L 190.447203 -109.321779 
L 189.958696 -109.321779 
L 189.459474 -109.321779 
L 188.949059 -109.321779 
L 188.426936 -109.321779 
L 187.892555 -109.321779 
L 187.345328 -109.321779 
L 186.78462 -109.321779 
L 186.209752 -109.321779 
L 185.619989 -109.321779 
L 185.01454 -109.321779 
L 184.392545 -109.321779 
L 183.753077 -109.321779 
L 183.095125 -109.321779 
L 182.417588 -109.321779 
L 181.719264 -109.321779 
L 180.998838 -109.321779 
L 180.254864 -109.321779 
L 179.485751 -109.321779 
L 178.689741 -109.321779 
L 177.864884 -109.228333 
L 177.00901 -109.321779 
L 176.119694 -108.64797 
L 175.194219 -108.268496 
L 174.229516 -108.402577 
L 173.222114 -107.921443 
L 172.168057 -107.86133 
L 171.062812 -108.078877 
L 169.901153 -107.484496 
L 168.677011 -106.824355 
L 167.383278 -106.859023 
L 166.011564 -105.982581 
L 164.55186 -105.591201 
L 162.992102 -104.853094 
L 161.317555 -104.081005 
L 159.509973 -104.044914 
L 157.54638 -103.743554 
L 155.397278 -102.889504 
L 153.023926 -101.471856 
L 150.37401 -100.91269 
L 147.374471 -99.960966 
L 143.918824 -96.516053 
L 139.843047 -96.71999 
L 134.874817 -93.153554 
L 128.510467 -89.584396 
L 119.644859 -82.667345 
L 104.925316 -75.188476 
L 50.340658 -40.431136 
z
" id="mbda52d4289" style="stroke:#e78ac3;stroke-opacity:0.2;stroke-width:0.8;"/>
    </defs>
    <g clip-path="url(#pe089203dc2)">
     <use style="fill:#e78ac3;fill-opacity:0.2;stroke:#e78ac3;stroke-opacity:0.2;stroke-width:0.8;" x="0" xlink:href="#mbda52d4289" y="230.4"/>
    </g>
   </g>
   <g id="line2d_1">
    <path clip-path="url(#pe089203dc2)" d="M 50.340658 158.064513 
L 104.925316 79.496534 
L 119.644859 62.833302 
L 128.510467 52.444739 
L 134.874817 47.418867 
L 139.843047 43.615058 
L 143.918824 39.84634 
L 147.374471 38.38855 
L 150.37401 36.679685 
L 153.023926 34.840782 
L 155.397278 33.349826 
L 157.54638 33.260227 
L 159.509973 32.020095 
L 161.317555 31.870764 
L 162.992102 30.521099 
L 164.55186 30.154152 
L 166.011564 30.00595 
L 167.383278 29.660715 
L 168.677011 29.065141 
L 169.901153 28.972533 
L 171.062812 28.931732 
L 172.168057 28.580226 
L 173.222114 28.210662 
L 174.229516 27.966535 
L 175.194219 27.698727 
L 176.119694 27.562952 
L 177.00901 27.465254 
L 177.864884 27.076623 
L 178.689741 27.001295 
L 179.485751 26.947056 
L 180.254864 26.891458 
L 180.998838 26.717624 
L 181.719264 26.649263 
L 182.417588 26.506059 
L 183.095125 26.4335 
L 183.753077 26.449519 
L 184.392545 26.360709 
L 185.01454 26.0027 
L 185.619989 26.057463 
L 186.209752 26.017647 
L 186.78462 25.931079 
L 187.345328 25.794901 
L 187.892555 25.856448 
L 188.426936 25.799804 
L 188.949059 25.710706 
L 189.459474 25.619791 
L 189.958696 25.663567 
L 190.447203 25.55836 
L 190.925447 25.562917 
L 191.39385 25.573394 
L 191.852808 25.41753 
L 192.302696 25.458142 
L 192.743864 25.365567 
L 193.176644 25.39118 
L 193.60135 25.294458 
L 194.018277 25.301584 
L 194.427705 25.161398 
L 194.829899 25.208053 
L 195.225109 25.137852 
L 195.613576 25.158795 
L 195.995524 25.125513 
L 196.371169 25.152685 
L 196.740715 25.048479 
L 197.104358 25.082744 
L 197.462283 25.034795 
L 197.814668 25.008988 
L 198.16168 24.965355 
L 198.503482 24.923411 
L 198.840227 24.89756 
L 199.172064 24.893048 
L 199.499132 24.811917 
L 199.821568 24.862034 
L 200.1395 24.821682 
L 200.453052 24.755711 
L 200.762345 24.779987 
L 201.067491 24.754364 
L 201.368601 24.744005 
L 201.66578 24.684146 
L 201.959129 24.735407 
L 202.248745 24.67127 
L 202.534724 24.639469 
L 202.817154 24.659997 
L 203.096123 24.60802 
L 203.371714 24.595619 
L 203.644009 24.605932 
L 203.913085 24.532083 
L 204.179017 24.56034 
L 204.441879 24.523891 
L 204.70174 24.511009 
L 204.958668 24.502681 
L 205.212728 24.461998 
L 205.463984 24.447668 
L 205.712497 24.422802 
L 205.958327 24.37377 
L 206.20153 24.385935 
L 206.442162 24.326534 
L 206.680276 24.312214 
L 206.915926 24.293778 
L 207.149162 24.279448 
L 207.380031 24.254881 
" style="fill:none;stroke:#66c2a5;stroke-linecap:round;stroke-width:2;"/>
   </g>
   <g id="line2d_2">
    <path clip-path="url(#pe089203dc2)" d="M 102.755716 231.4 
L 102.755716 83.97405 
" style="fill:none;stroke:#000000;stroke-dasharray:4.44,1.92;stroke-dashoffset:0;stroke-width:1.2;"/>
   </g>
   <g id="line2d_3">
    <path clip-path="url(#pe089203dc2)" d="M -1 83.97405 
L 102.755716 83.97405 
" style="fill:none;stroke:#000000;stroke-dasharray:4.44,1.92;stroke-dashoffset:0;stroke-width:1.2;"/>
   </g>
   <g id="line2d_4">
    <path clip-path="url(#pe089203dc2)" d="M 50.340658 177.617546 
L 104.925316 103.793448 
L 119.644859 83.685741 
L 128.510467 69.988695 
L 134.874817 63.774128 
L 139.843047 56.392404 
L 143.918824 51.614413 
L 147.374471 48.02272 
L 150.37401 45.813355 
L 153.023926 42.694075 
L 155.397278 41.01269 
L 157.54638 39.411862 
L 159.509973 37.96161 
L 161.317555 36.252086 
L 162.992102 35.646126 
L 164.55186 33.957655 
L 166.011564 34.001507 
L 167.383278 33.023131 
L 168.677011 32.8958 
L 169.901153 32.11219 
L 171.062812 31.292523 
L 172.168057 31.115396 
L 173.222114 30.650597 
L 174.229516 30.213376 
L 175.194219 30.091636 
L 176.119694 29.979345 
L 177.00901 29.613581 
L 177.864884 29.541767 
L 178.689741 29.156109 
L 179.485751 29.078021 
L 180.254864 28.894645 
L 180.998838 28.650918 
L 181.719264 28.516236 
L 182.417588 28.503886 
L 183.095125 28.189498 
L 183.753077 28.120155 
L 184.392545 28.165077 
L 185.01454 27.808218 
L 185.619989 27.796945 
L 186.209752 27.677739 
L 186.78462 27.741834 
L 187.345328 27.478677 
L 187.892555 27.413332 
L 188.426936 27.298663 
L 188.949059 27.391105 
L 189.459474 27.21181 
L 189.958696 27.328751 
L 190.447203 27.063299 
L 190.925447 27.073004 
L 191.39385 27.050848 
L 191.852808 26.849242 
L 192.302696 26.845599 
L 192.743864 26.879797 
L 193.176644 26.814869 
L 193.60135 26.724015 
L 194.018277 26.744144 
L 194.427705 26.740746 
L 194.829899 26.735586 
L 195.225109 26.670139 
L 195.613576 26.619166 
L 195.995524 26.591593 
L 196.371169 26.579323 
L 196.740715 26.518634 
L 197.104358 26.553249 
L 197.462283 26.527923 
L 197.814668 26.468889 
L 198.16168 26.469881 
L 198.503482 26.492486 
L 198.840227 26.426363 
L 199.172064 26.463643 
L 199.499132 26.417733 
L 199.821568 26.416716 
L 200.1395 26.401672 
L 200.453052 26.345033 
L 200.762345 26.374032 
L 201.067491 26.336456 
L 201.368601 26.336428 
L 201.66578 26.345588 
L 201.959129 26.344133 
L 202.248745 26.3217 
L 202.534724 26.307072 
L 202.817154 26.306449 
L 203.096123 26.323105 
L 203.371714 26.294103 
L 203.644009 26.309462 
L 203.913085 26.301486 
L 204.179017 26.284469 
L 204.441879 26.284108 
L 204.70174 26.287249 
L 204.958668 26.294447 
L 205.212728 26.292814 
L 205.463984 26.296914 
L 205.712497 26.282763 
L 205.958327 26.286008 
L 206.20153 26.282484 
L 206.442162 26.282118 
L 206.680276 26.28214 
L 206.915926 26.281955 
L 207.149162 26.28174 
L 207.380031 26.281654 
" style="fill:none;stroke:#fc8d62;stroke-dasharray:7.4,3.2;stroke-dashoffset:0;stroke-width:2;"/>
   </g>
   <g id="line2d_5">
    <path clip-path="url(#pe089203dc2)" d="M 50.340658 194.092125 
L 104.925316 148.209207 
L 119.644859 132.877627 
L 128.510467 123.858968 
L 134.874817 119.217652 
L 139.843047 115.608251 
L 143.918824 113.574852 
L 147.374471 110.715462 
L 150.37401 109.187815 
L 153.023926 106.677542 
L 155.397278 105.473444 
L 157.54638 104.37863 
L 159.509973 103.324022 
L 161.317555 102.348491 
L 162.992102 101.50327 
L 164.55186 100.676196 
L 166.011564 100.01492 
L 167.383278 99.120501 
L 168.677011 98.17105 
L 169.901153 98.348176 
L 171.062812 97.654926 
L 172.168057 96.872266 
L 173.222114 97.023473 
L 174.229516 95.669243 
L 175.194219 95.133848 
L 176.119694 95.228089 
L 177.00901 95.04722 
L 177.864884 94.492734 
L 178.689741 94.174748 
L 179.485751 93.643445 
L 180.254864 93.619432 
L 180.998838 92.976649 
L 181.719264 93.014184 
L 182.417588 92.478171 
L 183.095125 92.276769 
L 183.753077 92.108207 
L 184.392545 91.831635 
L 185.01454 91.320554 
L 185.619989 91.239416 
L 186.209752 91.400696 
L 186.78462 91.267081 
L 187.345328 91.054946 
L 187.892555 90.307394 
L 188.426936 90.049686 
L 188.949059 90.11736 
L 189.459474 89.833844 
L 189.958696 89.709898 
L 190.447203 89.567481 
L 190.925447 89.295456 
L 191.39385 89.431314 
L 191.852808 89.169296 
L 192.302696 89.087806 
L 192.743864 89.095643 
L 193.176644 88.856206 
L 193.60135 88.792517 
L 194.018277 88.794256 
L 194.427705 88.377977 
L 194.829899 88.550039 
L 195.225109 88.603388 
L 195.613576 88.297746 
L 195.995524 88.233486 
L 196.371169 88.204747 
L 196.740715 88.200438 
L 197.104358 88.24836 
L 197.462283 87.935294 
L 197.814668 88.002054 
L 198.16168 87.935368 
L 198.503482 87.78987 
L 198.840227 87.561172 
L 199.172064 87.75205 
L 199.499132 87.601862 
L 199.821568 87.720302 
L 200.1395 87.626982 
L 200.453052 87.550872 
L 200.762345 87.44357 
L 201.067491 87.476603 
L 201.368601 87.327909 
L 201.66578 87.404549 
L 201.959129 87.2644 
L 202.248745 87.254 
L 202.534724 87.220851 
L 202.817154 87.207115 
L 203.096123 87.151207 
L 203.371714 87.169649 
L 203.644009 87.155691 
L 203.913085 87.051418 
L 204.179017 87.091766 
L 204.441879 87.029021 
L 204.70174 86.97612 
L 204.958668 86.982912 
L 205.212728 86.914323 
L 205.463984 86.907459 
L 205.712497 86.88733 
L 205.958327 86.888814 
L 206.20153 86.881949 
L 206.442162 86.852609 
L 206.680276 86.836615 
L 206.915926 86.802985 
L 207.149162 86.791669 
L 207.380031 86.773489 
" style="fill:none;stroke:#8da0cb;stroke-dasharray:7.4,3.2;stroke-dashoffset:0;stroke-width:2;"/>
   </g>
   <g id="line2d_6">
    <path clip-path="url(#pe089203dc2)" d="M 50.340658 205.018725 
L 104.925316 175.100052 
L 119.644859 165.654787 
L 128.510467 158.302682 
L 134.874817 153.832073 
L 139.843047 150.114743 
L 143.918824 149.171603 
L 147.374471 145.466699 
L 150.37401 144.006727 
L 153.023926 142.942918 
L 155.397278 140.989 
L 157.54638 139.739614 
L 159.509973 138.892354 
L 161.317555 138.602806 
L 162.992102 137.452943 
L 164.55186 136.53234 
L 166.011564 136.218104 
L 167.383278 134.526315 
L 168.677011 134.104482 
L 169.901153 133.275272 
L 171.062812 132.352144 
L 172.168057 132.768491 
L 173.222114 132.286905 
L 174.229516 131.412818 
L 175.194219 131.426439 
L 176.119694 130.873804 
L 177.00901 129.71656 
L 177.864884 130.035375 
L 178.689741 129.712102 
L 179.485751 129.531438 
L 180.254864 129.462539 
L 180.998838 128.370294 
L 181.719264 128.216119 
L 182.417588 127.914459 
L 183.095125 127.883583 
L 183.753077 127.83937 
L 184.392545 127.633783 
L 185.01454 126.861765 
L 185.619989 126.825722 
L 186.209752 126.980524 
L 186.78462 126.792634 
L 187.345328 126.34757 
L 187.892555 126.114918 
L 188.426936 126.027265 
L 188.949059 125.475758 
L 189.459474 125.576668 
L 189.958696 125.262599 
L 190.447203 125.050374 
L 190.925447 124.965137 
L 191.39385 124.783275 
L 191.852808 124.733292 
L 192.302696 124.438986 
L 192.743864 124.31716 
L 193.176644 123.919845 
L 193.60135 124.155313 
L 194.018277 124.156575 
L 194.427705 123.882713 
L 194.829899 123.737088 
L 195.225109 123.519053 
L 195.613576 123.653433 
L 195.995524 123.454904 
L 196.371169 123.186231 
L 196.740715 123.28003 
L 197.104358 123.271761 
L 197.462283 123.029723 
L 197.814668 122.789664 
L 198.16168 122.915209 
L 198.503482 122.661091 
L 198.840227 122.682801 
L 199.172064 122.408816 
L 199.499132 122.494545 
L 199.821568 122.47571 
L 200.1395 122.373606 
L 200.453052 122.125611 
L 200.762345 121.981253 
L 201.067491 122.072221 
L 201.368601 121.997401 
L 201.66578 121.903717 
L 201.959129 121.91851 
L 202.248745 121.833898 
L 202.534724 121.757567 
L 202.817154 121.558643 
L 203.096123 121.583852 
L 203.371714 121.579228 
L 203.644009 121.514647 
L 203.913085 121.492869 
L 204.179017 121.49586 
L 204.441879 121.466921 
L 204.70174 121.343222 
L 204.958668 121.380484 
L 205.212728 121.346036 
L 205.463984 121.206686 
L 205.712497 121.231185 
L 205.958327 121.236898 
L 206.20153 121.163399 
L 206.442162 121.164423 
L 206.680276 121.106386 
L 206.915926 121.1039 
L 207.149162 121.084587 
L 207.380031 121.078221 
" style="fill:none;stroke:#e78ac3;stroke-dasharray:7.4,3.2;stroke-dashoffset:0;stroke-width:2;"/>
   </g>
   <g id="patch_3">
    <path d="M 42.48869 192.732 
L 42.48869 15.168 
" style="fill:none;stroke:#262626;stroke-linecap:square;stroke-linejoin:miter;"/>
   </g>
   <g id="patch_4">
    <path d="M 215.232 192.732 
L 215.232 15.168 
" style="fill:none;stroke:#262626;stroke-linecap:square;stroke-linejoin:miter;"/>
   </g>
   <g id="patch_5">
    <path d="M 42.48869 192.732 
L 215.232 192.732 
" style="fill:none;stroke:#262626;stroke-linecap:square;stroke-linejoin:miter;"/>
   </g>
   <g id="patch_6">
    <path d="M 42.48869 15.168 
L 215.232 15.168 
" style="fill:none;stroke:#262626;stroke-linecap:square;stroke-linejoin:miter;"/>
   </g>
   <g id="PathCollection_1">
    <defs>
     <path d="M 0 2.4 
C 0.636487 2.4 1.246992 2.147121 1.697056 1.697056 
C 2.147121 1.246992 2.4 0.636487 2.4 0 
C 2.4 -0.636487 2.147121 -1.246992 1.697056 -1.697056 
C 1.246992 -2.147121 0.636487 -2.4 0 -2.4 
C -0.636487 -2.4 -1.246992 -2.147121 -1.697056 -1.697056 
C -2.147121 -1.246992 -2.4 -0.636487 -2.4 0 
C -2.4 0.636487 -2.147121 1.246992 -1.697056 1.697056 
C -1.246992 2.147121 -0.636487 2.4 0 2.4 
z
" id="m3ec142cf0c" style="stroke:#000000;stroke-width:0.8;"/>
    </defs>
    <g clip-path="url(#pe089203dc2)">
     <use style="stroke:#000000;stroke-width:0.8;" x="102.755716" xlink:href="#m3ec142cf0c" y="83.97405"/>
    </g>
   </g>
   <g id="legend_1">
    <g id="patch_7">
     <path d="M 125.500669 188.732 
L 209.632 188.732 
Q 211.232 188.732 211.232 187.132 
L 211.232 140.871918 
Q 211.232 139.271918 209.632 139.271918 
L 125.500669 139.271918 
Q 123.900669 139.271918 123.900669 140.871918 
L 123.900669 187.132 
Q 123.900669 188.732 125.500669 188.732 
z
" style="fill:#ffffff;opacity:0.8;stroke:#cccccc;stroke-linejoin:miter;stroke-width:0.8;"/>
    </g>
    <g id="line2d_7">
     <path d="M 127.100669 145.271918 
L 143.100669 145.271918 
" style="fill:none;stroke:#66c2a5;stroke-linecap:round;stroke-width:2;"/>
    </g>
    <g id="line2d_8"/>
    <g id="text_16">
     <!-- GPT-2 -->
     <defs>
      <path d="M 32.90625 29 
C 44.90625 29 54.703125 38.328125 54.703125 49.34375 
C 54.703125 60.15625 45.296875 69.578125 32.296875 69.578125 
L 8.90625 69.578125 
L 8.90625 0 
L 17.296875 0 
L 17.296875 29 
z
M 30.09375 64 
C 41.703125 64 46.796875 56.671875 46.796875 49.328125 
C 46.796875 42.5 42.09375 34.78125 30.09375 34.78125 
L 17.09375 34.78125 
L 17.09375 64 
z
" id="CMSS17-80"/>
      <path d="M 26 19 
L 26 24.765625 
L 1 24.765625 
L 1 19 
z
" id="CMSS17-45"/>
     </defs>
     <g style="fill:#262626;" transform="translate(149.500669 148.071918)scale(0.08 -0.08)">
      <use transform="scale(0.996264)" xlink:href="#CMSS17-71"/>
      <use transform="translate(62.458226 0)scale(0.996264)" xlink:href="#CMSS17-80"/>
      <use transform="translate(122.193812 0)scale(0.996264)" xlink:href="#CMSS17-84"/>
      <use transform="translate(186.013266 0)scale(0.996264)" xlink:href="#CMSS17-45"/>
      <use transform="translate(217.242378 0)scale(0.996264)" xlink:href="#CMSS17-50"/>
     </g>
    </g>
    <g id="line2d_9">
     <path d="M 127.100669 156.799248 
L 143.100669 156.799248 
" style="fill:none;stroke:#fc8d62;stroke-dasharray:7.4,3.2;stroke-dashoffset:0;stroke-width:2;"/>
    </g>
    <g id="line2d_10"/>
    <g id="text_17">
     <!-- MCM (t = -0.5) -->
     <defs>
      <path d="M 54.703125 11.15625 
C 48 6.671875 44.90625 5.375 36.796875 5.375 
C 22.796875 5.375 14.59375 20.359375 14.59375 34.046875 
C 14.59375 48.625 23 63 37.203125 63 
C 43.59375 63 47.796875 61.21875 52.90625 58.046875 
L 54.296875 65.890625 
C 49.5 68.28125 43.40625 69.375 37.296875 69.375 
C 18.09375 69.375 6.203125 51.8125 6.203125 34.046875 
C 6.203125 14.484375 20.296875 -1 36.296875 -1 
C 44.90625 -1 47.90625 -0.296875 55.296875 4.375 
z
" id="CMSS17-67"/>
      <path d="M 25.203125 74.5 
C 19.796875 69.015625 7.40625 56.265625 7.40625 24.8125 
C 7.40625 -6.765625 19.796875 -19.421875 25.203125 -25 
L 31.296875 -25 
C 19 -12.25 15 5.578125 15 24.703125 
C 15 43.71875 18.796875 61.65625 31.296875 74.5 
z
" id="CMSS17-40"/>
      <path d="M 64.796875 31.515625 
C 66.296875 31.515625 67.796875 31.515625 67.796875 33.203125 
C 67.796875 35 66.09375 35 64.40625 35 
L 8.59375 35 
C 6.90625 35 5.203125 35 5.203125 33.203125 
C 5.203125 31.515625 6.703125 31.515625 8.203125 31.515625 
z
M 64.40625 14 
C 66.09375 14 67.796875 14 67.796875 15.796875 
C 67.796875 17.484375 66.296875 17.484375 64.796875 17.484375 
L 8.203125 17.484375 
C 6.703125 17.484375 5.203125 17.484375 5.203125 15.796875 
C 5.203125 14 6.90625 14 8.59375 14 
z
" id="CMSS17-61"/>
      <path d="M 11.296875 -25 
C 16.703125 -19.515625 29.09375 -6.765625 29.09375 24.703125 
C 29.09375 56.265625 16.703125 68.921875 11.296875 74.5 
L 5.203125 74.5 
C 17.5 61.75 21.5 43.921875 21.5 24.8125 
C 21.5 5.78125 17.703125 -12.15625 5.203125 -25 
z
" id="CMSS17-41"/>
     </defs>
     <g style="fill:#262626;" transform="translate(149.500669 159.599248)scale(0.08 -0.08)">
      <use transform="scale(0.996264)" xlink:href="#CMSS17-77"/>
      <use transform="translate(81.67603 0)scale(0.996264)" xlink:href="#CMSS17-67"/>
      <use transform="translate(141.531802 0)scale(0.996264)" xlink:href="#CMSS17-77"/>
      <use transform="translate(254.436944 0)scale(0.996264)" xlink:href="#CMSS17-40"/>
      <use transform="translate(290.870858 0)scale(0.996264)" xlink:href="#CMSS17-116"/>
      <use transform="translate(355.931538 0)scale(0.996264)" xlink:href="#CMSS17-61"/>
      <use transform="translate(460.028585 0)scale(0.996264)" xlink:href="#CMSS17-45"/>
      <use transform="translate(491.257698 0)scale(0.996264)" xlink:href="#CMSS17-48"/>
      <use transform="translate(538.101322 0)scale(0.996264)" xlink:href="#CMSS17-46"/>
      <use transform="translate(564.125527 0)scale(0.996264)" xlink:href="#CMSS17-53"/>
      <use transform="translate(610.96915 0)scale(0.996264)" xlink:href="#CMSS17-41"/>
     </g>
    </g>
    <g id="line2d_11">
     <path d="M 127.100669 168.76936 
L 143.100669 168.76936 
" style="fill:none;stroke:#8da0cb;stroke-dasharray:7.4,3.2;stroke-dashoffset:0;stroke-width:2;"/>
    </g>
    <g id="line2d_12"/>
    <g id="text_18">
     <!-- MCM (t = 0.0) -->
     <g style="fill:#262626;" transform="translate(149.500669 171.56936)scale(0.08 -0.08)">
      <use transform="scale(0.996264)" xlink:href="#CMSS17-77"/>
      <use transform="translate(81.67603 0)scale(0.996264)" xlink:href="#CMSS17-67"/>
      <use transform="translate(141.531802 0)scale(0.996264)" xlink:href="#CMSS17-77"/>
      <use transform="translate(254.436944 0)scale(0.996264)" xlink:href="#CMSS17-40"/>
      <use transform="translate(290.870858 0)scale(0.996264)" xlink:href="#CMSS17-116"/>
      <use transform="translate(355.931538 0)scale(0.996264)" xlink:href="#CMSS17-61"/>
      <use transform="translate(460.028585 0)scale(0.996264)" xlink:href="#CMSS17-48"/>
      <use transform="translate(506.872209 0)scale(0.996264)" xlink:href="#CMSS17-46"/>
      <use transform="translate(532.896414 0)scale(0.996264)" xlink:href="#CMSS17-48"/>
      <use transform="translate(579.740037 0)scale(0.996264)" xlink:href="#CMSS17-41"/>
     </g>
    </g>
    <g id="line2d_13">
     <path d="M 127.100669 180.739472 
L 143.100669 180.739472 
" style="fill:none;stroke:#e78ac3;stroke-dasharray:7.4,3.2;stroke-dashoffset:0;stroke-width:2;"/>
    </g>
    <g id="line2d_14"/>
    <g id="text_19">
     <!-- MCM (t = 0.5) -->
     <g style="fill:#262626;" transform="translate(149.500669 183.539472)scale(0.08 -0.08)">
      <use transform="scale(0.996264)" xlink:href="#CMSS17-77"/>
      <use transform="translate(81.67603 0)scale(0.996264)" xlink:href="#CMSS17-67"/>
      <use transform="translate(141.531802 0)scale(0.996264)" xlink:href="#CMSS17-77"/>
      <use transform="translate(254.436944 0)scale(0.996264)" xlink:href="#CMSS17-40"/>
      <use transform="translate(290.870858 0)scale(0.996264)" xlink:href="#CMSS17-116"/>
      <use transform="translate(355.931538 0)scale(0.996264)" xlink:href="#CMSS17-61"/>
      <use transform="translate(460.028585 0)scale(0.996264)" xlink:href="#CMSS17-48"/>
      <use transform="translate(506.872209 0)scale(0.996264)" xlink:href="#CMSS17-46"/>
      <use transform="translate(532.896414 0)scale(0.996264)" xlink:href="#CMSS17-53"/>
      <use transform="translate(579.740037 0)scale(0.996264)" xlink:href="#CMSS17-41"/>
     </g>
    </g>
   </g>
  </g>
 </g>
 <defs>
  <clipPath id="pe089203dc2">
   <rect height="177.564" width="172.74331" x="42.48869" y="15.168"/>
  </clipPath>
 </defs>
</svg>
