<?xml version="1.0" encoding="utf-8" standalone="no"?>
<!DOCTYPE svg PUBLIC "-//W3C//DTD SVG 1.1//EN"
  "http://www.w3.org/Graphics/SVG/1.1/DTD/svg11.dtd">
<!-- Created with matplotlib (https://matplotlib.org/) -->
<svg height="127.295442pt" version="1.1" viewBox="0 0 279.318726 127.295442" width="279.318726pt" xmlns="http://www.w3.org/2000/svg" xmlns:xlink="http://www.w3.org/1999/xlink">
 <defs>
  <style type="text/css">
*{stroke-linecap:butt;stroke-linejoin:round;}
  </style>
 </defs>
 <g id="figure_1">
  <g id="patch_1">
   <path d="M 0 127.295442 
L 279.318726 127.295442 
L 279.318726 -0 
L 0 -0 
z
" style="fill:#ffffff;"/>
  </g>
  <g id="axes_1">
   <g id="patch_2">
    <path d="M 40.727276 97.540782 
L 263.927276 97.540782 
L 263.927276 19.924782 
L 40.727276 19.924782 
z
" style="fill:#ffffff;"/>
   </g>
   <g id="matplotlib.axis_1">
    <g id="xtick_1">
     <g id="line2d_1">
      <path clip-path="url(#p44c45a2ae7)" d="M 40.727276 97.540782 
L 40.727276 19.924782 
" style="fill:none;stroke:#cccccc;stroke-dasharray:1,1.65;stroke-dashoffset:0;"/>
     </g>
     <g id="text_1">
      <!-- $-1.00$ -->
      <defs>
       <path d="M 65.90625 23 
C 67.59375 23 69.40625 23 69.40625 25 
C 69.40625 27 67.59375 27 65.90625 27 
L 11.796875 27 
C 10.09375 27 8.296875 27 8.296875 25 
C 8.296875 23 10.09375 23 11.796875 23 
z
" id="CMSY10-0"/>
       <path d="M 26.59375 63.40625 
C 26.59375 65.5 26.5 65.5 25.09375 65.5 
C 21.203125 61.1875 15.296875 59.796875 9.703125 59.796875 
C 9.40625 59.796875 8.90625 59.796875 8.796875 59.5 
C 8.703125 59.296875 8.703125 59.09375 8.703125 57 
C 11.796875 57 17 57.59375 21 59.984375 
L 21 7.203125 
C 21 3.6875 20.796875 2.5 12.203125 2.5 
L 9.203125 2.5 
L 9.203125 0 
C 14 0 19 0 23.796875 0 
C 28.59375 0 33.59375 0 38.40625 0 
L 38.40625 2.5 
L 35.40625 2.5 
C 26.796875 2.5 26.59375 3.59375 26.59375 7.15625 
z
" id="CMR17-49"/>
       <path d="M 18.40625 4.796875 
C 18.40625 7.6875 16 9.671875 13.59375 9.671875 
C 10.703125 9.671875 8.703125 7.28125 8.703125 4.890625 
C 8.703125 2 11.09375 0 13.5 0 
C 16.40625 0 18.40625 2.390625 18.40625 4.796875 
z
" id="CMMI12-58"/>
       <path d="M 42 31.640625 
C 42 37.75 41.90625 48.125 37.703125 56.109375 
C 34 63.109375 28.09375 65.59375 22.90625 65.59375 
C 18.09375 65.59375 12 63.40625 8.203125 56.203125 
C 4.203125 48.71875 3.796875 39.4375 3.796875 31.640625 
C 3.796875 25.953125 3.90625 17.28125 7 9.671875 
C 11.296875 -0.609375 19 -2 22.90625 -2 
C 27.5 -2 34.5 -0.109375 38.59375 9.375 
C 41.59375 16.28125 42 24.359375 42 31.640625 
z
M 22.90625 -0.40625 
C 16.5 -0.40625 12.703125 5.078125 11.296875 12.6875 
C 10.203125 18.5625 10.203125 27.15625 10.203125 32.75 
C 10.203125 40.4375 10.203125 46.828125 11.5 52.921875 
C 13.40625 61.390625 19 64 22.90625 64 
C 27 64 32.296875 61.296875 34.203125 53.125 
C 35.5 47.4375 35.59375 40.734375 35.59375 32.75 
C 35.59375 26.25 35.59375 18.265625 34.40625 12.375 
C 32.296875 1.484375 26.40625 -0.40625 22.90625 -0.40625 
z
" id="CMR17-48"/>
      </defs>
      <g style="fill:#262626;" transform="translate(28.952066 107.267432)scale(0.09 -0.09)">
       <use transform="scale(0.996264)" xlink:href="#CMSY10-0"/>
       <use transform="translate(77.487468 0)scale(0.996264)" xlink:href="#CMR17-49"/>
       <use transform="translate(123.177945 0)scale(0.996264)" xlink:href="#CMMI12-58"/>
       <use transform="translate(150.275122 0)scale(0.996264)" xlink:href="#CMR17-48"/>
       <use transform="translate(195.965599 0)scale(0.996264)" xlink:href="#CMR17-48"/>
      </g>
     </g>
    </g>
    <g id="xtick_2">
     <g id="line2d_2">
      <path clip-path="url(#p44c45a2ae7)" d="M 68.627276 97.540782 
L 68.627276 19.924782 
" style="fill:none;stroke:#cccccc;stroke-dasharray:1,1.65;stroke-dashoffset:0;"/>
     </g>
     <g id="text_2">
      <!-- $-0.75$ -->
      <defs>
       <path d="M 45.09375 61.578125 
L 45.09375 63.765625 
L 21.59375 63.765625 
C 9.90625 63.765625 9.703125 65.078125 9.296875 67 
L 7.5 67 
L 4.59375 48.34375 
L 6.40625 48.34375 
C 6.703125 50.234375 7.40625 55.3125 8.59375 57.203125 
C 9.203125 58 16.59375 58 18.296875 58 
L 40.296875 58 
L 29.203125 41.578125 
C 21.796875 30.53125 16.703125 15.609375 16.703125 2.578125 
C 16.703125 1.390625 16.703125 -2 20.296875 -2 
C 23.90625 -2 23.90625 1.390625 23.90625 2.671875 
L 23.90625 7.265625 
C 23.90625 23.5625 26.703125 34.3125 31.296875 41.1875 
z
" id="CMR17-55"/>
       <path d="M 11.40625 57.6875 
C 12.40625 57.28125 16.5 56 20.703125 56 
C 30 56 35.09375 61.109375 38 64.0625 
C 38 64.953125 38 65.5 37.40625 65.5 
C 37.296875 65.5 37.09375 65.5 36.296875 65.046875 
C 32.796875 63.40625 28.703125 62.078125 23.703125 62.078125 
C 20.703125 62.078125 16.203125 62.484375 11.296875 64.671875 
C 10.203125 65.171875 10 65.171875 9.90625 65.171875 
C 9.40625 65.171875 9.296875 65.0625 9.296875 63.078125 
L 9.296875 34.421875 
C 9.296875 32.640625 9.296875 32.140625 10.296875 32.140625 
C 10.796875 32.140625 11 32.34375 11.5 33.03125 
C 14.703125 37.515625 19.09375 39.40625 24.09375 39.40625 
C 27.59375 39.40625 35.09375 37.21875 35.09375 20.140625 
C 35.09375 16.953125 35.09375 11.171875 32.09375 6.578125 
C 29.59375 2.484375 25.703125 0.390625 21.40625 0.390625 
C 14.796875 0.390625 8.09375 5 6.296875 12.71875 
C 6.703125 12.609375 7.5 12.421875 7.90625 12.421875 
C 9.203125 12.421875 11.703125 13.125 11.703125 16.21875 
C 11.703125 18.90625 9.796875 20 7.90625 20 
C 5.59375 20 4.09375 18.59375 4.09375 15.796875 
C 4.09375 7.09375 11 -2 21.59375 -2 
C 31.90625 -2 41.703125 6.875 41.703125 19.75 
C 41.703125 31.71875 33.90625 41 24.203125 41 
C 19.09375 41 14.796875 39.109375 11.40625 35.53125 
z
" id="CMR17-53"/>
      </defs>
      <g style="fill:#262626;" transform="translate(56.852066 107.267432)scale(0.09 -0.09)">
       <use transform="scale(0.996264)" xlink:href="#CMSY10-0"/>
       <use transform="translate(77.487468 0)scale(0.996264)" xlink:href="#CMR17-48"/>
       <use transform="translate(123.177945 0)scale(0.996264)" xlink:href="#CMMI12-58"/>
       <use transform="translate(150.275122 0)scale(0.996264)" xlink:href="#CMR17-55"/>
       <use transform="translate(195.965599 0)scale(0.996264)" xlink:href="#CMR17-53"/>
      </g>
     </g>
    </g>
    <g id="xtick_3">
     <g id="line2d_3">
      <path clip-path="url(#p44c45a2ae7)" d="M 96.527276 97.540782 
L 96.527276 19.924782 
" style="fill:none;stroke:#cccccc;stroke-dasharray:1,1.65;stroke-dashoffset:0;"/>
     </g>
     <g id="text_3">
      <!-- $-0.50$ -->
      <g style="fill:#262626;" transform="translate(84.752066 107.267432)scale(0.09 -0.09)">
       <use transform="scale(0.996264)" xlink:href="#CMSY10-0"/>
       <use transform="translate(77.487468 0)scale(0.996264)" xlink:href="#CMR17-48"/>
       <use transform="translate(123.177945 0)scale(0.996264)" xlink:href="#CMMI12-58"/>
       <use transform="translate(150.275122 0)scale(0.996264)" xlink:href="#CMR17-53"/>
       <use transform="translate(195.965599 0)scale(0.996264)" xlink:href="#CMR17-48"/>
      </g>
     </g>
    </g>
    <g id="xtick_4">
     <g id="line2d_4">
      <path clip-path="url(#p44c45a2ae7)" d="M 124.427276 97.540782 
L 124.427276 19.924782 
" style="fill:none;stroke:#cccccc;stroke-dasharray:1,1.65;stroke-dashoffset:0;"/>
     </g>
     <g id="text_4">
      <!-- $-0.25$ -->
      <defs>
       <path d="M 41.703125 15.453125 
L 39.90625 15.453125 
C 38.90625 8.375 38.09375 7.171875 37.703125 6.5625 
C 37.203125 5.765625 30 5.765625 28.59375 5.765625 
L 9.40625 5.765625 
C 13 9.671875 20 16.75 28.5 24.953125 
C 34.59375 30.734375 41.703125 37.53125 41.703125 47.421875 
C 41.703125 59.21875 32.296875 66 21.796875 66 
C 10.796875 66 4.09375 56.3125 4.09375 47.34375 
C 4.09375 43.4375 7 42.9375 8.203125 42.9375 
C 9.203125 42.9375 12.203125 43.546875 12.203125 47.03125 
C 12.203125 50.109375 9.59375 51 8.203125 51 
C 7.59375 51 7 50.90625 6.59375 50.703125 
C 8.5 59.21875 14.296875 63.40625 20.40625 63.40625 
C 29.09375 63.40625 34.796875 56.515625 34.796875 47.421875 
C 34.796875 38.734375 29.703125 31.25 24 24.75 
L 4.09375 2.28125 
L 4.09375 0 
L 39.296875 0 
z
" id="CMR17-50"/>
      </defs>
      <g style="fill:#262626;" transform="translate(112.652066 107.267432)scale(0.09 -0.09)">
       <use transform="scale(0.996264)" xlink:href="#CMSY10-0"/>
       <use transform="translate(77.487468 0)scale(0.996264)" xlink:href="#CMR17-48"/>
       <use transform="translate(123.177945 0)scale(0.996264)" xlink:href="#CMMI12-58"/>
       <use transform="translate(150.275122 0)scale(0.996264)" xlink:href="#CMR17-50"/>
       <use transform="translate(195.965599 0)scale(0.996264)" xlink:href="#CMR17-53"/>
      </g>
     </g>
    </g>
    <g id="xtick_5">
     <g id="line2d_5">
      <path clip-path="url(#p44c45a2ae7)" d="M 152.327276 97.540782 
L 152.327276 19.924782 
" style="fill:none;stroke:#cccccc;stroke-dasharray:1,1.65;stroke-dashoffset:0;"/>
     </g>
     <g id="text_5">
      <!-- $0.00$ -->
      <g style="fill:#262626;" transform="translate(144.135826 107.267432)scale(0.09 -0.09)">
       <use transform="scale(0.996264)" xlink:href="#CMR17-48"/>
       <use transform="translate(45.690477 0)scale(0.996264)" xlink:href="#CMMI12-58"/>
       <use transform="translate(72.787654 0)scale(0.996264)" xlink:href="#CMR17-48"/>
       <use transform="translate(118.478131 0)scale(0.996264)" xlink:href="#CMR17-48"/>
      </g>
     </g>
    </g>
    <g id="xtick_6">
     <g id="line2d_6">
      <path clip-path="url(#p44c45a2ae7)" d="M 180.227276 97.540782 
L 180.227276 19.924782 
" style="fill:none;stroke:#cccccc;stroke-dasharray:1,1.65;stroke-dashoffset:0;"/>
     </g>
     <g id="text_6">
      <!-- $0.25$ -->
      <g style="fill:#262626;" transform="translate(172.035826 107.267432)scale(0.09 -0.09)">
       <use transform="scale(0.996264)" xlink:href="#CMR17-48"/>
       <use transform="translate(45.690477 0)scale(0.996264)" xlink:href="#CMMI12-58"/>
       <use transform="translate(72.787654 0)scale(0.996264)" xlink:href="#CMR17-50"/>
       <use transform="translate(118.478131 0)scale(0.996264)" xlink:href="#CMR17-53"/>
      </g>
     </g>
    </g>
    <g id="xtick_7">
     <g id="line2d_7">
      <path clip-path="url(#p44c45a2ae7)" d="M 208.127276 97.540782 
L 208.127276 19.924782 
" style="fill:none;stroke:#cccccc;stroke-dasharray:1,1.65;stroke-dashoffset:0;"/>
     </g>
     <g id="text_7">
      <!-- $0.50$ -->
      <g style="fill:#262626;" transform="translate(199.935826 107.267432)scale(0.09 -0.09)">
       <use transform="scale(0.996264)" xlink:href="#CMR17-48"/>
       <use transform="translate(45.690477 0)scale(0.996264)" xlink:href="#CMMI12-58"/>
       <use transform="translate(72.787654 0)scale(0.996264)" xlink:href="#CMR17-53"/>
       <use transform="translate(118.478131 0)scale(0.996264)" xlink:href="#CMR17-48"/>
      </g>
     </g>
    </g>
    <g id="xtick_8">
     <g id="line2d_8">
      <path clip-path="url(#p44c45a2ae7)" d="M 236.027276 97.540782 
L 236.027276 19.924782 
" style="fill:none;stroke:#cccccc;stroke-dasharray:1,1.65;stroke-dashoffset:0;"/>
     </g>
     <g id="text_8">
      <!-- $0.75$ -->
      <g style="fill:#262626;" transform="translate(227.835826 107.267432)scale(0.09 -0.09)">
       <use transform="scale(0.996264)" xlink:href="#CMR17-48"/>
       <use transform="translate(45.690477 0)scale(0.996264)" xlink:href="#CMMI12-58"/>
       <use transform="translate(72.787654 0)scale(0.996264)" xlink:href="#CMR17-55"/>
       <use transform="translate(118.478131 0)scale(0.996264)" xlink:href="#CMR17-53"/>
      </g>
     </g>
    </g>
    <g id="xtick_9">
     <g id="line2d_9">
      <path clip-path="url(#p44c45a2ae7)" d="M 263.927276 97.540782 
L 263.927276 19.924782 
" style="fill:none;stroke:#cccccc;stroke-dasharray:1,1.65;stroke-dashoffset:0;"/>
     </g>
     <g id="text_9">
      <!-- $1.00$ -->
      <g style="fill:#262626;" transform="translate(255.735826 107.267432)scale(0.09 -0.09)">
       <use transform="scale(0.996264)" xlink:href="#CMR17-49"/>
       <use transform="translate(45.690477 0)scale(0.996264)" xlink:href="#CMMI12-58"/>
       <use transform="translate(72.787654 0)scale(0.996264)" xlink:href="#CMR17-48"/>
       <use transform="translate(118.478131 0)scale(0.996264)" xlink:href="#CMR17-48"/>
      </g>
     </g>
    </g>
    <g id="text_10">
     <!-- MCM score -->
     <defs>
      <path d="M 49.90625 37.046875 
L 45.09375 23.015625 
C 44.296875 20.421875 41.59375 12.359375 41 9.171875 
L 40.90625 9.171875 
C 40.59375 11.171875 40 13.265625 38.40625 18.34375 
C 37.5 21.328125 36.5 24.40625 35.5 27.203125 
L 20.703125 69 
L 9 69 
L 9 0 
L 16.796875 0 
L 16.796875 60.9375 
L 16.90625 60.9375 
C 16.90625 60.84375 17.796875 56.453125 23.90625 39.046875 
L 37.09375 1.5 
L 44.5 1.5 
L 56.40625 34.859375 
C 57.203125 37.15625 59.703125 44.421875 60.796875 47.90625 
C 61.796875 50.890625 64.296875 58.25 64.90625 61.140625 
L 65 61.140625 
L 65 0 
L 72.90625 0 
L 72.90625 69 
L 61.296875 69 
z
" id="CMSS17-77"/>
      <path d="M 54.703125 11.15625 
C 48 6.671875 44.90625 5.375 36.796875 5.375 
C 22.796875 5.375 14.59375 20.359375 14.59375 34.046875 
C 14.59375 48.625 23 63 37.203125 63 
C 43.59375 63 47.796875 61.21875 52.90625 58.046875 
L 54.296875 65.890625 
C 49.5 68.28125 43.40625 69.375 37.296875 69.375 
C 18.09375 69.375 6.203125 51.8125 6.203125 34.046875 
C 6.203125 14.484375 20.296875 -1 36.296875 -1 
C 44.90625 -1 47.90625 -0.296875 55.296875 4.375 
z
" id="CMSS17-67"/>
      <path d="M 32.203125 41.046875 
C 26.296875 43.859375 21.703125 43.859375 18.703125 43.859375 
C 11.59375 43.859375 3.09375 41.375 3.09375 31.296875 
C 3.09375 21.234375 14.09375 19.03125 17.09375 18.421875 
C 21.703125 17.53125 26.796875 16.53125 26.796875 11.5625 
C 26.796875 5.265625 19.59375 5.265625 18.296875 5.265625 
C 14.296875 5.265625 8.796875 6.359375 3.796875 9.96875 
L 2.59375 3.28125 
C 8.296875 0 13.796875 -1 18.40625 -1 
C 30.703125 -1 33.796875 6.5 33.796875 12.203125 
C 33.796875 17.09375 31 20.390625 29.09375 21.890625 
C 25.796875 24.5 24.59375 24.796875 16.40625 26.5 
C 15 26.703125 10.09375 27.796875 10.09375 32.28125 
C 10.09375 38 16.40625 38 17.796875 38 
C 24.296875 38 28.296875 35.984375 31 34.5 
z
" id="CMSS17-115"/>
      <path d="M 38.5 39.703125 
C 38.5 40.390625 33.90625 42.40625 32.703125 42.796875 
C 29.40625 44 25.203125 44 24.09375 44 
C 11.09375 44 3.296875 32.703125 3.296875 21.296875 
C 3.296875 9.296875 12 -1 23.703125 -1 
C 30.40625 -1 35.203125 1.1875 39.09375 3.78125 
L 38.5 10.375 
C 34.203125 7.078125 29.203125 5.265625 23.796875 5.265625 
C 16 5.265625 10.90625 12.09375 10.90625 21.390625 
C 10.90625 28.609375 14.203125 37.71875 24.203125 37.71875 
C 29.703125 37.71875 32.796875 36.609375 37.40625 33.515625 
z
" id="CMSS17-99"/>
      <path d="M 44.203125 21.1875 
C 44.203125 34 34.703125 44 23.5 44 
C 12 44 2.703125 33.703125 2.703125 21.1875 
C 2.703125 8.5 12.296875 -1 23.40625 -1 
C 34.796875 -1 44.203125 8.796875 44.203125 21.1875 
z
M 23.5 5.265625 
C 16.40625 5.265625 10.296875 11.078125 10.296875 22 
C 10.296875 33.609375 17.40625 37.921875 23.40625 37.921875 
C 29.90625 37.921875 36.59375 33.21875 36.59375 22 
C 36.59375 10.671875 30.09375 5.265625 23.5 5.265625 
z
" id="CMSS17-111"/>
      <path d="M 14.90625 21.296875 
C 14.90625 30.703125 21.796875 37 30.59375 37 
L 30.59375 43.578125 
C 24.203125 43.578125 18.203125 40.390625 14.59375 35.203125 
L 14.59375 43.09375 
L 7.5 43.09375 
L 7.5 0 
L 14.90625 0 
z
" id="CMSS17-114"/>
      <path d="M 39.09375 21.515625 
C 39.09375 24.84375 38.90625 31.296875 35.703125 36.640625 
C 32.203125 42.390625 26.5 44 22.203125 44 
C 11.796875 44 3 34.1875 3 21.484375 
C 3 9.09375 12.09375 -1 23.59375 -1 
C 28.09375 -1 33.59375 0.296875 38.59375 3.875 
C 38.59375 4.28125 38.40625 6.46875 38.296875 6.5625 
C 38.296875 6.765625 38 9.84375 38 10.25 
C 33.203125 6.359375 27.703125 5.078125 23.703125 5.078125 
C 17.296875 5.078125 10.40625 10.421875 10.09375 21.515625 
z
M 10.90625 27 
C 12.203125 32.5625 16.59375 37.828125 22.203125 37.828125 
C 23.703125 37.828125 30.703125 37.828125 32.5 27 
z
" id="CMSS17-101"/>
     </defs>
     <g style="fill:#262626;" transform="translate(131.989373 118.545696)scale(0.08 -0.08)">
      <use transform="scale(0.996264)" xlink:href="#CMSS17-77"/>
      <use transform="translate(81.67603 0)scale(0.996264)" xlink:href="#CMSS17-67"/>
      <use transform="translate(141.531802 0)scale(0.996264)" xlink:href="#CMSS17-77"/>
      <use transform="translate(254.436944 0)scale(0.996264)" xlink:href="#CMSS17-115"/>
      <use transform="translate(290.350486 0)scale(0.996264)" xlink:href="#CMSS17-99"/>
      <use transform="translate(331.989308 0)scale(0.996264)" xlink:href="#CMSS17-111"/>
      <use transform="translate(376.230478 0)scale(0.996264)" xlink:href="#CMSS17-114"/>
      <use transform="translate(408.14025 0)scale(0.996264)" xlink:href="#CMSS17-101"/>
     </g>
    </g>
   </g>
   <g id="matplotlib.axis_2">
    <g id="ytick_1">
     <g id="line2d_10">
      <path clip-path="url(#p44c45a2ae7)" d="M 40.727276 97.540782 
L 263.927276 97.540782 
" style="fill:none;stroke:#cccccc;stroke-dasharray:1,1.65;stroke-dashoffset:0;"/>
     </g>
     <g id="text_11">
      <!-- $-0.2$ -->
      <g style="fill:#262626;" transform="translate(18.284547 100.654107)scale(0.09 -0.09)">
       <use transform="scale(0.996264)" xlink:href="#CMSY10-0"/>
       <use transform="translate(77.487468 0)scale(0.996264)" xlink:href="#CMR17-48"/>
       <use transform="translate(123.177945 0)scale(0.996264)" xlink:href="#CMMI12-58"/>
       <use transform="translate(150.275122 0)scale(0.996264)" xlink:href="#CMR17-50"/>
      </g>
     </g>
    </g>
    <g id="ytick_2">
     <g id="line2d_11">
      <path clip-path="url(#p44c45a2ae7)" d="M 40.727276 79.060782 
L 263.927276 79.060782 
" style="fill:none;stroke:#cccccc;stroke-dasharray:1,1.65;stroke-dashoffset:0;"/>
     </g>
     <g id="text_12">
      <!-- $-0.1$ -->
      <g style="fill:#262626;" transform="translate(18.284547 82.174107)scale(0.09 -0.09)">
       <use transform="scale(0.996264)" xlink:href="#CMSY10-0"/>
       <use transform="translate(77.487468 0)scale(0.996264)" xlink:href="#CMR17-48"/>
       <use transform="translate(123.177945 0)scale(0.996264)" xlink:href="#CMMI12-58"/>
       <use transform="translate(150.275122 0)scale(0.996264)" xlink:href="#CMR17-49"/>
      </g>
     </g>
    </g>
    <g id="ytick_3">
     <g id="line2d_12">
      <path clip-path="url(#p44c45a2ae7)" d="M 40.727276 60.580782 
L 263.927276 60.580782 
" style="fill:none;stroke:#cccccc;stroke-dasharray:1,1.65;stroke-dashoffset:0;"/>
     </g>
     <g id="text_13">
      <!-- $0.0$ -->
      <g style="fill:#262626;" transform="translate(25.452066 63.694107)scale(0.09 -0.09)">
       <use transform="scale(0.996264)" xlink:href="#CMR17-48"/>
       <use transform="translate(45.690477 0)scale(0.996264)" xlink:href="#CMMI12-58"/>
       <use transform="translate(72.787654 0)scale(0.996264)" xlink:href="#CMR17-48"/>
      </g>
     </g>
    </g>
    <g id="ytick_4">
     <g id="line2d_13">
      <path clip-path="url(#p44c45a2ae7)" d="M 40.727276 42.100782 
L 263.927276 42.100782 
" style="fill:none;stroke:#cccccc;stroke-dasharray:1,1.65;stroke-dashoffset:0;"/>
     </g>
     <g id="text_14">
      <!-- $0.1$ -->
      <g style="fill:#262626;" transform="translate(25.452066 45.214107)scale(0.09 -0.09)">
       <use transform="scale(0.996264)" xlink:href="#CMR17-48"/>
       <use transform="translate(45.690477 0)scale(0.996264)" xlink:href="#CMMI12-58"/>
       <use transform="translate(72.787654 0)scale(0.996264)" xlink:href="#CMR17-49"/>
      </g>
     </g>
    </g>
    <g id="ytick_5">
     <g id="line2d_14">
      <path clip-path="url(#p44c45a2ae7)" d="M 40.727276 23.620782 
L 263.927276 23.620782 
" style="fill:none;stroke:#cccccc;stroke-dasharray:1,1.65;stroke-dashoffset:0;"/>
     </g>
     <g id="text_15">
      <!-- $0.2$ -->
      <g style="fill:#262626;" transform="translate(25.452066 26.734107)scale(0.09 -0.09)">
       <use transform="scale(0.996264)" xlink:href="#CMR17-48"/>
       <use transform="translate(45.690477 0)scale(0.996264)" xlink:href="#CMMI12-58"/>
       <use transform="translate(72.787654 0)scale(0.996264)" xlink:href="#CMR17-50"/>
      </g>
     </g>
    </g>
    <g id="text_16">
     <!-- WEAT value -->
     <defs>
      <path d="M 87.203125 69 
L 79.59375 69 
L 71.203125 38.078125 
C 69.90625 33.09375 68.703125 28.140625 67.5 23.15625 
C 65.703125 15.796875 64.40625 10.640625 64.203125 8.046875 
L 64.09375 8.046875 
C 63.90625 10.734375 62.59375 16.390625 61 22.765625 
C 59.796875 28.046875 58.5 33.296875 57.09375 38.46875 
L 48.796875 69 
L 40.40625 69 
L 32.5 40.03125 
L 28.5 24.203125 
C 25.5 11.671875 25.40625 9.875 25.203125 7.890625 
L 25.09375 7.890625 
C 25.09375 8.484375 24.703125 11.765625 21.90625 23.40625 
C 20.5 29.1875 19.09375 35.0625 17.59375 40.640625 
L 9.90625 69 
L 1.296875 69 
L 20.296875 0 
L 28.59375 0 
L 36.5 28.734375 
L 40.5 44.546875 
C 43.203125 55.6875 43.796875 58.46875 44 60.953125 
L 44.09375 60.953125 
C 44.09375 60.5625 45 54.28125 48.90625 39.765625 
L 59.5 0 
L 68.203125 0 
z
" id="CMSS17-87"/>
      <path d="M 30.59375 6.765625 
C 22.59375 6.765625 19 6.765625 17.203125 6.765625 
L 17.203125 32.921875 
L 48.203125 32.921875 
L 48.203125 39 
L 17.203125 39 
L 17.203125 62.640625 
L 30.09375 62.640625 
C 31.296875 62.640625 32.5 62.640625 33.703125 62.640625 
L 50.796875 62.640625 
L 50.796875 69 
L 8.796875 69 
L 8.796875 0 
L 52.09375 0 
L 52.09375 6.765625 
z
" id="CMSS17-69"/>
      <path d="M 35.5 69 
L 26.90625 69 
L 2.59375 0 
L 10.203125 0 
L 17.203125 20 
L 44 20 
L 51.09375 0 
L 59.796875 0 
z
M 42.09375 25.578125 
L 19.09375 25.578125 
C 23.90625 39.5 29.90625 56.84375 30.59375 61.328125 
L 30.703125 61.328125 
C 31.40625 57.234375 33.40625 51.265625 35.09375 46.1875 
z
" id="CMSS17-65"/>
      <path d="M 36.203125 62 
L 44.5 62 
C 45.703125 62 46.90625 62 48.09375 62 
L 60.59375 62 
L 60.59375 68.375 
L 3.40625 68.375 
L 3.40625 62 
L 15.90625 62 
C 17.09375 62 18.296875 62 19.5 62 
L 27.796875 62 
L 27.796875 -0.5 
L 36.203125 -0.5 
z
" id="CMSS17-84"/>
      <path d="M 41.796875 43 
L 34 43 
L 27.296875 24.3125 
C 25.203125 18.203125 22.203125 9.796875 21.703125 5.5 
L 21.59375 5.5 
C 21.40625 7.3125 20.59375 9.90625 20.09375 11.703125 
C 19.5 13.90625 18.703125 16.5 18.09375 18.3125 
L 9.296875 43 
L 1.296875 43 
L 17.09375 0 
L 26 0 
z
" id="CMSS17-118"/>
      <path d="M 37.59375 27.984375 
C 37.59375 37.375 30.90625 43.875 21.90625 43.875 
C 17.5 43.875 12.703125 43.078125 7.203125 39.890625 
L 7.796875 33.359375 
C 10.296875 35.125 14.59375 38 21.796875 38 
C 26.90625 38 30 34.0625 30 27.84375 
L 30 24 
C 14 24 4 19.34375 4 11.34375 
C 4 7.203125 6.5 -1 14.796875 -1 
C 16.296875 -1 24.40625 -1 30.203125 3.390625 
L 30.203125 -0.296875 
L 37.59375 -0.296875 
z
M 30 12.75 
C 30 10.953125 30 8.5625 27 6.78125 
C 24.40625 5.078125 21.09375 5.078125 19.703125 5.078125 
C 14.703125 5.078125 11.296875 7.984375 11.296875 11.625 
C 11.296875 18.921875 26.90625 18.921875 30 18.921875 
z
" id="CMSS17-97"/>
      <path d="M 14.796875 69 
L 7.40625 69 
L 7.40625 0 
L 14.796875 0 
z
" id="CMSS17-108"/>
      <path d="M 40.90625 42.796875 
L 33.296875 42.796875 
L 33.296875 15.1875 
C 33.296875 7.78125 27.90625 4.78125 22.203125 4.78125 
C 15.59375 4.78125 15 6.984375 15 11.078125 
L 15 42.796875 
L 7.40625 42.796875 
L 7.40625 10.59375 
C 7.40625 2.796875 10.09375 -1 17 -1 
C 20.40625 -1 28.09375 -0.203125 33.5 4.78125 
L 33.5 0 
L 40.90625 0 
z
" id="CMSS17-117"/>
     </defs>
     <g style="fill:#262626;" transform="translate(12.734802 81.107533)rotate(-90)scale(0.08 -0.08)">
      <use transform="scale(0.996264)" xlink:href="#CMSS17-87"/>
      <use transform="translate(88.242166 0)scale(0.996264)" xlink:href="#CMSS17-69"/>
      <use transform="translate(144.134179 0)scale(0.996264)" xlink:href="#CMSS17-65"/>
      <use transform="translate(198.544779 0)scale(0.996264)" xlink:href="#CMSS17-84"/>
      <use transform="translate(293.593346 0)scale(0.996264)" xlink:href="#CMSS17-118"/>
      <use transform="translate(336.593487 0)scale(0.996264)" xlink:href="#CMSS17-97"/>
      <use transform="translate(381.515408 0)scale(0.996264)" xlink:href="#CMSS17-108"/>
      <use transform="translate(403.696131 0)scale(0.996264)" xlink:href="#CMSS17-117"/>
      <use transform="translate(451.901074 0)scale(0.996264)" xlink:href="#CMSS17-101"/>
     </g>
    </g>
   </g>
   <g id="PathCollection_1">
    <defs>
     <path d="M 0 1.118034 
C 0.296506 1.118034 0.580908 1.000231 0.790569 0.790569 
C 1.000231 0.580908 1.118034 0.296506 1.118034 0 
C 1.118034 -0.296506 1.000231 -0.580908 0.790569 -0.790569 
C 0.580908 -1.000231 0.296506 -1.118034 0 -1.118034 
C -0.296506 -1.118034 -0.580908 -1.000231 -0.790569 -0.790569 
C -1.000231 -0.580908 -1.118034 -0.296506 -1.118034 0 
C -1.118034 0.296506 -1.000231 0.580908 -0.790569 0.790569 
C -0.580908 1.000231 -0.296506 1.118034 0 1.118034 
z
" id="m36cb211849" style="stroke:#be6f00;"/>
    </defs>
    <g clip-path="url(#p44c45a2ae7)">
     <use style="fill:#be6f00;stroke:#be6f00;" x="218.691028" xlink:href="#m36cb211849" y="43.699895"/>
     <use style="fill:#be6f00;stroke:#be6f00;" x="227.07162" xlink:href="#m36cb211849" y="41.323479"/>
     <use style="fill:#be6f00;stroke:#be6f00;" x="207.710222" xlink:href="#m36cb211849" y="41.512031"/>
     <use style="fill:#be6f00;stroke:#be6f00;" x="202.832602" xlink:href="#m36cb211849" y="44.224605"/>
     <use style="fill:#be6f00;stroke:#be6f00;" x="152.299433" xlink:href="#m36cb211849" y="41.533964"/>
     <use style="fill:#be6f00;stroke:#be6f00;" x="196.423936" xlink:href="#m36cb211849" y="44.04622"/>
     <use style="fill:#be6f00;stroke:#be6f00;" x="222.566118" xlink:href="#m36cb211849" y="39.552227"/>
     <use style="fill:#be6f00;stroke:#be6f00;" x="189.913775" xlink:href="#m36cb211849" y="42.504103"/>
     <use style="fill:#be6f00;stroke:#be6f00;" x="226.813983" xlink:href="#m36cb211849" y="43.124846"/>
     <use style="fill:#be6f00;stroke:#be6f00;" x="226.187495" xlink:href="#m36cb211849" y="38.277418"/>
     <use style="fill:#be6f00;stroke:#be6f00;" x="216.308624" xlink:href="#m36cb211849" y="41.273398"/>
     <use style="fill:#be6f00;stroke:#be6f00;" x="213.71205" xlink:href="#m36cb211849" y="42.473594"/>
     <use style="fill:#be6f00;stroke:#be6f00;" x="230.844849" xlink:href="#m36cb211849" y="45.796837"/>
     <use style="fill:#be6f00;stroke:#be6f00;" x="191.344263" xlink:href="#m36cb211849" y="43.116165"/>
     <use style="fill:#be6f00;stroke:#be6f00;" x="218.689713" xlink:href="#m36cb211849" y="42.019586"/>
     <use style="fill:#be6f00;stroke:#be6f00;" x="219.912069" xlink:href="#m36cb211849" y="38.964714"/>
     <use style="fill:#be6f00;stroke:#be6f00;" x="224.160732" xlink:href="#m36cb211849" y="32.691075"/>
     <use style="fill:#be6f00;stroke:#be6f00;" x="223.002086" xlink:href="#m36cb211849" y="43.31922"/>
     <use style="fill:#be6f00;stroke:#be6f00;" x="178.848344" xlink:href="#m36cb211849" y="44.465462"/>
     <use style="fill:#be6f00;stroke:#be6f00;" x="194.00334" xlink:href="#m36cb211849" y="39.35609"/>
     <use style="fill:#be6f00;stroke:#be6f00;" x="193.079486" xlink:href="#m36cb211849" y="41.086958"/>
     <use style="fill:#be6f00;stroke:#be6f00;" x="212.188447" xlink:href="#m36cb211849" y="36.478439"/>
     <use style="fill:#be6f00;stroke:#be6f00;" x="221.409826" xlink:href="#m36cb211849" y="42.257942"/>
     <use style="fill:#be6f00;stroke:#be6f00;" x="208.284968" xlink:href="#m36cb211849" y="41.519443"/>
     <use style="fill:#be6f00;stroke:#be6f00;" x="197.536087" xlink:href="#m36cb211849" y="42.509915"/>
     <use style="fill:#be6f00;stroke:#be6f00;" x="232.951967" xlink:href="#m36cb211849" y="39.352561"/>
     <use style="fill:#be6f00;stroke:#be6f00;" x="225.192062" xlink:href="#m36cb211849" y="32.911591"/>
     <use style="fill:#be6f00;stroke:#be6f00;" x="215.975702" xlink:href="#m36cb211849" y="38.948975"/>
     <use style="fill:#be6f00;stroke:#be6f00;" x="180.966198" xlink:href="#m36cb211849" y="44.050309"/>
     <use style="fill:#be6f00;stroke:#be6f00;" x="187.902123" xlink:href="#m36cb211849" y="43.390701"/>
     <use style="fill:#be6f00;stroke:#be6f00;" x="202.891512" xlink:href="#m36cb211849" y="36.567235"/>
     <use style="fill:#be6f00;stroke:#be6f00;" x="135.510083" xlink:href="#m36cb211849" y="43.83253"/>
     <use style="fill:#be6f00;stroke:#be6f00;" x="145.252762" xlink:href="#m36cb211849" y="43.034899"/>
     <use style="fill:#be6f00;stroke:#be6f00;" x="184.133258" xlink:href="#m36cb211849" y="38.321076"/>
     <use style="fill:#be6f00;stroke:#be6f00;" x="147.295675" xlink:href="#m36cb211849" y="43.34706"/>
     <use style="fill:#be6f00;stroke:#be6f00;" x="183.929881" xlink:href="#m36cb211849" y="43.191118"/>
     <use style="fill:#be6f00;stroke:#be6f00;" x="196.90623" xlink:href="#m36cb211849" y="44.007965"/>
     <use style="fill:#be6f00;stroke:#be6f00;" x="245.124475" xlink:href="#m36cb211849" y="39.094679"/>
     <use style="fill:#be6f00;stroke:#be6f00;" x="197.093795" xlink:href="#m36cb211849" y="40.63861"/>
     <use style="fill:#be6f00;stroke:#be6f00;" x="210.701083" xlink:href="#m36cb211849" y="38.909186"/>
     <use style="fill:#be6f00;stroke:#be6f00;" x="190.876085" xlink:href="#m36cb211849" y="39.020477"/>
     <use style="fill:#be6f00;stroke:#be6f00;" x="191.132918" xlink:href="#m36cb211849" y="41.581824"/>
     <use style="fill:#be6f00;stroke:#be6f00;" x="186.20743" xlink:href="#m36cb211849" y="42.077704"/>
     <use style="fill:#be6f00;stroke:#be6f00;" x="238.156138" xlink:href="#m36cb211849" y="42.510362"/>
     <use style="fill:#be6f00;stroke:#be6f00;" x="178.870875" xlink:href="#m36cb211849" y="40.133996"/>
     <use style="fill:#be6f00;stroke:#be6f00;" x="192.816412" xlink:href="#m36cb211849" y="44.622515"/>
     <use style="fill:#be6f00;stroke:#be6f00;" x="166.649626" xlink:href="#m36cb211849" y="44.408221"/>
     <use style="fill:#be6f00;stroke:#be6f00;" x="207.434768" xlink:href="#m36cb211849" y="39.866014"/>
     <use style="fill:#be6f00;stroke:#be6f00;" x="189.948925" xlink:href="#m36cb211849" y="37.930067"/>
     <use style="fill:#be6f00;stroke:#be6f00;" x="250.963682" xlink:href="#m36cb211849" y="40.911043"/>
    </g>
   </g>
   <g id="PathCollection_2">
    <defs>
     <path d="M 0 1.118034 
C 0.296506 1.118034 0.580908 1.000231 0.790569 0.790569 
C 1.000231 0.580908 1.118034 0.296506 1.118034 0 
C 1.118034 -0.296506 1.000231 -0.580908 0.790569 -0.790569 
C 0.580908 -1.000231 0.296506 -1.118034 0 -1.118034 
C -0.296506 -1.118034 -0.580908 -1.000231 -0.790569 -0.790569 
C -1.000231 -0.580908 -1.118034 -0.296506 -1.118034 0 
C -1.118034 0.296506 -1.000231 0.580908 -0.790569 0.790569 
C -0.580908 1.000231 -0.296506 1.118034 0 1.118034 
z
" id="mc056f55e53" style="stroke:#00715e;"/>
    </defs>
    <g clip-path="url(#p44c45a2ae7)">
     <use style="fill:#00715e;stroke:#00715e;" x="99.2943" xlink:href="#mc056f55e53" y="78.322198"/>
     <use style="fill:#00715e;stroke:#00715e;" x="68.50497" xlink:href="#mc056f55e53" y="78.373211"/>
     <use style="fill:#00715e;stroke:#00715e;" x="88.628252" xlink:href="#mc056f55e53" y="79.425091"/>
     <use style="fill:#00715e;stroke:#00715e;" x="101.071608" xlink:href="#mc056f55e53" y="83.451349"/>
     <use style="fill:#00715e;stroke:#00715e;" x="106.769616" xlink:href="#mc056f55e53" y="81.527423"/>
     <use style="fill:#00715e;stroke:#00715e;" x="79.403008" xlink:href="#mc056f55e53" y="80.248832"/>
     <use style="fill:#00715e;stroke:#00715e;" x="54.790035" xlink:href="#mc056f55e53" y="82.318316"/>
     <use style="fill:#00715e;stroke:#00715e;" x="153.847242" xlink:href="#mc056f55e53" y="82.092513"/>
     <use style="fill:#00715e;stroke:#00715e;" x="117.275365" xlink:href="#mc056f55e53" y="81.947329"/>
     <use style="fill:#00715e;stroke:#00715e;" x="96.890136" xlink:href="#mc056f55e53" y="79.441134"/>
     <use style="fill:#00715e;stroke:#00715e;" x="92.808818" xlink:href="#mc056f55e53" y="82.331873"/>
     <use style="fill:#00715e;stroke:#00715e;" x="108.624609" xlink:href="#mc056f55e53" y="80.011645"/>
     <use style="fill:#00715e;stroke:#00715e;" x="87.448717" xlink:href="#mc056f55e53" y="81.984695"/>
     <use style="fill:#00715e;stroke:#00715e;" x="78.438893" xlink:href="#mc056f55e53" y="80.767929"/>
     <use style="fill:#00715e;stroke:#00715e;" x="85.36557" xlink:href="#mc056f55e53" y="78.553848"/>
     <use style="fill:#00715e;stroke:#00715e;" x="87.375626" xlink:href="#mc056f55e53" y="78.443387"/>
     <use style="fill:#00715e;stroke:#00715e;" x="117.875852" xlink:href="#mc056f55e53" y="81.774607"/>
     <use style="fill:#00715e;stroke:#00715e;" x="73.12844" xlink:href="#mc056f55e53" y="80.011476"/>
     <use style="fill:#00715e;stroke:#00715e;" x="106.220398" xlink:href="#mc056f55e53" y="78.268941"/>
     <use style="fill:#00715e;stroke:#00715e;" x="113.173758" xlink:href="#mc056f55e53" y="80.387974"/>
     <use style="fill:#00715e;stroke:#00715e;" x="81.020212" xlink:href="#mc056f55e53" y="80.8824"/>
     <use style="fill:#00715e;stroke:#00715e;" x="98.340935" xlink:href="#mc056f55e53" y="78.465608"/>
     <use style="fill:#00715e;stroke:#00715e;" x="190.290667" xlink:href="#mc056f55e53" y="78.315064"/>
     <use style="fill:#00715e;stroke:#00715e;" x="106.014674" xlink:href="#mc056f55e53" y="82.247856"/>
     <use style="fill:#00715e;stroke:#00715e;" x="112.313737" xlink:href="#mc056f55e53" y="82.256926"/>
     <use style="fill:#00715e;stroke:#00715e;" x="125.115136" xlink:href="#mc056f55e53" y="78.827527"/>
     <use style="fill:#00715e;stroke:#00715e;" x="104.479008" xlink:href="#mc056f55e53" y="84.548638"/>
     <use style="fill:#00715e;stroke:#00715e;" x="106.563147" xlink:href="#mc056f55e53" y="80.303834"/>
     <use style="fill:#00715e;stroke:#00715e;" x="107.918511" xlink:href="#mc056f55e53" y="80.517963"/>
     <use style="fill:#00715e;stroke:#00715e;" x="98.217689" xlink:href="#mc056f55e53" y="77.980708"/>
     <use style="fill:#00715e;stroke:#00715e;" x="54.618481" xlink:href="#mc056f55e53" y="81.691821"/>
     <use style="fill:#00715e;stroke:#00715e;" x="85.691646" xlink:href="#mc056f55e53" y="80.937318"/>
     <use style="fill:#00715e;stroke:#00715e;" x="112.409026" xlink:href="#mc056f55e53" y="79.300417"/>
     <use style="fill:#00715e;stroke:#00715e;" x="169.161094" xlink:href="#mc056f55e53" y="78.226633"/>
     <use style="fill:#00715e;stroke:#00715e;" x="88.020223" xlink:href="#mc056f55e53" y="84.008756"/>
     <use style="fill:#00715e;stroke:#00715e;" x="65.714637" xlink:href="#mc056f55e53" y="84.816607"/>
     <use style="fill:#00715e;stroke:#00715e;" x="93.749501" xlink:href="#mc056f55e53" y="78.11767"/>
     <use style="fill:#00715e;stroke:#00715e;" x="169.00157" xlink:href="#mc056f55e53" y="79.119569"/>
     <use style="fill:#00715e;stroke:#00715e;" x="94.066815" xlink:href="#mc056f55e53" y="78.800899"/>
     <use style="fill:#00715e;stroke:#00715e;" x="95.885655" xlink:href="#mc056f55e53" y="79.680649"/>
     <use style="fill:#00715e;stroke:#00715e;" x="93.777718" xlink:href="#mc056f55e53" y="78.244728"/>
     <use style="fill:#00715e;stroke:#00715e;" x="90.581636" xlink:href="#mc056f55e53" y="80.576436"/>
     <use style="fill:#00715e;stroke:#00715e;" x="53.169209" xlink:href="#mc056f55e53" y="80.127554"/>
     <use style="fill:#00715e;stroke:#00715e;" x="100.8077" xlink:href="#mc056f55e53" y="80.794079"/>
     <use style="fill:#00715e;stroke:#00715e;" x="120.323381" xlink:href="#mc056f55e53" y="83.004178"/>
     <use style="fill:#00715e;stroke:#00715e;" x="94.826207" xlink:href="#mc056f55e53" y="81.526024"/>
     <use style="fill:#00715e;stroke:#00715e;" x="165.115962" xlink:href="#mc056f55e53" y="81.409958"/>
     <use style="fill:#00715e;stroke:#00715e;" x="79.573239" xlink:href="#mc056f55e53" y="80.738028"/>
     <use style="fill:#00715e;stroke:#00715e;" x="136.641413" xlink:href="#mc056f55e53" y="83.036102"/>
     <use style="fill:#00715e;stroke:#00715e;" x="79.261679" xlink:href="#mc056f55e53" y="79.19574"/>
    </g>
   </g>
   <g id="r = 0.887">
    <path clip-path="url(#p44c45a2ae7)" d="M 53.169209 91.409112 
L 54.618481 90.960776 
L 54.790035 90.907705 
L 65.714637 87.528157 
L 68.50497 86.664962 
L 73.12844 85.234681 
L 78.438893 83.591882 
L 79.261679 83.337351 
L 79.403008 83.293631 
L 79.573239 83.240969 
L 81.020212 82.793345 
L 85.36557 81.4491 
L 85.691646 81.348228 
L 87.375626 80.827285 
L 87.448717 80.804674 
L 88.020223 80.627877 
L 88.628252 80.439782 
L 90.581636 79.835499 
L 92.808818 79.146516 
L 93.749501 78.855513 
L 93.777718 78.846784 
L 94.066815 78.757352 
L 94.826207 78.522432 
L 95.885655 78.19469 
L 96.890136 77.883951 
L 98.217689 77.47327 
L 98.340935 77.435144 
L 99.2943 77.140218 
L 100.8077 76.672045 
L 101.071608 76.590404 
L 104.479008 75.536318 
L 106.014674 75.061256 
L 106.220398 74.997615 
L 106.563147 74.891585 
L 106.769616 74.827713 
L 107.918511 74.4723 
L 108.624609 74.253867 
L 112.313737 73.112628 
L 112.409026 73.08315 
L 113.173758 72.846579 
L 117.275365 71.577738 
L 117.875852 71.391976 
L 120.323381 70.634828 
L 125.115136 69.152488 
L 135.510083 65.93679 
L 136.641413 65.586811 
L 145.252762 62.922872 
L 147.295675 62.290892 
L 152.299433 60.742969 
L 153.847242 60.264151 
L 165.115962 56.778149 
L 166.649626 56.303707 
L 169.00157 55.576128 
L 169.161094 55.526779 
L 178.848344 52.530008 
L 178.870875 52.523038 
L 180.966198 51.874846 
L 183.929881 50.958024 
L 184.133258 50.895109 
L 186.20743 50.253459 
L 187.902123 49.729203 
L 189.913775 49.106894 
L 189.948925 49.09602 
L 190.290667 48.990302 
L 190.876085 48.809201 
L 191.132918 48.72975 
L 191.344263 48.664369 
L 192.816412 48.208957 
L 193.079486 48.127575 
L 194.00334 47.841778 
L 196.423936 47.092962 
L 196.90623 46.943764 
L 197.093795 46.88574 
L 197.536087 46.748916 
L 202.832602 45.110428 
L 202.891512 45.092204 
L 207.434768 43.686738 
L 207.710222 43.601526 
L 208.284968 43.423727 
L 210.701083 42.676297 
L 212.188447 42.216178 
L 213.71205 41.744848 
L 215.975702 41.044582 
L 216.308624 40.941592 
L 218.689713 40.204997 
L 218.691028 40.204591 
L 219.912069 39.826859 
L 221.409826 39.363525 
L 222.566118 39.005823 
L 223.002086 38.870956 
L 224.160732 38.512526 
L 225.192062 38.193482 
L 226.187495 37.885543 
L 226.813983 37.691738 
L 227.07162 37.612037 
L 230.844849 36.444781 
L 232.951967 35.792939 
L 238.156138 34.183018 
L 245.124475 32.027348 
L 250.963682 30.220978 
" style="fill:none;stroke:#004e8a;stroke-linecap:round;stroke-width:1.5;"/>
   </g>
   <g id="patch_3">
    <path d="M 40.727276 97.540782 
L 40.727276 19.924782 
" style="fill:none;stroke:#262626;stroke-linecap:square;stroke-linejoin:miter;stroke-width:1.25;"/>
   </g>
   <g id="patch_4">
    <path d="M 263.927276 97.540782 
L 263.927276 19.924782 
" style="fill:none;stroke:#262626;stroke-linecap:square;stroke-linejoin:miter;stroke-width:1.25;"/>
   </g>
   <g id="patch_5">
    <path d="M 40.727276 97.540782 
L 263.927276 97.540782 
" style="fill:none;stroke:#262626;stroke-linecap:square;stroke-linejoin:miter;stroke-width:1.25;"/>
   </g>
   <g id="patch_6">
    <path d="M 40.727276 19.924782 
L 263.927276 19.924782 
" style="fill:none;stroke:#262626;stroke-linecap:square;stroke-linejoin:miter;stroke-width:1.25;"/>
   </g>
   <g id="text_17">
    <!-- r = 0.89*** -->
    <defs>
     <path d="M 64.796875 31.515625 
C 66.296875 31.515625 67.796875 31.515625 67.796875 33.203125 
C 67.796875 35 66.09375 35 64.40625 35 
L 8.59375 35 
C 6.90625 35 5.203125 35 5.203125 33.203125 
C 5.203125 31.515625 6.703125 31.515625 8.203125 31.515625 
z
M 64.40625 14 
C 66.09375 14 67.796875 14 67.796875 15.796875 
C 67.796875 17.484375 66.296875 17.484375 64.796875 17.484375 
L 8.203125 17.484375 
C 6.703125 17.484375 5.203125 17.484375 5.203125 15.796875 
C 5.203125 14 6.90625 14 8.59375 14 
z
" id="CMSS17-61"/>
     <path d="M 43.09375 31.9375 
C 43.09375 37.578125 43 48.078125 38.90625 56.1875 
C 34.796875 64 28.203125 66.078125 23.5 66.078125 
C 16.703125 66.078125 10.90625 62.109375 7.90625 55.78125 
C 4.703125 49.15625 3.796875 42.328125 3.796875 31.9375 
C 3.796875 24.828125 4.09375 16.109375 7.703125 8.484375 
C 11.796875 0.078125 18.703125 -2 23.40625 -2 
C 29.59375 -2 35.59375 1.265625 39 8.09375 
C 42.5 15.21875 43.09375 23.03125 43.09375 31.9375 
z
M 23.40625 4.078125 
C 15.796875 4.078125 13.5 12.671875 12.796875 15.546875 
C 11.59375 20.46875 11.40625 25.21875 11.40625 33.03125 
C 11.40625 39.15625 11.40625 46.0625 13.296875 51.515625 
C 15.59375 57.828125 19.59375 60 23.40625 60 
C 30.796875 60 33.203125 52.6875 34 50.125 
C 35.5 44.890625 35.5 38.765625 35.5 33.03125 
C 35.5 23.84375 35.5 4.078125 23.40625 4.078125 
z
" id="CMSS17-48"/>
     <path d="M 17 7.96875 
L 9 7.96875 
L 9 0 
L 17 0 
z
" id="CMSS17-46"/>
     <path d="M 30.203125 34.71875 
C 37.796875 37.1875 41.703125 43.125 41.703125 48.96875 
C 41.703125 58.15625 33.703125 66.078125 23.5 66.078125 
C 12.90625 66.078125 5.203125 57.9375 5.203125 49.125 
C 5.203125 43.4375 9 37.546875 16.703125 35.015625 
C 6.90625 31.203125 3.90625 23.625 3.90625 17.953125 
C 3.90625 6.96875 12.796875 -2 23.40625 -2 
C 34.40625 -2 43 7.109375 43 17.78125 
C 43 24.328125 39.09375 31.25 30.203125 34.71875 
z
M 23.5 38 
C 16.796875 38 12.296875 42.375 12.296875 49 
C 12.296875 55.71875 16.796875 60 23.5 60 
C 29.703125 60 34.59375 56.109375 34.59375 49 
C 34.59375 41.984375 29.796875 38 23.5 38 
z
M 23.5 4.171875 
C 17.796875 4.171875 11.703125 8.078125 11.703125 18.0625 
C 11.703125 28.328125 18.5 31.921875 23.40625 31.921875 
C 28.796875 31.921875 35.203125 28.125 35.203125 18.0625 
C 35.203125 7.671875 28.59375 4.171875 23.5 4.171875 
z
" id="CMSS17-56"/>
     <path d="M 6.796875 2.71875 
C 9.59375 0.328125 13.203125 -2 19.296875 -2 
C 31.40625 -2 43 11.265625 43 32.734375 
C 43 61.4375 30.5 66.078125 23.796875 66.078125 
C 17.09375 66.078125 12.796875 63.140625 9.09375 58.453125 
C 4.703125 53.078125 3.90625 48.28125 3.90625 42.703125 
C 3.90625 36.046875 5.09375 31.953125 7.90625 27.265625 
C 11.703125 21.203125 15.203125 19.921875 19.09375 19.921875 
C 25 19.921875 30.90625 22.796875 34.90625 27.75 
C 34.203125 14.09375 28.09375 4.171875 19.296875 4.171875 
C 15.703125 4.171875 12.796875 5.296875 9.90625 8.0625 
z
M 34.59375 42.90625 
C 34.703125 42.234375 34.703125 40.96875 34.703125 40.5625 
C 34.703125 32.40625 29.90625 26 22.90625 26 
C 18.296875 26 15.90625 28.328125 14.09375 31.34375 
C 11.90625 35.140625 11.796875 38.828125 11.796875 42.703125 
C 11.796875 46.5 11.796875 50.6875 14.59375 54.859375 
C 16.703125 57.859375 19.296875 60 23.796875 60 
C 33 60 34.5 46.875 34.59375 42.90625 
z
" id="CMSS17-57"/>
     <path d="M 26 48.765625 
L 35.203125 42.09375 
C 36.40625 41.203125 36.703125 41 37.59375 41 
C 39.203125 41 41 42.5 41 44.484375 
C 41 46.375 39.59375 47.171875 38.796875 47.5625 
L 28.09375 53.34375 
L 38.90625 59.109375 
C 40.09375 59.8125 41 60.8125 41 62.203125 
C 41 64.1875 39.203125 65.6875 37.59375 65.6875 
C 36.703125 65.6875 36 65.28125 35.203125 64.6875 
L 26 57.921875 
L 26.796875 71.40625 
C 26.796875 73.703125 25.09375 74.8125 23.40625 74.8125 
C 22 74.8125 20.09375 73.8125 20.09375 71.40625 
L 20.90625 57.921875 
L 11.703125 64.59375 
C 10.5 65.484375 10.203125 65.6875 9.296875 65.6875 
C 7.703125 65.6875 5.90625 64.1875 5.90625 62.203125 
C 5.90625 60.3125 7.296875 59.515625 8.09375 59.109375 
L 18.796875 53.34375 
L 8 47.5625 
C 6.796875 46.875 5.90625 45.875 5.90625 44.484375 
C 5.90625 42.5 7.703125 41 9.296875 41 
C 10.203125 41 10.90625 41.390625 11.703125 42 
L 20.90625 48.765625 
L 20.09375 35.375 
C 20.09375 33.09375 21.796875 32 23.5 32 
C 24.90625 32 26.796875 32.984375 26.796875 35.359375 
L 26.703125 36.25 
z
" id="CMSS17-42"/>
    </defs>
    <g style="fill:#004e8a;" transform="translate(142.283276 32.860782)scale(0.08 -0.08)">
     <use transform="scale(0.996264)" xlink:href="#CMSS17-114"/>
     <use transform="translate(63.138885 0)scale(0.996264)" xlink:href="#CMSS17-61"/>
     <use transform="translate(167.235933 0)scale(0.996264)" xlink:href="#CMSS17-48"/>
     <use transform="translate(214.079556 0)scale(0.996264)" xlink:href="#CMSS17-46"/>
     <use transform="translate(240.103761 0)scale(0.996264)" xlink:href="#CMSS17-56"/>
     <use transform="translate(286.947385 0)scale(0.996264)" xlink:href="#CMSS17-57"/>
     <use transform="translate(333.791008 0)scale(0.996264)" xlink:href="#CMSS17-42"/>
     <use transform="translate(380.634632 0)scale(0.996264)" xlink:href="#CMSS17-42"/>
     <use transform="translate(427.478255 0)scale(0.996264)" xlink:href="#CMSS17-42"/>
    </g>
   </g>
   <g id="text_18">
    <!-- \textbf{BERT (Moral Compass QT)} -->
    <defs>
     <path d="M 13.90625 70 
C 10.296875 70 9.09375 68.90625 9.09375 65.203125 
L 9.09375 5.40625 
C 9.09375 1.8125 10.203125 0.609375 13.90625 0.609375 
L 41.296875 0.609375 
C 48.703125 0.609375 67.09375 0.609375 67.09375 19.203125 
C 67.09375 33.6875 53.203125 35.9375 49.5 36.5625 
C 58.703125 38.671875 64 43.9375 64 51.8125 
C 64 70 42.703125 70 38.5 70 
z
M 23.203125 40 
L 23.203125 61.109375 
L 34.90625 61.109375 
C 38.796875 61.109375 50.40625 61.109375 50.40625 51.5625 
C 50.40625 40 37.296875 40 34.796875 40 
z
M 23.203125 9 
L 23.203125 32.71875 
L 35.796875 32.71875 
C 39.296875 32.71875 53.203125 32.71875 53.203125 19.546875 
C 53.203125 9 42.5 9 37.703125 9 
z
" id="CMSSBX10-66"/>
     <path d="M 23.796875 31.5 
L 50.09375 31.5 
C 53.203125 31.5 54.90625 32.21875 54.90625 36.25 
C 54.90625 40 53.59375 41 50.09375 41 
L 23.796875 41 
L 23.796875 59.59375 
L 28.703125 59.59375 
C 36.5 59.59375 44.40625 59.59375 52.203125 59.59375 
C 55.703125 59.59375 58 59.59375 58 64.40625 
L 58 65.203125 
C 58 68.390625 57.296875 70 53.203125 70 
L 13.90625 70 
C 10.296875 70 9.09375 68.890625 9.09375 65.15625 
L 9.09375 4.9375 
C 9.09375 1.3125 10.203125 0.09375 13.90625 0.09375 
L 54.703125 0.09375 
C 58.5 0.09375 59.5 1.375 59.5 4.84375 
L 59.5 6.25 
C 59.5 11 57.203125 11 53.90625 11 
C 48.703125 11 43.59375 11 38.40625 11 
C 35.90625 11 25.59375 11 23.796875 11 
z
" id="CMSSBX10-69"/>
     <path d="M 48.296875 32.171875 
C 54.59375 33.6875 64.09375 37.53125 64.09375 50.078125 
C 64.09375 70 42.40625 70 37.90625 70 
L 13.90625 70 
C 10.296875 70 9.09375 68.890625 9.09375 65.15625 
L 9.09375 4.65625 
C 9.09375 1.03125 10.203125 -0.1875 13.90625 -0.1875 
L 18.703125 -0.1875 
C 22.5 -0.1875 23.5 1.109375 23.5 4.625 
L 23.5 31 
L 34.59375 31 
L 51 2.21875 
C 52.40625 -0.1875 53.5 -0.1875 55.703125 -0.1875 
L 61.59375 -0.1875 
C 63.59375 -0.1875 65.296875 -0.1875 65.296875 2.828125 
z
M 23.5 38.28125 
L 23.5 61.3125 
L 36.5 61.3125 
C 48.09375 61.3125 50.203125 56.609375 50.203125 49.859375 
C 50.203125 43.8125 48.796875 38.28125 36.5 38.28125 
z
" id="CMSSBX10-82"/>
     <path d="M 29.296875 59 
L 29.296875 4.8125 
C 29.296875 1.21875 30.40625 0 34.09375 0 
L 39.203125 0 
C 43 0 44 1.3125 44 4.8125 
L 44 59 
C 48.40625 59 59.59375 59 64 59 
C 66.796875 59 69.203125 59 69.203125 63.796875 
L 69.203125 64.609375 
C 69.203125 67.8125 68.5 69.421875 64.40625 69.421875 
L 8.796875 69.421875 
C 5.203125 69.421875 4 68.3125 4 64.609375 
L 4 63.796875 
C 4 59 6.40625 59 9.203125 59 
z
" id="CMSSBX10-84"/>
     <path d="M 32.09375 76 
C 30.296875 76 30.09375 76 28.296875 74.375 
C 16.296875 64.171875 8.59375 46.90625 8.59375 25.5 
C 8.59375 13.265625 11.09375 -7.828125 27.796875 -23.078125 
C 29.90625 -25 30.09375 -25 32.09375 -25 
L 33.90625 -25 
C 35.5 -25 36.59375 -25 36.59375 -23.6875 
C 36.59375 -23.375 36.59375 -23.171875 35.40625 -21.859375 
C 29.09375 -14.078125 22.203125 -1.671875 22.203125 25.5 
C 22.203125 55.1875 30.5 66.890625 36 73.5625 
C 36.40625 74.078125 36.59375 74.28125 36.59375 74.671875 
C 36.59375 76 35.5 76 33.90625 76 
z
" id="CMSSBX10-40"/>
     <path d="M 55.5 32.90625 
C 53.40625 27.75 49.703125 18.453125 48.90625 14.921875 
L 48.796875 14.921875 
C 47.90625 18.546875 43.796875 28.5625 41.703125 33.921875 
L 28.90625 65.859375 
C 27.203125 70 24 70 22.203125 70 
L 13.90625 70 
C 10.296875 70 9.09375 68.890625 9.09375 65.15625 
L 9.09375 4.71875 
C 9.09375 1.09375 10.203125 -0.125 13.90625 -0.125 
L 16.59375 -0.125 
C 20.40625 -0.125 21.40625 1.1875 21.40625 4.71875 
L 21.40625 56.96875 
L 21.5 56.96875 
C 22.59375 52.421875 27.09375 41.203125 29.5 35.25 
L 41.09375 6.4375 
C 42.90625 2.09375 45.296875 2.09375 48.703125 2.09375 
C 52.09375 2.09375 54.5 2.09375 56.296875 6.4375 
L 69.09375 38.171875 
C 70.09375 40.59375 75.5 54.34375 76.203125 56.96875 
L 76.296875 56.96875 
L 76.296875 4.71875 
C 76.296875 1.484375 77 -0.125 81.09375 -0.125 
L 83.796875 -0.125 
C 87.59375 -0.125 88.59375 1.1875 88.59375 4.71875 
L 88.59375 65.15625 
C 88.59375 68.390625 87.90625 70 83.796875 70 
L 75.40625 70 
C 72.90625 70 70.40625 69.796875 68.703125 65.65625 
z
" id="CMSSBX10-77"/>
     <path d="M 51.796875 22.796875 
C 51.796875 39.328125 43.796875 48 27.5 48 
C 10.796875 48 3.09375 39.015625 3.09375 22.796875 
C 3.09375 6.359375 11.703125 -1 27.40625 -1 
C 43.09375 -1 51.796875 6.265625 51.796875 22.796875 
z
M 27.5 6.875 
C 16.703125 6.875 16.703125 15.9375 16.703125 24 
C 16.703125 31.765625 16.703125 40.71875 27.40625 40.71875 
C 38.203125 40.71875 38.203125 31.859375 38.203125 24 
C 38.203125 16.046875 38.203125 6.875 27.5 6.875 
z
" id="CMSSBX10-111"/>
     <path d="M 19.40625 23.375 
C 19.40625 33.046875 27.296875 37 33.59375 37 
C 35.40625 37 35.59375 37 35.59375 39.921875 
L 35.59375 44.6875 
C 35.59375 46.703125 35.59375 47.40625 33.796875 47.40625 
C 31 47.40625 23.703125 46.40625 19 35.484375 
L 18.90625 35.484375 
L 18.90625 42.03125 
C 18.90625 45.265625 18.203125 46.890625 14.09375 46.890625 
L 10.90625 46.890625 
C 7.296875 46.890625 6.09375 45.78125 6.09375 42.03125 
L 6.09375 4.84375 
C 6.09375 1.21875 7.203125 0 10.90625 0 
L 14.59375 0 
C 18.40625 0 19.40625 1.3125 19.40625 4.875 
z
" id="CMSSBX10-114"/>
     <path d="M 46.40625 32.03125 
C 46.40625 48 31.203125 48 26.203125 48 
C 21.5 48 16.5 47.59375 9.796875 44.8125 
C 7.703125 43.921875 7.203125 43.625 7.203125 42.53125 
C 7.203125 41.828125 7.796875 35.9375 7.90625 35.125 
C 8 34.515625 8.5 34.015625 9.203125 34.015625 
C 9.703125 34.015625 10 34.3125 10.296875 34.625 
C 14.59375 39.1875 19.59375 41.421875 25.796875 41.421875 
C 31.203125 41.421875 32.796875 38.046875 32.796875 32.015625 
L 32.796875 28.4375 
C 29.296875 28.4375 3.09375 28.4375 3.09375 13.5625 
C 3.09375 6.484375 8.703125 -1 17.5 -1 
C 20.90625 -1 28.40625 0.015625 33.09375 6.984375 
L 33.09375 4.953125 
C 33.09375 1.71875 33.796875 0.109375 37.90625 0.109375 
L 41.59375 0.109375 
C 45.40625 0.109375 46.40625 1.421875 46.40625 4.953125 
z
M 32.796875 15.4375 
C 32.796875 6.28125 23.296875 6.28125 23 6.28125 
C 18.796875 6.28125 16.09375 9.984375 16.09375 13.890625 
C 16.09375 24 30 24 32.796875 24 
z
" id="CMSSBX10-97"/>
     <path d="M 19.40625 65.15625 
C 19.40625 68.390625 18.703125 70 14.59375 70 
L 10.90625 70 
C 7.296875 70 6.09375 68.890625 6.09375 65.15625 
L 6.09375 4.71875 
C 6.09375 1.09375 7.203125 -0.125 10.90625 -0.125 
L 14.59375 -0.125 
C 18.40625 -0.125 19.40625 1.1875 19.40625 4.71875 
z
" id="CMSSBX10-108"/>
     <path d="M 64 14.453125 
C 64 15.265625 63.296875 15.65625 62.90625 15.65625 
C 60.5 15.65625 57.59375 9.109375 43.5 9.109375 
C 25.90625 9.109375 20.90625 20 20.90625 35.109375 
C 20.90625 50.109375 26.296875 61 42.703125 61 
C 51.59375 61 56.296875 57.46875 59 55.25 
C 59.59375 54.75 59.90625 54.34375 60.59375 54.34375 
C 61 54.34375 61.5 54.84375 61.59375 55.25 
L 63.59375 66.453125 
C 63.703125 66.859375 63.59375 67.265625 62.796875 67.5625 
C 56.90625 69.78125 50.796875 71.203125 43 71.203125 
C 18.59375 71.203125 6.09375 59.203125 6.09375 35.203125 
C 6.09375 10.5 18.796875 -1 43.09375 -1 
C 51.59375 -1 56.90625 0.21875 64.203125 4.765625 
C 65 5.265625 64.796875 5.984375 64.796875 5.984375 
z
" id="CMSSBX10-67"/>
     <path d="M 80.59375 32.75 
C 80.59375 43.140625 76.203125 47.265625 66 47.265625 
C 58.90625 47.265625 53.40625 43.9375 49.796875 37.28125 
C 48.203125 47.0625 39.703125 47.0625 35.5 47.0625 
C 33.59375 47.0625 29.40625 47.0625 24.90625 43.796875 
C 21.796875 41.53125 19.796875 38.359375 19.09375 36.875 
L 19 36.875 
L 19 41.984375 
C 19 45.25 18.296875 46.890625 14.203125 46.890625 
L 10.796875 46.890625 
C 7.203125 46.890625 6 45.78125 6 42.03125 
L 6 4.84375 
C 6 1.21875 7.09375 0 10.796875 0 
L 14.796875 0 
C 18.59375 0 19.59375 1.3125 19.59375 4.828125 
L 19.59375 27.109375 
C 19.59375 36.171875 25.703125 40 30.59375 40 
C 35.40625 40 36.5 37.875 36.5 32.53125 
L 36.5 4.828125 
C 36.5 1.21875 37.59375 0 41.296875 0 
L 45.296875 0 
C 49.09375 0 50.09375 1.3125 50.09375 4.828125 
L 50.09375 27.109375 
C 50.09375 36.171875 56.203125 40 61.09375 40 
C 65.90625 40 67 37.875 67 32.53125 
L 67 4.828125 
C 67 1.21875 68.09375 0 71.796875 0 
L 75.796875 0 
C 79.59375 0 80.59375 1.3125 80.59375 4.828125 
z
" id="CMSSBX10-109"/>
     <path d="M 19.703125 3.78125 
C 24.203125 -1.28125 29.703125 -1.28125 31.09375 -1.28125 
C 52.296875 -1.28125 52.296875 18.03125 52.296875 23.0625 
C 52.296875 27.984375 52.296875 47 34.203125 47 
C 28.296875 47 23 44.578125 19.40625 41.140625 
C 19.40625 44.875 18 45.890625 14.59375 45.890625 
L 10.90625 45.890625 
C 7.296875 45.890625 6.09375 44.78125 6.09375 41.046875 
L 6.09375 -15.140625 
C 6.09375 -18.78125 7.203125 -20 10.90625 -20 
L 14.90625 -20 
C 18.703125 -20 19.703125 -18.671875 19.703125 -15.09375 
z
M 19.703125 35.8125 
C 20.796875 36.8125 24.09375 39.125 28.40625 39.125 
C 38.59375 39.125 38.703125 27.28125 38.703125 22.859375 
C 38.703125 18.84375 38.703125 6 27.40625 6 
C 25.09375 6 23.296875 6.796875 22.09375 7.6875 
C 19.703125 9.40625 19.703125 9.90625 19.703125 11.71875 
z
" id="CMSSBX10-112"/>
     <path d="M 39.59375 14.09375 
C 39.59375 19.796875 36.59375 23.375 34.796875 25 
C 30.796875 28.6875 27.296875 29.296875 23.09375 30.109375 
C 17.59375 31.125 13.59375 31.953125 13.59375 35.921875 
C 13.59375 40.09375 16.90625 40.921875 20.796875 40.921875 
C 27.5 40.921875 31.09375 38.375 33.703125 36.140625 
C 34.703125 35.125 34.90625 35.125 35.296875 35.125 
C 36.296875 35.125 36.5 36.03125 36.59375 36.4375 
C 36.796875 37.25 37.796875 42.921875 37.796875 43.421875 
C 37.796875 45.0625 32.5 46.484375 31.40625 46.875 
C 27.40625 48 24.203125 48 21.59375 48 
C 17.09375 48 3.703125 48 3.703125 33.515625 
C 3.703125 28.546875 5.90625 25.515625 8.59375 23.078125 
C 12.09375 19.84375 16 19.140625 21.703125 18.03125 
C 24.59375 17.515625 29.703125 16.59375 29.703125 12.15625 
C 29.703125 7.390625 25.796875 6.671875 21.90625 6.671875 
C 17.5 6.671875 11.90625 8 7.203125 13.703125 
C 6.703125 14.203125 6.40625 14.5 5.796875 14.5 
C 4.796875 14.5 4.59375 13.609375 4.5 13 
C 4.296875 11.609375 3.09375 5.90625 3.09375 4.890625 
C 3.09375 3.09375 10.5 0.796875 10.59375 0.703125 
C 16.09375 -1 20.203125 -1 21.90625 -1 
C 27 -1 39.59375 -1 39.59375 14.09375 
z
" id="CMSSBX10-115"/>
     <path d="M 64.203125 -10.5 
C 65.5 -10.5 67.796875 -10.5 67.796875 -8.28125 
C 67.796875 -7.484375 67.59375 -7.28125 66.296875 -5.453125 
L 59.796875 3.046875 
C 72.5 10.859375 73.203125 27.609375 73.203125 34.921875 
C 73.203125 55.328125 65.90625 72.890625 39.703125 72.890625 
C 12 72.890625 6.09375 53.5 6.09375 34.9375 
C 6.09375 15.953125 12.59375 -2 39.59375 -2 
C 41.296875 -2 43.59375 -2 46.796875 -1.5 
C 48 -3.3125 49.203125 -5.140625 50.5 -6.953125 
C 52.59375 -10.1875 52.90625 -10.5 56.203125 -10.5 
z
M 38.203125 19.90625 
C 36.796875 19.90625 34.59375 19.90625 34.59375 17.5625 
C 34.59375 16.453125 37.796875 11.875 39.59375 9.328125 
C 39.90625 8.828125 41.59375 6.390625 41.59375 6.078125 
C 41.59375 5.875 40 5.875 39.59375 5.875 
C 20.5 5.875 20.5 26 20.5 35.03125 
C 20.5 43.96875 20.5 65 39.59375 65 
C 58.796875 65 58.796875 44.078125 58.796875 35.03125 
C 58.796875 28.640625 58.796875 18.0625 53.203125 11.5625 
L 47.703125 18.796875 
C 46.703125 19.90625 46.296875 19.90625 44.296875 19.90625 
z
" id="CMSSBX10-81"/>
     <path d="M 8.796875 76 
C 7.203125 76 6.09375 76 6.09375 74.6875 
C 6.09375 74.390625 6.09375 74.1875 7.296875 72.875 
C 13.5 65.09375 20.5 52.6875 20.5 25.5 
C 20.5 -4.09375 12.203125 -15.796875 6.703125 -22.578125 
C 6.09375 -23.28125 6.09375 -23.484375 6.09375 -23.6875 
C 6.09375 -25 7.203125 -25 8.796875 -25 
L 10.59375 -25 
C 12.40625 -25 12.59375 -25 14.40625 -23.375 
C 26.40625 -13.171875 34.09375 4.09375 34.09375 25.5 
C 34.09375 37.703125 31.59375 58.828125 14.90625 74.078125 
C 12.796875 76 12.59375 76 10.59375 76 
z
" id="CMSSBX10-41"/>
    </defs>
    <g style="fill:#262626;" transform="translate(94.075437 13.924782)scale(0.09 -0.09)">
     <use transform="scale(0.996264)" xlink:href="#CMSSBX10-66"/>
     <use transform="translate(73.059766 0)scale(0.996264)" xlink:href="#CMSSBX10-69"/>
     <use transform="translate(136.987061 0)scale(0.996264)" xlink:href="#CMSSBX10-82"/>
     <use transform="translate(207.002671 0)scale(0.996264)" xlink:href="#CMSSBX10-84"/>
     <use transform="translate(316.59232 0)scale(0.996264)" xlink:href="#CMSSBX10-40"/>
     <use transform="translate(359.210517 0)scale(0.996264)" xlink:href="#CMSSBX10-77"/>
     <use transform="translate(456.623538 0)scale(0.996264)" xlink:href="#CMSSBX10-111"/>
     <use transform="translate(508.374206 0)scale(0.996264)" xlink:href="#CMSSBX10-114"/>
     <use transform="translate(545.457616 0)scale(0.996264)" xlink:href="#CMSSBX10-97"/>
     <use transform="translate(597.761811 0)scale(0.996264)" xlink:href="#CMSSBX10-108"/>
     <use transform="translate(659.751913 0)scale(0.996264)" xlink:href="#CMSSBX10-67"/>
     <use transform="translate(729.767522 0)scale(0.996264)" xlink:href="#CMSSBX10-111"/>
     <use transform="translate(784.562347 0)scale(0.996264)" xlink:href="#CMSSBX10-109"/>
     <use transform="translate(870.905704 0)scale(0.996264)" xlink:href="#CMSSBX10-112"/>
     <use transform="translate(926.807492 0)scale(0.996264)" xlink:href="#CMSSBX10-97"/>
     <use transform="translate(979.111687 0)scale(0.996264)" xlink:href="#CMSSBX10-115"/>
     <use transform="translate(1021.121052 0)scale(0.996264)" xlink:href="#CMSSBX10-115"/>
     <use transform="translate(1099.660301 0)scale(0.996264)" xlink:href="#CMSSBX10-81"/>
     <use transform="translate(1178.808381 0)scale(0.996264)" xlink:href="#CMSSBX10-84"/>
     <use transform="translate(1251.868147 0)scale(0.996264)" xlink:href="#CMSSBX10-41"/>
    </g>
   </g>
  </g>
 </g>
 <defs>
  <clipPath id="p44c45a2ae7">
   <rect height="77.616" width="223.2" x="40.727276" y="19.924782"/>
  </clipPath>
 </defs>
</svg>
